<svg width="325" height="355" viewBox="0 0 325 355" fill="none" xmlns="http://www.w3.org/2000/svg">
<g filter="url(#filter0_d_676_5697)">
<rect x="9" y="7" width="307.027" height="337.297" rx="12" fill="#261F32"/>
</g>
<path d="M37.3821 48V35.4201H45.183V37.0541H39.2801V40.887H44.6241V42.5147H39.2801V48H37.3821ZM50.7436 48.1904C49.814 48.1904 49.0134 47.9918 48.3418 47.5946C47.6743 47.1933 47.1584 46.6302 46.7939 45.9054C46.4336 45.1765 46.2534 44.3227 46.2534 43.344C46.2534 42.3776 46.4336 41.5258 46.7939 40.7887C47.1584 40.0516 47.6662 39.4762 48.3173 39.0627C48.9725 38.6491 49.7382 38.4423 50.6146 38.4423C51.1469 38.4423 51.6629 38.5303 52.1625 38.7064C52.6621 38.8825 53.1105 39.1589 53.5077 39.5356C53.9049 39.9124 54.2182 40.4017 54.4475 41.0037C54.6768 41.6016 54.7915 42.3284 54.7915 43.1843V43.8354H47.2915V42.4595H52.9917C52.9917 41.9762 52.8934 41.5483 52.6969 41.1757C52.5003 40.7989 52.2239 40.502 51.8676 40.285C51.5155 40.068 51.1019 39.9595 50.6268 39.9595C50.1109 39.9595 49.6604 40.0864 49.2755 40.3403C48.8947 40.5901 48.5998 40.9177 48.391 41.3231C48.1862 41.7244 48.0838 42.1605 48.0838 42.6314V43.7064C48.0838 44.337 48.1944 44.8735 48.4155 45.3157C48.6408 45.758 48.954 46.0958 49.3553 46.3292C49.7567 46.5586 50.2255 46.6732 50.762 46.6732C51.1101 46.6732 51.4274 46.6241 51.7141 46.5258C52.0007 46.4234 52.2485 46.2719 52.4573 46.0713C52.6662 45.8706 52.8259 45.6228 52.9364 45.328L54.6748 45.6413C54.5355 46.1532 54.2857 46.6016 53.9254 46.9865C53.5691 47.3673 53.1207 47.6642 52.5802 47.8771C52.0437 48.086 51.4315 48.1904 50.7436 48.1904ZM59.5749 48.2088C58.9771 48.2088 58.4365 48.0983 57.9533 47.8771C57.4701 47.6519 57.0872 47.3264 56.8047 46.9005C56.5262 46.4746 56.387 45.9525 56.387 45.3342C56.387 44.8018 56.4894 44.3636 56.6941 44.0197C56.8989 43.6757 57.1753 43.4034 57.5233 43.2027C57.8714 43.002 58.2604 42.8505 58.6904 42.7482C59.1204 42.6458 59.5586 42.568 60.0049 42.5147C60.57 42.4492 61.0287 42.396 61.3808 42.355C61.733 42.31 61.9889 42.2383 62.1487 42.14C62.3084 42.0418 62.3882 41.8821 62.3882 41.6609V41.6179C62.3882 41.0815 62.2367 40.6658 61.9337 40.371C61.6347 40.0762 61.1884 39.9287 60.5946 39.9287C59.9763 39.9287 59.4889 40.0659 59.1327 40.3403C58.7805 40.6106 58.5369 40.9115 58.4017 41.2432L56.6757 40.8501C56.8804 40.2768 57.1794 39.8141 57.5725 39.4619C57.9697 39.1057 58.4263 38.8477 58.9423 38.688C59.4582 38.5242 60.0008 38.4423 60.57 38.4423C60.9468 38.4423 61.346 38.4873 61.7678 38.5774C62.1937 38.6634 62.5909 38.8231 62.9595 39.0565C63.3321 39.2899 63.6372 39.6237 63.8747 40.0577C64.1122 40.4877 64.231 41.0467 64.231 41.7346V48H62.4373V46.7101H62.3636C62.2449 46.9476 62.0668 47.181 61.8292 47.4103C61.5917 47.6396 61.2867 47.8301 60.914 47.9816C60.5414 48.1331 60.095 48.2088 59.5749 48.2088ZM59.9742 46.7346C60.482 46.7346 60.9161 46.6343 61.2764 46.4337C61.6409 46.233 61.9173 45.9709 62.1057 45.6474C62.2981 45.3198 62.3944 44.9697 62.3944 44.5971V43.3808C62.3288 43.4464 62.2019 43.5078 62.0135 43.5651C61.8292 43.6183 61.6183 43.6654 61.3808 43.7064C61.1433 43.7432 60.912 43.7781 60.6867 43.8108C60.4615 43.8395 60.2731 43.864 60.1216 43.8845C59.7654 43.9296 59.4398 44.0053 59.145 44.1118C58.8542 44.2183 58.6208 44.3718 58.4447 44.5725C58.2727 44.769 58.1867 45.0311 58.1867 45.3587C58.1867 45.8133 58.3546 46.1572 58.6904 46.3907C59.0262 46.62 59.4541 46.7346 59.9742 46.7346ZM66.6772 48V38.5651H68.4524V40.0639H68.5507C68.7227 39.5561 69.0257 39.1568 69.4598 38.8661C69.8979 38.5713 70.3934 38.4238 70.9463 38.4238C71.0609 38.4238 71.1961 38.4279 71.3517 38.4361C71.5114 38.4443 71.6363 38.4545 71.7264 38.4668V40.2236C71.6526 40.2031 71.5216 40.1806 71.3332 40.156C71.1449 40.1274 70.9565 40.113 70.7681 40.113C70.3341 40.113 69.9471 40.2052 69.6072 40.3894C69.2714 40.5696 69.0052 40.8215 68.8087 41.145C68.6121 41.4644 68.5138 41.8288 68.5138 42.2383V48H66.6772ZM80.6391 48.2088C80.0413 48.2088 79.5007 48.0983 79.0175 47.8771C78.5343 47.6519 78.1514 47.3264 77.8689 46.9005C77.5904 46.4746 77.4512 45.9525 77.4512 45.3342C77.4512 44.8018 77.5535 44.3636 77.7583 44.0197C77.963 43.6757 78.2395 43.4034 78.5875 43.2027C78.9356 43.002 79.3246 42.8505 79.7546 42.7482C80.1846 42.6458 80.6228 42.568 81.0691 42.5147C81.6342 42.4492 82.0929 42.396 82.445 42.355C82.7972 42.31 83.0531 42.2383 83.2128 42.14C83.3725 42.0418 83.4524 41.8821 83.4524 41.6609V41.6179C83.4524 41.0815 83.3009 40.6658 82.9979 40.371C82.6989 40.0762 82.2526 39.9287 81.6588 39.9287C81.0404 39.9287 80.5531 40.0659 80.1969 40.3403C79.8447 40.6106 79.601 40.9115 79.4659 41.2432L77.7399 40.8501C77.9446 40.2768 78.2436 39.8141 78.6367 39.4619C79.0339 39.1057 79.4905 38.8477 80.0065 38.688C80.5224 38.5242 81.065 38.4423 81.6342 38.4423C82.011 38.4423 82.4102 38.4873 82.832 38.5774C83.2579 38.6634 83.6551 38.8231 84.0237 39.0565C84.3963 39.2899 84.7014 39.6237 84.9389 40.0577C85.1764 40.4877 85.2952 41.0467 85.2952 41.7346V48H83.5015V46.7101H83.4278C83.3091 46.9476 83.1309 47.181 82.8934 47.4103C82.6559 47.6396 82.3508 47.8301 81.9782 47.9816C81.6056 48.1331 81.1592 48.2088 80.6391 48.2088ZM81.0384 46.7346C81.5462 46.7346 81.9802 46.6343 82.3406 46.4337C82.7051 46.233 82.9815 45.9709 83.1698 45.6474C83.3623 45.3198 83.4585 44.9697 83.4585 44.5971V43.3808C83.393 43.4464 83.2661 43.5078 83.0777 43.5651C82.8934 43.6183 82.6825 43.6654 82.445 43.7064C82.2075 43.7432 81.9762 43.7781 81.7509 43.8108C81.5257 43.8395 81.3373 43.864 81.1858 43.8845C80.8295 43.9296 80.504 44.0053 80.2092 44.1118C79.9184 44.2183 79.685 44.3718 79.5089 44.5725C79.3369 44.769 79.2509 45.0311 79.2509 45.3587C79.2509 45.8133 79.4188 46.1572 79.7546 46.3907C80.0904 46.62 80.5183 46.7346 81.0384 46.7346ZM89.578 42.398V48H87.7414V38.5651H89.5043V40.1007H89.621C89.838 39.6011 90.1779 39.1998 90.6407 38.8968C91.1075 38.5938 91.6951 38.4423 92.4036 38.4423C93.0465 38.4423 93.6095 38.5774 94.0928 38.8477C94.576 39.1138 94.9507 39.5111 95.2168 40.0393C95.483 40.5676 95.6161 41.2207 95.6161 41.9988V48H93.7795V42.2199C93.7795 41.536 93.6014 41.0016 93.2451 40.6167C92.8888 40.2277 92.3995 40.0332 91.777 40.0332C91.3511 40.0332 90.9724 40.1253 90.6407 40.3096C90.3131 40.4939 90.053 40.7641 89.8606 41.1204C89.6722 41.4726 89.578 41.8984 89.578 42.398ZM101.611 48.1843C100.85 48.1843 100.17 47.9898 99.5719 47.6007C98.9781 47.2076 98.5113 46.6486 98.1714 45.9238C97.8356 45.1949 97.6677 44.3206 97.6677 43.301C97.6677 42.2813 97.8376 41.4091 98.1775 40.6843C98.5215 39.9595 98.9924 39.4046 99.5903 39.0197C100.188 38.6347 100.866 38.4423 101.623 38.4423C102.209 38.4423 102.68 38.5405 103.036 38.7371C103.397 38.9296 103.675 39.1548 103.872 39.4128C104.072 39.6708 104.228 39.898 104.338 40.0946H104.449V35.4201H106.286V48H104.492V46.5319H104.338C104.228 46.7326 104.068 46.9619 103.859 47.2199C103.655 47.4779 103.372 47.7031 103.012 47.8956C102.651 48.088 102.184 48.1843 101.611 48.1843ZM102.017 46.6179C102.545 46.6179 102.991 46.4787 103.356 46.2002C103.724 45.9177 104.003 45.5266 104.191 45.027C104.384 44.5274 104.48 43.9459 104.48 43.2826C104.48 42.6274 104.386 42.0541 104.197 41.5627C104.009 41.0713 103.732 40.6884 103.368 40.414C103.003 40.1396 102.553 40.0025 102.017 40.0025C101.464 40.0025 101.003 40.1458 100.635 40.4324C100.266 40.7191 99.9875 41.1102 99.7991 41.6057C99.6149 42.1011 99.5227 42.6601 99.5227 43.2826C99.5227 43.9132 99.6169 44.4803 99.8053 44.984C99.9937 45.4877 100.272 45.887 100.641 46.1818C101.013 46.4726 101.472 46.6179 102.017 46.6179ZM122.146 39.3943C122.027 39.0217 121.867 38.688 121.666 38.3931C121.47 38.0942 121.234 37.8403 120.96 37.6314C120.686 37.4185 120.372 37.2568 120.02 37.1462C119.672 37.0356 119.289 36.9803 118.872 36.9803C118.163 36.9803 117.524 37.1626 116.955 37.527C116.386 37.8915 115.936 38.4259 115.604 39.1302C115.276 39.8305 115.112 40.6884 115.112 41.7039C115.112 42.7236 115.278 43.5856 115.61 44.2899C115.942 44.9943 116.396 45.5287 116.974 45.8931C117.551 46.2576 118.208 46.4398 118.945 46.4398C119.629 46.4398 120.225 46.3006 120.733 46.0221C121.245 45.7437 121.64 45.3505 121.918 44.8428C122.201 44.3309 122.342 43.7289 122.342 43.0369L122.834 43.129H119.234V41.5627H124.179V42.9939C124.179 44.0504 123.954 44.9676 123.503 45.7457C123.057 46.5197 122.438 47.1175 121.648 47.5393C120.862 47.9611 119.961 48.172 118.945 48.172C117.807 48.172 116.808 47.9099 115.948 47.3857C115.092 46.8616 114.424 46.1183 113.945 45.156C113.466 44.1896 113.227 43.043 113.227 41.7162C113.227 40.7129 113.366 39.812 113.644 39.0135C113.923 38.215 114.314 37.5373 114.818 36.9803C115.325 36.4193 115.921 35.9914 116.605 35.6966C117.293 35.3976 118.044 35.2482 118.859 35.2482C119.539 35.2482 120.172 35.3485 120.757 35.5491C121.347 35.7498 121.871 36.0344 122.33 36.4029C122.793 36.7715 123.175 37.2097 123.479 37.7174C123.782 38.2211 123.986 38.7801 124.093 39.3943H122.146ZM126.441 48V38.5651H128.216V40.0639H128.314C128.486 39.5561 128.789 39.1568 129.223 38.8661C129.661 38.5713 130.157 38.4238 130.71 38.4238C130.824 38.4238 130.96 38.4279 131.115 38.4361C131.275 38.4443 131.4 38.4545 131.49 38.4668V40.2236C131.416 40.2031 131.285 40.1806 131.097 40.156C130.908 40.1274 130.72 40.113 130.532 40.113C130.098 40.113 129.711 40.2052 129.371 40.3894C129.035 40.5696 128.769 40.8215 128.572 41.145C128.376 41.4644 128.277 41.8288 128.277 42.2383V48H126.441ZM136.808 48.1904C135.878 48.1904 135.078 47.9918 134.406 47.5946C133.739 47.1933 133.223 46.6302 132.858 45.9054C132.498 45.1765 132.318 44.3227 132.318 43.344C132.318 42.3776 132.498 41.5258 132.858 40.7887C133.223 40.0516 133.73 39.4762 134.381 39.0627C135.037 38.6491 135.802 38.4423 136.679 38.4423C137.211 38.4423 137.727 38.5303 138.227 38.7064C138.726 38.8825 139.175 39.1589 139.572 39.5356C139.969 39.9124 140.282 40.4017 140.512 41.0037C140.741 41.6016 140.856 42.3284 140.856 43.1843V43.8354H133.356V42.4595H139.056C139.056 41.9762 138.958 41.5483 138.761 41.1757C138.564 40.7989 138.288 40.502 137.932 40.285C137.58 40.068 137.166 39.9595 136.691 39.9595C136.175 39.9595 135.725 40.0864 135.34 40.3403C134.959 40.5901 134.664 40.9177 134.455 41.3231C134.25 41.7244 134.148 42.1605 134.148 42.6314V43.7064C134.148 44.337 134.259 44.8735 134.48 45.3157C134.705 45.758 135.018 46.0958 135.42 46.3292C135.821 46.5586 136.29 46.6732 136.826 46.6732C137.174 46.6732 137.492 46.6241 137.778 46.5258C138.065 46.4234 138.313 46.2719 138.522 46.0713C138.73 45.8706 138.89 45.6228 139.001 45.328L140.739 45.6413C140.6 46.1532 140.35 46.6016 139.99 46.9865C139.633 47.3673 139.185 47.6642 138.644 47.8771C138.108 48.086 137.496 48.1904 136.808 48.1904ZM146.96 48.1904C146.03 48.1904 145.23 47.9918 144.558 47.5946C143.891 47.1933 143.375 46.6302 143.01 45.9054C142.65 45.1765 142.47 44.3227 142.47 43.344C142.47 42.3776 142.65 41.5258 143.01 40.7887C143.375 40.0516 143.882 39.4762 144.533 39.0627C145.189 38.6491 145.954 38.4423 146.831 38.4423C147.363 38.4423 147.879 38.5303 148.379 38.7064C148.878 38.8825 149.327 39.1589 149.724 39.5356C150.121 39.9124 150.434 40.4017 150.664 41.0037C150.893 41.6016 151.008 42.3284 151.008 43.1843V43.8354H143.508V42.4595H149.208C149.208 41.9762 149.11 41.5483 148.913 41.1757C148.717 40.7989 148.44 40.502 148.084 40.285C147.732 40.068 147.318 39.9595 146.843 39.9595C146.327 39.9595 145.877 40.0864 145.492 40.3403C145.111 40.5901 144.816 40.9177 144.607 41.3231C144.402 41.7244 144.3 42.1605 144.3 42.6314V43.7064C144.3 44.337 144.411 44.8735 144.632 45.3157C144.857 45.758 145.17 46.0958 145.572 46.3292C145.973 46.5586 146.442 46.6732 146.978 46.6732C147.326 46.6732 147.644 46.6241 147.93 46.5258C148.217 46.4234 148.465 46.2719 148.674 46.0713C148.882 45.8706 149.042 45.6228 149.153 45.328L150.891 45.6413C150.752 46.1532 150.502 46.6016 150.142 46.9865C149.785 47.3673 149.337 47.6642 148.796 47.8771C148.26 48.086 147.648 48.1904 146.96 48.1904ZM156.577 48.1843C155.816 48.1843 155.136 47.9898 154.538 47.6007C153.944 47.2076 153.477 46.6486 153.138 45.9238C152.802 45.1949 152.634 44.3206 152.634 43.301C152.634 42.2813 152.804 41.4091 153.144 40.6843C153.488 39.9595 153.959 39.4046 154.557 39.0197C155.154 38.6347 155.832 38.4423 156.59 38.4423C157.175 38.4423 157.646 38.5405 158.002 38.7371C158.363 38.9296 158.641 39.1548 158.838 39.4128C159.039 39.6708 159.194 39.898 159.305 40.0946H159.415V35.4201H161.252V48H159.458V46.5319H159.305C159.194 46.7326 159.034 46.9619 158.826 47.2199C158.621 47.4779 158.338 47.7031 157.978 47.8956C157.618 48.088 157.151 48.1843 156.577 48.1843ZM156.983 46.6179C157.511 46.6179 157.957 46.4787 158.322 46.2002C158.69 45.9177 158.969 45.5266 159.157 45.027C159.35 44.5274 159.446 43.9459 159.446 43.2826C159.446 42.6274 159.352 42.0541 159.163 41.5627C158.975 41.0713 158.699 40.6884 158.334 40.414C157.97 40.1396 157.519 40.0025 156.983 40.0025C156.43 40.0025 155.969 40.1458 155.601 40.4324C155.232 40.7191 154.954 41.1102 154.765 41.6057C154.581 42.1011 154.489 42.6601 154.489 43.2826C154.489 43.9132 154.583 44.4803 154.772 44.984C154.96 45.4877 155.238 45.887 155.607 46.1818C155.98 46.4726 156.438 46.6179 156.983 46.6179ZM168.598 35.4201H170.902L174.907 45.199H175.054L179.059 35.4201H181.362V48H179.557V38.8968H179.44L175.73 47.9816H174.231L170.521 38.8907H170.404V48H168.598V35.4201ZM188.041 48.1904C187.111 48.1904 186.311 47.9918 185.639 47.5946C184.972 47.1933 184.456 46.6302 184.091 45.9054C183.731 45.1765 183.551 44.3227 183.551 43.344C183.551 42.3776 183.731 41.5258 184.091 40.7887C184.456 40.0516 184.963 39.4762 185.615 39.0627C186.27 38.6491 187.036 38.4423 187.912 38.4423C188.444 38.4423 188.96 38.5303 189.46 38.7064C189.959 38.8825 190.408 39.1589 190.805 39.5356C191.202 39.9124 191.515 40.4017 191.745 41.0037C191.974 41.6016 192.089 42.3284 192.089 43.1843V43.8354H184.589V42.4595H190.289C190.289 41.9762 190.191 41.5483 189.994 41.1757C189.798 40.7989 189.521 40.502 189.165 40.285C188.813 40.068 188.399 39.9595 187.924 39.9595C187.408 39.9595 186.958 40.0864 186.573 40.3403C186.192 40.5901 185.897 40.9177 185.688 41.3231C185.484 41.7244 185.381 42.1605 185.381 42.6314V43.7064C185.381 44.337 185.492 44.8735 185.713 45.3157C185.938 45.758 186.251 46.0958 186.653 46.3292C187.054 46.5586 187.523 46.6732 188.059 46.6732C188.407 46.6732 188.725 46.6241 189.011 46.5258C189.298 46.4234 189.546 46.2719 189.755 46.0713C189.963 45.8706 190.123 45.6228 190.234 45.328L191.972 45.6413C191.833 46.1532 191.583 46.6016 191.223 46.9865C190.866 47.3673 190.418 47.6642 189.877 47.8771C189.341 48.086 188.729 48.1904 188.041 48.1904ZM198.531 38.5651V40.0393H193.377V38.5651H198.531ZM194.759 36.3047H196.596V45.2297C196.596 45.586 196.649 45.8542 196.756 46.0344C196.862 46.2105 196.999 46.3313 197.167 46.3968C197.339 46.4582 197.525 46.4889 197.726 46.4889C197.873 46.4889 198.002 46.4787 198.113 46.4582C198.224 46.4378 198.31 46.4214 198.371 46.4091L198.703 47.9263C198.596 47.9672 198.445 48.0082 198.248 48.0491C198.052 48.0942 197.806 48.1188 197.511 48.1229C197.028 48.131 196.577 48.045 196.16 47.8649C195.742 47.6847 195.404 47.4062 195.146 47.0295C194.888 46.6527 194.759 46.1798 194.759 45.6106V36.3047ZM204.527 48.1904C203.598 48.1904 202.797 47.9918 202.126 47.5946C201.458 47.1933 200.942 46.6302 200.578 45.9054C200.217 45.1765 200.037 44.3227 200.037 43.344C200.037 42.3776 200.217 41.5258 200.578 40.7887C200.942 40.0516 201.45 39.4762 202.101 39.0627C202.756 38.6491 203.522 38.4423 204.398 38.4423C204.931 38.4423 205.447 38.5303 205.946 38.7064C206.446 38.8825 206.894 39.1589 207.291 39.5356C207.689 39.9124 208.002 40.4017 208.231 41.0037C208.461 41.6016 208.575 42.3284 208.575 43.1843V43.8354H201.075V42.4595H206.776C206.776 41.9762 206.677 41.5483 206.481 41.1757C206.284 40.7989 206.008 40.502 205.651 40.285C205.299 40.068 204.886 39.9595 204.411 39.9595C203.895 39.9595 203.444 40.0864 203.059 40.3403C202.678 40.5901 202.384 40.9177 202.175 41.3231C201.97 41.7244 201.868 42.1605 201.868 42.6314V43.7064C201.868 44.337 201.978 44.8735 202.199 45.3157C202.425 45.758 202.738 46.0958 203.139 46.3292C203.54 46.5586 204.009 46.6732 204.546 46.6732C204.894 46.6732 205.211 46.6241 205.498 46.5258C205.785 46.4234 206.032 46.2719 206.241 46.0713C206.45 45.8706 206.61 45.6228 206.72 45.328L208.459 45.6413C208.319 46.1532 208.07 46.6016 207.709 46.9865C207.353 47.3673 206.904 47.6642 206.364 47.8771C205.828 48.086 205.215 48.1904 204.527 48.1904ZM210.613 48V38.5651H212.388V40.0639H212.486C212.658 39.5561 212.962 39.1568 213.396 38.8661C213.834 38.5713 214.329 38.4238 214.882 38.4238C214.997 38.4238 215.132 38.4279 215.287 38.4361C215.447 38.4443 215.572 38.4545 215.662 38.4668V40.2236C215.588 40.2031 215.457 40.1806 215.269 40.156C215.081 40.1274 214.892 40.113 214.704 40.113C214.27 40.113 213.883 40.2052 213.543 40.3894C213.207 40.5696 212.941 40.8215 212.744 41.145C212.548 41.4644 212.45 41.8288 212.45 42.2383V48H210.613Z" fill="white"/>
<path d="M40.8526 64.9602C40.8083 64.5867 40.629 64.2968 40.3145 64.0904C40 63.884 39.6142 63.7808 39.1572 63.7808C38.8231 63.7808 38.5307 63.8349 38.2801 63.943C38.0319 64.0511 37.8378 64.1997 37.6978 64.3889C37.5602 64.5781 37.4914 64.7931 37.4914 65.0339C37.4914 65.2353 37.5393 65.4086 37.6351 65.5535C37.7334 65.696 37.8587 65.8152 38.011 65.911C38.1634 66.0044 38.3231 66.0818 38.4902 66.1432C38.6572 66.2022 38.8108 66.2501 38.9508 66.2869L39.7174 66.4933C39.914 66.5449 40.1327 66.6162 40.3734 66.7071C40.6167 66.798 40.8489 66.9221 41.07 67.0793C41.2936 67.2341 41.4779 67.4331 41.6228 67.6764C41.7678 67.9196 41.8403 68.2181 41.8403 68.572C41.8403 68.9798 41.7334 69.3484 41.5196 69.6776C41.3083 70.0068 40.9988 70.2685 40.5909 70.4626C40.1855 70.6567 39.6929 70.7538 39.113 70.7538C38.5725 70.7538 38.1044 70.6665 37.7088 70.4921C37.3157 70.3177 37.0061 70.0744 36.7801 69.7624C36.5565 69.4503 36.43 69.0879 36.4005 68.6751H37.344C37.3685 68.9602 37.4644 69.196 37.6314 69.3828C37.801 69.567 38.0147 69.7046 38.2727 69.7955C38.5332 69.884 38.8132 69.9282 39.113 69.9282C39.4619 69.9282 39.7752 69.8717 40.0528 69.7587C40.3304 69.6432 40.5503 69.4835 40.7125 69.2796C40.8747 69.0732 40.9558 68.8324 40.9558 68.5572C40.9558 68.3066 40.8857 68.1027 40.7457 67.9454C40.6056 67.7882 40.4214 67.6604 40.1929 67.5621C39.9644 67.4638 39.7174 67.3779 39.4521 67.3041L38.5233 67.0388C37.9336 66.8693 37.4668 66.6272 37.1228 66.3127C36.7789 65.9982 36.6069 65.5867 36.6069 65.0781C36.6069 64.6555 36.7211 64.2869 36.9496 63.9724C37.1806 63.6555 37.4902 63.4098 37.8784 63.2353C38.269 63.0584 38.7051 62.97 39.1867 62.97C39.6732 62.97 40.1056 63.0572 40.484 63.2317C40.8624 63.4036 41.1621 63.6395 41.3833 63.9393C41.6069 64.239 41.7248 64.5793 41.7371 64.9602H40.8526ZM45.5986 70.739C45.0531 70.739 44.5826 70.6186 44.187 70.3779C43.7939 70.1346 43.4905 69.7955 43.2767 69.3607C43.0654 68.9233 42.9597 68.4147 42.9597 67.8349C42.9597 67.255 43.0654 66.7439 43.2767 66.3017C43.4905 65.857 43.7878 65.5105 44.1686 65.2624C44.5519 65.0118 44.9991 64.8864 45.5101 64.8864C45.805 64.8864 46.0961 64.9356 46.3836 65.0339C46.671 65.1321 46.9327 65.2919 47.1686 65.513C47.4045 65.7317 47.5924 66.0216 47.7325 66.3828C47.8725 66.7439 47.9425 67.1887 47.9425 67.7169V68.0855H43.5789V67.3336H47.058C47.058 67.0142 46.9941 66.7292 46.8664 66.4786C46.7411 66.228 46.5617 66.0302 46.3283 65.8852C46.0973 65.7403 45.8246 65.6678 45.5101 65.6678C45.1637 65.6678 44.8639 65.7538 44.6109 65.9258C44.3602 66.0953 44.1674 66.3164 44.0322 66.5892C43.8971 66.8619 43.8295 67.1543 43.8295 67.4663V67.9675C43.8295 68.395 43.9032 68.7575 44.0507 69.0548C44.2005 69.3496 44.4082 69.5744 44.6735 69.7292C44.9389 69.8815 45.2472 69.9577 45.5986 69.9577C45.8271 69.9577 46.0335 69.9258 46.2177 69.8619C46.4045 69.7955 46.5654 69.6973 46.7005 69.567C46.8357 69.4344 46.9401 69.2697 47.0138 69.0732L47.8541 69.3091C47.7656 69.5941 47.617 69.8447 47.4082 70.0609C47.1993 70.2747 46.9413 70.4417 46.6342 70.5621C46.3271 70.6801 45.9819 70.739 45.5986 70.739ZM51.5654 70.739C51.0347 70.739 50.5777 70.6137 50.1944 70.3631C49.8111 70.1125 49.5163 69.7673 49.3099 69.3275C49.1035 68.8877 49.0003 68.3852 49.0003 67.8201C49.0003 67.2452 49.1059 66.7378 49.3172 66.298C49.531 65.8557 49.8283 65.5105 50.2091 65.2624C50.5924 65.0118 51.0396 64.8864 51.5507 64.8864C51.9487 64.8864 52.3074 64.9602 52.6268 65.1076C52.9462 65.255 53.2079 65.4614 53.4118 65.7267C53.6158 65.9921 53.7423 66.3017 53.7914 66.6555H52.9217C52.8553 66.3975 52.7079 66.169 52.4794 65.97C52.2534 65.7685 51.9487 65.6678 51.5654 65.6678C51.2263 65.6678 50.929 65.7562 50.6735 65.9331C50.4204 66.1076 50.2226 66.3545 50.0801 66.6739C49.9401 66.9909 49.8701 67.3631 49.8701 67.7906C49.8701 68.228 49.9389 68.6088 50.0765 68.9331C50.2165 69.2575 50.4131 69.5093 50.6661 69.6887C50.9217 69.868 51.2214 69.9577 51.5654 69.9577C51.7914 69.9577 51.9966 69.9184 52.1809 69.8398C52.3652 69.7611 52.5212 69.6481 52.6489 69.5007C52.7767 69.3533 52.8676 69.1764 52.9217 68.97H53.7914C53.7423 69.3041 53.6207 69.6051 53.4266 69.8729C53.2349 70.1383 52.9806 70.3496 52.6637 70.5068C52.3492 70.6616 51.9831 70.739 51.5654 70.739ZM57.3627 70.739C56.8516 70.739 56.4032 70.6174 56.0175 70.3742C55.6342 70.1309 55.3344 69.7906 55.1182 69.3533C54.9045 68.9159 54.7976 68.4049 54.7976 67.8201C54.7976 67.2304 54.9045 66.7157 55.1182 66.2759C55.3344 65.8361 55.6342 65.4946 56.0175 65.2513C56.4032 65.0081 56.8516 64.8864 57.3627 64.8864C57.8738 64.8864 58.3209 65.0081 58.7042 65.2513C59.09 65.4946 59.3897 65.8361 59.6035 66.2759C59.8197 66.7157 59.9278 67.2304 59.9278 67.8201C59.9278 68.4049 59.8197 68.9159 59.6035 69.3533C59.3897 69.7906 59.09 70.1309 58.7042 70.3742C58.3209 70.6174 57.8738 70.739 57.3627 70.739ZM57.3627 69.9577C57.7509 69.9577 58.0703 69.8582 58.3209 69.6592C58.5715 69.4602 58.757 69.1985 58.8774 68.8742C58.9978 68.5498 59.058 68.1985 59.058 67.8201C59.058 67.4417 58.9978 67.0892 58.8774 66.7624C58.757 66.4356 58.5715 66.1715 58.3209 65.97C58.0703 65.7685 57.7509 65.6678 57.3627 65.6678C56.9745 65.6678 56.6551 65.7685 56.4045 65.97C56.1539 66.1715 55.9683 66.4356 55.848 66.7624C55.7276 67.0892 55.6674 67.4417 55.6674 67.8201C55.6674 68.1985 55.7276 68.5498 55.848 68.8742C55.9683 69.1985 56.1539 69.4602 56.4045 69.6592C56.6551 69.8582 56.9745 69.9577 57.3627 69.9577ZM62.1253 67.2157V70.6211H61.2555V64.9602H62.0958V65.8447H62.1695C62.3022 65.5572 62.5037 65.3263 62.7739 65.1518C63.0442 64.9749 63.3931 64.8864 63.8206 64.8864C64.2039 64.8864 64.5393 64.9651 64.8268 65.1223C65.1142 65.2771 65.3378 65.513 65.4975 65.8299C65.6572 66.1444 65.7371 66.5425 65.7371 67.024V70.6211H64.8673V67.083C64.8673 66.6383 64.7518 66.2919 64.5209 66.0437C64.2899 65.7931 63.973 65.6678 63.57 65.6678C63.2924 65.6678 63.0442 65.728 62.8255 65.8484C62.6093 65.9688 62.4386 66.1444 62.3132 66.3754C62.1879 66.6064 62.1253 66.8864 62.1253 67.2157ZM69.464 70.739C68.9923 70.739 68.5758 70.6199 68.2147 70.3815C67.8535 70.1407 67.5709 69.8017 67.367 69.3643C67.1631 68.9245 67.0611 68.4049 67.0611 67.8054C67.0611 67.2108 67.1631 66.6948 67.367 66.2575C67.5709 65.8201 67.8547 65.4823 68.2183 65.2439C68.582 65.0056 69.0021 64.8864 69.4788 64.8864C69.8473 64.8864 70.1385 64.9479 70.3523 65.0707C70.5685 65.1911 70.7331 65.3287 70.8461 65.4835C70.9616 65.6358 71.0513 65.7611 71.1152 65.8594H71.1889V63.0732H72.0586V70.6211H71.2183V69.7513H71.1152C71.0513 69.8545 70.9604 69.9847 70.8424 70.142C70.7245 70.2968 70.5562 70.4356 70.3375 70.5584C70.1188 70.6788 69.8277 70.739 69.464 70.739ZM69.582 69.9577C69.9309 69.9577 70.2257 69.8668 70.4665 69.685C70.7073 69.5007 70.8903 69.2464 71.0156 68.9221C71.141 68.5953 71.2036 68.2181 71.2036 67.7906C71.2036 67.368 71.1422 66.9982 71.0193 66.6813C70.8965 66.3619 70.7147 66.1137 70.4739 65.9368C70.2331 65.7575 69.9358 65.6678 69.582 65.6678C69.2134 65.6678 68.9063 65.7624 68.6606 65.9516C68.4174 66.1383 68.2343 66.3926 68.1115 66.7145C67.9911 67.0339 67.9309 67.3926 67.9309 67.7906C67.9309 68.1936 67.9923 68.5597 68.1152 68.8889C68.2405 69.2157 68.4247 69.4761 68.668 69.6702C68.9137 69.8619 69.2183 69.9577 69.582 69.9577ZM75.4383 70.7538C75.0795 70.7538 74.754 70.6862 74.4616 70.5511C74.1692 70.4135 73.937 70.2157 73.765 69.9577C73.593 69.6973 73.507 69.3828 73.507 69.0142C73.507 68.6899 73.5709 68.427 73.6987 68.2255C73.8265 68.0216 73.9972 67.8619 74.211 67.7464C74.4247 67.6309 74.6606 67.5449 74.9186 67.4884C75.179 67.4294 75.4407 67.3828 75.7036 67.3484C76.0476 67.3041 76.3265 67.271 76.5402 67.2489C76.7564 67.2243 76.9137 67.1837 77.012 67.1272C77.1127 67.0707 77.1631 66.9724 77.1631 66.8324V66.8029C77.1631 66.4393 77.0636 66.1567 76.8645 65.9552C76.668 65.7538 76.3695 65.653 75.969 65.653C75.5537 65.653 75.2282 65.7439 74.9923 65.9258C74.7564 66.1076 74.5906 66.3017 74.4948 66.5081L73.6692 66.2132C73.8166 65.8693 74.0132 65.6014 74.2589 65.4098C74.507 65.2157 74.7773 65.0806 75.0697 65.0044C75.3645 64.9258 75.6545 64.8864 75.9395 64.8864C76.1213 64.8864 76.3301 64.9086 76.566 64.9528C76.8043 64.9946 77.0341 65.0818 77.2552 65.2145C77.4788 65.3471 77.6643 65.5474 77.8117 65.8152C77.9591 66.083 78.0328 66.4417 78.0328 66.8914V70.6211H77.1631V69.8545H77.1188C77.0599 69.9774 76.9616 70.1088 76.824 70.2489C76.6864 70.3889 76.5034 70.5081 76.2749 70.6064C76.0464 70.7046 75.7675 70.7538 75.4383 70.7538ZM75.5709 69.9724C75.9149 69.9724 76.2048 69.9049 76.4407 69.7697C76.679 69.6346 76.8584 69.4602 76.9788 69.2464C77.1016 69.0326 77.1631 68.8078 77.1631 68.572V67.7759C77.1262 67.8201 77.0451 67.8607 76.9198 67.8975C76.797 67.9319 76.6545 67.9626 76.4923 67.9896C76.3326 68.0142 76.1766 68.0363 76.0242 68.056C75.8744 68.0732 75.7527 68.0879 75.6594 68.1002C75.4333 68.1297 75.222 68.1776 75.0255 68.2439C74.8314 68.3078 74.6741 68.4049 74.5537 68.5351C74.4358 68.6629 74.3768 68.8373 74.3768 69.0584C74.3768 69.3607 74.4886 69.5892 74.7122 69.7439C74.9383 69.8963 75.2245 69.9724 75.5709 69.9724ZM79.6204 70.6211V64.9602H80.4607V65.8152H80.5196C80.6228 65.5351 80.8096 65.3078 81.0798 65.1334C81.3501 64.9589 81.6548 64.8717 81.9938 64.8717C82.0577 64.8717 82.1376 64.8729 82.2334 64.8754C82.3292 64.8779 82.4017 64.8815 82.4508 64.8864V65.771C82.4214 65.7636 82.3538 65.7525 82.2481 65.7378C82.1449 65.7206 82.0356 65.712 81.9201 65.712C81.6449 65.712 81.3992 65.7697 81.183 65.8852C80.9693 65.9982 80.7997 66.1555 80.6744 66.357C80.5516 66.556 80.4902 66.7833 80.4902 67.0388V70.6211H79.6204ZM84.2144 72.7439C84.0669 72.7439 83.9355 72.7317 83.82 72.7071C83.7045 72.685 83.6247 72.6629 83.5804 72.6407L83.8016 71.8742C84.0129 71.9282 84.1996 71.9479 84.3618 71.9331C84.5239 71.9184 84.6677 71.8459 84.793 71.7157C84.9207 71.5879 85.0375 71.3803 85.1431 71.0928L85.3053 70.6506L83.2119 64.9602H84.1554L85.718 69.4712H85.777L87.3397 64.9602H88.2832L85.8802 71.4466C85.7721 71.739 85.6382 71.981 85.4785 72.1727C85.3188 72.3668 85.1333 72.5105 84.922 72.6039C84.7131 72.6973 84.4773 72.7439 84.2144 72.7439ZM94.812 64.9602V65.6973H91.8784V64.9602H94.812ZM92.7334 63.6039H93.6032V68.9995C93.6032 69.2452 93.6388 69.4294 93.7101 69.5523C93.7838 69.6727 93.8771 69.7538 93.9902 69.7955C94.1056 69.8349 94.2273 69.8545 94.355 69.8545C94.4508 69.8545 94.5295 69.8496 94.5909 69.8398C94.6523 69.8275 94.7015 69.8177 94.7383 69.8103L94.9152 70.5916C94.8562 70.6137 94.7739 70.6358 94.6683 70.6579C94.5626 70.6825 94.4287 70.6948 94.2666 70.6948C94.0209 70.6948 93.7801 70.642 93.5442 70.5363C93.3108 70.4307 93.1167 70.2697 92.9619 70.0535C92.8096 69.8373 92.7334 69.5646 92.7334 69.2353V63.6039ZM98.433 70.739C97.8876 70.739 97.4171 70.6186 97.0215 70.3779C96.6284 70.1346 96.3249 69.7955 96.1112 69.3607C95.8999 68.9233 95.7942 68.4147 95.7942 67.8349C95.7942 67.255 95.8999 66.7439 96.1112 66.3017C96.3249 65.857 96.6222 65.5105 97.0031 65.2624C97.3863 65.0118 97.8335 64.8864 98.3446 64.8864C98.6394 64.8864 98.9306 64.9356 99.218 65.0339C99.5055 65.1321 99.7672 65.2919 100.003 65.513C100.239 65.7317 100.427 66.0216 100.567 66.3828C100.707 66.7439 100.777 67.1887 100.777 67.7169V68.0855H96.4134V67.3336H99.8925C99.8925 67.0142 99.8286 66.7292 99.7008 66.4786C99.5755 66.228 99.3962 66.0302 99.1628 65.8852C98.9318 65.7403 98.6591 65.6678 98.3446 65.6678C97.9981 65.6678 97.6984 65.7538 97.4453 65.9258C97.1947 66.0953 97.0018 66.3164 96.8667 66.5892C96.7316 66.8619 96.664 67.1543 96.664 67.4663V67.9675C96.664 68.395 96.7377 68.7575 96.8851 69.0548C97.035 69.3496 97.2426 69.5744 97.508 69.7292C97.7733 69.8815 98.0817 69.9577 98.433 69.9577C98.6615 69.9577 98.8679 69.9258 99.0522 69.8619C99.2389 69.7955 99.3999 69.6973 99.535 69.567C99.6701 69.4344 99.7746 69.2697 99.8483 69.0732L100.689 69.3091C100.6 69.5941 100.451 69.8447 100.243 70.0609C100.034 70.2747 99.7758 70.4417 99.4687 70.5621C99.1615 70.6801 98.8163 70.739 98.433 70.739ZM102.597 64.9602L103.953 67.2747L105.309 64.9602H106.312L104.484 67.7906L106.312 70.6211H105.309L103.953 68.4245L102.597 70.6211H101.594L103.393 67.7906L101.594 64.9602H102.597ZM110.015 64.9602V65.6973H107.081V64.9602H110.015ZM107.936 63.6039H108.806V68.9995C108.806 69.2452 108.842 69.4294 108.913 69.5523C108.986 69.6727 109.08 69.7538 109.193 69.7955C109.308 69.8349 109.43 69.8545 109.558 69.8545C109.654 69.8545 109.732 69.8496 109.794 69.8398C109.855 69.8275 109.904 69.8177 109.941 69.8103L110.118 70.5916C110.059 70.6137 109.977 70.6358 109.871 70.6579C109.765 70.6825 109.631 70.6948 109.469 70.6948C109.224 70.6948 108.983 70.642 108.747 70.5363C108.513 70.4307 108.319 70.2697 108.165 70.0535C108.012 69.8373 107.936 69.5646 107.936 69.2353V63.6039Z" fill="#BDBDBD"/>
<circle cx="275.378" cy="41.5932" r="10.3784" fill="#4F4F4F"/>
<rect x="273.649" y="39.2869" width="3.45945" height="9.22521" rx="1.72973" fill="#261F32"/>
<rect x="273.649" y="34.6738" width="3.45945" height="3.45945" rx="1.72973" fill="#261F32"/>
<path d="M9 94.3513H316.027" stroke="#4F4F4F" stroke-width="1.72973"/>
<path d="M55.5553 304.529C55.5111 304.155 55.3317 303.865 55.0172 303.659C54.7027 303.452 54.317 303.349 53.86 303.349C53.5258 303.349 53.2335 303.403 52.9828 303.511C52.7347 303.619 52.5406 303.768 52.4005 303.957C52.2629 304.146 52.1941 304.361 52.1941 304.602C52.1941 304.804 52.2421 304.977 52.3379 305.122C52.4362 305.264 52.5615 305.384 52.7138 305.479C52.8661 305.573 53.0258 305.65 53.1929 305.712C53.36 305.771 53.5135 305.818 53.6536 305.855L54.4202 306.062C54.6167 306.113 54.8354 306.185 55.0762 306.275C55.3194 306.366 55.5516 306.49 55.7728 306.648C55.9964 306.802 56.1806 307.001 56.3256 307.245C56.4706 307.488 56.543 307.787 56.543 308.14C56.543 308.548 56.4362 308.917 56.2224 309.246C56.0111 309.575 55.7015 309.837 55.2936 310.031C54.8882 310.225 54.3956 310.322 53.8158 310.322C53.2752 310.322 52.8072 310.235 52.4116 310.06C52.0185 309.886 51.7089 309.643 51.4828 309.331C51.2593 309.019 51.1327 308.656 51.1032 308.244H52.0467C52.0713 308.529 52.1671 308.764 52.3342 308.951C52.5037 309.135 52.7175 309.273 52.9755 309.364C53.2359 309.452 53.516 309.497 53.8158 309.497C54.1647 309.497 54.4779 309.44 54.7556 309.327C55.0332 309.212 55.2531 309.052 55.4153 308.848C55.5774 308.642 55.6585 308.401 55.6585 308.126C55.6585 307.875 55.5885 307.671 55.4484 307.514C55.3084 307.357 55.1241 307.229 54.8956 307.13C54.6671 307.032 54.4202 306.946 54.1548 306.872L53.2261 306.607C52.6364 306.438 52.1696 306.196 51.8256 305.881C51.4816 305.567 51.3096 305.155 51.3096 304.646C51.3096 304.224 51.4239 303.855 51.6524 303.541C51.8833 303.224 52.1929 302.978 52.5811 302.804C52.9718 302.627 53.4079 302.538 53.8895 302.538C54.376 302.538 54.8084 302.626 55.1868 302.8C55.5651 302.972 55.8649 303.208 56.086 303.508C56.3096 303.807 56.4276 304.148 56.4398 304.529H55.5553ZM60.3013 310.307C59.7559 310.307 59.2854 310.187 58.8898 309.946C58.4967 309.703 58.1932 309.364 57.9795 308.929C57.7682 308.492 57.6625 307.983 57.6625 307.403C57.6625 306.823 57.7682 306.312 57.9795 305.87C58.1932 305.425 58.4905 305.079 58.8714 304.831C59.2546 304.58 59.7018 304.455 60.2129 304.455C60.5077 304.455 60.7989 304.504 61.0863 304.602C61.3738 304.701 61.6355 304.86 61.8714 305.081C62.1072 305.3 62.2952 305.59 62.4352 305.951C62.5753 306.312 62.6453 306.757 62.6453 307.285V307.654H58.2817V306.902H61.7608C61.7608 306.583 61.6969 306.298 61.5691 306.047C61.4438 305.796 61.2645 305.599 61.0311 305.454C60.8001 305.309 60.5274 305.236 60.2129 305.236C59.8664 305.236 59.5667 305.322 59.3136 305.494C59.063 305.664 58.8701 305.885 58.735 306.158C58.5999 306.43 58.5323 306.723 58.5323 307.035V307.536C58.5323 307.963 58.606 308.326 58.7534 308.623C58.9033 308.918 59.1109 309.143 59.3763 309.298C59.6416 309.45 59.95 309.526 60.3013 309.526C60.5298 309.526 60.7362 309.494 60.9205 309.43C61.1072 309.364 61.2682 309.266 61.4033 309.135C61.5384 309.003 61.6429 308.838 61.7166 308.642L62.5569 308.877C62.4684 309.162 62.3198 309.413 62.1109 309.629C61.9021 309.843 61.6441 310.01 61.337 310.13C61.0298 310.248 60.6846 310.307 60.3013 310.307ZM64.8382 302.642V310.189H63.9684V302.642H64.8382ZM67.301 302.642V310.189H66.4312V302.642H67.301Z" fill="white"/>
<circle cx="39.7027" cy="307.54" r="3.89189" fill="#F94144"/>
<path d="M125.806 310.189V302.642H128.445C128.971 302.642 129.404 302.732 129.746 302.914C130.087 303.094 130.342 303.336 130.509 303.64C130.676 303.943 130.759 304.278 130.759 304.646C130.759 304.971 130.702 305.239 130.586 305.45C130.473 305.661 130.323 305.828 130.136 305.951C129.952 306.074 129.752 306.165 129.536 306.224V306.298C129.767 306.312 129.999 306.393 130.232 306.541C130.466 306.688 130.661 306.9 130.818 307.175C130.976 307.45 131.054 307.787 131.054 308.185C131.054 308.563 130.968 308.903 130.796 309.205C130.624 309.508 130.353 309.747 129.982 309.924C129.611 310.101 129.128 310.189 128.533 310.189H125.806ZM126.72 309.379H128.533C129.13 309.379 129.554 309.263 129.805 309.032C130.058 308.799 130.184 308.516 130.184 308.185C130.184 307.929 130.119 307.693 129.989 307.477C129.859 307.258 129.673 307.084 129.433 306.954C129.192 306.821 128.907 306.755 128.577 306.755H126.72V309.379ZM126.72 305.958H128.415C128.69 305.958 128.939 305.904 129.16 305.796C129.383 305.688 129.56 305.536 129.69 305.339C129.823 305.143 129.89 304.912 129.89 304.646C129.89 304.315 129.774 304.033 129.543 303.802C129.312 303.569 128.946 303.452 128.445 303.452H126.72V305.958ZM136.006 307.875V304.529H136.875V310.189H136.006V309.231H135.947C135.814 309.519 135.608 309.763 135.327 309.965C135.047 310.164 134.694 310.263 134.266 310.263C133.912 310.263 133.598 310.186 133.323 310.031C133.047 309.874 132.831 309.638 132.674 309.323C132.517 309.006 132.438 308.607 132.438 308.126V304.529H133.308V308.067C133.308 308.479 133.423 308.809 133.654 309.054C133.888 309.3 134.185 309.423 134.546 309.423C134.762 309.423 134.982 309.368 135.206 309.257C135.432 309.146 135.621 308.977 135.773 308.748C135.928 308.52 136.006 308.229 136.006 307.875ZM139.029 312.312C138.881 312.312 138.75 312.3 138.634 312.275C138.519 312.253 138.439 312.231 138.395 312.209L138.616 311.443C138.827 311.497 139.014 311.516 139.176 311.501C139.338 311.487 139.482 311.414 139.607 311.284C139.735 311.156 139.852 310.949 139.957 310.661L140.12 310.219L138.026 304.529H138.97L140.532 309.04H140.591L142.154 304.529H143.097L140.694 311.015C140.586 311.307 140.452 311.549 140.293 311.741C140.133 311.935 139.948 312.079 139.736 312.172C139.527 312.266 139.292 312.312 139.029 312.312Z" fill="white"/>
<circle cx="114.081" cy="307.54" r="3.89189" fill="#F3722C"/>
<path d="M44 240.486C44 224.926 47.0648 209.519 53.0193 195.143C58.9738 180.768 67.7014 167.706 78.7039 156.704C89.7064 145.701 102.768 136.973 117.144 131.019C131.519 125.064 146.927 122 162.487 122C178.046 122 193.454 125.064 207.829 131.019C222.205 136.973 235.267 145.701 246.269 156.704C257.272 167.706 265.999 180.768 271.954 195.143C277.908 209.519 280.973 224.926 280.973 240.486L233.729 240.486C233.729 231.131 231.886 221.867 228.306 213.223C224.725 204.58 219.478 196.726 212.862 190.111C206.247 183.495 198.393 178.247 189.75 174.667C181.106 171.087 171.842 169.244 162.487 169.244C153.131 169.244 143.867 171.087 135.223 174.667C126.58 178.247 118.726 183.495 112.111 190.11C105.495 196.726 100.248 204.58 96.6675 213.223C93.0873 221.867 91.2445 231.131 91.2445 240.486L44 240.486Z" fill="#F94144"/>
<path d="M43.5946 240.514C43.5946 209.733 55.5726 180.161 76.9929 158.057C98.4132 135.953 127.594 123.052 158.359 122.086L159.843 169.303C141.344 169.884 123.798 177.641 110.918 190.933C98.0375 204.224 90.8352 222.005 90.8352 240.514L43.5946 240.514Z" fill="#F3722C"/>
<circle cx="162.5" cy="239.5" r="5.5" fill="white"/>
<line x1="161.086" y1="239.594" x2="185.086" y2="185.594" stroke="white" stroke-width="2"/>
<path d="M186.984 180.639L187.736 187.618L181.316 184.779L186.984 180.639Z" fill="white"/>
<defs>
<filter id="filter0_d_676_5697" x="0.351351" y="0.0810806" width="324.324" height="354.595" filterUnits="userSpaceOnUse" color-interpolation-filters="sRGB">
<feFlood flood-opacity="0" result="BackgroundImageFix"/>
<feColorMatrix in="SourceAlpha" type="matrix" values="0 0 0 0 0 0 0 0 0 0 0 0 0 0 0 0 0 0 127 0" result="hardAlpha"/>
<feOffset dy="1.72973"/>
<feGaussianBlur stdDeviation="4.32432"/>
<feComposite in2="hardAlpha" operator="out"/>
<feColorMatrix type="matrix" values="0 0 0 0 0 0 0 0 0 0 0 0 0 0 0 0 0 0 0.1 0"/>
<feBlend mode="normal" in2="BackgroundImageFix" result="effect1_dropShadow_676_5697"/>
<feBlend mode="normal" in="SourceGraphic" in2="effect1_dropShadow_676_5697" result="shape"/>
</filter>
</defs>
</svg>
