<svg width="30" height="23" viewBox="0 0 30 23" fill="none" xmlns="http://www.w3.org/2000/svg">
<path d="M2.88617 10.314H28.2877C28.6245 10.314 28.9476 10.4325 29.1858 10.6435C29.424 10.8544 29.5578 11.1406 29.5578 11.439C29.5578 11.7373 29.424 12.0235 29.1858 12.2345C28.9476 12.4454 28.6245 12.564 28.2877 12.564H2.88617C2.54932 12.564 2.22627 12.4454 1.98809 12.2345C1.7499 12.0235 1.61609 11.7373 1.61609 11.439C1.61609 11.1406 1.7499 10.8544 1.98809 10.6435C2.22627 10.4325 2.54932 10.314 2.88617 10.314Z" fill="white"/>
<path d="M3.41198 11.4389L13.946 20.7674C14.1845 20.9787 14.3185 21.2652 14.3185 21.5639C14.3185 21.8627 14.1845 22.1492 13.946 22.3604C13.7075 22.5717 13.3841 22.6903 13.0468 22.6903C12.7095 22.6903 12.3861 22.5717 12.1476 22.3604L0.716882 12.2354C0.598605 12.1309 0.504765 12.0068 0.440736 11.8701C0.376708 11.7334 0.34375 11.5869 0.34375 11.4389C0.34375 11.2909 0.376708 11.1444 0.440736 11.0077C0.504765 10.8711 0.598605 10.7469 0.716882 10.6424L12.1476 0.517421C12.3861 0.306176 12.7095 0.1875 13.0468 0.1875C13.3841 0.1875 13.7075 0.306176 13.946 0.517421C14.1845 0.728666 14.3185 1.01518 14.3185 1.31392C14.3185 1.61267 14.1845 1.89918 13.946 2.11042L3.41198 11.4389Z" fill="white"/>
</svg>
