<svg width="18" height="18" viewBox="0 0 18 18" fill="none" xmlns="http://www.w3.org/2000/svg">
<g id="ArrowDown" clip-path="url(#clip0_676_5308)">
<path id="Vector" d="M7.47703 14.4609L2.41453 9.39841C2.36223 9.34617 2.32074 9.28413 2.29243 9.21585C2.26413 9.14756 2.24956 9.07436 2.24956 9.00044C2.24956 8.92652 2.26413 8.85332 2.29243 8.78504C2.32074 8.71675 2.36223 8.65471 2.41453 8.60247L7.47703 3.53997C7.5557 3.46122 7.65597 3.40757 7.76514 3.38583C7.87431 3.36409 7.98748 3.37523 8.09032 3.41784C8.19316 3.46045 8.28104 3.53262 8.34284 3.6252C8.40464 3.71779 8.43759 3.82663 8.4375 3.93794L8.4375 8.43794L15.1875 8.43794C15.3367 8.43794 15.4798 8.49721 15.5852 8.6027C15.6907 8.70818 15.75 8.85126 15.75 9.00044C15.75 9.14963 15.6907 9.2927 15.5852 9.39819C15.4798 9.50368 15.3367 9.56294 15.1875 9.56294L8.4375 9.56294L8.4375 14.0629C8.43759 14.1743 8.40464 14.2831 8.34284 14.3757C8.28104 14.4683 8.19316 14.5404 8.09032 14.583C7.98748 14.6257 7.87431 14.6368 7.76514 14.6151C7.65597 14.5933 7.5557 14.5397 7.47703 14.4609Z" fill="white"/>
</g>
<defs>
<clipPath id="clip0_676_5308">
<rect width="18" height="18" fill="white" transform="translate(18) rotate(90)"/>
</clipPath>
</defs>
</svg>
