<svg width="44" height="44" viewBox="0 0 44 44" fill="none" xmlns="http://www.w3.org/2000/svg">
<g id="basil:cross-solid">
<path id="Vector" d="M29.4543 16.4912C29.5857 16.3644 29.6905 16.2127 29.7627 16.045C29.8348 15.8773 29.8728 15.6969 29.8745 15.5143C29.8762 15.3318 29.8415 15.1507 29.7724 14.9817C29.7034 14.8126 29.6013 14.6591 29.4723 14.5299C29.3433 14.4008 29.1898 14.2986 29.0208 14.2294C28.8519 14.1602 28.6708 14.1253 28.4883 14.1268C28.3057 14.1283 28.1253 14.1661 27.9575 14.2381C27.7897 14.3101 27.6379 14.4148 27.511 14.546L22 20.0552L16.4908 14.546C16.3649 14.4109 16.2131 14.3026 16.0445 14.2274C15.8758 14.1523 15.6937 14.1119 15.5091 14.1086C15.3245 14.1054 15.1411 14.1393 14.9699 14.2085C14.7987 14.2776 14.6432 14.3806 14.5126 14.5111C14.382 14.6417 14.2791 14.7972 14.2099 14.9684C14.1408 15.1396 14.1068 15.323 14.1101 15.5077C14.1133 15.6923 14.1537 15.8744 14.2289 16.043C14.304 16.2117 14.4124 16.3635 14.5475 16.4894L20.053 22.0004L14.5438 27.5095C14.3009 27.7702 14.1687 28.1149 14.175 28.4711C14.1813 28.8274 14.3256 29.1672 14.5775 29.4192C14.8294 29.6711 15.1693 29.8154 15.5255 29.8217C15.8818 29.828 16.2265 29.6957 16.4872 29.4529L22 23.9437L27.5092 29.4547C27.7698 29.6976 28.1146 29.8298 28.4708 29.8235C28.827 29.8172 29.1669 29.6729 29.4188 29.421C29.6707 29.1691 29.815 28.8292 29.8213 28.473C29.8276 28.1168 29.6954 27.772 29.4525 27.5114L23.947 22.0004L29.4543 16.4912Z" fill="#868391"/>
</g>
</svg>
