<svg width="16" height="16" viewBox="0 0 16 16" fill="none" xmlns="http://www.w3.org/2000/svg">
<g id="bi:chevron-up">
<path id="Vector" fill-rule="evenodd" clip-rule="evenodd" d="M8.35404 11.3551C8.30759 11.4016 8.25242 11.4386 8.19167 11.4638C8.13093 11.489 8.06581 11.502 8.00004 11.502C7.93427 11.502 7.86915 11.489 7.80841 11.4638C7.74766 11.4386 7.69249 11.4016 7.64604 11.3551L1.64604 5.35506C1.55215 5.26117 1.49941 5.13383 1.49941 5.00106C1.49941 4.86828 1.55215 4.74095 1.64604 4.64706C1.73993 4.55317 1.86727 4.50043 2.00004 4.50043C2.13282 4.50043 2.26015 4.55317 2.35404 4.64706L8.00004 10.2941L13.646 4.64706C13.7399 4.55317 13.8673 4.50043 14 4.50043C14.1328 4.50043 14.2602 4.55317 14.354 4.64706C14.4479 4.74095 14.5007 4.86828 14.5007 5.00106C14.5007 5.13384 14.4479 5.26117 14.354 5.35506L8.35404 11.3551Z" fill="white"/>
</g>
</svg>
