<svg width="24" height="24" viewBox="0 0 24 24" fill="none" xmlns="http://www.w3.org/2000/svg">
<rect width="24" height="24" fill="#F5F5F5"/>
<g id="home" clip-path="url(#clip0_0_1)">
<rect width="1440" height="2119" transform="translate(-1089 -204)" fill="#17121F"/>
<g id="Frame 39851">
<g id="saved">
<rect id="Rectangle 50" x="-16" y="-101" width="307" height="389" rx="16" fill="#261F32"/>
<g id="Frame 39855">
<g id="row1">
<g id="Frame 39854">
<g id="bitcoin-logo-svgrepo-com 1" clip-path="url(#clip1_0_1)">
<path id="Vector" d="M23.6385 14.9031C22.0357 21.3317 15.5242 25.2437 9.09484 23.641C2.66847 22.0382 -1.24391 15.5267 0.359217 9.09847C1.96122 2.6691 8.47234 -1.24365 14.8998 0.359098C21.3288 1.96185 25.2412 8.4741 23.6385 14.9031Z" fill="#F7931A"/>
<path id="Vector_2" d="M17.2895 10.2908C17.528 8.69402 16.3122 7.83564 14.6499 7.26302L15.1891 5.10002L13.8721 4.77189L13.3471 6.87789C13.0014 6.79164 12.6459 6.71027 12.2926 6.62964L12.8214 4.50977L11.5055 4.18164L10.9659 6.34389C10.6794 6.27864 10.3981 6.21414 10.1251 6.14627L10.1266 6.13952L8.31087 5.68614L7.96062 7.09239C7.96062 7.09239 8.93749 7.31627 8.91687 7.33014C9.45012 7.46327 9.54687 7.81614 9.53037 8.09589L8.91612 10.56C8.95287 10.5694 9.00049 10.5829 9.05299 10.6039L8.91424 10.5694L8.05287 14.0213C7.98762 14.1833 7.82224 14.4263 7.44949 14.334C7.46262 14.3531 6.49249 14.0951 6.49249 14.0951L5.83887 15.6026L7.55262 16.0298C7.87137 16.1096 8.18374 16.1933 8.49087 16.272L7.94599 18.4601L9.26112 18.7883L9.80112 16.6238C10.16 16.7213 10.5087 16.8113 10.85 16.896L10.3122 19.0504L11.6289 19.3785L12.1737 17.1949C14.4189 17.6198 16.1075 17.4484 16.8174 15.4181C17.39 13.7831 16.7892 12.84 15.608 12.2246C16.4682 12.0255 17.1166 11.4596 17.2895 10.2908ZM14.2809 14.5091C13.8736 16.1441 11.1211 15.2606 10.2282 15.0386L10.9512 12.1403C11.8437 12.363 14.705 12.804 14.2809 14.5091ZM14.6877 10.2671C14.3165 11.7544 12.0252 10.9988 11.2816 10.8135L11.9371 8.18477C12.6807 8.37002 15.0747 8.71577 14.6877 10.2671Z" fill="white"/>
</g>
</g>
</g>
</g>
</g>
</g>
</g>
<defs>
<clipPath id="clip0_0_1">
<rect width="1440" height="2119" fill="white" transform="translate(-1089 -204)"/>
</clipPath>
<clipPath id="clip1_0_1">
<rect width="24" height="24" fill="white"/>
</clipPath>
</defs>
</svg>
