<svg width="16" height="17" viewBox="0 0 16 17" fill="none" xmlns="http://www.w3.org/2000/svg">
<g id="Bold / Money / Verified Check">
<path id="Subtract" fill-rule="evenodd" clip-rule="evenodd" d="M6.39498 2.63343C6.23263 2.77179 6.15144 2.84097 6.06475 2.89908C5.86601 3.03228 5.64282 3.12473 5.40811 3.17107C5.30571 3.19128 5.1994 3.19977 4.98676 3.21674C4.4525 3.25937 4.18538 3.28069 3.96251 3.3594C3.44705 3.54147 3.04159 3.94692 2.85953 4.46239C2.78081 4.68525 2.75949 4.95238 2.71686 5.48664C2.69989 5.69927 2.6914 5.80559 2.67119 5.90799C2.62485 6.1427 2.5324 6.36589 2.3992 6.56463C2.34109 6.65132 2.27191 6.7325 2.13356 6.89485C1.78593 7.30277 1.61211 7.50674 1.51018 7.71999C1.27444 8.21322 1.27444 8.78662 1.51018 9.27985C1.61211 9.4931 1.78593 9.69706 2.13356 10.105C2.2719 10.2673 2.34109 10.3485 2.3992 10.4352C2.5324 10.6339 2.62485 10.8571 2.67119 11.0919C2.6914 11.1942 2.69989 11.3006 2.71686 11.5132C2.75949 12.0475 2.78081 12.3146 2.85953 12.5374C3.04159 13.0529 3.44705 13.4584 3.96251 13.6404C4.18538 13.7192 4.4525 13.7405 4.98676 13.7831C5.1994 13.8001 5.30571 13.8086 5.40811 13.8288C5.64282 13.8751 5.86601 13.9676 6.06475 14.1008C6.15144 14.1589 6.23262 14.228 6.39498 14.3664C6.8029 14.714 7.00686 14.8878 7.22011 14.9898C7.71334 15.2255 8.28674 15.2255 8.77997 14.9898C8.99322 14.8878 9.19718 14.714 9.6051 14.3664C9.76746 14.228 9.84864 14.1589 9.93533 14.1008C10.1341 13.9676 10.3573 13.8751 10.592 13.8288C10.6944 13.8086 10.8007 13.8001 11.0133 13.7831C11.5476 13.7405 11.8147 13.7192 12.0376 13.6404C12.553 13.4584 12.9585 13.0529 13.1406 12.5374C13.2193 12.3146 13.2406 12.0475 13.2832 11.5132C13.3002 11.3006 13.3087 11.1942 13.3289 11.0919C13.3752 10.8571 13.4677 10.6339 13.6009 10.4352C13.659 10.3485 13.7282 10.2673 13.8665 10.105C14.2142 9.69706 14.388 9.4931 14.4899 9.27985C14.7256 8.78662 14.7256 8.21322 14.4899 7.71999C14.388 7.50674 14.2142 7.30278 13.8665 6.89485C13.7282 6.7325 13.659 6.65132 13.6009 6.56463C13.4677 6.36589 13.3752 6.1427 13.3289 5.90799C13.3087 5.80559 13.3002 5.69927 13.2832 5.48664C13.2406 4.95238 13.2193 4.68525 13.1406 4.46239C12.9585 3.94692 12.553 3.54147 12.0376 3.3594C11.8147 3.28069 11.5476 3.25937 11.0133 3.21674C10.8007 3.19977 10.6944 3.19128 10.592 3.17107C10.3573 3.12473 10.1341 3.03228 9.93533 2.89908C9.84864 2.84097 9.76746 2.77179 9.6051 2.63343C9.19718 2.2858 8.99322 2.11199 8.77997 2.01006C8.28674 1.77432 7.71334 1.77432 7.22011 2.01006C7.00686 2.11199 6.80289 2.28581 6.39498 2.63343ZM10.9157 7.07534C11.1276 6.86345 11.1276 6.51992 10.9157 6.30803C10.7038 6.09614 10.3603 6.09614 10.1484 6.30803L6.91489 9.54153L5.85168 8.47832C5.63979 8.26643 5.29625 8.26643 5.08437 8.47832C4.87248 8.69021 4.87248 9.03375 5.08437 9.24564L6.53123 10.6925C6.74312 10.9044 7.08665 10.9044 7.29854 10.6925L10.9157 7.07534Z" fill="#8043F9"/>
</g>
</svg>
