<svg width="27" height="22" viewBox="0 0 27 22" fill="none" xmlns="http://www.w3.org/2000/svg">
<path id="Vector" fill-rule="evenodd" clip-rule="evenodd" d="M1.39672 0.247833C1.0772 -0.0826111 0.55916 -0.0826111 0.23964 0.247833C-0.0798801 0.578277 -0.0798801 1.11403 0.23964 1.44447L1.49627 2.74408C1.05727 3.43098 0.818182 4.24121 0.818182 5.07692V16.9231C0.818182 18.0451 1.24919 19.1212 2.01638 19.9147C2.78357 20.7081 3.82412 21.1538 4.90909 21.1538H14.7273C15.8122 21.1538 16.8527 20.7081 17.62 19.9147C17.7002 19.8316 17.7768 19.7455 17.8496 19.6565L19.8759 21.7522C20.1955 22.0826 20.7136 22.0826 21.0332 21.7522C21.3526 21.4217 21.3526 20.886 21.0332 20.5554L1.39672 0.247833ZM18.8182 5.07692V16.5726L3.77264 1.01267C4.13879 0.903154 4.52111 0.846154 4.90909 0.846154H14.7273C15.8122 0.846154 16.8527 1.29189 17.62 2.08531C18.3872 2.87873 18.8182 3.95486 18.8182 5.07692ZM20.4545 7.49692V14.5234L24.9775 18.5003C25.156 18.6574 25.3743 18.7584 25.6066 18.7912C25.8388 18.824 26.0755 18.7873 26.2882 18.6854C26.5009 18.5836 26.6811 18.4209 26.8072 18.2165C26.9334 18.0122 27.0002 17.7748 27 17.5323V4.55738C26.9997 4.31635 26.9329 4.08042 26.8076 3.8772C26.6822 3.67397 26.5035 3.51183 26.2924 3.40975C26.0813 3.30768 25.8465 3.26989 25.6153 3.3008C25.3843 3.33171 25.1663 3.43005 24.9873 3.58431L20.4545 7.49692Z" fill="#fff"/>
</svg>
