<svg width="24" height="25" viewBox="0 0 24 25" fill="none" xmlns="http://www.w3.org/2000/svg">
<path d="M21 9.5C21.8284 9.5 22.5 8.82843 22.5 8C22.5 7.17157 21.8284 6.5 21 6.5C20.1716 6.5 19.5 7.17157 19.5 8C19.5 8.82843 20.1716 9.5 21 9.5Z" fill="#848E9C"/>
<path d="M13.5 22.25H8.25V20.75H13.5C17.2222 20.75 20.25 17.7222 20.25 14V11H21.75V14C21.75 18.5487 18.0487 22.25 13.5 22.25Z" fill="#848E9C"/>
<path d="M12 16.25C9.93225 16.25 8.25 14.5677 8.25 12.5C8.25 10.4323 9.93225 8.75 12 8.75C14.0677 8.75 15.75 10.4323 15.75 12.5C15.75 14.5677 14.0677 16.25 12 16.25ZM12 10.25C10.7595 10.25 9.75 11.2595 9.75 12.5C9.75 13.7405 10.7595 14.75 12 14.75C13.2405 14.75 14.25 13.7405 14.25 12.5C14.25 11.2595 13.2405 10.25 12 10.25Z" fill="#848E9C"/>
<path d="M3 18.5C3.82843 18.5 4.5 17.8284 4.5 17C4.5 16.1716 3.82843 15.5 3 15.5C2.17157 15.5 1.5 16.1716 1.5 17C1.5 17.8284 2.17157 18.5 3 18.5Z" fill="#848E9C"/>
<path d="M3.75 14H2.25V11C2.25 6.45125 5.95125 2.75 10.5 2.75H15.75V4.25H10.5C6.77775 4.25 3.75 7.27775 3.75 11V14Z" fill="#848E9C"/>
</svg>
