<svg width="28" height="28" viewBox="0 0 28 28" fill="none" xmlns="http://www.w3.org/2000/svg">
<g id="CaretDown" clip-path="url(#clip0_164_2103)">
<path id="Vector" d="M23.558 10.1653C23.4918 10.0054 23.3797 9.86874 23.2358 9.77256C23.0919 9.67639 22.9228 9.62504 22.7497 9.625H5.24971C5.07655 9.62486 4.90725 9.67611 4.76323 9.77224C4.61921 9.86838 4.50695 10.0051 4.44067 10.1651C4.37438 10.325 4.35706 10.5011 4.39087 10.6709C4.42469 10.8407 4.50814 10.9967 4.63065 11.1191L13.3807 19.8691C13.4619 19.9504 13.5584 20.015 13.6646 20.059C13.7709 20.103 13.8847 20.1257 13.9997 20.1257C14.1147 20.1257 14.2286 20.103 14.3348 20.059C14.441 20.015 14.5375 19.9504 14.6188 19.8691L23.3688 11.1191C23.4911 10.9966 23.5744 10.8407 23.6081 10.6709C23.6417 10.5011 23.6243 10.3252 23.558 10.1653Z" fill="#726C86"/>
</g>
<defs>
<clipPath id="clip0_164_2103">
<rect width="28" height="28" fill="white"/>
</clipPath>
</defs>
</svg>
