<svg width="24" height="25" viewBox="0 0 24 25" fill="none" xmlns="http://www.w3.org/2000/svg">
<rect width="24" height="25" fill="#F5F5F5"/>
<g id="home" clip-path="url(#clip0_0_1)">
<rect width="1440" height="2119" transform="translate(-643 -664)" fill="#17121F"/>
<g id="posts">
<g id="contentCard1">
<rect x="-245" y="-496" width="645" height="609" rx="20" fill="#261F32"/>
<g id="actions">
<g id="comment">
<g id="comment_2">
<g id="ChatDots" clip-path="url(#clip1_0_1)">
<path id="Vector" d="M4.23281 22.0728C4.12357 22.1647 3.99038 22.2235 3.84887 22.2423C3.70737 22.2612 3.56343 22.2392 3.43397 22.179C3.30451 22.1189 3.1949 22.023 3.11803 21.9028C3.04116 21.7825 3.00021 21.6428 3 21.5V6.5C3 6.30109 3.07902 6.11032 3.21967 5.96967C3.36032 5.82902 3.55109 5.75 3.75 5.75H20.25C20.4489 5.75 20.6397 5.82902 20.7803 5.96967C20.921 6.11032 21 6.30109 21 6.5V18.5C21 18.6989 20.921 18.8897 20.7803 19.0303C20.6397 19.171 20.4489 19.25 20.25 19.25H7.73438C7.5577 19.25 7.38672 19.3125 7.25156 19.4262L4.23281 22.0728Z" stroke="white" stroke-linecap="round" stroke-linejoin="round"/>
<path id="Vector_2" d="M12 13.625C12.6213 13.625 13.125 13.1213 13.125 12.5C13.125 11.8787 12.6213 11.375 12 11.375C11.3787 11.375 10.875 11.8787 10.875 12.5C10.875 13.1213 11.3787 13.625 12 13.625Z" fill="white"/>
<path id="Vector_3" d="M7.875 13.625C8.49632 13.625 9 13.1213 9 12.5C9 11.8787 8.49632 11.375 7.875 11.375C7.25368 11.375 6.75 11.8787 6.75 12.5C6.75 13.1213 7.25368 13.625 7.875 13.625Z" fill="white"/>
<path id="Vector_4" d="M16.125 13.625C16.7463 13.625 17.25 13.1213 17.25 12.5C17.25 11.8787 16.7463 11.375 16.125 11.375C15.5037 11.375 15 11.8787 15 12.5C15 13.1213 15.5037 13.625 16.125 13.625Z" fill="white"/>
</g>
</g>
</g>
</g>
</g>
</g>
</g>
<defs>
<clipPath id="clip0_0_1">
<rect width="1440" height="2119" fill="white" transform="translate(-643 -664)"/>
</clipPath>
<clipPath id="clip1_0_1">
<rect width="24" height="24" fill="white" transform="translate(0 0.5)"/>
</clipPath>
</defs>
</svg>
