<svg width="140" height="140" viewBox="0 0 140 140" fill="none" xmlns="http://www.w3.org/2000/svg">
<g clip-path="url(#clip0_3819_8305)">
<path d="M119.039 95.3555C112.79 88.585 105.207 83.1818 96.7669 79.4862C88.327 75.7907 79.2134 73.8828 69.9999 73.8828C60.7864 73.8828 51.6727 75.7907 43.2329 79.4862C34.793 83.1818 27.2099 88.585 20.961 95.3555C19.9962 96.4223 19.4566 97.8061 19.4443 99.2444V122.578C19.4648 124.111 20.0884 125.575 21.1801 126.652C22.2719 127.73 23.744 128.333 25.2777 128.333H114.722C116.269 128.333 117.753 127.719 118.847 126.625C119.941 125.531 120.555 124.047 120.555 122.5V99.1666C120.524 97.7552 119.986 96.4023 119.039 95.3555Z" fill="#E3E3E3"/>
<path d="M70.0001 66.1105C85.0345 66.1105 97.2223 53.9227 97.2223 38.8882C97.2223 23.8538 85.0345 11.666 70.0001 11.666C54.9656 11.666 42.7778 23.8538 42.7778 38.8882C42.7778 53.9227 54.9656 66.1105 70.0001 66.1105Z" fill="#E3E3E3"/>
</g>
<defs>
<clipPath id="clip0_3819_8305">
<rect width="140" height="140" fill="white"/>
</clipPath>
</defs>
</svg>
