<svg width="20" height="21" viewBox="0 0 20 21" fill="none" xmlns="http://www.w3.org/2000/svg">
<g id="coinStampVerification">
<g id="Group">
<path id="Vector" d="M9.99996 19.2342C5.39746 19.2342 1.66663 15.5033 1.66663 10.9008C1.66663 6.29834 5.39746 2.5675 9.99996 2.5675C14.6025 2.5675 18.3333 6.29834 18.3333 10.9008" stroke="#8043F9" stroke-linecap="round" stroke-linejoin="round"/>
<path id="Vector_2" d="M12 8.90088C11.5433 8.44421 10.7393 8.12688 10 8.10688M10 8.10688C9.12 8.08288 8.33333 8.48088 8.33333 9.56755C8.33333 11.5675 12 10.5675 12 12.5675C12 13.7082 11.024 14.1982 10 14.1615M10 8.10688V6.90088M8 13.2342C8.42933 13.8075 9.22867 14.1342 10 14.1615M10 14.1615V15.5675" stroke="#8043F9" stroke-linecap="round" stroke-linejoin="round"/>
</g>
<path id="Vector_3" d="M19.3845 14.452C19.4949 14.3335 19.555 14.1768 19.5521 14.0149C19.5492 13.8529 19.4836 13.6984 19.3691 13.5839C19.2546 13.4694 19.1001 13.4038 18.9382 13.401C18.7763 13.3981 18.6196 13.4582 18.5011 13.5686L13.9428 18.127L11.8845 16.0686C11.766 15.9582 11.6093 15.8981 11.4473 15.901C11.2854 15.9038 11.1309 15.9694 11.0164 16.0839C10.9019 16.1984 10.8363 16.3529 10.8335 16.5149C10.8306 16.6768 10.8907 16.8335 11.0011 16.952L13.5011 19.452C13.6183 19.569 13.7772 19.6347 13.9428 19.6347C14.1084 19.6347 14.2673 19.569 14.3845 19.452L19.3845 14.452Z" fill="#8043F9"/>
</g>
</svg>
