<svg width="26" height="24" viewBox="0 0 26 24" fill="none" xmlns="http://www.w3.org/2000/svg">
<path fill-rule="evenodd" clip-rule="evenodd" d="M16.6166 0.92245V23.0779C16.6164 23.2506 16.5678 23.4198 16.4763 23.5663C16.3848 23.7128 16.254 23.8307 16.0988 23.9065C15.9436 23.9824 15.7702 24.0132 15.5984 23.9954C15.4266 23.9776 15.2632 23.912 15.1268 23.806L7.06781 17.539H1.84628C1.35662 17.539 0.88701 17.3445 0.540764 16.9982C0.194519 16.652 0 16.1824 0 15.6927V8.30759C0 7.81792 0.194519 7.34831 0.540764 7.00207C0.88701 6.65582 1.35662 6.4613 1.84628 6.4613H7.06781L15.1268 0.194322C15.2632 0.0883047 15.4266 0.0226774 15.5984 0.00490151C15.7702 -0.0128744 15.9436 0.0179142 16.0988 0.0937668C16.254 0.169619 16.3848 0.287493 16.4763 0.433986C16.5678 0.580479 16.6164 0.749714 16.6166 0.92245ZM24.3732 8.56162C24.7363 8.19849 25.3251 8.19849 25.6882 8.56162C26.0513 8.92475 26.0513 9.5135 25.6882 9.87663L23.7155 11.8493L25.6882 13.8219C26.0513 14.1851 26.0513 14.7738 25.6882 15.1369C25.3251 15.5001 24.7363 15.5001 24.3732 15.1369L22.4005 13.1643L20.4281 15.1367C20.065 15.4998 19.4762 15.4998 19.1131 15.1367C18.75 14.7736 18.75 14.1848 19.1131 13.8217L21.0855 11.8493L19.1131 9.87689C18.75 9.51376 18.75 8.92501 19.1131 8.56188C19.4763 8.19874 20.065 8.19874 20.4282 8.56188L22.4005 10.5343L24.3732 8.56162Z" fill="white"/>
</svg>
