<svg width="24" height="24" viewBox="0 0 24 24" fill="none" xmlns="http://www.w3.org/2000/svg">
<g id="Group 163005">
<circle id="Ellipse 2328" cx="12" cy="12" r="12" fill="white"/>
<g id="Group">
<path id="Vector" d="M12 8.71777V11.9998L14.0513 14.0511" stroke="black" stroke-linecap="round" stroke-linejoin="round"/>
<path id="Vector_2" d="M5.71352 7.79171L5.09813 7.79417C5.09878 7.95639 5.16345 8.11179 5.27808 8.22657C5.39271 8.34135 5.54802 8.40623 5.71024 8.4071L5.71352 7.79171ZM7.79927 8.41694C7.88008 8.41732 7.96018 8.40178 8.03498 8.3712C8.10979 8.34062 8.17784 8.29561 8.23525 8.23873C8.29266 8.18185 8.33831 8.11423 8.36958 8.03971C8.40086 7.96519 8.41715 7.88524 8.41753 7.80443C8.4179 7.72361 8.40236 7.64352 8.37178 7.56871C8.3412 7.49391 8.29619 7.42585 8.23931 7.36844C8.18244 7.31103 8.11481 7.26539 8.04029 7.23411C7.96577 7.20284 7.88582 7.18655 7.80501 7.18617L7.79927 8.41694ZM6.31824 5.6994C6.31781 5.61858 6.30146 5.53865 6.27014 5.46415C6.23881 5.38965 6.19312 5.32205 6.13567 5.26521C6.07823 5.20837 6.01014 5.16341 5.93532 5.13288C5.86049 5.10235 5.78038 5.08686 5.69957 5.08729C5.61876 5.08772 5.53882 5.10407 5.46432 5.13539C5.38982 5.16672 5.32223 5.21241 5.26539 5.26986C5.20855 5.3273 5.16358 5.39539 5.13305 5.47021C5.10252 5.54504 5.08703 5.62515 5.08746 5.70596L6.31824 5.6994ZM5.29423 11.0032C5.30603 10.9228 5.30177 10.8408 5.2817 10.762C5.26164 10.6833 5.22616 10.6093 5.17733 10.5443C5.1285 10.4793 5.06728 10.4246 4.9972 10.3834C4.92713 10.3422 4.84958 10.3153 4.76905 10.3043C4.68852 10.2932 4.6066 10.2982 4.52801 10.319C4.44943 10.3398 4.37574 10.3759 4.3112 10.4254C4.24666 10.4748 4.19256 10.5365 4.15201 10.607C4.11146 10.6774 4.08527 10.7552 4.07495 10.8358L5.29423 11.0032ZM17.6307 6.36976C14.4963 3.23539 9.43127 3.20257 6.31742 6.31724L7.18716 7.18699C9.81281 4.56216 14.0984 4.57775 16.7609 7.2395L17.6307 6.36976ZM6.36993 17.6305C9.5043 20.7649 14.5693 20.7977 17.6832 17.683L16.8134 16.8133C14.1878 19.4381 9.90225 19.4225 7.23968 16.7608L6.36993 17.6305ZM17.6832 17.683C20.7971 14.5692 20.765 9.50413 17.6307 6.36976L16.7609 7.2395C19.4227 9.90208 19.4383 14.1876 16.8134 16.8133L17.6832 17.683ZM6.31742 6.31724L5.27782 7.35602L6.14839 8.22576L7.18716 7.18699L6.31742 6.31724ZM5.71024 8.4071L7.79927 8.41694L7.80501 7.18617L5.7168 7.17632L5.71024 8.4071ZM6.3289 7.78843L6.31824 5.6994L5.08746 5.70596L5.09813 7.79417L6.3289 7.78843ZM4.07413 10.835C3.90565 12.068 4.02528 13.3232 4.42362 14.5021C4.82196 15.681 5.48817 16.7524 6.36993 17.6305L7.23968 16.7608C6.49237 16.0168 5.92776 15.1088 5.5902 14.1098C5.25264 13.1108 5.15133 12.048 5.29423 11.0032L4.07413 10.835Z" fill="black"/>
</g>
</g>
</svg>
