<svg width="27" height="20" viewBox="0 0 27 20" fill="none" xmlns="http://www.w3.org/2000/svg">
<path d="M18.3333 4.16667C18.3333 3.0616 17.8943 2.00179 17.1129 1.22039C16.3315 0.438987 15.2717 0 14.1667 0H4.16667C3.0616 0 2.00179 0.438987 1.22039 1.22039C0.438987 2.00179 0 3.0616 0 4.16667V15.8333C0 16.9384 0.438987 17.9982 1.22039 18.7796C2.00179 19.561 3.0616 20 4.16667 20H14.1667C15.2717 20 16.3315 19.561 17.1129 18.7796C17.8943 17.9982 18.3333 16.9384 18.3333 15.8333V4.16667ZM20 6.55V13.47L24.6067 17.3867C24.7885 17.5414 25.0109 17.6408 25.2475 17.6731C25.4841 17.7054 25.725 17.6693 25.9417 17.569C26.1584 17.4687 26.3418 17.3085 26.4703 17.1072C26.5988 16.906 26.6669 16.6721 26.6667 16.4333V3.655C26.6663 3.41762 26.5983 3.18527 26.4707 2.98512C26.343 2.78496 26.1611 2.62528 25.946 2.52476C25.731 2.42423 25.4918 2.38701 25.2564 2.41746C25.0209 2.4479 24.7991 2.54475 24.6167 2.69667L20 6.55Z" fill="white"/>
</svg>
