<svg width="647" height="49" viewBox="0 0 647 49" fill="none" xmlns="http://www.w3.org/2000/svg">
<g clip-path="url(#clip0_353_6216)">
<g clip-path="url(#clip1_353_6216)">
<path d="M37.8319 18.2485V19.1758H32.6379C32.6307 18.9435 32.6682 18.7202 32.7504 18.5058C32.8827 18.152 33.0935 17.8036 33.3829 17.4605C33.676 17.1175 34.0976 16.7208 34.6479 16.2706C35.502 15.5702 36.0791 15.0163 36.3793 14.6089C36.6794 14.198 36.8295 13.8103 36.8295 13.4458C36.8295 13.0634 36.6919 12.7418 36.4168 12.4809C36.1452 12.2165 35.7896 12.0843 35.3501 12.0843C34.8856 12.0843 34.5139 12.2237 34.2352 12.5024C33.9565 12.7811 33.8153 13.167 33.8117 13.6602L32.8201 13.5583C32.888 12.8186 33.1435 12.2558 33.5866 11.8699C34.0297 11.4804 34.6247 11.2856 35.3716 11.2856C36.1255 11.2856 36.7223 11.4947 37.1618 11.9128C37.6014 12.3309 37.8211 12.849 37.8211 13.4672C37.8211 13.7817 37.7568 14.0908 37.6282 14.3945C37.4995 14.6983 37.2851 15.0181 36.985 15.354C36.6884 15.6899 36.1934 16.1509 35.5002 16.7369C34.9213 17.2229 34.5497 17.5534 34.3853 17.7285C34.2209 17.9001 34.0851 18.0734 33.9779 18.2485H37.8319ZM41.9645 19.1758V17.2944H38.5555V16.4099L42.1414 11.3178H42.9294V16.4099H43.9907V17.2944H42.9294V19.1758H41.9645ZM41.9645 16.4099V12.8669L39.5042 16.4099H41.9645ZM45.2503 19.1758V11.3178H46.2151V14.1372C46.6654 13.6155 47.2336 13.3547 47.9197 13.3547C48.3413 13.3547 48.7076 13.4386 49.0185 13.6066C49.3294 13.771 49.5509 13.9997 49.6832 14.2927C49.819 14.5857 49.8869 15.0109 49.8869 15.5684V19.1758H48.922V15.5684C48.922 15.086 48.8166 14.7358 48.6058 14.5178C48.3985 14.2963 48.1037 14.1855 47.7213 14.1855C47.4355 14.1855 47.1657 14.2605 46.912 14.4106C46.6618 14.5571 46.4832 14.7572 46.3759 15.0109C46.2687 15.2647 46.2151 15.6149 46.2151 16.0615V19.1758H45.2503ZM60.1462 16.4207L61.1861 16.6833C60.9681 17.5374 60.575 18.1895 60.0068 18.6398C59.4422 19.0864 58.7508 19.3098 57.9324 19.3098C57.0855 19.3098 56.3959 19.1383 55.8634 18.7952C55.3346 18.4486 54.9308 17.9483 54.652 17.2944C54.3769 16.6404 54.2393 15.9382 54.2393 15.1878C54.2393 14.3695 54.3947 13.6566 54.7056 13.0491C55.0201 12.4381 55.465 11.9753 56.0403 11.6608C56.6192 11.3428 57.2553 11.1838 57.9485 11.1838C58.7347 11.1838 59.3958 11.3839 59.9318 11.7841C60.4678 12.1844 60.8412 12.7472 61.0521 13.4726L60.0283 13.7138C59.846 13.142 59.5816 12.7257 59.235 12.4649C58.8883 12.204 58.4524 12.0736 57.9271 12.0736C57.3232 12.0736 56.8175 12.2183 56.4102 12.5077C56.0064 12.7972 55.7223 13.1867 55.5579 13.6763C55.3935 14.1622 55.3113 14.6643 55.3113 15.1825C55.3113 15.8507 55.4078 16.435 55.6008 16.9352C55.7973 17.4319 56.1011 17.8036 56.512 18.0501C56.9229 18.2967 57.3678 18.42 57.8467 18.42C58.4292 18.42 58.9223 18.252 59.3261 17.9161C59.7299 17.5802 60.0032 17.0817 60.1462 16.4207ZM62.3492 19.1758V11.3178H63.314V14.1372C63.7643 13.6155 64.3325 13.3547 65.0186 13.3547C65.4402 13.3547 65.8065 13.4386 66.1174 13.6066C66.4283 13.771 66.6498 13.9997 66.7821 14.2927C66.9178 14.5857 66.9857 15.0109 66.9857 15.5684V19.1758H66.0209V15.5684C66.0209 15.086 65.9155 14.7358 65.7047 14.5178C65.4974 14.2963 65.2026 14.1855 64.8202 14.1855C64.5344 14.1855 64.2646 14.2605 64.0109 14.4106C63.7607 14.5571 63.582 14.7572 63.4748 15.0109C63.3676 15.2647 63.314 15.6149 63.314 16.0615V19.1758H62.3492ZM72.1744 18.4736C71.817 18.7773 71.4722 18.9917 71.1399 19.1168C70.8111 19.2419 70.4573 19.3044 70.0786 19.3044C69.4532 19.3044 68.9726 19.1526 68.6367 18.8488C68.3008 18.5415 68.1328 18.1502 68.1328 17.6749C68.1328 17.3962 68.1954 17.1425 68.3204 16.9138C68.4491 16.6815 68.6152 16.4957 68.8189 16.3563C69.0262 16.217 69.2585 16.1116 69.5157 16.0401C69.7051 15.9901 69.991 15.9418 70.3734 15.8954C71.1524 15.8025 71.7259 15.6917 72.094 15.563C72.0975 15.4308 72.0993 15.3468 72.0993 15.3111C72.0993 14.918 72.0082 14.6411 71.826 14.4803C71.5794 14.2623 71.2131 14.1533 70.7271 14.1533C70.2733 14.1533 69.9374 14.2337 69.7194 14.3945C69.505 14.5518 69.346 14.8323 69.2424 15.2361L68.299 15.1074C68.3847 14.7036 68.5259 14.3784 68.7224 14.1319C68.919 13.8817 69.2031 13.6906 69.5747 13.5583C69.9463 13.4225 70.3769 13.3547 70.8665 13.3547C71.3525 13.3547 71.7474 13.4118 72.0511 13.5262C72.3548 13.6405 72.5782 13.7853 72.7211 13.9604C72.864 14.1319 72.9641 14.3499 73.0213 14.6143C73.0534 14.7787 73.0695 15.0753 73.0695 15.5041V16.7905C73.0695 17.6874 73.0892 18.2556 73.1285 18.495C73.1714 18.7309 73.2536 18.9578 73.3751 19.1758H72.3673C72.2673 18.9757 72.203 18.7416 72.1744 18.4736ZM72.094 16.3188C71.7438 16.4618 71.2185 16.5833 70.5181 16.6833C70.1214 16.7405 69.8409 16.8048 69.6765 16.8763C69.5122 16.9477 69.3853 17.0532 69.296 17.1925C69.2066 17.3283 69.162 17.4802 69.162 17.6481C69.162 17.9054 69.2585 18.1198 69.4514 18.2914C69.648 18.4629 69.9338 18.5486 70.309 18.5486C70.6807 18.5486 71.0112 18.4682 71.3007 18.3074C71.5901 18.1431 71.8027 17.9197 71.9385 17.6374C72.0422 17.4194 72.094 17.0978 72.094 16.6726V16.3188ZM74.5704 19.1758V13.4833H75.4387V14.2927C75.8568 13.6673 76.4607 13.3547 77.2504 13.3547C77.5935 13.3547 77.908 13.4172 78.1938 13.5423C78.4833 13.6638 78.6995 13.8246 78.8424 14.0247C78.9853 14.2248 79.0854 14.4624 79.1426 14.7376C79.1783 14.9162 79.1962 15.2289 79.1962 15.6756V19.1758H78.2313V15.7131C78.2313 15.32 78.1938 15.027 78.1188 14.8341C78.0437 14.6375 77.9097 14.4821 77.7168 14.3677C77.5274 14.2498 77.304 14.1908 77.0468 14.1908C76.6358 14.1908 76.2803 14.3213 75.9801 14.5821C75.6835 14.843 75.5352 15.3379 75.5352 16.0669V19.1758H74.5704ZM80.5041 19.6475L81.4421 19.7868C81.4814 20.0763 81.5904 20.2871 81.7691 20.4193C82.0085 20.598 82.3354 20.6873 82.75 20.6873C83.1966 20.6873 83.5415 20.598 83.7845 20.4193C84.0275 20.2407 84.1918 19.9905 84.2776 19.6689C84.3276 19.4724 84.3509 19.0596 84.3473 18.4307C83.9256 18.9274 83.4003 19.1758 82.7714 19.1758C81.9888 19.1758 81.3831 18.8935 80.9543 18.3289C80.5255 17.7643 80.3111 17.0871 80.3111 16.2974C80.3111 15.7542 80.4094 15.2539 80.6059 14.7965C80.8024 14.3356 81.0865 13.98 81.4582 13.7299C81.8334 13.4797 82.2729 13.3547 82.7768 13.3547C83.4486 13.3547 84.0025 13.6262 84.4384 14.1694V13.4833H85.3282V18.4039C85.3282 19.2901 85.2371 19.9173 85.0548 20.2853C84.8762 20.657 84.5903 20.95 84.1972 21.1644C83.8077 21.3788 83.3271 21.486 82.7553 21.486C82.0764 21.486 81.5278 21.3324 81.1098 21.025C80.6917 20.7213 80.4898 20.2621 80.5041 19.6475ZM81.3027 16.2277C81.3027 16.9745 81.451 17.5195 81.7476 17.8625C82.0442 18.2056 82.4158 18.3771 82.8625 18.3771C83.3056 18.3771 83.6773 18.2074 83.9774 17.8679C84.2776 17.5249 84.4277 16.9888 84.4277 16.2599C84.4277 15.563 84.2722 15.0377 83.9614 14.684C83.654 14.3302 83.2824 14.1533 82.8464 14.1533C82.4176 14.1533 82.0531 14.3284 81.753 14.6786C81.4528 15.0252 81.3027 15.5416 81.3027 16.2277ZM90.6883 17.3426L91.6853 17.4659C91.5281 18.0484 91.2369 18.5004 90.8116 18.822C90.3864 19.1436 89.8432 19.3044 89.1821 19.3044C88.3495 19.3044 87.6884 19.0489 87.1989 18.5379C86.7129 18.0233 86.4699 17.3033 86.4699 16.3778C86.4699 15.4201 86.7165 14.6768 87.2096 14.148C87.7027 13.6191 88.3424 13.3547 89.1285 13.3547C89.8897 13.3547 90.5115 13.6137 90.9939 14.1319C91.4763 14.65 91.7175 15.379 91.7175 16.3188C91.7175 16.376 91.7157 16.4618 91.7121 16.5761H87.4669C87.5026 17.2015 87.6795 17.6803 87.9975 18.0126C88.3156 18.345 88.7122 18.5111 89.1875 18.5111C89.5413 18.5111 89.8432 18.4182 90.0934 18.2324C90.3435 18.0466 90.5418 17.75 90.6883 17.3426ZM87.5205 15.7828H90.6991C90.6562 15.304 90.5347 14.9448 90.3346 14.7054C90.0273 14.3338 89.6288 14.148 89.1393 14.148C88.6962 14.148 88.3227 14.2963 88.019 14.5928C87.7188 14.8894 87.5527 15.2861 87.5205 15.7828Z" fill="#848E9C"/>
</g>
<path d="M32.654 34.8095V33.8393H35.6181V34.8095H32.654ZM40.051 37.168H39.0861V31.0199C38.8539 31.2414 38.5483 31.463 38.1696 31.6845C37.7943 31.9061 37.4567 32.0722 37.1565 32.183V31.2504C37.6961 30.9966 38.1678 30.6893 38.5716 30.3284C38.9754 29.9675 39.2612 29.6173 39.4292 29.2778H40.051V37.168ZM43.0473 37.168V36.0691H44.1461V37.168C44.1461 37.5718 44.0747 37.8969 43.9317 38.1435C43.7888 38.3937 43.5619 38.5866 43.251 38.7224L42.983 38.3097C43.1867 38.2203 43.3367 38.0881 43.4332 37.913C43.5297 37.7415 43.5833 37.4932 43.594 37.168H43.0473ZM48.6755 37.168V35.2866H45.2664V34.4021L48.8523 29.31H49.6403V34.4021H50.7016V35.2866H49.6403V37.168H48.6755ZM48.6755 34.4021V30.8591L46.2151 34.4021H48.6755ZM51.8379 35.3509L52.7653 35.2651C52.8439 35.7011 52.994 36.0173 53.2155 36.2139C53.4371 36.4104 53.7211 36.5087 54.0678 36.5087C54.3644 36.5087 54.6234 36.4408 54.845 36.305C55.0701 36.1692 55.2542 35.9887 55.3971 35.7636C55.54 35.5349 55.6597 35.2276 55.7562 34.8417C55.8527 34.4557 55.9009 34.0627 55.9009 33.6624C55.9009 33.6195 55.8992 33.5552 55.8956 33.4695C55.7026 33.7768 55.4382 34.0269 55.1023 34.2199C54.77 34.4093 54.409 34.504 54.0195 34.504C53.3692 34.504 52.8189 34.2681 52.3686 33.7964C51.9183 33.3247 51.6932 32.703 51.6932 31.9311C51.6932 31.1342 51.9273 30.4928 52.3954 30.0068C52.8671 29.5208 53.4567 29.2778 54.1643 29.2778C54.6753 29.2778 55.1416 29.4154 55.5633 29.6906C55.9885 29.9657 56.3101 30.3588 56.5281 30.8698C56.7496 31.3772 56.8604 32.1133 56.8604 33.0782C56.8604 34.0823 56.7514 34.8828 56.5334 35.4795C56.3155 36.0727 55.9903 36.5248 55.5579 36.8356C55.1291 37.1465 54.6252 37.302 54.0463 37.302C53.4317 37.302 52.9296 37.1322 52.5401 36.7928C52.1506 36.4497 51.9166 35.9691 51.8379 35.3509ZM55.7884 31.8829C55.7884 31.329 55.6401 30.8894 55.3435 30.5643C55.0505 30.2391 54.6967 30.0765 54.2822 30.0765C53.8534 30.0765 53.4799 30.2516 53.1619 30.6018C52.8439 30.952 52.6849 31.4058 52.6849 31.9633C52.6849 32.4635 52.8349 32.8709 53.1351 33.1854C53.4388 33.4963 53.8123 33.6517 54.2554 33.6517C54.7021 33.6517 55.0683 33.4963 55.3542 33.1854C55.6437 32.8709 55.7884 32.4367 55.7884 31.8829ZM59.2886 32.9066C58.8883 32.7601 58.5917 32.5511 58.3988 32.2795C58.2058 32.0079 58.1093 31.6827 58.1093 31.304C58.1093 30.7322 58.3148 30.2516 58.7257 29.8621C59.1367 29.4726 59.6834 29.2778 60.366 29.2778C61.0521 29.2778 61.6041 29.4779 62.0222 29.8782C62.4403 30.2748 62.6494 30.759 62.6494 31.3308C62.6494 31.6953 62.5529 32.0133 62.3599 32.2849C62.1705 32.5529 61.8811 32.7601 61.4916 32.9066C61.974 33.0639 62.3403 33.3176 62.5904 33.6678C62.8441 34.018 62.971 34.4361 62.971 34.9221C62.971 35.5939 62.7334 36.1585 62.2581 36.6159C61.7828 37.0733 61.1575 37.302 60.382 37.302C59.6066 37.302 58.9812 37.0733 58.506 36.6159C58.0307 36.1549 57.7931 35.5814 57.7931 34.8953C57.7931 34.3843 57.9217 33.9572 58.179 33.6142C58.4399 33.2676 58.8097 33.0317 59.2886 32.9066ZM59.0956 31.2718C59.0956 31.6434 59.2153 31.9472 59.4547 32.183C59.6941 32.4189 60.005 32.5368 60.3874 32.5368C60.759 32.5368 61.0628 32.4207 61.2986 32.1884C61.538 31.9525 61.6578 31.6649 61.6578 31.3254C61.6578 30.9716 61.5345 30.675 61.2879 30.4356C61.0449 30.1926 60.7412 30.0711 60.3767 30.0711C60.0086 30.0711 59.7031 30.189 59.4601 30.4249C59.2171 30.6607 59.0956 30.943 59.0956 31.2718ZM58.7847 34.9006C58.7847 35.1758 58.849 35.442 58.9777 35.6993C59.1099 35.9566 59.3046 36.1567 59.5619 36.2996C59.8192 36.439 60.0962 36.5087 60.3928 36.5087C60.8537 36.5087 61.2343 36.3604 61.5345 36.0638C61.8346 35.7672 61.9847 35.3902 61.9847 34.9328C61.9847 34.4682 61.8293 34.0841 61.5184 33.7804C61.2111 33.4766 60.8251 33.3247 60.3606 33.3247C59.9068 33.3247 59.5298 33.4748 59.2296 33.775C58.933 34.0752 58.7847 34.4504 58.7847 34.9006ZM64.4558 37.168V36.0691H65.5546V37.168H64.4558ZM72.0404 36.2407V37.168H66.8464C66.8392 36.9357 66.8768 36.7124 66.9589 36.4979C67.0912 36.1442 67.302 35.7958 67.5914 35.4527C67.8845 35.1097 68.3061 34.713 68.8564 34.2628C69.7105 33.5624 70.2876 33.0085 70.5878 32.6011C70.8879 32.1902 71.038 31.8025 71.038 31.438C71.038 31.0556 70.9004 30.734 70.6253 30.4731C70.3537 30.2087 69.9982 30.0765 69.5586 30.0765C69.0941 30.0765 68.7224 30.2158 68.4437 30.4946C68.165 30.7733 68.0238 31.1592 68.0203 31.6524L67.0286 31.5505C67.0965 30.8108 67.352 30.248 67.7951 29.8621C68.2382 29.4726 68.8332 29.2778 69.5801 29.2778C70.3341 29.2778 70.9308 29.4869 71.3703 29.905C71.8099 30.3231 72.0296 30.8412 72.0296 31.4594C72.0296 31.7739 71.9653 32.083 71.8367 32.3867C71.708 32.6905 71.4936 33.0103 71.1935 33.3462C70.8969 33.6821 70.4019 34.1431 69.7087 34.7291C69.1298 35.2151 68.7582 35.5456 68.5938 35.7207C68.4294 35.8923 68.2936 36.0656 68.1864 36.2407H72.0404ZM73.0802 35.1097L74.0933 35.0239C74.1684 35.517 74.3417 35.8887 74.6132 36.1388C74.8884 36.3854 75.2189 36.5087 75.6049 36.5087C76.0694 36.5087 76.4625 36.3336 76.7841 35.9834C77.1057 35.6332 77.2665 35.1686 77.2665 34.5897C77.2665 34.0394 77.1111 33.6053 76.8002 33.2872C76.4929 32.9692 76.0891 32.8102 75.5888 32.8102C75.2779 32.8102 74.9974 32.8816 74.7472 33.0246C74.4971 33.1639 74.3006 33.3462 74.1576 33.5713L73.2518 33.4534L74.0129 29.4172H77.9205V30.3391H74.7848L74.3613 32.451C74.833 32.1223 75.3279 31.9579 75.8461 31.9579C76.5322 31.9579 77.1111 32.1955 77.5828 32.6708C78.0545 33.1461 78.2903 33.7571 78.2903 34.504C78.2903 35.2151 78.0831 35.8297 77.6685 36.3479C77.1647 36.9839 76.4768 37.302 75.6049 37.302C74.8902 37.302 74.3059 37.1019 73.8521 36.7016C73.4018 36.3014 73.1446 35.7708 73.0802 35.1097Z" fill="#F6465D"/>
<path d="M84.6594 34.8095V33.8393H87.6235V34.8095H84.6594ZM93.4286 31.2343L92.4691 31.3093C92.3834 30.9305 92.2619 30.6554 92.1046 30.4839C91.8438 30.2087 91.5222 30.0711 91.1398 30.0711C90.8325 30.0711 90.5627 30.1569 90.3304 30.3284C90.0267 30.55 89.7873 30.8734 89.6122 31.2986C89.4371 31.7238 89.3459 32.3295 89.3388 33.1157C89.5711 32.7619 89.8552 32.4993 90.1911 32.3277C90.527 32.1562 90.879 32.0705 91.247 32.0705C91.8902 32.0705 92.437 32.3081 92.8872 32.7834C93.341 33.2551 93.568 33.8661 93.568 34.6165C93.568 35.1097 93.4608 35.5689 93.2464 35.9941C93.0355 36.4158 92.7443 36.7392 92.3726 36.9643C92.001 37.1894 91.5793 37.302 91.1077 37.302C90.3036 37.302 89.6479 37.0072 89.1405 36.4175C88.633 35.8244 88.3793 34.8488 88.3793 33.4909C88.3793 31.9722 88.6598 30.868 89.2209 30.1783C89.7104 29.578 90.3697 29.2778 91.1988 29.2778C91.817 29.2778 92.3226 29.4511 92.7157 29.7978C93.1123 30.1444 93.35 30.6232 93.4286 31.2343ZM89.4889 34.6219C89.4889 34.9542 89.5586 35.2723 89.6979 35.576C89.8409 35.8797 90.0392 36.112 90.2929 36.2728C90.5466 36.4301 90.8128 36.5087 91.0916 36.5087C91.4989 36.5087 91.8491 36.3443 92.1422 36.0155C92.4352 35.6868 92.5817 35.2401 92.5817 34.6755C92.5817 34.1323 92.437 33.7053 92.1475 33.3944C91.8581 33.08 91.4936 32.9227 91.054 32.9227C90.6181 32.9227 90.2482 33.08 89.9445 33.3944C89.6408 33.7053 89.4889 34.1145 89.4889 34.6219ZM95.0742 37.168V36.0691H96.173V37.168H95.0742ZM97.7328 35.3509L98.6601 35.2651C98.7387 35.7011 98.8888 36.0173 99.1104 36.2139C99.3319 36.4104 99.616 36.5087 99.9626 36.5087C100.259 36.5087 100.518 36.4408 100.74 36.305C100.965 36.1692 101.149 35.9887 101.292 35.7636C101.435 35.5349 101.555 35.2276 101.651 34.8417C101.748 34.4557 101.796 34.0627 101.796 33.6624C101.796 33.6195 101.794 33.5552 101.79 33.4695C101.597 33.7768 101.333 34.0269 100.997 34.2199C100.665 34.4093 100.304 34.504 99.9144 34.504C99.264 34.504 98.7137 34.2681 98.2635 33.7964C97.8132 33.3247 97.5881 32.703 97.5881 31.9311C97.5881 31.1342 97.8221 30.4928 98.2903 30.0068C98.762 29.5208 99.3516 29.2778 100.059 29.2778C100.57 29.2778 101.036 29.4154 101.458 29.6906C101.883 29.9657 102.205 30.3588 102.423 30.8698C102.644 31.3772 102.755 32.1133 102.755 33.0782C102.755 34.0823 102.646 34.8828 102.428 35.4795C102.21 36.0727 101.885 36.5248 101.453 36.8356C101.024 37.1465 100.52 37.302 99.9412 37.302C99.3266 37.302 98.8245 37.1322 98.435 36.7928C98.0455 36.4497 97.8114 35.9691 97.7328 35.3509ZM101.683 31.8829C101.683 31.329 101.535 30.8894 101.238 30.5643C100.945 30.2391 100.592 30.0765 100.177 30.0765C99.7482 30.0765 99.3748 30.2516 99.0568 30.6018C98.7387 30.952 98.5797 31.4058 98.5797 31.9633C98.5797 32.4635 98.7298 32.8709 99.03 33.1854C99.3337 33.4963 99.7071 33.6517 100.15 33.6517C100.597 33.6517 100.963 33.4963 101.249 33.1854C101.539 32.8709 101.683 32.4367 101.683 31.8829ZM105.183 32.9066C104.783 32.7601 104.487 32.5511 104.294 32.2795C104.101 32.0079 104.004 31.6827 104.004 31.304C104.004 30.7322 104.21 30.2516 104.621 29.8621C105.032 29.4726 105.578 29.2778 106.261 29.2778C106.947 29.2778 107.499 29.4779 107.917 29.8782C108.335 30.2748 108.544 30.759 108.544 31.3308C108.544 31.6953 108.448 32.0133 108.255 32.2849C108.065 32.5529 107.776 32.7601 107.386 32.9066C107.869 33.0639 108.235 33.3176 108.485 33.6678C108.739 34.018 108.866 34.4361 108.866 34.9221C108.866 35.5939 108.628 36.1585 108.153 36.6159C107.678 37.0733 107.052 37.302 106.277 37.302C105.501 37.302 104.876 37.0733 104.401 36.6159C103.926 36.1549 103.688 35.5814 103.688 34.8953C103.688 34.3843 103.817 33.9572 104.074 33.6142C104.335 33.2676 104.705 33.0317 105.183 32.9066ZM104.99 31.2718C104.99 31.6434 105.11 31.9472 105.35 32.183C105.589 32.4189 105.9 32.5368 106.282 32.5368C106.654 32.5368 106.958 32.4207 107.193 32.1884C107.433 31.9525 107.553 31.6649 107.553 31.3254C107.553 30.9716 107.429 30.675 107.183 30.4356C106.94 30.1926 106.636 30.0711 106.272 30.0711C105.903 30.0711 105.598 30.189 105.355 30.4249C105.112 30.6607 104.99 30.943 104.99 31.2718ZM104.68 34.9006C104.68 35.1758 104.744 35.442 104.873 35.6993C105.005 35.9566 105.199 36.1567 105.457 36.2996C105.714 36.439 105.991 36.5087 106.288 36.5087C106.749 36.5087 107.129 36.3604 107.429 36.0638C107.729 35.7672 107.88 35.3902 107.88 34.9328C107.88 34.4682 107.724 34.0841 107.413 33.7804C107.106 33.4766 106.72 33.3247 106.255 33.3247C105.802 33.3247 105.425 33.4748 105.124 33.775C104.828 34.0752 104.68 34.4504 104.68 34.9006ZM109.991 31.1968C109.991 30.6357 110.133 30.1587 110.415 29.7656C110.697 29.3725 111.106 29.176 111.642 29.176C112.136 29.176 112.543 29.3529 112.865 29.7066C113.19 30.0568 113.352 30.5732 113.352 31.2557C113.352 31.9204 113.188 32.4332 112.859 32.7941C112.534 33.1514 112.132 33.3301 111.653 33.3301C111.178 33.3301 110.781 33.1532 110.463 32.7994C110.149 32.4457 109.991 31.9114 109.991 31.1968ZM111.669 29.8406C111.43 29.8406 111.23 29.9443 111.069 30.1515C110.912 30.3588 110.833 30.7394 110.833 31.2932C110.833 31.7971 110.913 32.1527 111.074 32.3599C111.235 32.5636 111.433 32.6654 111.669 32.6654C111.912 32.6654 112.112 32.5618 112.27 32.3545C112.43 32.1473 112.511 31.7685 112.511 31.2182C112.511 30.7108 112.43 30.3552 112.27 30.1515C112.109 29.9443 111.909 29.8406 111.669 29.8406ZM111.675 37.4574L115.973 29.176H116.756L112.473 37.4574H111.675ZM115.073 35.3241C115.073 34.7595 115.214 34.2824 115.496 33.8929C115.779 33.4998 116.19 33.3033 116.729 33.3033C117.222 33.3033 117.63 33.4802 117.951 33.834C118.276 34.1841 118.439 34.7005 118.439 35.383C118.439 36.0477 118.275 36.5605 117.946 36.9214C117.621 37.2787 117.217 37.4574 116.735 37.4574C116.259 37.4574 115.863 37.2805 115.545 36.9268C115.23 36.5694 115.073 36.0352 115.073 35.3241ZM116.756 33.968C116.513 33.968 116.311 34.0716 116.15 34.2788C115.993 34.4861 115.914 34.8667 115.914 35.4206C115.914 35.9208 115.995 36.2746 116.156 36.4819C116.316 36.6891 116.515 36.7928 116.751 36.7928C116.997 36.7928 117.199 36.6891 117.356 36.4819C117.517 36.2746 117.598 35.8958 117.598 35.3455C117.598 34.8381 117.517 34.4825 117.356 34.2788C117.196 34.0716 116.995 33.968 116.756 33.968Z" fill="#F6465D"/>
<path d="M146.278 18.2485V19.1758H141.084C141.077 18.9435 141.114 18.7202 141.196 18.5058C141.329 18.152 141.54 17.8036 141.829 17.4605C142.122 17.1175 142.544 16.7208 143.094 16.2706C143.948 15.5702 144.525 15.0163 144.825 14.6089C145.125 14.198 145.276 13.8103 145.276 13.4458C145.276 13.0634 145.138 12.7418 144.863 12.4809C144.591 12.2165 144.236 12.0843 143.796 12.0843C143.332 12.0843 142.96 12.2237 142.681 12.5024C142.403 12.7811 142.261 13.167 142.258 13.6602L141.266 13.5583C141.334 12.8186 141.59 12.2558 142.033 11.8699C142.476 11.4804 143.071 11.2856 143.818 11.2856C144.572 11.2856 145.168 11.4947 145.608 11.9128C146.047 12.3309 146.267 12.849 146.267 13.4672C146.267 13.7817 146.203 14.0908 146.074 14.3945C145.946 14.6983 145.731 15.0181 145.431 15.354C145.134 15.6899 144.639 16.1509 143.946 16.7369C143.367 17.2229 142.996 17.5534 142.831 17.7285C142.667 17.9001 142.531 18.0734 142.424 18.2485H146.278ZM150.411 19.1758V17.2944H147.002V16.4099L150.587 11.3178H151.375V16.4099H152.437V17.2944H151.375V19.1758H150.411ZM150.411 16.4099V12.8669L147.95 16.4099H150.411ZM153.696 19.1758V11.3178H154.661V14.1372C155.111 13.6155 155.68 13.3547 156.366 13.3547C156.787 13.3547 157.154 13.4386 157.465 13.6066C157.775 13.771 157.997 13.9997 158.129 14.2927C158.265 14.5857 158.333 15.0109 158.333 15.5684V19.1758H157.368V15.5684C157.368 15.086 157.263 14.7358 157.052 14.5178C156.845 14.2963 156.55 14.1855 156.167 14.1855C155.882 14.1855 155.612 14.2605 155.358 14.4106C155.108 14.5571 154.929 14.7572 154.822 15.0109C154.715 15.2647 154.661 15.6149 154.661 16.0615V19.1758H153.696ZM163.018 19.1758V11.3178H164.058V14.5446H168.142V11.3178H169.182V19.1758H168.142V15.4719H164.058V19.1758H163.018ZM170.801 12.4273V11.3178H171.765V12.4273H170.801ZM170.801 19.1758V13.4833H171.765V19.1758H170.801ZM173.063 19.6475L174.001 19.7868C174.04 20.0763 174.149 20.2871 174.328 20.4193C174.567 20.598 174.894 20.6873 175.309 20.6873C175.755 20.6873 176.1 20.598 176.343 20.4193C176.586 20.2407 176.75 19.9905 176.836 19.6689C176.886 19.4724 176.909 19.0596 176.906 18.4307C176.484 18.9274 175.959 19.1758 175.33 19.1758C174.547 19.1758 173.942 18.8935 173.513 18.3289C173.084 17.7643 172.87 17.0871 172.87 16.2974C172.87 15.7542 172.968 15.2539 173.164 14.7965C173.361 14.3356 173.645 13.98 174.017 13.7299C174.392 13.4797 174.831 13.3547 175.335 13.3547C176.007 13.3547 176.561 13.6262 176.997 14.1694V13.4833H177.887V18.4039C177.887 19.2901 177.796 19.9173 177.613 20.2853C177.435 20.657 177.149 20.95 176.756 21.1644C176.366 21.3788 175.886 21.486 175.314 21.486C174.635 21.486 174.086 21.3324 173.668 21.025C173.25 20.7213 173.048 20.2621 173.063 19.6475ZM173.861 16.2277C173.861 16.9745 174.01 17.5195 174.306 17.8625C174.603 18.2056 174.974 18.3771 175.421 18.3771C175.864 18.3771 176.236 18.2074 176.536 17.8679C176.836 17.5249 176.986 16.9888 176.986 16.2599C176.986 15.563 176.831 15.0377 176.52 14.684C176.213 14.3302 175.841 14.1533 175.405 14.1533C174.976 14.1533 174.612 14.3284 174.312 14.6786C174.011 15.0252 173.861 15.5416 173.861 16.2277ZM179.35 19.1758V11.3178H180.315V14.1372C180.765 13.6155 181.333 13.3547 182.019 13.3547C182.441 13.3547 182.807 13.4386 183.118 13.6066C183.429 13.771 183.651 13.9997 183.783 14.2927C183.919 14.5857 183.987 15.0109 183.987 15.5684V19.1758H183.022V15.5684C183.022 15.086 182.916 14.7358 182.706 14.5178C182.498 14.2963 182.203 14.1855 181.821 14.1855C181.535 14.1855 181.265 14.2605 181.012 14.4106C180.762 14.5571 180.583 14.7572 180.476 15.0109C180.368 15.2647 180.315 15.6149 180.315 16.0615V19.1758H179.35Z" fill="#848E9C"/>
<path d="M146.278 36.2407V37.168H141.084C141.077 36.9357 141.114 36.7124 141.196 36.4979C141.329 36.1442 141.54 35.7958 141.829 35.4527C142.122 35.1097 142.544 34.713 143.094 34.2628C143.948 33.5624 144.525 33.0085 144.825 32.6011C145.125 32.1902 145.276 31.8025 145.276 31.438C145.276 31.0556 145.138 30.734 144.863 30.4731C144.591 30.2087 144.236 30.0765 143.796 30.0765C143.332 30.0765 142.96 30.2158 142.681 30.4946C142.403 30.7733 142.261 31.1592 142.258 31.6524L141.266 31.5505C141.334 30.8108 141.59 30.248 142.033 29.8621C142.476 29.4726 143.071 29.2778 143.818 29.2778C144.572 29.2778 145.168 29.4869 145.608 29.905C146.047 30.3231 146.267 30.8412 146.267 31.4594C146.267 31.7739 146.203 32.083 146.074 32.3867C145.946 32.6905 145.731 33.0103 145.431 33.3462C145.134 33.6821 144.639 34.1431 143.946 34.7291C143.367 35.2151 142.996 35.5456 142.831 35.7207C142.667 35.8923 142.531 36.0656 142.424 36.2407H146.278ZM150.952 37.168H149.987V31.0199C149.755 31.2414 149.449 31.463 149.071 31.6845C148.695 31.9061 148.358 32.0722 148.057 32.183V31.2504C148.597 30.9966 149.069 30.6893 149.473 30.3284C149.876 29.9675 150.162 29.6173 150.33 29.2778H150.952V37.168ZM153.948 37.168V36.0691H155.047V37.168C155.047 37.5718 154.976 37.8969 154.833 38.1435C154.69 38.3937 154.463 38.5866 154.152 38.7224L153.884 38.3097C154.088 38.2203 154.238 38.0881 154.334 37.913C154.431 37.7415 154.484 37.4932 154.495 37.168H153.948ZM159.576 37.168V35.2866H156.167V34.4021L159.753 29.31H160.541V34.4021H161.603V35.2866H160.541V37.168H159.576ZM159.576 34.4021V30.8591L157.116 34.4021H159.576ZM162.739 35.3509L163.666 35.2651C163.745 35.7011 163.895 36.0173 164.117 36.2139C164.338 36.4104 164.622 36.5087 164.969 36.5087C165.265 36.5087 165.524 36.4408 165.746 36.305C165.971 36.1692 166.155 35.9887 166.298 35.7636C166.441 35.5349 166.561 35.2276 166.657 34.8417C166.754 34.4557 166.802 34.0627 166.802 33.6624C166.802 33.6195 166.8 33.5552 166.797 33.4695C166.604 33.7768 166.339 34.0269 166.003 34.2199C165.671 34.4093 165.31 34.504 164.921 34.504C164.27 34.504 163.72 34.2681 163.27 33.7964C162.819 33.3247 162.594 32.703 162.594 31.9311C162.594 31.1342 162.828 30.4928 163.296 30.0068C163.768 29.5208 164.358 29.2778 165.065 29.2778C165.576 29.2778 166.043 29.4154 166.464 29.6906C166.889 29.9657 167.211 30.3588 167.429 30.8698C167.651 31.3772 167.761 32.1133 167.761 33.0782C167.761 34.0823 167.652 34.8828 167.434 35.4795C167.216 36.0727 166.891 36.5248 166.459 36.8356C166.03 37.1465 165.526 37.302 164.947 37.302C164.333 37.302 163.831 37.1322 163.441 36.7928C163.052 36.4497 162.818 35.9691 162.739 35.3509ZM166.689 31.8829C166.689 31.329 166.541 30.8894 166.244 30.5643C165.951 30.2391 165.598 30.0765 165.183 30.0765C164.754 30.0765 164.381 30.2516 164.063 30.6018C163.745 30.952 163.586 31.4058 163.586 31.9633C163.586 32.4635 163.736 32.8709 164.036 33.1854C164.34 33.4963 164.713 33.6517 165.156 33.6517C165.603 33.6517 165.969 33.4963 166.255 33.1854C166.545 32.8709 166.689 32.4367 166.689 31.8829ZM172.339 37.168H171.374V31.0199C171.142 31.2414 170.836 31.463 170.458 31.6845C170.082 31.9061 169.745 32.0722 169.444 32.183V31.2504C169.984 30.9966 170.456 30.6893 170.86 30.3284C171.263 29.9675 171.549 29.6173 171.717 29.2778H172.339V37.168ZM175.357 37.168V36.0691H176.456V37.168H175.357ZM179.355 32.9066C178.955 32.7601 178.659 32.5511 178.466 32.2795C178.273 32.0079 178.176 31.6827 178.176 31.304C178.176 30.7322 178.382 30.2516 178.793 29.8621C179.204 29.4726 179.75 29.2778 180.433 29.2778C181.119 29.2778 181.671 29.4779 182.089 29.8782C182.507 30.2748 182.716 30.759 182.716 31.3308C182.716 31.6953 182.62 32.0133 182.427 32.2849C182.237 32.5529 181.948 32.7601 181.558 32.9066C182.041 33.0639 182.407 33.3176 182.657 33.6678C182.911 34.018 183.038 34.4361 183.038 34.9221C183.038 35.5939 182.8 36.1585 182.325 36.6159C181.85 37.0733 181.224 37.302 180.449 37.302C179.673 37.302 179.048 37.0733 178.573 36.6159C178.098 36.1549 177.86 35.5814 177.86 34.8953C177.86 34.3843 177.989 33.9572 178.246 33.6142C178.507 33.2676 178.877 33.0317 179.355 32.9066ZM179.162 31.2718C179.162 31.6434 179.282 31.9472 179.522 32.183C179.761 32.4189 180.072 32.5368 180.454 32.5368C180.826 32.5368 181.13 32.4207 181.365 32.1884C181.605 31.9525 181.725 31.6649 181.725 31.3254C181.725 30.9716 181.601 30.675 181.355 30.4356C181.112 30.1926 180.808 30.0711 180.444 30.0711C180.075 30.0711 179.77 30.189 179.527 30.4249C179.284 30.6607 179.162 30.943 179.162 31.2718ZM178.852 34.9006C178.852 35.1758 178.916 35.442 179.045 35.6993C179.177 35.9566 179.372 36.1567 179.629 36.2996C179.886 36.439 180.163 36.5087 180.46 36.5087C180.921 36.5087 181.301 36.3604 181.601 36.0638C181.901 35.7672 182.052 35.3902 182.052 34.9328C182.052 34.4682 181.896 34.0841 181.585 33.7804C181.278 33.4766 180.892 33.3247 180.427 33.3247C179.974 33.3247 179.597 33.4748 179.296 33.775C179 34.0752 178.852 34.4504 178.852 34.9006ZM188.988 31.2343L188.028 31.3093C187.942 30.9305 187.821 30.6554 187.664 30.4839C187.403 30.2087 187.081 30.0711 186.699 30.0711C186.392 30.0711 186.122 30.1569 185.889 30.3284C185.586 30.55 185.346 30.8734 185.171 31.2986C184.996 31.7238 184.905 32.3295 184.898 33.1157C185.13 32.7619 185.414 32.4993 185.75 32.3277C186.086 32.1562 186.438 32.0705 186.806 32.0705C187.449 32.0705 187.996 32.3081 188.446 32.7834C188.9 33.2551 189.127 33.8661 189.127 34.6165C189.127 35.1097 189.02 35.5689 188.805 35.9941C188.595 36.4158 188.303 36.7392 187.932 36.9643C187.56 37.1894 187.138 37.302 186.667 37.302C185.863 37.302 185.207 37.0072 184.699 36.4175C184.192 35.8244 183.938 34.8488 183.938 33.4909C183.938 31.9722 184.219 30.868 184.78 30.1783C185.269 29.578 185.929 29.2778 186.758 29.2778C187.376 29.2778 187.882 29.4511 188.275 29.7978C188.671 30.1444 188.909 30.6232 188.988 31.2343ZM185.048 34.6219C185.048 34.9542 185.118 35.2723 185.257 35.576C185.4 35.8797 185.598 36.112 185.852 36.2728C186.106 36.4301 186.372 36.5087 186.651 36.5087C187.058 36.5087 187.408 36.3443 187.701 36.0155C187.994 35.6868 188.141 35.2401 188.141 34.6755C188.141 34.1323 187.996 33.7053 187.707 33.3944C187.417 33.08 187.053 32.9227 186.613 32.9227C186.177 32.9227 185.807 33.08 185.504 33.3944C185.2 33.7053 185.048 34.1145 185.048 34.6219Z" fill="#EAECEF"/>
<path d="M216.42 18.2485V19.1758H211.226C211.219 18.9435 211.256 18.7202 211.338 18.5058C211.471 18.152 211.681 17.8036 211.971 17.4605C212.264 17.1175 212.686 16.7208 213.236 16.2706C214.09 15.5702 214.667 15.0163 214.967 14.6089C215.267 14.198 215.418 13.8103 215.418 13.4458C215.418 13.0634 215.28 12.7418 215.005 12.4809C214.733 12.2165 214.378 12.0843 213.938 12.0843C213.474 12.0843 213.102 12.2237 212.823 12.5024C212.544 12.7811 212.403 13.167 212.4 13.6602L211.408 13.5583C211.476 12.8186 211.732 12.2558 212.175 11.8699C212.618 11.4804 213.213 11.2856 213.96 11.2856C214.714 11.2856 215.31 11.4947 215.75 11.9128C216.189 12.3309 216.409 12.849 216.409 13.4672C216.409 13.7817 216.345 14.0908 216.216 14.3945C216.088 14.6983 215.873 15.0181 215.573 15.354C215.276 15.6899 214.781 16.1509 214.088 16.7369C213.509 17.2229 213.138 17.5534 212.973 17.7285C212.809 17.9001 212.673 18.0734 212.566 18.2485H216.42ZM220.553 19.1758V17.2944H217.143V16.4099L220.729 11.3178H221.517V16.4099H222.579V17.2944H221.517V19.1758H220.553ZM220.553 16.4099V12.8669L218.092 16.4099H220.553ZM223.838 19.1758V11.3178H224.803V14.1372C225.253 13.6155 225.822 13.3547 226.508 13.3547C226.929 13.3547 227.296 13.4386 227.607 13.6066C227.917 13.771 228.139 13.9997 228.271 14.2927C228.407 14.5857 228.475 15.0109 228.475 15.5684V19.1758H227.51V15.5684C227.51 15.086 227.405 14.7358 227.194 14.5178C226.987 14.2963 226.692 14.1855 226.309 14.1855C226.023 14.1855 225.754 14.2605 225.5 14.4106C225.25 14.5571 225.071 14.7572 224.964 15.0109C224.857 15.2647 224.803 15.6149 224.803 16.0615V19.1758H223.838ZM233.085 19.1758V11.3178H234.124V18.2485H237.994V19.1758H233.085ZM238.756 16.3295C238.756 15.2754 239.049 14.4946 239.635 13.9872C240.124 13.5655 240.721 13.3547 241.425 13.3547C242.208 13.3547 242.847 13.6119 243.344 14.1265C243.841 14.6375 244.089 15.3451 244.089 16.2491C244.089 16.9817 243.978 17.5588 243.757 17.9805C243.539 18.3986 243.219 18.7237 242.797 18.956C242.379 19.1883 241.922 19.3044 241.425 19.3044C240.628 19.3044 239.983 19.0489 239.49 18.5379C239 18.0269 238.756 17.2908 238.756 16.3295ZM239.747 16.3295C239.747 17.0585 239.906 17.6053 240.224 17.9697C240.542 18.3307 240.943 18.5111 241.425 18.5111C241.904 18.5111 242.302 18.3289 242.62 17.9644C242.938 17.5999 243.097 17.0442 243.097 16.2974C243.097 15.5934 242.937 15.061 242.615 14.7001C242.297 14.3356 241.9 14.1533 241.425 14.1533C240.943 14.1533 240.542 14.3338 240.224 14.6947C239.906 15.0556 239.747 15.6006 239.747 16.3295ZM246.276 19.1758L244.534 13.4833H245.531L246.437 16.7691L246.774 17.9912C246.789 17.9304 246.887 17.5391 247.069 16.8173L247.975 13.4833H248.967L249.819 16.7852L250.103 17.8733L250.43 16.7744L251.406 13.4833H252.344L250.564 19.1758H249.562L248.656 15.7667L248.436 14.7965L247.284 19.1758H246.276Z" fill="#848E9C"/>
<path d="M214.983 37.168H214.019V31.0199C213.786 31.2414 213.481 31.463 213.102 31.6845C212.727 31.9061 212.389 32.0722 212.089 32.183V31.2504C212.628 30.9966 213.1 30.6893 213.504 30.3284C213.908 29.9675 214.194 29.6173 214.362 29.2778H214.983V37.168ZM217.604 35.3509L218.532 35.2651C218.61 35.7011 218.76 36.0173 218.982 36.2139C219.204 36.4104 219.488 36.5087 219.834 36.5087C220.131 36.5087 220.39 36.4408 220.612 36.305C220.837 36.1692 221.021 35.9887 221.164 35.7636C221.307 35.5349 221.426 35.2276 221.523 34.8417C221.619 34.4557 221.667 34.0627 221.667 33.6624C221.667 33.6195 221.666 33.5552 221.662 33.4695C221.469 33.7768 221.205 34.0269 220.869 34.2199C220.536 34.4093 220.176 34.504 219.786 34.504C219.136 34.504 218.585 34.2681 218.135 33.7964C217.685 33.3247 217.46 32.703 217.46 31.9311C217.46 31.1342 217.694 30.4928 218.162 30.0068C218.634 29.5208 219.223 29.2778 219.931 29.2778C220.442 29.2778 220.908 29.4154 221.33 29.6906C221.755 29.9657 222.077 30.3588 222.295 30.8698C222.516 31.3772 222.627 32.1133 222.627 33.0782C222.627 34.0823 222.518 34.8828 222.3 35.4795C222.082 36.0727 221.757 36.5248 221.324 36.8356C220.896 37.1465 220.392 37.302 219.813 37.302C219.198 37.302 218.696 37.1322 218.307 36.7928C217.917 36.4497 217.683 35.9691 217.604 35.3509ZM221.555 31.8829C221.555 31.329 221.407 30.8894 221.11 30.5643C220.817 30.2391 220.463 30.0765 220.049 30.0765C219.62 30.0765 219.246 30.2516 218.928 30.6018C218.61 30.952 218.451 31.4058 218.451 31.9633C218.451 32.4635 218.601 32.8709 218.902 33.1854C219.205 33.4963 219.579 33.6517 220.022 33.6517C220.469 33.6517 220.835 33.4963 221.121 33.1854C221.41 32.8709 221.555 32.4367 221.555 31.8829ZM224.09 37.168V36.0691H225.189V37.168C225.189 37.5718 225.118 37.8969 224.975 38.1435C224.832 38.3937 224.605 38.5866 224.294 38.7224L224.026 38.3097C224.23 38.2203 224.38 38.0881 224.476 37.913C224.573 37.7415 224.626 37.4932 224.637 37.168H224.09ZM226.626 35.1097L227.639 35.0239C227.714 35.517 227.887 35.8887 228.159 36.1388C228.434 36.3854 228.764 36.5087 229.15 36.5087C229.615 36.5087 230.008 36.3336 230.329 35.9834C230.651 35.6332 230.812 35.1686 230.812 34.5897C230.812 34.0394 230.656 33.6053 230.346 33.2872C230.038 32.9692 229.634 32.8102 229.134 32.8102C228.823 32.8102 228.543 32.8816 228.293 33.0246C228.042 33.1639 227.846 33.3462 227.703 33.5713L226.797 33.4534L227.558 29.4172H231.466V30.3391H228.33L227.907 32.451C228.378 32.1223 228.873 31.9579 229.391 31.9579C230.078 31.9579 230.656 32.1955 231.128 32.6708C231.6 33.1461 231.836 33.7571 231.836 34.504C231.836 35.2151 231.628 35.8297 231.214 36.3479C230.71 36.9839 230.022 37.302 229.15 37.302C228.436 37.302 227.851 37.1019 227.397 36.7016C226.947 36.3014 226.69 35.7708 226.626 35.1097ZM235.829 37.168V35.2866H232.42V34.4021L236.006 29.31H236.794V34.4021H237.855V35.2866H236.794V37.168H235.829ZM235.829 34.4021V30.8591L233.369 34.4021H235.829ZM238.991 35.3509L239.919 35.2651C239.997 35.7011 240.147 36.0173 240.369 36.2139C240.591 36.4104 240.875 36.5087 241.221 36.5087C241.518 36.5087 241.777 36.4408 241.999 36.305C242.224 36.1692 242.408 35.9887 242.551 35.7636C242.694 35.5349 242.813 35.2276 242.91 34.8417C243.006 34.4557 243.054 34.0627 243.054 33.6624C243.054 33.6195 243.053 33.5552 243.049 33.4695C242.856 33.7768 242.592 34.0269 242.256 34.2199C241.923 34.4093 241.563 34.504 241.173 34.504C240.523 34.504 239.972 34.2681 239.522 33.7964C239.072 33.3247 238.847 32.703 238.847 31.9311C238.847 31.1342 239.081 30.4928 239.549 30.0068C240.021 29.5208 240.61 29.2778 241.318 29.2778C241.829 29.2778 242.295 29.4154 242.717 29.6906C243.142 29.9657 243.464 30.3588 243.682 30.8698C243.903 31.3772 244.014 32.1133 244.014 33.0782C244.014 34.0823 243.905 34.8828 243.687 35.4795C243.469 36.0727 243.144 36.5248 242.711 36.8356C242.283 37.1465 241.779 37.302 241.2 37.302C240.585 37.302 240.083 37.1322 239.694 36.7928C239.304 36.4497 239.07 35.9691 238.991 35.3509ZM242.942 31.8829C242.942 31.329 242.794 30.8894 242.497 30.5643C242.204 30.2391 241.85 30.0765 241.436 30.0765C241.007 30.0765 240.633 30.2516 240.315 30.6018C239.997 30.952 239.838 31.4058 239.838 31.9633C239.838 32.4635 239.988 32.8709 240.289 33.1854C240.592 33.4963 240.966 33.6517 241.409 33.6517C241.856 33.6517 242.222 33.4963 242.508 33.1854C242.797 32.8709 242.942 32.4367 242.942 31.8829ZM245.499 37.168V36.0691H246.598V37.168H245.499ZM248.013 33.2926C248.013 32.3635 248.107 31.6166 248.297 31.052C248.49 30.4839 248.774 30.0461 249.149 29.7388C249.528 29.4315 250.003 29.2778 250.575 29.2778C250.996 29.2778 251.366 29.3636 251.684 29.5351C252.002 29.7031 252.265 29.9478 252.472 30.2694C252.68 30.5875 252.842 30.977 252.96 31.438C253.078 31.8954 253.137 32.5136 253.137 33.2926C253.137 34.2145 253.042 34.9596 252.853 35.5278C252.663 36.0924 252.379 36.5301 252.001 36.841C251.625 37.1483 251.15 37.302 250.575 37.302C249.817 37.302 249.222 37.0304 248.79 36.4872C248.272 35.8333 248.013 34.7684 248.013 33.2926ZM249.004 33.2926C249.004 34.5826 249.154 35.442 249.455 35.8708C249.758 36.2961 250.132 36.5087 250.575 36.5087C251.018 36.5087 251.39 36.2943 251.69 35.8655C251.993 35.4366 252.145 34.579 252.145 33.2926C252.145 31.999 251.993 31.1396 251.69 30.7143C251.39 30.2891 251.014 30.0765 250.564 30.0765C250.121 30.0765 249.767 30.2641 249.503 30.6393C249.17 31.1181 249.004 32.0026 249.004 33.2926ZM254.268 35.3509L255.195 35.2651C255.274 35.7011 255.424 36.0173 255.645 36.2139C255.867 36.4104 256.151 36.5087 256.498 36.5087C256.794 36.5087 257.053 36.4408 257.275 36.305C257.5 36.1692 257.684 35.9887 257.827 35.7636C257.97 35.5349 258.09 35.2276 258.186 34.8417C258.283 34.4557 258.331 34.0627 258.331 33.6624C258.331 33.6195 258.329 33.5552 258.326 33.4695C258.133 33.7768 257.868 34.0269 257.532 34.2199C257.2 34.4093 256.839 34.504 256.45 34.504C255.799 34.504 255.249 34.2681 254.799 33.7964C254.348 33.3247 254.123 32.703 254.123 31.9311C254.123 31.1342 254.357 30.4928 254.825 30.0068C255.297 29.5208 255.887 29.2778 256.594 29.2778C257.105 29.2778 257.572 29.4154 257.993 29.6906C258.418 29.9657 258.74 30.3588 258.958 30.8698C259.18 31.3772 259.29 32.1133 259.29 33.0782C259.29 34.0823 259.181 34.8828 258.963 35.4795C258.745 36.0727 258.42 36.5248 257.988 36.8356C257.559 37.1465 257.055 37.302 256.476 37.302C255.862 37.302 255.36 37.1322 254.97 36.7928C254.581 36.4497 254.347 35.9691 254.268 35.3509ZM258.218 31.8829C258.218 31.329 258.07 30.8894 257.773 30.5643C257.48 30.2391 257.127 30.0765 256.712 30.0765C256.283 30.0765 255.91 30.2516 255.592 30.6018C255.274 30.952 255.115 31.4058 255.115 31.9633C255.115 32.4635 255.265 32.8709 255.565 33.1854C255.869 33.4963 256.242 33.6517 256.685 33.6517C257.132 33.6517 257.498 33.4963 257.784 33.1854C258.074 32.8709 258.218 32.4367 258.218 31.8829Z" fill="#EAECEF"/>
<g clip-path="url(#clip2_353_6216)">
<path d="M287.556 18.2485V19.1758H282.362C282.355 18.9435 282.392 18.7202 282.474 18.5058C282.606 18.152 282.817 17.8036 283.107 17.4605C283.4 17.1175 283.821 16.7208 284.372 16.2706C285.226 15.5702 285.803 15.0163 286.103 14.6089C286.403 14.198 286.553 13.8103 286.553 13.4458C286.553 13.0634 286.416 12.7418 286.141 12.4809C285.869 12.2165 285.513 12.0843 285.074 12.0843C284.609 12.0843 284.238 12.2237 283.959 12.5024C283.68 12.7811 283.539 13.167 283.536 13.6602L282.544 13.5583C282.612 12.8186 282.867 12.2558 283.31 11.8699C283.754 11.4804 284.349 11.2856 285.095 11.2856C285.849 11.2856 286.446 11.4947 286.886 11.9128C287.325 12.3309 287.545 12.849 287.545 13.4672C287.545 13.7817 287.481 14.0908 287.352 14.3945C287.223 14.6983 287.009 15.0181 286.709 15.354C286.412 15.6899 285.917 16.1509 285.224 16.7369C284.645 17.2229 284.273 17.5534 284.109 17.7285C283.945 17.9001 283.809 18.0734 283.702 18.2485H287.556ZM291.688 19.1758V17.2944H288.279V16.4099L291.865 11.3178H292.653V16.4099H293.714V17.2944H292.653V19.1758H291.688ZM291.688 16.4099V12.8669L289.228 16.4099H291.688ZM294.974 19.1758V11.3178H295.939V14.1372C296.389 13.6155 296.957 13.3547 297.643 13.3547C298.065 13.3547 298.431 13.4386 298.742 13.6066C299.053 13.771 299.275 13.9997 299.407 14.2927C299.543 14.5857 299.611 15.0109 299.611 15.5684V19.1758H298.646V15.5684C298.646 15.086 298.54 14.7358 298.33 14.5178C298.122 14.2963 297.828 14.1855 297.445 14.1855C297.159 14.1855 296.889 14.2605 296.636 14.4106C296.386 14.5571 296.207 14.7572 296.1 15.0109C295.993 15.2647 295.939 15.6149 295.939 16.0615V19.1758H294.974ZM306.509 19.1758L303.465 11.3178H304.59L306.632 17.0264C306.797 17.4838 306.934 17.9126 307.045 18.3128C307.167 17.884 307.308 17.4552 307.469 17.0264L309.591 11.3178H310.653L307.576 19.1758H306.509ZM310.492 16.3295C310.492 15.2754 310.785 14.4946 311.371 13.9872C311.86 13.5655 312.457 13.3547 313.161 13.3547C313.944 13.3547 314.583 13.6119 315.08 14.1265C315.577 14.6375 315.825 15.3451 315.825 16.2491C315.825 16.9817 315.714 17.5588 315.493 17.9805C315.275 18.3986 314.955 18.7237 314.533 18.956C314.115 19.1883 313.658 19.3044 313.161 19.3044C312.364 19.3044 311.719 19.0489 311.226 18.5379C310.737 18.0269 310.492 17.2908 310.492 16.3295ZM311.483 16.3295C311.483 17.0585 311.642 17.6053 311.96 17.9697C312.278 18.3307 312.679 18.5111 313.161 18.5111C313.64 18.5111 314.038 18.3289 314.356 17.9644C314.674 17.5999 314.834 17.0442 314.834 16.2974C314.834 15.5934 314.673 15.061 314.351 14.7001C314.033 14.3356 313.636 14.1533 313.161 14.1533C312.679 14.1533 312.278 14.3338 311.96 14.6947C311.642 15.0556 311.483 15.6006 311.483 16.3295ZM316.94 19.1758V11.3178H317.905V19.1758H316.94ZM323.136 19.1758V18.3396C322.693 18.9828 322.091 19.3044 321.33 19.3044C320.994 19.3044 320.68 19.2401 320.387 19.1115C320.097 18.9828 319.881 18.822 319.738 18.629C319.599 18.4325 319.5 18.1931 319.443 17.9108C319.404 17.7214 319.384 17.4212 319.384 17.0103V13.4833H320.349V16.6404C320.349 17.1443 320.369 17.4838 320.408 17.6589C320.469 17.9126 320.597 18.1127 320.794 18.2592C320.991 18.4021 321.234 18.4736 321.523 18.4736C321.812 18.4736 322.084 18.4003 322.338 18.2538C322.591 18.1038 322.77 17.9019 322.874 17.6481C322.981 17.3908 323.035 17.0192 323.035 16.5332V13.4833H323.999V19.1758H323.136ZM325.516 19.1758V13.4833H326.379V14.282C326.558 14.0032 326.796 13.7799 327.092 13.6119C327.389 13.4404 327.726 13.3547 328.105 13.3547C328.527 13.3547 328.872 13.4422 329.14 13.6173C329.411 13.7924 329.603 14.0372 329.713 14.3516C330.164 13.687 330.75 13.3547 331.471 13.3547C332.036 13.3547 332.47 13.5119 332.774 13.8263C333.078 14.1372 333.23 14.6179 333.23 15.2682V19.1758H332.27V15.5898C332.27 15.2039 332.238 14.927 332.174 14.759C332.113 14.5875 332 14.4499 331.836 14.3463C331.672 14.2427 331.479 14.1908 331.257 14.1908C330.857 14.1908 330.524 14.3248 330.26 14.5928C329.996 14.8573 329.863 15.2825 329.863 15.8686V19.1758H328.899V15.4773C328.899 15.0485 328.82 14.7269 328.663 14.5124C328.505 14.298 328.248 14.1908 327.891 14.1908C327.619 14.1908 327.367 14.2623 327.135 14.4052C326.906 14.5482 326.74 14.7572 326.637 15.0324C326.533 15.3075 326.481 15.7042 326.481 16.2223V19.1758H325.516ZM338.558 17.3426L339.555 17.4659C339.397 18.0484 339.106 18.5004 338.681 18.822C338.256 19.1436 337.712 19.3044 337.051 19.3044C336.219 19.3044 335.558 19.0489 335.068 18.5379C334.582 18.0233 334.339 17.3033 334.339 16.3778C334.339 15.4201 334.586 14.6768 335.079 14.148C335.572 13.6191 336.212 13.3547 336.998 13.3547C337.759 13.3547 338.381 13.6137 338.863 14.1319C339.345 14.65 339.587 15.379 339.587 16.3188C339.587 16.376 339.585 16.4618 339.581 16.5761H335.336C335.372 17.2015 335.549 17.6803 335.867 18.0126C336.185 18.345 336.581 18.5111 337.057 18.5111C337.41 18.5111 337.712 18.4182 337.963 18.2324C338.213 18.0466 338.411 17.75 338.558 17.3426ZM335.39 15.7828H338.568C338.525 15.304 338.404 14.9448 338.204 14.7054C337.896 14.3338 337.498 14.148 337.008 14.148C336.565 14.148 336.192 14.2963 335.888 14.5928C335.588 14.8894 335.422 15.2861 335.39 15.7828ZM342.615 21.486C342.083 20.8142 341.632 20.028 341.264 19.1275C340.896 18.227 340.712 17.2944 340.712 16.3295C340.712 15.4791 340.85 14.6643 341.125 13.8853C341.447 12.9812 341.943 12.0807 342.615 11.1838H343.307C342.874 11.9271 342.588 12.4577 342.449 12.7758C342.231 13.2689 342.06 13.7835 341.934 14.3195C341.781 14.9877 341.704 15.6595 341.704 16.3349C341.704 18.0537 342.238 19.7708 343.307 21.486H342.615ZM344.507 19.1758V11.3178H347.455C348.056 11.3178 348.536 11.3982 348.897 11.559C349.262 11.7162 349.546 11.961 349.75 12.2933C349.957 12.6221 350.06 12.9669 350.06 13.3279C350.06 13.6638 349.969 13.98 349.787 14.2766C349.605 14.5732 349.33 14.8126 348.962 14.9949C349.437 15.1342 349.801 15.3719 350.055 15.7078C350.312 16.0437 350.441 16.4403 350.441 16.8977C350.441 17.2658 350.362 17.6088 350.205 17.9269C350.052 18.2413 349.86 18.4843 349.632 18.6558C349.403 18.8274 349.115 18.9578 348.769 19.0471C348.426 19.1329 348.004 19.1758 347.504 19.1758H344.507ZM345.547 14.6196H347.246C347.707 14.6196 348.038 14.5893 348.238 14.5285C348.502 14.4499 348.701 14.3195 348.833 14.1372C348.969 13.955 349.037 13.7263 349.037 13.4511C349.037 13.1903 348.974 12.9616 348.849 12.765C348.724 12.5649 348.545 12.4291 348.313 12.3577C348.081 12.2826 347.682 12.2451 347.118 12.2451H345.547V14.6196ZM345.547 18.2485H347.504C347.84 18.2485 348.075 18.236 348.211 18.211C348.451 18.1681 348.651 18.0966 348.812 17.9965C348.972 17.8965 349.105 17.7518 349.208 17.5624C349.312 17.3694 349.364 17.1479 349.364 16.8977C349.364 16.6047 349.289 16.351 349.138 16.1366C348.988 15.9186 348.779 15.7667 348.511 15.681C348.247 15.5916 347.865 15.547 347.364 15.547H345.547V18.2485ZM353.872 19.1758V12.2451H351.283V11.3178H357.511V12.2451H354.911V19.1758H353.872ZM364.19 16.4207L365.23 16.6833C365.012 17.5374 364.619 18.1895 364.05 18.6398C363.486 19.0864 362.794 19.3098 361.976 19.3098C361.129 19.3098 360.439 19.1383 359.907 18.7952C359.378 18.4486 358.974 17.9483 358.696 17.2944C358.42 16.6404 358.283 15.9382 358.283 15.1878C358.283 14.3695 358.438 13.6566 358.749 13.0491C359.064 12.4381 359.509 11.9753 360.084 11.6608C360.663 11.3428 361.299 11.1838 361.992 11.1838C362.778 11.1838 363.439 11.3839 363.975 11.7841C364.511 12.1844 364.885 12.7472 365.096 13.4726L364.072 13.7138C363.89 13.142 363.625 12.7257 363.279 12.4649C362.932 12.204 362.496 12.0736 361.971 12.0736C361.367 12.0736 360.861 12.2183 360.454 12.5077C360.05 12.7972 359.766 13.1867 359.602 13.6763C359.437 14.1622 359.355 14.6643 359.355 15.1825C359.355 15.8507 359.451 16.435 359.644 16.9352C359.841 17.4319 360.145 17.8036 360.556 18.0501C360.967 18.2967 361.411 18.42 361.89 18.42C362.473 18.42 362.966 18.252 363.37 17.9161C363.774 17.5802 364.047 17.0817 364.19 16.4207ZM367.025 21.486H366.334C367.402 19.7708 367.937 18.0537 367.937 16.3349C367.937 15.6631 367.86 14.9966 367.706 14.3356C367.585 13.7995 367.415 13.285 367.197 12.7918C367.057 12.4702 366.77 11.9342 366.334 11.1838H367.025C367.697 12.0807 368.194 12.9812 368.515 13.8853C368.791 14.6643 368.928 15.4791 368.928 16.3295C368.928 17.2944 368.742 18.227 368.371 19.1275C368.003 20.028 367.554 20.8142 367.025 21.486Z" fill="#848E9C"/>
</g>
<path d="M282.549 30.3391V29.4118H287.636V30.1622C287.136 30.6947 286.639 31.4022 286.146 32.2849C285.656 33.1675 285.278 34.0752 285.01 35.0078C284.817 35.6653 284.693 36.3854 284.64 37.168H283.648C283.659 36.5498 283.78 35.8029 284.013 34.9274C284.245 34.0519 284.577 33.2086 285.01 32.3974C285.446 31.5827 285.908 30.8966 286.398 30.3391H282.549ZM292.23 37.168H291.265V31.0199C291.033 31.2414 290.727 31.463 290.348 31.6845C289.973 31.9061 289.635 32.0722 289.335 32.183V31.2504C289.875 30.9966 290.347 30.6893 290.75 30.3284C291.154 29.9675 291.44 29.6173 291.608 29.2778H292.23V37.168ZM294.706 35.1097L295.719 35.0239C295.794 35.517 295.968 35.8887 296.239 36.1388C296.514 36.3854 296.845 36.5087 297.231 36.5087C297.695 36.5087 298.088 36.3336 298.41 35.9834C298.732 35.6332 298.892 35.1686 298.892 34.5897C298.892 34.0394 298.737 33.6053 298.426 33.2872C298.119 32.9692 297.715 32.8102 297.215 32.8102C296.904 32.8102 296.623 32.8816 296.373 33.0246C296.123 33.1639 295.926 33.3462 295.784 33.5713L294.878 33.4534L295.639 29.4172H299.546V30.3391H296.411L295.987 32.451C296.459 32.1223 296.954 31.9579 297.472 31.9579C298.158 31.9579 298.737 32.1955 299.209 32.6708C299.68 33.1461 299.916 33.7571 299.916 34.504C299.916 35.2151 299.709 35.8297 299.294 36.3479C298.791 36.9839 298.103 37.302 297.231 37.302C296.516 37.302 295.932 37.1019 295.478 36.7016C295.028 36.3014 294.77 35.7708 294.706 35.1097ZM301.337 37.168V36.0691H302.435V37.168C302.435 37.5718 302.364 37.8969 302.221 38.1435C302.078 38.3937 301.851 38.5866 301.54 38.7224L301.272 38.3097C301.476 38.2203 301.626 38.0881 301.723 37.913C301.819 37.7415 301.873 37.4932 301.883 37.168H301.337ZM303.872 35.1097L304.885 35.0239C304.96 35.517 305.133 35.8887 305.405 36.1388C305.68 36.3854 306.011 36.5087 306.397 36.5087C306.861 36.5087 307.254 36.3336 307.576 35.9834C307.897 35.6332 308.058 35.1686 308.058 34.5897C308.058 34.0394 307.903 33.6053 307.592 33.2872C307.285 32.9692 306.881 32.8102 306.381 32.8102C306.07 32.8102 305.789 32.8816 305.539 33.0246C305.289 33.1639 305.092 33.3462 304.949 33.5713L304.044 33.4534L304.805 29.4172H308.712V30.3391H305.577L305.153 32.451C305.625 32.1223 306.12 31.9579 306.638 31.9579C307.324 31.9579 307.903 32.1955 308.375 32.6708C308.846 33.1461 309.082 33.7571 309.082 34.504C309.082 35.2151 308.875 35.8297 308.46 36.3479C307.956 36.9839 307.269 37.302 306.397 37.302C305.682 37.302 305.098 37.1019 304.644 36.7016C304.194 36.3014 303.936 35.7708 303.872 35.1097ZM309.983 35.1097L310.996 35.0239C311.071 35.517 311.244 35.8887 311.516 36.1388C311.791 36.3854 312.121 36.5087 312.507 36.5087C312.972 36.5087 313.365 36.3336 313.686 35.9834C314.008 35.6332 314.169 35.1686 314.169 34.5897C314.169 34.0394 314.013 33.6053 313.703 33.2872C313.395 32.9692 312.991 32.8102 312.491 32.8102C312.18 32.8102 311.9 32.8816 311.65 33.0246C311.399 33.1639 311.203 33.3462 311.06 33.5713L310.154 33.4534L310.915 29.4172H314.823V30.3391H311.687L311.264 32.451C311.735 32.1223 312.23 31.9579 312.748 31.9579C313.435 31.9579 314.013 32.1955 314.485 32.6708C314.957 33.1461 315.193 33.7571 315.193 34.504C315.193 35.2151 314.985 35.8297 314.571 36.3479C314.067 36.9839 313.379 37.302 312.507 37.302C311.793 37.302 311.208 37.1019 310.754 36.7016C310.304 36.3014 310.047 35.7708 309.983 35.1097ZM316.238 35.3509L317.165 35.2651C317.244 35.7011 317.394 36.0173 317.615 36.2139C317.837 36.4104 318.121 36.5087 318.468 36.5087C318.764 36.5087 319.023 36.4408 319.245 36.305C319.47 36.1692 319.654 35.9887 319.797 35.7636C319.94 35.5349 320.06 35.2276 320.156 34.8417C320.253 34.4557 320.301 34.0627 320.301 33.6624C320.301 33.6195 320.299 33.5552 320.296 33.4695C320.103 33.7768 319.838 34.0269 319.502 34.2199C319.17 34.4093 318.809 34.504 318.419 34.504C317.769 34.504 317.219 34.2681 316.769 33.7964C316.318 33.3247 316.093 32.703 316.093 31.9311C316.093 31.1342 316.327 30.4928 316.795 30.0068C317.267 29.5208 317.857 29.2778 318.564 29.2778C319.075 29.2778 319.542 29.4154 319.963 29.6906C320.388 29.9657 320.71 30.3588 320.928 30.8698C321.15 31.3772 321.26 32.1133 321.26 33.0782C321.26 34.0823 321.151 34.8828 320.933 35.4795C320.715 36.0727 320.39 36.5248 319.958 36.8356C319.529 37.1465 319.025 37.302 318.446 37.302C317.832 37.302 317.33 37.1322 316.94 36.7928C316.551 36.4497 316.316 35.9691 316.238 35.3509ZM320.188 31.8829C320.188 31.329 320.04 30.8894 319.743 30.5643C319.45 30.2391 319.097 30.0765 318.682 30.0765C318.253 30.0765 317.88 30.2516 317.562 30.6018C317.244 30.952 317.085 31.4058 317.085 31.9633C317.085 32.4635 317.235 32.8709 317.535 33.1854C317.839 33.4963 318.212 33.6517 318.655 33.6517C319.102 33.6517 319.468 33.4963 319.754 33.1854C320.044 32.8709 320.188 32.4367 320.188 31.8829ZM322.745 37.168V36.0691H323.844V37.168H322.745ZM328.352 37.168V35.2866H324.943V34.4021L328.529 29.31H329.317V34.4021H330.378V35.2866H329.317V37.168H328.352ZM328.352 34.4021V30.8591L325.892 34.4021H328.352ZM331.37 33.2926C331.37 32.3635 331.464 31.6166 331.654 31.052C331.847 30.4839 332.131 30.0461 332.506 29.7388C332.885 29.4315 333.36 29.2778 333.932 29.2778C334.353 29.2778 334.723 29.3636 335.041 29.5351C335.359 29.7031 335.622 29.9478 335.829 30.2694C336.036 30.5875 336.199 30.977 336.317 31.438C336.435 31.8954 336.494 32.5136 336.494 33.2926C336.494 34.2145 336.399 34.9596 336.21 35.5278C336.02 36.0924 335.736 36.5301 335.358 36.841C334.982 37.1483 334.507 37.302 333.932 37.302C333.174 37.302 332.579 37.0304 332.147 36.4872C331.629 35.8333 331.37 34.7684 331.37 33.2926ZM332.361 33.2926C332.361 34.5826 332.511 35.442 332.811 35.8708C333.115 36.2961 333.489 36.5087 333.932 36.5087C334.375 36.5087 334.746 36.2943 335.047 35.8655C335.35 35.4366 335.502 34.579 335.502 33.2926C335.502 31.999 335.35 31.1396 335.047 30.7143C334.746 30.2891 334.371 30.0765 333.921 30.0765C333.478 30.0765 333.124 30.2641 332.86 30.6393C332.527 31.1181 332.361 32.0026 332.361 33.2926Z" fill="#EAECEF"/>
<g clip-path="url(#clip3_353_6216)">
<path d="M400.7 18.2485V19.1758H395.506C395.499 18.9435 395.536 18.7202 395.618 18.5058C395.75 18.152 395.961 17.8036 396.251 17.4605C396.544 17.1175 396.965 16.7208 397.516 16.2706C398.37 15.5702 398.947 15.0163 399.247 14.6089C399.547 14.198 399.697 13.8103 399.697 13.4458C399.697 13.0634 399.56 12.7418 399.285 12.4809C399.013 12.2165 398.657 12.0843 398.218 12.0843C397.753 12.0843 397.382 12.2237 397.103 12.5024C396.824 12.7811 396.683 13.167 396.68 13.6602L395.688 13.5583C395.756 12.8186 396.011 12.2558 396.454 11.8699C396.898 11.4804 397.493 11.2856 398.239 11.2856C398.993 11.2856 399.59 11.4947 400.03 11.9128C400.469 12.3309 400.689 12.849 400.689 13.4672C400.689 13.7817 400.625 14.0908 400.496 14.3945C400.367 14.6983 400.153 15.0181 399.853 15.354C399.556 15.6899 399.061 16.1509 398.368 16.7369C397.789 17.2229 397.417 17.5534 397.253 17.7285C397.089 17.9001 396.953 18.0734 396.846 18.2485H400.7ZM404.832 19.1758V17.2944H401.423V16.4099L405.009 11.3178H405.797V16.4099H406.858V17.2944H405.797V19.1758H404.832ZM404.832 16.4099V12.8669L402.372 16.4099H404.832ZM408.118 19.1758V11.3178H409.083V14.1372C409.533 13.6155 410.101 13.3547 410.787 13.3547C411.209 13.3547 411.575 13.4386 411.886 13.6066C412.197 13.771 412.419 13.9997 412.551 14.2927C412.687 14.5857 412.755 15.0109 412.755 15.5684V19.1758H411.79V15.5684C411.79 15.086 411.684 14.7358 411.474 14.5178C411.266 14.2963 410.972 14.1855 410.589 14.1855C410.303 14.1855 410.033 14.2605 409.78 14.4106C409.53 14.5571 409.351 14.7572 409.244 15.0109C409.137 15.2647 409.083 15.6149 409.083 16.0615V19.1758H408.118ZM419.653 19.1758L416.609 11.3178H417.734L419.776 17.0264C419.941 17.4838 420.078 17.9126 420.189 18.3128C420.311 17.884 420.452 17.4552 420.613 17.0264L422.735 11.3178H423.797L420.72 19.1758H419.653ZM423.636 16.3295C423.636 15.2754 423.929 14.4946 424.515 13.9872C425.004 13.5655 425.601 13.3547 426.305 13.3547C427.088 13.3547 427.727 13.6119 428.224 14.1265C428.721 14.6375 428.969 15.3451 428.969 16.2491C428.969 16.9817 428.858 17.5588 428.637 17.9805C428.419 18.3986 428.099 18.7237 427.677 18.956C427.259 19.1883 426.802 19.3044 426.305 19.3044C425.508 19.3044 424.863 19.0489 424.37 18.5379C423.881 18.0269 423.636 17.2908 423.636 16.3295ZM424.627 16.3295C424.627 17.0585 424.786 17.6053 425.104 17.9697C425.422 18.3307 425.823 18.5111 426.305 18.5111C426.784 18.5111 427.182 18.3289 427.5 17.9644C427.818 17.5999 427.977 17.0442 427.977 16.2974C427.977 15.5934 427.817 15.061 427.495 14.7001C427.177 14.3356 426.78 14.1533 426.305 14.1533C425.823 14.1533 425.422 14.3338 425.104 14.6947C424.786 15.0556 424.627 15.6006 424.627 16.3295ZM430.084 19.1758V11.3178H431.049V19.1758H430.084ZM436.28 19.1758V18.3396C435.837 18.9828 435.235 19.3044 434.474 19.3044C434.138 19.3044 433.824 19.2401 433.531 19.1115C433.241 18.9828 433.025 18.822 432.882 18.629C432.743 18.4325 432.644 18.1931 432.587 17.9108C432.548 17.7214 432.528 17.4212 432.528 17.0103V13.4833H433.493V16.6404C433.493 17.1443 433.513 17.4838 433.552 17.6589C433.613 17.9126 433.741 18.1127 433.938 18.2592C434.135 18.4021 434.378 18.4736 434.667 18.4736C434.956 18.4736 435.228 18.4003 435.482 18.2538C435.735 18.1038 435.914 17.9019 436.018 17.6481C436.125 17.3908 436.179 17.0192 436.179 16.5332V13.4833H437.143V19.1758H436.28ZM438.66 19.1758V13.4833H439.523V14.282C439.702 14.0032 439.94 13.7799 440.236 13.6119C440.533 13.4404 440.87 13.3547 441.249 13.3547C441.671 13.3547 442.016 13.4422 442.284 13.6173C442.555 13.7924 442.747 14.0372 442.857 14.3516C443.308 13.687 443.894 13.3547 444.615 13.3547C445.18 13.3547 445.614 13.5119 445.918 13.8263C446.222 14.1372 446.374 14.6179 446.374 15.2682V19.1758H445.414V15.5898C445.414 15.2039 445.382 14.927 445.318 14.759C445.257 14.5875 445.144 14.4499 444.98 14.3463C444.816 14.2427 444.623 14.1908 444.401 14.1908C444.001 14.1908 443.668 14.3248 443.404 14.5928C443.14 14.8573 443.007 15.2825 443.007 15.8686V19.1758H442.043V15.4773C442.043 15.0485 441.964 14.7269 441.807 14.5124C441.649 14.298 441.392 14.1908 441.035 14.1908C440.763 14.1908 440.511 14.2623 440.279 14.4052C440.05 14.5482 439.884 14.7572 439.781 15.0324C439.677 15.3075 439.625 15.7042 439.625 16.2223V19.1758H438.66ZM451.702 17.3426L452.699 17.4659C452.541 18.0484 452.25 18.5004 451.825 18.822C451.4 19.1436 450.856 19.3044 450.195 19.3044C449.363 19.3044 448.702 19.0489 448.212 18.5379C447.726 18.0233 447.483 17.3033 447.483 16.3778C447.483 15.4201 447.73 14.6768 448.223 14.148C448.716 13.6191 449.356 13.3547 450.142 13.3547C450.903 13.3547 451.525 13.6137 452.007 14.1319C452.489 14.65 452.731 15.379 452.731 16.3188C452.731 16.376 452.729 16.4618 452.725 16.5761H448.48C448.516 17.2015 448.693 17.6803 449.011 18.0126C449.329 18.345 449.725 18.5111 450.201 18.5111C450.554 18.5111 450.856 18.4182 451.107 18.2324C451.357 18.0466 451.555 17.75 451.702 17.3426ZM448.534 15.7828H451.712C451.669 15.304 451.548 14.9448 451.348 14.7054C451.04 14.3338 450.642 14.148 450.152 14.148C449.709 14.148 449.336 14.2963 449.032 14.5928C448.732 14.8894 448.566 15.2861 448.534 15.7828ZM455.759 21.486C455.227 20.8142 454.776 20.028 454.408 19.1275C454.04 18.227 453.856 17.2944 453.856 16.3295C453.856 15.4791 453.994 14.6643 454.269 13.8853C454.591 12.9812 455.087 12.0807 455.759 11.1838H456.451C456.018 11.9271 455.732 12.4577 455.593 12.7758C455.375 13.2689 455.204 13.7835 455.078 14.3195C454.925 14.9877 454.848 15.6595 454.848 16.3349C454.848 18.0537 455.382 19.7708 456.451 21.486H455.759ZM462.851 11.3178H463.891V15.8578C463.891 16.6476 463.801 17.2747 463.623 17.7393C463.444 18.2038 463.12 18.5826 462.652 18.8756C462.188 19.1651 461.577 19.3098 460.819 19.3098C460.083 19.3098 459.481 19.1829 459.013 18.9292C458.545 18.6755 458.211 18.3092 458.01 17.8304C457.81 17.348 457.71 16.6905 457.71 15.8578V11.3178H458.75V15.8525C458.75 16.535 458.813 17.0389 458.938 17.364C459.066 17.6857 459.284 17.934 459.592 18.1091C459.903 18.2842 460.281 18.3718 460.728 18.3718C461.493 18.3718 462.038 18.1984 462.363 17.8518C462.688 17.5052 462.851 16.8388 462.851 15.8525V11.3178ZM465.273 16.6511L466.254 16.5654C466.301 16.9585 466.408 17.2819 466.576 17.5356C466.747 17.7857 467.012 17.9894 467.369 18.1466C467.727 18.3003 468.129 18.3771 468.575 18.3771C468.972 18.3771 469.322 18.3182 469.626 18.2002C469.93 18.0823 470.155 17.9215 470.301 17.7178C470.451 17.5106 470.526 17.2854 470.526 17.0424C470.526 16.7959 470.455 16.5815 470.312 16.3992C470.169 16.2134 469.933 16.058 469.604 15.9329C469.394 15.8507 468.927 15.7238 468.205 15.5523C467.484 15.3772 466.978 15.2128 466.689 15.0592C466.313 14.8626 466.033 14.6196 465.847 14.3302C465.665 14.0372 465.574 13.7102 465.574 13.3493C465.574 12.9526 465.686 12.5828 465.911 12.2397C466.136 11.8931 466.465 11.6305 466.898 11.4518C467.33 11.2731 467.811 11.1838 468.339 11.1838C468.922 11.1838 469.435 11.2785 469.878 11.4679C470.324 11.6537 470.668 11.9289 470.907 12.2933C471.146 12.6578 471.275 13.0706 471.293 13.5315L470.296 13.6066C470.242 13.1099 470.06 12.7347 469.749 12.4809C469.442 12.2272 468.986 12.1004 468.382 12.1004C467.753 12.1004 467.294 12.2165 467.005 12.4488C466.719 12.6775 466.576 12.9544 466.576 13.2796C466.576 13.5619 466.678 13.7942 466.881 13.9764C467.082 14.1587 467.603 14.3463 468.447 14.5392C469.294 14.7286 469.874 14.8948 470.189 15.0377C470.646 15.2486 470.984 15.5166 471.202 15.8418C471.42 16.1634 471.529 16.535 471.529 16.9567C471.529 17.3748 471.409 17.7696 471.17 18.1413C470.93 18.5093 470.585 18.797 470.135 19.0043C469.688 19.2079 469.185 19.3098 468.624 19.3098C467.912 19.3098 467.316 19.2062 466.833 18.9989C466.354 18.7916 465.977 18.4807 465.702 18.0662C465.431 17.6481 465.288 17.1764 465.273 16.6511ZM472.949 19.1758V11.3178H475.656C476.267 11.3178 476.733 11.3553 477.055 11.4304C477.505 11.534 477.889 11.7216 478.207 11.9932C478.622 12.3434 478.931 12.7918 479.135 13.3386C479.342 13.8817 479.446 14.5035 479.446 15.2039C479.446 15.8007 479.376 16.3295 479.237 16.7905C479.097 17.2515 478.919 17.6338 478.701 17.9376C478.483 18.2378 478.243 18.4754 477.982 18.6505C477.725 18.822 477.412 18.9524 477.044 19.0418C476.68 19.1311 476.26 19.1758 475.785 19.1758H472.949ZM473.989 18.2485H475.667C476.185 18.2485 476.591 18.2002 476.884 18.1038C477.18 18.0073 477.416 17.8715 477.591 17.6964C477.838 17.4498 478.029 17.1193 478.165 16.7047C478.304 16.2867 478.374 15.781 478.374 15.1878C478.374 14.3659 478.238 13.7352 477.966 13.2957C477.698 12.8526 477.371 12.556 476.985 12.4059C476.707 12.2987 476.258 12.2451 475.64 12.2451H473.989V18.2485ZM482.882 19.1758V12.2451H480.293V11.3178H486.521V12.2451H483.921V19.1758H482.882ZM488.102 21.486H487.411C488.479 19.7708 489.014 18.0537 489.014 16.3349C489.014 15.6631 488.937 14.9966 488.783 14.3356C488.662 13.7995 488.492 13.285 488.274 12.7918C488.135 12.4702 487.847 11.9342 487.411 11.1838H488.102C488.774 12.0807 489.271 12.9812 489.592 13.8853C489.868 14.6643 490.005 15.4791 490.005 16.3295C490.005 17.2944 489.819 18.227 489.448 19.1275C489.08 20.028 488.631 20.8142 488.102 21.486Z" fill="#848E9C"/>
</g>
<path d="M399.263 37.168H398.298V31.0199C398.066 31.2414 397.761 31.463 397.382 31.6845C397.007 31.9061 396.669 32.0722 396.369 32.183V31.2504C396.908 30.9966 397.38 30.6893 397.784 30.3284C398.188 29.9675 398.473 29.6173 398.641 29.2778H399.263V37.168ZM404.832 37.168V35.2866H401.423V34.4021L405.009 29.31H405.797V34.4021H406.858V35.2866H405.797V37.168H404.832ZM404.832 34.4021V30.8591L402.372 34.4021H404.832ZM408.37 37.168V36.0691H409.469V37.168C409.469 37.5718 409.397 37.8969 409.254 38.1435C409.112 38.3937 408.885 38.5866 408.574 38.7224L408.306 38.3097C408.509 38.2203 408.659 38.0881 408.756 37.913C408.852 37.7415 408.906 37.4932 408.917 37.168H408.37ZM413.998 37.168V35.2866H410.589V34.4021L414.175 29.31H414.963V34.4021H416.024V35.2866H414.963V37.168H413.998ZM413.998 34.4021V30.8591L411.538 34.4021H413.998ZM417.021 35.0936L417.986 34.9649C418.097 35.5117 418.285 35.9065 418.549 36.1495C418.817 36.389 419.142 36.5087 419.525 36.5087C419.978 36.5087 420.361 36.3514 420.672 36.037C420.986 35.7225 421.143 35.333 421.143 34.8685C421.143 34.4254 420.999 34.0609 420.709 33.775C420.42 33.4855 420.052 33.3408 419.605 33.3408C419.423 33.3408 419.196 33.3766 418.924 33.448L419.031 32.6011C419.096 32.6083 419.148 32.6118 419.187 32.6118C419.598 32.6118 419.968 32.5046 420.296 32.2902C420.625 32.0758 420.79 31.7453 420.79 31.2986C420.79 30.9448 420.67 30.6518 420.43 30.4195C420.191 30.1873 419.882 30.0711 419.503 30.0711C419.128 30.0711 418.815 30.189 418.565 30.4249C418.315 30.6607 418.154 31.0145 418.083 31.4862L417.118 31.3147C417.236 30.6679 417.504 30.1676 417.922 29.8138C418.34 29.4565 418.86 29.2778 419.482 29.2778C419.91 29.2778 420.305 29.3707 420.666 29.5565C421.027 29.7388 421.302 29.9889 421.492 30.307C421.685 30.625 421.781 30.9627 421.781 31.32C421.781 31.6595 421.69 31.9686 421.508 32.2473C421.326 32.5261 421.056 32.7476 420.698 32.912C421.163 33.0192 421.524 33.2425 421.781 33.582C422.038 33.9179 422.167 34.3396 422.167 34.847C422.167 35.5331 421.917 36.1156 421.417 36.5944C420.916 37.0697 420.284 37.3073 419.519 37.3073C418.829 37.3073 418.256 37.1019 417.799 36.6909C417.345 36.28 417.086 35.7475 417.021 35.0936ZM423.127 33.2926C423.127 32.3635 423.221 31.6166 423.411 31.052C423.604 30.4839 423.888 30.0461 424.263 29.7388C424.642 29.4315 425.117 29.2778 425.689 29.2778C426.11 29.2778 426.48 29.3636 426.798 29.5351C427.116 29.7031 427.379 29.9478 427.586 30.2694C427.793 30.5875 427.956 30.977 428.074 31.438C428.192 31.8954 428.251 32.5136 428.251 33.2926C428.251 34.2145 428.156 34.9596 427.967 35.5278C427.777 36.0924 427.493 36.5301 427.115 36.841C426.739 37.1483 426.264 37.302 425.689 37.302C424.931 37.302 424.336 37.0304 423.904 36.4872C423.386 35.8333 423.127 34.7684 423.127 33.2926ZM424.118 33.2926C424.118 34.5826 424.268 35.442 424.568 35.8708C424.872 36.2961 425.246 36.5087 425.689 36.5087C426.132 36.5087 426.503 36.2943 426.804 35.8655C427.107 35.4366 427.259 34.579 427.259 33.2926C427.259 31.999 427.107 31.1396 426.804 30.7143C426.503 30.2891 426.128 30.0765 425.678 30.0765C425.235 30.0765 424.881 30.2641 424.617 30.6393C424.284 31.1181 424.118 32.0026 424.118 33.2926ZM429.757 37.168V36.0691H430.856V37.168C430.856 37.5718 430.784 37.8969 430.641 38.1435C430.499 38.3937 430.272 38.5866 429.961 38.7224L429.693 38.3097C429.896 38.2203 430.047 38.0881 430.143 37.913C430.239 37.7415 430.293 37.4932 430.304 37.168H429.757ZM435.385 37.168V35.2866H431.976V34.4021L435.562 29.31H436.35V34.4021H437.411V35.2866H436.35V37.168H435.385ZM435.385 34.4021V30.8591L432.925 34.4021H435.385ZM438.467 30.3391V29.4118H443.554V30.1622C443.054 30.6947 442.557 31.4022 442.064 32.2849C441.574 33.1675 441.196 34.0752 440.928 35.0078C440.735 35.6653 440.611 36.3854 440.558 37.168H439.566C439.577 36.5498 439.698 35.8029 439.931 34.9274C440.163 34.0519 440.495 33.2086 440.928 32.3974C441.364 31.5827 441.826 30.8966 442.316 30.3391H438.467ZM449.584 36.2407V37.168H444.39C444.383 36.9357 444.421 36.7124 444.503 36.4979C444.635 36.1442 444.846 35.7958 445.135 35.4527C445.428 35.1097 445.85 34.713 446.4 34.2628C447.254 33.5624 447.832 33.0085 448.132 32.6011C448.432 32.1902 448.582 31.8025 448.582 31.438C448.582 31.0556 448.444 30.734 448.169 30.4731C447.898 30.2087 447.542 30.0765 447.103 30.0765C446.638 30.0765 446.266 30.2158 445.988 30.4946C445.709 30.7733 445.568 31.1592 445.564 31.6524L444.573 31.5505C444.64 30.8108 444.896 30.248 445.339 29.8621C445.782 29.4726 446.377 29.2778 447.124 29.2778C447.878 29.2778 448.475 29.4869 448.914 29.905C449.354 30.3231 449.574 30.8412 449.574 31.4594C449.574 31.7739 449.509 32.083 449.381 32.3867C449.252 32.6905 449.038 33.0103 448.737 33.3462C448.441 33.6821 447.946 34.1431 447.253 34.7291C446.674 35.2151 446.302 35.5456 446.138 35.7207C445.973 35.8923 445.838 36.0656 445.73 36.2407H449.584ZM451.144 37.168V36.0691H452.243V37.168C452.243 37.5718 452.171 37.8969 452.029 38.1435C451.886 38.3937 451.659 38.5866 451.348 38.7224L451.08 38.3097C451.283 38.2203 451.434 38.0881 451.53 37.913C451.626 37.7415 451.68 37.4932 451.691 37.168H451.144ZM457.314 37.168H456.349V31.0199C456.117 31.2414 455.811 31.463 455.432 31.6845C455.057 31.9061 454.719 32.0722 454.419 32.183V31.2504C454.959 30.9966 455.43 30.6893 455.834 30.3284C456.238 29.9675 456.524 29.6173 456.692 29.2778H457.314V37.168ZM459.935 35.3509L460.862 35.2651C460.941 35.7011 461.091 36.0173 461.312 36.2139C461.534 36.4104 461.818 36.5087 462.165 36.5087C462.461 36.5087 462.72 36.4408 462.942 36.305C463.167 36.1692 463.351 35.9887 463.494 35.7636C463.637 35.5349 463.757 35.2276 463.853 34.8417C463.949 34.4557 463.998 34.0627 463.998 33.6624C463.998 33.6195 463.996 33.5552 463.992 33.4695C463.799 33.7768 463.535 34.0269 463.199 34.2199C462.867 34.4093 462.506 34.504 462.116 34.504C461.466 34.504 460.916 34.2681 460.465 33.7964C460.015 33.3247 459.79 32.703 459.79 31.9311C459.79 31.1342 460.024 30.4928 460.492 30.0068C460.964 29.5208 461.554 29.2778 462.261 29.2778C462.772 29.2778 463.238 29.4154 463.66 29.6906C464.085 29.9657 464.407 30.3588 464.625 30.8698C464.846 31.3772 464.957 32.1133 464.957 33.0782C464.957 34.0823 464.848 34.8828 464.63 35.4795C464.412 36.0727 464.087 36.5248 463.655 36.8356C463.226 37.1465 462.722 37.302 462.143 37.302C461.528 37.302 461.026 37.1322 460.637 36.7928C460.247 36.4497 460.013 35.9691 459.935 35.3509ZM463.885 31.8829C463.885 31.329 463.737 30.8894 463.44 30.5643C463.147 30.2391 462.793 30.0765 462.379 30.0765C461.95 30.0765 461.577 30.2516 461.259 30.6018C460.941 30.952 460.782 31.4058 460.782 31.9633C460.782 32.4635 460.932 32.8709 461.232 33.1854C461.536 33.4963 461.909 33.6517 462.352 33.6517C462.799 33.6517 463.165 33.4963 463.451 33.1854C463.74 32.8709 463.885 32.4367 463.885 31.8829ZM465.965 30.3391V29.4118H471.052V30.1622C470.551 30.6947 470.055 31.4022 469.562 32.2849C469.072 33.1675 468.693 34.0752 468.425 35.0078C468.232 35.6653 468.109 36.3854 468.055 37.168H467.064C467.074 36.5498 467.196 35.8029 467.428 34.9274C467.66 34.0519 467.993 33.2086 468.425 32.3974C468.861 31.5827 469.324 30.8966 469.813 30.3391H465.965ZM472.553 37.168V36.0691H473.651V37.168H472.553ZM475.211 35.3509L476.138 35.2651C476.217 35.7011 476.367 36.0173 476.589 36.2139C476.81 36.4104 477.094 36.5087 477.441 36.5087C477.738 36.5087 477.997 36.4408 478.218 36.305C478.443 36.1692 478.627 35.9887 478.77 35.7636C478.913 35.5349 479.033 35.2276 479.129 34.8417C479.226 34.4557 479.274 34.0627 479.274 33.6624C479.274 33.6195 479.272 33.5552 479.269 33.4695C479.076 33.7768 478.811 34.0269 478.476 34.2199C478.143 34.4093 477.782 34.504 477.393 34.504C476.742 34.504 476.192 34.2681 475.742 33.7964C475.292 33.3247 475.066 32.703 475.066 31.9311C475.066 31.1342 475.301 30.4928 475.769 30.0068C476.24 29.5208 476.83 29.2778 477.537 29.2778C478.048 29.2778 478.515 29.4154 478.936 29.6906C479.362 29.9657 479.683 30.3588 479.901 30.8698C480.123 31.3772 480.234 32.1133 480.234 33.0782C480.234 34.0823 480.125 34.8828 479.907 35.4795C479.689 36.0727 479.364 36.5248 478.931 36.8356C478.502 37.1465 477.998 37.302 477.42 37.302C476.805 37.302 476.303 37.1322 475.913 36.7928C475.524 36.4497 475.29 35.9691 475.211 35.3509ZM479.162 31.8829C479.162 31.329 479.013 30.8894 478.717 30.5643C478.424 30.2391 478.07 30.0765 477.655 30.0765C477.227 30.0765 476.853 30.2516 476.535 30.6018C476.217 30.952 476.058 31.4058 476.058 31.9633C476.058 32.4635 476.208 32.8709 476.508 33.1854C476.812 33.4963 477.186 33.6517 477.629 33.6517C478.075 33.6517 478.442 33.4963 478.727 33.1854C479.017 32.8709 479.162 32.4367 479.162 31.8829ZM484.27 37.168V35.2866H480.861V34.4021L484.447 29.31H485.235V34.4021H486.296V35.2866H485.235V37.168H484.27ZM484.27 34.4021V30.8591L481.81 34.4021H484.27Z" fill="#EAECEF"/>
</g>
<defs>
<clipPath id="clip0_353_6216">
<rect width="484.339" height="35.4868" fill="white" transform="translate(32.3055 7.17578)"/>
</clipPath>
<clipPath id="clip1_353_6216">
<rect width="88.3718" height="16.998" fill="white" transform="translate(32.3055 7.17578)"/>
</clipPath>
<clipPath id="clip2_353_6216">
<rect width="93.1146" height="16.998" fill="white" transform="translate(282.029 7.17578)"/>
</clipPath>
<clipPath id="clip3_353_6216">
<rect width="101.442" height="16.998" fill="white" transform="translate(395.173 7.17578)"/>
</clipPath>
</defs>
</svg>
