<svg width="22" height="14" viewBox="0 0 22 14" fill="none" xmlns="http://www.w3.org/2000/svg">
<path d="M20 14H2C0.895431 14 0 13.1046 0 12V2.00005C0 0.895477 0.89543 4.673e-05 2 4.673e-05H20C21.1046 4.673e-05 22 0.895479 22 2.00005V12C22 13.1046 21.1046 14 20 14Z" fill="#000066"/>
<path d="M1.01053 14C0.452431 14 0 13.5476 0 12.9895C0 12.644 0.176512 12.3224 0.467992 12.1369L19.0724 0.297807C19.3781 0.103309 19.7328 0 20.0951 0H20.9895C21.5476 0 22 0.452412 22 1.01049C22 1.35598 21.8235 1.67752 21.532 1.863L2.92756 13.7022C2.62194 13.8966 2.26718 14 1.90492 14L1.01053 14ZM20.9895 14C21.5476 14 22 13.5476 22 12.9895C22 12.644 21.8235 12.3225 21.532 12.137L2.92758 0.297853C2.62194 0.103354 2.26717 4.673e-05 1.9049 4.673e-05H1.01049C0.452411 4.673e-05 0 0.452458 0 1.01054C0 1.35602 0.176509 1.67756 0.467984 1.86305L19.0724 13.7022C19.3781 13.8967 19.7328 14 20.0951 14H20.9895Z" fill="white"/>
<path d="M11 14C9.98748 14 9.16667 13.1792 9.16667 12.1667V1.83338C9.16667 0.82086 9.98748 4.673e-05 11 4.673e-05C12.0125 4.673e-05 12.8333 0.820858 12.8333 1.83338V12.1667C12.8333 13.1792 12.0125 14 11 14ZM2 9.33335C0.89543 9.33335 0 8.43792 0 7.33335V6.6667C0 5.56213 0.895431 4.6667 2 4.6667H20C21.1046 4.6667 22 5.56213 22 6.6667V7.33335C22 8.43792 21.1046 9.33335 20 9.33335H2Z" fill="white"/>
<path d="M1.4 8.40002C0.6268 8.40002 0 7.77322 0 7.00002C0 6.22683 0.626799 5.60003 1.4 5.60003H20.6C21.3732 5.60003 22 6.22683 22 7.00002C22 7.77322 21.3732 8.40002 20.6 8.40002H1.4ZM11 14C10.3925 14 9.9 13.5075 9.9 12.9V1.10005C9.9 0.492535 10.3925 4.673e-05 11 4.673e-05C11.6075 4.673e-05 12.1 0.492534 12.1 1.10005V12.9C12.1 13.5075 11.6075 14 11 14Z" fill="#CC0000"/>
<path d="M1.51156 4.673e-05C1.07119 4.673e-05 0.903727 0.575143 1.27524 0.811563L7.2252 4.59788C7.29582 4.64283 7.3778 4.6667 7.46151 4.6667C7.90187 4.6667 8.06934 4.0916 7.69782 3.85518L1.74787 0.068861C1.67725 0.0239182 1.59527 4.673e-05 1.51156 4.673e-05ZM0 13.1981C0 13.5455 0.383466 13.756 0.676508 13.5695L6.05809 10.1449C6.42961 9.90845 6.26214 9.33335 5.82177 9.33335C5.73806 9.33335 5.65609 9.35722 5.58546 9.40216L0.203863 12.8268C0.0768911 12.9076 0 13.0476 0 13.1981ZM14.5385 9.33335C14.0981 9.33335 13.9307 9.90845 14.3022 10.1449L20.2521 13.9312C20.3228 13.9761 20.4047 14 20.4884 14C20.9288 14 21.0963 13.4249 20.7248 13.1885L14.7748 9.40216C14.7042 9.35722 14.6222 9.33335 14.5385 9.33335ZM22 0.801883C22 0.454553 21.6166 0.244059 21.3235 0.430532L15.9419 3.85518C15.5704 4.0916 15.7379 4.6667 16.1782 4.6667C16.2619 4.6667 16.3439 4.64283 16.4145 4.59788L21.7961 1.17323C21.9231 1.09244 22 0.952375 22 0.801883Z" fill="#CC0000"/>
</svg>
