<svg width="238" height="237" viewBox="0 0 238 237" fill="none" xmlns="http://www.w3.org/2000/svg">
<path d="M0.999659 118.486C0.999661 102.926 4.06441 87.5188 10.0189 73.1434C15.9734 58.7679 24.7011 45.7061 35.7036 34.7036C46.7061 23.7011 59.7679 14.9734 74.1434 9.01894C88.5188 3.06444 103.926 -0.000302316 119.486 -0.000300275C135.046 -0.000298235 150.454 3.06445 164.829 9.01895C179.204 14.9735 192.266 23.7011 203.269 34.7036C214.271 45.7061 222.999 58.7679 228.953 73.1434C234.908 87.5188 237.973 102.926 237.973 118.486L190.728 118.486C190.728 109.131 188.885 99.8665 185.305 91.2231C181.725 82.5796 176.477 74.7259 169.862 68.1105C163.246 61.4951 155.393 56.2474 146.749 52.6672C138.106 49.0869 128.842 47.2442 119.486 47.2442C110.131 47.2442 100.867 49.0869 92.223 52.6672C83.5796 56.2474 75.7259 61.4951 69.1105 68.1105C62.495 74.7259 57.2474 82.5796 53.6672 91.223C50.0869 99.8665 48.2442 109.131 48.2442 118.486L0.999659 118.486Z" fill="#F94144"/>
<path d="M0.594386 118.514C0.594389 87.7334 12.5723 58.1613 33.9926 36.0573C55.4129 13.9532 84.5942 1.05233 115.359 0.085509L116.843 47.3028C98.344 47.8841 80.7973 55.6414 67.9173 68.9326C55.0373 82.2237 47.835 100.005 47.835 118.514L0.594386 118.514Z" fill="#F3722C"/>
</svg>
