<svg width="25" height="32" viewBox="0 0 25 32" fill="none" xmlns="http://www.w3.org/2000/svg">
<g id="fxemoji:hand" clip-path="url(#clip0_1708_7656)">
<path id="Vector" d="M24.5562 15.1125C23.875 14.5063 22.3687 13.6687 19.275 16.6437C18.7 17.1937 18.3562 17.3937 17.9187 17.8687V3.19375C17.9187 2.24375 17.1687 1.46875 16.2125 1.46875C15.2562 1.46875 14.4812 2.24375 14.4812 3.19375V11.9C14.4812 12.7125 13.4312 12.7812 13.25 12.1125V1.725C13.25 0.775 12.5 0 11.5437 0C10.5875 0 9.81245 0.76875 9.81245 1.725V12.1438C9.6812 12.7812 8.7437 12.7563 8.67495 12.0688V2.96875C8.67495 2.01875 7.92495 1.25 6.9687 1.25C6.01245 1.25 5.23745 2.01875 5.23745 2.96875V11.925C5.2312 11.9375 5.2312 11.9563 5.2312 11.9875C5.2312 12.7688 4.22495 12.8375 4.0437 12.2063V5.79375C4.0437 4.84375 3.2937 4.075 2.33745 4.075C1.3812 4.075 0.606201 4.84375 0.606201 5.79375V20.8813C0.606201 23.9438 2.4062 26.5875 5.0062 27.8125V30.2625C5.0062 31.2125 5.7812 31.9875 6.7312 31.9875H13.6312C14.5812 31.9875 15.3562 31.2125 15.3562 30.2625V28.525C16.5 28.3937 17.5 27.7875 18.15 26.9062C18.1625 26.8937 18.1687 26.8813 18.1749 26.8687C18.1937 26.8438 18.2125 26.8188 18.225 26.7938C18.2812 26.7313 18.35 26.6187 18.4312 26.4562C18.475 26.3812 18.5124 26.3062 18.5499 26.225C19.3437 24.6187 21.1562 20.2687 24.4062 17.4562C25.075 16.7875 25.2375 15.7188 24.5562 15.1125Z" fill="#FFD3B6"/>
<path id="Vector_2" d="M14.975 28.5559H9.6313L9.6438 28.5434H8.2438C7.0813 28.5434 5.97505 28.2809 4.98755 27.8184V30.0059C5.30005 30.1684 5.60005 30.2746 5.8563 30.2746H14.4875C14.7375 30.2746 15.0313 30.1934 15.3375 30.0621V28.5371C15.2188 28.5434 15.1 28.5496 14.975 28.5559Z" fill="#F2C7AA"/>
</g>
<defs>
<clipPath id="clip0_1708_7656">
<rect width="25" height="32" fill="white"/>
</clipPath>
</defs>
</svg>
