<svg width="24" height="24" viewBox="0 0 24 24" fill="none" xmlns="http://www.w3.org/2000/svg">
<circle cx="12" cy="12" r="12" fill="#5B5767"/>
<path d="M9.375 7.625C9.375 6.92881 9.65156 6.26113 10.1438 5.76884C10.6361 5.27656 11.3038 5 12 5C12.6962 5 13.3639 5.27656 13.8562 5.76884C14.3484 6.26113 14.625 6.92881 14.625 7.625M9.375 7.625H14.625M9.375 7.625H6.75M14.625 7.625H17.25M6.75 7.625H5M6.75 7.625V17.25C6.75 17.7141 6.93437 18.1592 7.26256 18.4874C7.59075 18.8156 8.03587 19 8.5 19H15.5C15.9641 19 16.4092 18.8156 16.7374 18.4874C17.0656 18.1592 17.25 17.7141 17.25 17.25V7.625M17.25 7.625H19" stroke="white" stroke-width="1.2" stroke-linecap="round" stroke-linejoin="round"/>
</svg>
