<svg width="64" height="64" viewBox="0 0 64 64" fill="none" xmlns="http://www.w3.org/2000/svg">
<path d="M0.956822 0.223684C0.869114 0.262978 0.641925 0.476924 0.451838 0.699019L0.106323 1.10286V4.04266C0.106323 5.6922 0.151612 7.08706 0.209552 7.22071C0.266323 7.35187 0.506483 7.55504 0.74324 7.67213C1.1199 7.85835 1.83507 7.88502 6.46359 7.88502C11.0064 7.88502 11.7857 7.91302 11.9823 8.0832C12.137 8.21725 12.2498 8.52594 12.3304 9.03597C12.396 9.45099 12.7104 11.1507 13.029 12.8132C13.3476 14.4756 13.9004 17.3733 14.2573 19.2526C14.6142 21.1318 15.1609 24 15.472 25.6263C15.783 27.2526 16.3316 30.1208 16.691 32C17.0504 33.8793 17.6038 36.7474 17.9209 38.3737C18.2379 40 18.5238 41.5376 18.5561 41.7906C18.5885 42.0435 18.8572 43.4271 19.1532 44.8652C19.8179 48.0935 19.8226 47.9845 18.9375 49.9509C18.7555 50.3553 18.4763 51.1536 18.3171 51.725C18.0563 52.6605 18.0273 52.9471 18.0253 54.6037C18.0232 56.2843 18.0488 56.5346 18.3204 57.4949C18.7163 58.8941 18.7853 59.0689 19.3136 60.0086C20.259 61.6902 22.142 63.3243 23.6013 63.7294C24.4323 63.9601 26.0515 63.899 26.8061 63.6085C27.6306 63.2912 29.0065 62.303 29.8198 61.4441C30.551 60.6719 31.6173 58.9109 31.8493 58.0926C31.9425 57.7639 32.0556 57.4062 32.1007 57.2978C32.1721 57.1259 33.1354 57.0963 39.6247 57.0669L47.0669 57.0332L47.2557 57.6582C48.1551 60.6369 49.9487 62.8219 52.1993 63.6804C52.5387 63.8099 53.1567 63.8537 54.3256 63.8314C55.8456 63.8025 56.0252 63.7727 56.6415 63.4475C58.7767 62.3205 60.1987 60.4069 60.9947 57.5892C61.2501 56.6847 61.2815 56.383 61.2844 54.8008C61.2879 52.8005 61.1107 51.8513 60.4142 50.1412C59.9594 49.0244 59.5489 48.4121 58.723 47.6182C57.4325 46.3778 56.1451 45.8645 54.3256 45.8646C52.2989 45.8648 50.4855 46.7742 49.2082 48.4308L48.7551 49.0185H39.6523H30.5494L29.9513 48.1815C28.9309 46.7537 27.8614 46.0403 26.2131 45.6883C25.4182 45.5185 25.4446 45.553 25.2693 44.4518L25.2013 44.0247L39.7369 44.0239C49.9168 44.0235 54.3978 43.9802 54.6907 43.8797C55.5739 43.5765 56.129 42.6842 56.4935 40.9809C56.5761 40.5951 56.8199 39.6879 57.0354 38.9651C57.2508 38.2423 57.5016 37.3553 57.5925 36.9939C57.6835 36.6325 58.0137 35.4368 58.3262 34.3369C58.6387 33.2369 58.9387 32.1133 58.9927 31.8399C59.0938 31.3291 59.7928 28.7229 60.7297 25.3635C61.022 24.3154 61.3016 23.2805 61.3509 23.0637C61.4004 22.8468 61.6636 21.8711 61.936 20.8953C62.2082 19.9195 62.4807 18.8846 62.5413 18.5955C62.6019 18.3064 62.931 17.1034 63.2726 15.9221C63.8411 13.9563 63.8937 13.6817 63.8937 12.6796C63.8937 11.6853 63.8677 11.5467 63.6102 11.1683C63.4542 10.9392 63.1432 10.6086 62.919 10.4337C61.9639 9.68846 63.1471 9.72486 39.9144 9.72486C19.3759 9.72486 18.5244 9.7154 18.3563 9.48581C18.2594 9.35334 18.0649 8.54053 17.9203 7.66306C17.7768 6.79203 17.5663 5.61335 17.4524 5.04379C17.3387 4.47423 17.2174 3.72765 17.1831 3.38479C17.0643 2.19993 16.1565 0.630419 15.3818 0.270469C15.0717 0.126436 1.27374 0.0816226 0.956822 0.223684ZM26.2136 52.0137C27.4366 52.7887 27.9303 54.6815 27.3005 56.1807C27.0003 56.8954 26.7271 57.2515 26.1528 57.6777C25.6417 58.0571 24.5091 58.0634 23.9173 57.6902C23.4284 57.3817 22.718 56.3286 22.5339 55.6389C22.2756 54.6717 22.6317 53.2552 23.3411 52.4273C24.0001 51.6583 25.3468 51.4643 26.2136 52.0137ZM54.9707 51.8568C55.8169 52.1645 56.4743 53.036 56.6552 54.09C56.7692 54.7537 56.7647 54.9939 56.6263 55.6586C56.4915 56.3062 56.3735 56.5447 55.9524 57.0216C55.3164 57.7418 54.9126 57.9556 54.1961 57.9519C53.4627 57.9481 52.8695 57.6033 52.367 56.8885C51.841 56.1401 51.6678 55.6209 51.6678 54.792C51.6678 53.5264 52.4394 52.2194 53.3914 51.8727C54.1213 51.6069 54.2792 51.6053 54.9707 51.8568Z" fill="#726C86" stroke="#726C86" stroke-width="1.33333"/>
</svg>
