<svg width="64" height="79" viewBox="0 0 64 79" fill="none" xmlns="http://www.w3.org/2000/svg">
<g id="home">
<path id="Vector" d="M43.042 37.9849V49.0798C43.042 49.5891 42.8396 50.0775 42.4795 50.4376C42.1194 50.7977 41.631 51 41.1218 51H36.3214C35.8121 51 35.3237 50.7977 34.9636 50.4376C34.6035 50.0775 34.4012 49.5891 34.4012 49.0798V44.2794C34.4012 44.0248 34.3001 43.7806 34.12 43.6005C33.94 43.4205 33.6958 43.3193 33.4411 43.3193H29.6008C29.3462 43.3193 29.102 43.4205 28.9219 43.6005C28.7419 43.7806 28.6407 44.0248 28.6407 44.2794V49.0798C28.6407 49.5891 28.4384 50.0775 28.0783 50.4376C27.7182 50.7977 27.2298 51 26.7206 51H21.9202C21.4109 51 20.9225 50.7977 20.5624 50.4376C20.2023 50.0775 20 49.5891 20 49.0798V37.9849C20 37.7191 20.0551 37.4563 20.1619 37.2129C20.2687 36.9696 20.4248 36.7511 20.6205 36.5712L30.2213 27.5128L30.2345 27.4996C30.5879 27.1781 31.0486 27 31.5264 27C32.0042 27 32.4648 27.1781 32.8183 27.4996C32.8224 27.5043 32.8268 27.5087 32.8315 27.5128L42.4323 36.5712C42.626 36.752 42.7801 36.971 42.885 37.2143C42.9899 37.4576 43.0434 37.7199 43.042 37.9849Z" fill="#706A84"/>
</g>
</svg>
