<svg width="19" height="18" viewBox="0 0 19 18" fill="none" xmlns="http://www.w3.org/2000/svg">
<g id="Coinbase-icon-symbol-1 1" clip-path="url(#clip0_1250_2398)">
<path id="Vector" d="M9.5 0C14.4711 0 18.5 4.02891 18.5 9C18.5 13.9711 14.4711 18 9.5 18C4.52891 18 0.5 13.9711 0.5 9C0.5 4.02891 4.52891 0 9.5 0Z" fill="#0052FF"/>
<path id="Vector_2" d="M9.50176 12.1641C7.75449 12.1641 6.3377 10.749 6.3377 9C6.3377 7.25098 7.75449 5.83594 9.50176 5.83594C11.068 5.83594 12.3688 6.97852 12.6184 8.47266H15.8053C15.5363 5.22422 12.817 2.67188 9.5 2.67188C6.00547 2.67188 3.17188 5.50547 3.17188 9C3.17188 12.4945 6.00547 15.3281 9.5 15.3281C12.817 15.3281 15.5363 12.7758 15.8053 9.52734H12.6166C12.3652 11.0215 11.068 12.1641 9.50176 12.1641Z" fill="white"/>
</g>
<defs>
<clipPath id="clip0_1250_2398">
<rect width="18" height="18" fill="white" transform="translate(0.5)"/>
</clipPath>
</defs>
</svg>
