<svg width="19" height="18" viewBox="0 0 19 18" fill="none" xmlns="http://www.w3.org/2000/svg">
<g id="Frame 76230">
<g id="google">
<path id="Vector" d="M18.3249 7.23735H17.6V7.2H9.5V10.8H14.5864C13.8443 12.8956 11.8503 14.4 9.5 14.4C6.51785 14.4 4.1 11.9822 4.1 9C4.1 6.01785 6.51785 3.6 9.5 3.6C10.8765 3.6 12.1289 4.1193 13.0824 4.96755L15.6281 2.4219C14.0207 0.92385 11.8706 0 9.5 0C4.52975 0 0.5 4.02975 0.5 9C0.5 13.9703 4.52975 18 9.5 18C14.4703 18 18.5 13.9703 18.5 9C18.5 8.39655 18.4379 7.8075 18.3249 7.23735Z" fill="#FFC107"/>
<path id="Vector_2" d="M1.53763 4.81095L4.49458 6.9795C5.29468 4.9986 7.23238 3.6 9.49993 3.6C10.8765 3.6 12.1288 4.1193 13.0824 4.96755L15.628 2.4219C14.0206 0.92385 11.8705 0 9.49993 0C6.04303 0 3.04513 1.95165 1.53763 4.81095Z" fill="#FF3D00"/>
<path id="Vector_3" d="M9.49998 17.9989C11.8247 17.9989 13.937 17.1093 15.534 15.6625L12.7485 13.3054C11.8146 14.0157 10.6733 14.3999 9.49998 14.3989C7.15908 14.3989 5.17143 12.9063 4.42263 10.8232L1.48773 13.0845C2.97723 15.9991 6.00213 17.9989 9.49998 17.9989Z" fill="#4CAF50"/>
<path id="Vector_4" d="M18.325 7.23755H17.6V7.2002H9.5V10.8002H14.5864C14.2314 11.7976 13.592 12.6691 12.7472 13.3071L12.7485 13.3062L15.534 15.6633C15.3369 15.8424 18.5 13.5002 18.5 9.0002C18.5 8.39675 18.4379 7.8077 18.325 7.23755Z" fill="#1976D2"/>
</g>
</g>
</svg>
