<svg width="19" height="18" viewBox="0 0 19 18" fill="none" xmlns="http://www.w3.org/2000/svg">
<g id="Frame 76232">
<path id="apple" d="M14.5817 9.51237C14.5731 8.03695 15.2416 6.92497 16.5915 6.10505C15.8365 5.02336 14.6942 4.42843 13.1885 4.31378C11.7629 4.20128 10.2031 5.14451 9.63194 5.14451C9.02835 5.14451 7.64812 4.35272 6.5621 4.35272C4.32084 4.38733 1.93896 6.13967 1.93896 9.70491C1.93896 10.7585 2.13151 11.8467 2.51659 12.9673C3.03147 14.4427 4.88765 18.0577 6.82387 17.9993C7.83633 17.9755 8.55241 17.2811 9.86991 17.2811C11.1485 17.2811 11.8105 17.9993 12.9397 17.9993C14.8933 17.9712 16.5721 14.685 17.061 13.2053C14.4411 11.97 14.5817 9.58809 14.5817 9.51237ZM12.308 2.91407C13.4049 1.61172 13.3054 0.426185 13.2729 0C12.3037 0.0562478 11.1831 0.65983 10.5449 1.40187C9.84178 2.19799 9.42858 3.18233 9.51728 4.29214C10.5644 4.37219 11.5206 3.83351 12.308 2.91407Z" fill="black"/>
</g>
</svg>
