<svg width="24" height="24" viewBox="0 0 24 24" fill="none" xmlns="http://www.w3.org/2000/svg">
<g id="icon" clip-path="url(#clip0_336_3959)">
<path id="Vector" fill-rule="evenodd" clip-rule="evenodd" d="M6.0992 1.2C5.76884 1.95694 5.59887 2.77411 5.6 3.6C5.6 4.23652 5.85286 4.84697 6.30294 5.29706C6.75303 5.74715 7.36348 6 8 6H15.2C15.8365 6 16.447 5.74715 16.8971 5.29706C17.3471 4.84697 17.6 4.23652 17.6 3.6C17.6 2.7468 17.4224 1.9344 17.1008 1.2H18.8C19.4365 1.2 20.047 1.45286 20.4971 1.90295C20.9471 2.35303 21.2 2.96348 21.2 3.6V21.6C21.2 22.2365 20.9471 22.847 20.4971 23.2971C20.047 23.7471 19.4365 24 18.8 24H4.4C3.76348 24 3.15303 23.7471 2.70294 23.2971C2.25286 22.847 2 22.2365 2 21.6V3.6C2 2.96348 2.25286 2.35303 2.70294 1.90295C3.15303 1.45286 3.76348 1.2 4.4 1.2H6.0992ZM11.6 14.4H8C7.68174 14.4 7.37651 14.5264 7.15147 14.7515C6.92643 14.9765 6.8 15.2817 6.8 15.6C6.8 15.9183 6.92643 16.2235 7.15147 16.4485C7.37651 16.6736 7.68174 16.8 8 16.8H11.6C11.9183 16.8 12.2235 16.6736 12.4485 16.4485C12.6736 16.2235 12.8 15.9183 12.8 15.6C12.8 15.2817 12.6736 14.9765 12.4485 14.7515C12.2235 14.5264 11.9183 14.4 11.6 14.4ZM15.2 9.6H8C7.69414 9.60034 7.39996 9.71746 7.17756 9.92742C6.95515 10.1374 6.82132 10.4243 6.80339 10.7297C6.78547 11.035 6.88481 11.3357 7.08112 11.5702C7.27742 11.8047 7.55588 11.9555 7.8596 11.9916L8 12H15.2C15.5183 12 15.8235 11.8736 16.0485 11.6485C16.2736 11.4235 16.4 11.1183 16.4 10.8C16.4 10.4817 16.2736 10.1765 16.0485 9.95147C15.8235 9.72643 15.5183 9.6 15.2 9.6ZM11.6 3.89558e-06C12.1066 -0.0007426 12.6076 0.105805 13.0701 0.312636C13.5326 0.519466 13.946 0.82189 14.2832 1.2C14.7968 1.7736 15.128 2.5116 15.1892 3.3264L15.2 3.6H8C8 2.73 8.3084 1.932 8.822 1.3104L8.9168 1.2C9.5768 0.463204 10.5344 3.89558e-06 11.6 3.89558e-06Z" fill="#726C86"/>
</g>
<defs>
<clipPath id="clip0_336_3959">
<rect width="24" height="24" fill="white"/>
</clipPath>
</defs>
</svg>
