<svg width="25" height="25" viewBox="0 0 25 25" fill="none" xmlns="http://www.w3.org/2000/svg">
<g id="ion:ticket-outline" clip-path="url(#clip0_4636_10616)">
<path id="Vector" d="M17.1825 7.57343C16.7925 7.18334 16.5642 6.66042 16.5431 6.10925C16.5221 5.55808 16.7099 5.01928 17.069 4.60061C17.0987 4.56579 17.1142 4.52103 17.1123 4.47531C17.1103 4.42958 17.0912 4.38627 17.0587 4.35405L14.9901 2.28311C14.9559 2.24894 14.9096 2.22974 14.8612 2.22974C14.8129 2.22974 14.7665 2.24894 14.7323 2.28311L11.4351 5.5803C11.3135 5.70192 11.2218 5.85022 11.1675 6.01343C11.1133 6.17701 11.0218 6.32572 10.9001 6.44777C10.7785 6.56982 10.6301 6.66185 10.4667 6.71655C10.3034 6.77097 10.1549 6.8626 10.0331 6.98421L1.5773 15.4381C1.54313 15.4723 1.52393 15.5187 1.52393 15.567C1.52393 15.6154 1.54313 15.6617 1.5773 15.6959L3.6459 17.7645C3.67811 17.797 3.72143 17.8161 3.76715 17.8181C3.81288 17.82 3.85764 17.8045 3.89246 17.7748C4.31104 17.4153 4.84995 17.2272 5.40132 17.2481C5.95268 17.269 6.4758 17.4974 6.86595 17.8876C7.2561 18.2777 7.48449 18.8009 7.5054 19.3522C7.52631 19.9036 7.33819 20.4425 6.97871 20.8611C6.94901 20.8959 6.93357 20.9407 6.93548 20.9864C6.93739 21.0321 6.95652 21.0754 6.98902 21.1076L9.05762 23.1762C9.09181 23.2104 9.13818 23.2296 9.18652 23.2296C9.23487 23.2296 9.28123 23.2104 9.31543 23.1762L17.7717 14.7205C17.8933 14.5986 17.9849 14.4502 18.0393 14.2869C18.0935 14.1233 18.185 13.9746 18.3067 13.8525C18.4283 13.7305 18.5767 13.6384 18.7401 13.5837C18.9033 13.5294 19.0516 13.4377 19.1732 13.3161L22.4704 10.0189C22.5046 9.9847 22.5238 9.93833 22.5238 9.88999C22.5238 9.84164 22.5046 9.79528 22.4704 9.76108L20.4018 7.69249C20.3696 7.65998 20.3263 7.64086 20.2806 7.63895C20.2349 7.63703 20.1901 7.65248 20.1553 7.68218C19.7372 8.04188 19.1987 8.23051 18.6476 8.21035C18.0964 8.19019 17.5732 7.96272 17.1825 7.57343Z" stroke="#848E9C" stroke-width="1.3" stroke-miterlimit="10"/>
<path id="Vector_2" d="M11.7661 7.31297L10.9922 6.53906M13.8295 9.37641L13.3134 8.86078M15.893 11.4403L15.3773 10.9242M18.2147 13.7616L17.4408 12.9877" stroke="#848E9C" stroke-width="1.3" stroke-miterlimit="10" stroke-linecap="round"/>
</g>
<defs>
<clipPath id="clip0_4636_10616">
<rect width="24" height="24" fill="white" transform="translate(0.0239258 0.729736)"/>
</clipPath>
</defs>
</svg>
