<svg width="24" height="16" viewBox="0 0 24 16" fill="none" xmlns="http://www.w3.org/2000/svg">
<path d="M21 0.75H3C1.75736 0.75 0.75 1.75736 0.75 3V13C0.75 14.2426 1.75736 15.25 3 15.25H21C22.2426 15.25 23.25 14.2426 23.25 13V3C23.25 1.75736 22.2426 0.75 21 0.75Z" fill="white" stroke="#DFDFDF" stroke-width="0.5"/>
<path d="M16.4 8.2C16.4 9.31391 15.9575 10.3822 15.1698 11.1698C14.3822 11.9575 13.3139 12.4 12.2 12.4C11.0861 12.4 10.0178 11.9575 9.23015 11.1698C8.4425 10.3822 8 9.31391 8 8.2C8 7.08609 8.4425 6.0178 9.23015 5.23015C10.0178 4.4425 11.0861 4 12.2 4C13.3139 4 14.3822 4.4425 15.1698 5.23015C15.9575 6.0178 16.4 7.08609 16.4 8.2Z" fill="#BE0026"/>
</svg>
