<svg width="24" height="17" viewBox="0 0 24 17" fill="none" xmlns="http://www.w3.org/2000/svg">
<path d="M2.20783 16.3071H21.7922C22.4579 16.3071 23 15.761 23 15.0993V2.20783C23 1.54213 22.4579 1 21.7922 1H2.20783C1.54213 1 1 1.54213 1 2.20783V15.0953C1 15.765 1.54213 16.3071 2.20783 16.3071Z" fill="#FEFEFE" stroke="#CCCCCC" stroke-width="0.5" stroke-miterlimit="2.6131"/>
<path d="M5.89885 6.88401L8.01953 3.69901M5.10161 6.35384L7.22627 3.16884M4.30835 5.82367L6.43301 2.63867" stroke="#252422" stroke-width="0.7"/>
<path d="M17.5748 14.6692L19.6994 11.4842M16.7775 14.139L18.9022 10.954M15.9803 13.6088L18.105 10.4238" stroke="#252422" stroke-width="0.7"/>
<path d="M16.5144 11.6582L19.1652 13.4281" stroke="#FEFEFE" stroke-width="0.7999"/>
<path d="M8.81696 6.53352C9.98891 4.77559 12.3647 4.30123 14.1226 5.47318C15.8806 6.64513 16.3549 9.02093 15.183 10.7789C14.011 12.5368 11.6352 13.0111 9.8773 11.8392C8.11937 10.6672 7.64501 8.29145 8.81696 6.53352Z" fill="#C62631"/>
<path d="M8.8171 6.5332C8.23112 7.41416 8.47029 8.60206 9.34726 9.18803C10.2282 9.77401 11.4161 9.53483 12.0021 8.65786C12.5881 7.77691 13.776 7.54172 14.6569 8.12769C15.5379 8.71367 15.7731 9.90157 15.1871 10.7825C14.0151 12.5405 11.6393 13.0148 9.88142 11.8429C8.11951 10.6669 7.64514 8.29113 8.8171 6.5332Z" fill="#303C70"/>
<path d="M8.01977 13.6088L5.8991 10.4238M7.22651 14.139L5.10185 10.954M6.42927 14.6692L4.30461 11.4842" stroke="#252422" stroke-width="0.7"/>
<path d="M19.6955 5.82367L17.5708 2.63867M18.9022 6.35384L16.7775 3.16884M18.105 6.88401L15.9803 3.69901" stroke="#252422" stroke-width="0.7"/>
<path d="M18.2364 4.49501L19.0337 3.96484M16.5144 5.64703L17.4432 5.02917M5.76751 12.8103L6.56476 12.2801" stroke="#FEFEFE" stroke-width="0.7999"/>
</svg>
