<svg width="20" height="20" viewBox="0 0 20 20" fill="none" xmlns="http://www.w3.org/2000/svg">
<g clip-path="url(#clip0_781_5815)">
<path d="M18.3334 10.0003C18.3334 13.9287 18.3334 15.8929 17.113 17.1133C15.8926 18.3337 13.9285 18.3337 10.0001 18.3337C6.07171 18.3337 4.10752 18.3337 2.88714 17.1133C1.66675 15.8929 1.66675 13.9287 1.66675 10.0003C1.66675 6.07195 1.66675 4.10777 2.88714 2.88738C4.10752 1.66699 6.07171 1.66699 10.0001 1.66699" stroke="#848E9C" stroke-width="1.5" stroke-linecap="round"/>
<path d="M1.66675 10.4165L3.1264 9.13927C3.8858 8.47481 5.03031 8.51292 5.74382 9.22642L9.31859 12.8012C9.89128 13.3739 10.7928 13.452 11.4554 12.9863L11.7039 12.8116C12.6574 12.1415 13.9475 12.2192 14.8138 12.9988L17.5001 15.4165" stroke="#848E9C" stroke-width="1.5" stroke-linecap="round"/>
<path d="M12.5 4.58366H15.4167M15.4167 4.58366H18.3333M15.4167 4.58366V7.50033M15.4167 4.58366V1.66699" stroke="#848E9C" stroke-width="1.5" stroke-linecap="round"/>
</g>
<defs>
<clipPath id="clip0_781_5815">
<rect width="20" height="20" fill="white"/>
</clipPath>
</defs>
</svg>
