<svg width="28" height="29" viewBox="0 0 28 29" fill="none" xmlns="http://www.w3.org/2000/svg">
<g id="Linear / Money / Wallet">
<path id="Vector" d="M7 9.83398H11.6667" stroke="white" stroke-width="1.5" stroke-linecap="round" stroke-linejoin="round"/>
<path id="Vector_2" d="M24.3056 11H21.2692C19.1875 11 17.5 12.567 17.5 14.5C17.5 16.433 19.1875 18 21.2692 18H24.3056C24.4028 18 24.4514 18 24.4924 17.9975C25.1216 17.9592 25.6227 17.4939 25.664 16.9096C25.6667 16.8715 25.6667 16.8264 25.6667 16.7361V12.2639C25.6667 12.1736 25.6667 12.1285 25.664 12.0904C25.6227 11.5061 25.1216 11.0408 24.4924 11.0025C24.4514 11 24.4028 11 24.3056 11Z" stroke="white" stroke-width="1.5"/>
<path id="Vector_3" d="M24.4593 10.9993C24.3685 8.815 24.0761 7.47572 23.1332 6.53285C21.7664 5.16602 19.5665 5.16602 15.1667 5.16602L11.6667 5.16602C7.26693 5.16602 5.06704 5.16602 3.70021 6.53285C2.33337 7.89969 2.33337 10.0996 2.33337 14.4993C2.33337 18.8991 2.33337 21.099 3.70021 22.4658C5.06704 23.8327 7.26693 23.8327 11.6667 23.8327H15.1667C19.5665 23.8327 21.7664 23.8327 23.1332 22.4658C24.0761 21.523 24.3685 20.1837 24.4593 17.9994" stroke="white" stroke-width="1.5"/>
<path id="Vector_4" d="M20.9898 14.5H20.9988" stroke="white" stroke-width="2" stroke-linecap="round" stroke-linejoin="round"/>
</g>
</svg>
