<svg width="32" height="32" viewBox="0 0 32 32" fill="none" xmlns="http://www.w3.org/2000/svg">
<g id="Linear / Video, Audio, Sound / Video Frame Play Horizontal">
<g id="Group 162980">
<path id="Vector" d="M16.0001 5C21.1857 5 23.7785 5 25.3894 6.61096C27.0004 8.22192 27.0004 10.8147 27.0004 16.0003C27.0004 21.1859 27.0004 23.7787 25.3894 25.3897C23.7785 27.0007 21.1857 27.0007 16.0001 27.0007C10.8145 27.0007 8.22168 27.0007 6.61072 25.3897C4.99976 23.7787 4.99976 21.1859 4.99976 16.0003C4.99976 10.8147 4.99976 8.22192 6.61072 6.61096C8.22168 5 10.8145 5 16.0001 5Z" stroke="#9591A4" stroke-width="2"/>
<path id="Vector_2" d="M26.4504 21.5L5.54982 21.5" stroke="#9591A4" stroke-width="2" stroke-linecap="round"/>
<path id="Vector_3" d="M26.4504 10.5L5.54982 10.5" stroke="#9591A4" stroke-width="2" stroke-linecap="round"/>
<path id="Vector_4" d="M16 5L16 10.5002M16 27.0007L16 21.5005" stroke="#9591A4" stroke-width="2" stroke-linecap="round"/>
<path id="Vector_5" d="M21.5002 5.5498L21.5002 10.5M21.5002 26.4504L21.5002 21.5003" stroke="#9591A4" stroke-width="2" stroke-linecap="round"/>
<path id="Vector_6" d="M10.4998 5.5498L10.4998 10.5M10.4998 26.4504L10.4998 21.5003" stroke="#9591A4" stroke-width="2" stroke-linecap="round"/>
<path id="Vector_7" d="M18.2002 16.0001C18.2002 15.4195 17.6176 15.0279 16.4524 14.2448C15.2713 13.451 14.6808 13.0541 14.2404 13.3455C13.8 13.6369 13.8 14.4246 13.8 16.0001C13.8 17.5755 13.8 18.3632 14.2404 18.6547C14.6808 18.9461 15.2713 18.5492 16.4524 17.7554C17.6176 16.9722 18.2002 16.5807 18.2002 16.0001Z" stroke="#9591A4" stroke-width="2" stroke-linecap="round"/>
</g>
</g>
</svg>
