<svg width="64" height="78" viewBox="0 0 64 78" fill="none" xmlns="http://www.w3.org/2000/svg">
<g id="liveComm">
<path id="Vector" d="M44.972 46.4002C45.6772 44.9665 46.0287 43.3848 45.997 41.7874C45.9653 40.19 45.5513 38.6235 44.7897 37.219C44.0281 35.8145 42.941 34.613 41.6195 33.715C40.2981 32.817 38.7807 32.2487 37.1945 32.0577C36.6684 30.8313 35.9022 29.7227 34.941 28.797C33.9798 27.8714 32.8431 27.1475 31.5978 26.668C30.3526 26.1884 29.0239 25.963 27.6901 26.0049C26.3564 26.0469 25.0445 26.3553 23.8318 26.9121C22.6191 27.4689 21.5301 28.2628 20.6289 29.247C19.7278 30.2312 19.0328 31.3858 18.5848 32.6427C18.1368 33.8997 17.9449 35.2336 18.0204 36.5659C18.0959 37.8982 18.4373 39.2019 19.0245 40.4002L18.067 43.7527C17.9815 44.0526 17.9778 44.3699 18.0561 44.6718C18.1345 44.9736 18.292 45.249 18.5126 45.4696C18.7331 45.6901 19.0085 45.8477 19.3104 45.926C19.6122 46.0044 19.9295 46.0006 20.2295 45.9152L23.582 44.9577C24.5936 45.4544 25.6818 45.7768 26.8007 45.9114C27.3341 47.161 28.1165 48.2889 29.1002 49.226C30.084 50.1632 31.2483 50.8901 32.5223 51.3624C33.7963 51.8346 35.1532 52.0422 36.5101 51.9727C37.867 51.9031 39.1955 51.5577 40.4145 50.9577L43.767 51.9152C44.0669 52.0006 44.3842 52.0044 44.6861 51.926C44.9879 51.8477 45.2633 51.6901 45.4839 51.4696C45.7044 51.249 45.862 50.9736 45.9403 50.6718C46.0186 50.3699 46.0149 50.0526 45.9295 49.7527L44.972 46.4002ZM42.9395 46.5677L43.8832 49.8689L40.582 48.9252C40.3305 48.8544 40.0613 48.8849 39.832 49.0102C37.9886 50.013 35.8252 50.2522 33.8073 49.6762C31.7893 49.1002 30.0782 47.755 29.042 45.9302C30.4113 45.7876 31.7363 45.3635 32.934 44.6846C34.1317 44.0057 35.1762 43.0866 36.0019 41.985C36.8276 40.8833 37.4167 39.6229 37.7323 38.2829C38.0478 36.9428 38.083 35.552 37.8357 34.1977C39.034 34.4801 40.1509 35.0352 41.0996 35.8199C42.0482 36.6045 42.8029 37.5975 43.305 38.7216C43.8071 39.8457 44.043 41.0704 43.9944 42.3006C43.9457 43.5307 43.6138 44.733 43.0245 45.8139C42.8982 46.0443 42.8677 46.315 42.9395 46.5677Z" fill="#8043F9"/>
</g>
</svg>
