<svg width="43" height="43" viewBox="0 0 43 43" fill="none" xmlns="http://www.w3.org/2000/svg">
<path d="M21.4998 0C18.1181 0 14.917 0.784408 12.0656 2.18066L12.7765 4.03578C15.4041 2.7219 18.3655 1.97671 21.4959 1.97671C25.9302 1.97671 30.0267 3.46316 33.3063 5.9615H36.3503C32.4933 2.27086 27.2577 0 21.4998 0Z" fill="#8043F9"/>
<path d="M39.3041 9.45461L38.4086 11.7529C40.066 14.616 41.0126 17.9341 41.0126 21.4718C41.0126 32.2182 32.2579 40.9604 21.4961 40.9604C10.7343 40.9604 1.98347 32.2182 1.98347 21.4718C1.98347 17.5497 3.14998 13.8944 5.15309 10.8352L4.30079 8.59961C1.60248 12.1883 0 16.6476 0 21.4718C0 33.3085 9.64633 42.941 21.5 42.941C33.3537 42.941 43 33.3085 43 21.4718C43 17.0242 41.6371 12.8864 39.308 9.45461H39.3041Z" fill="#8043F9"/>
<path d="M2.25842 0.433105L15.1254 34.245H23.3146L10.3337 0.433105L2.25842 0.433105Z" fill="url(#paint0_linear_4971_31218)"/>
<path d="M30.7582 6.95361L27.8635 15.99L31.6891 26.5168L35.821 15.6645L39.2145 6.95361L30.7582 6.95361Z" fill="#8043F9"/>
<path d="M16.0784 9.65088L25.493 33.7871H28.749L30.76 28.4688L23.5959 9.65088L16.0784 9.65088Z" fill="url(#paint1_linear_4971_31218)"/>
<defs>
<linearGradient id="paint0_linear_4971_31218" x1="2.7808" y1="0.131108" x2="22.6631" y2="34.6187" gradientUnits="userSpaceOnUse">
<stop offset="1" stop-color="#8043F9"/>
</linearGradient>
<linearGradient id="paint1_linear_4971_31218" x1="17.1938" y1="9.00766" x2="30.8014" y2="32.6038" gradientUnits="userSpaceOnUse">
<stop offset="1" stop-color="#8043F9"/>
</linearGradient>
</defs>
</svg>
