<svg width="136" height="52" viewBox="0 0 136 52" fill="none" xmlns="http://www.w3.org/2000/svg">
<circle cx="25.5172" cy="25.5172" r="25.5172" fill="#9463E0"/>
<path fill-rule="evenodd" clip-rule="evenodd" d="M23.4518 13.9616H27.5786V17.8932V17.8935V21.8249V21.8251V25.7565V25.7568V29.6882V29.6884V33.6198V33.6201V37.5517H25.1025C24.1909 37.5517 23.4518 36.8475 23.4518 35.9789V33.6201V33.6198V31.2565C23.4133 30.7309 23.0302 29.7069 21.8343 29.6884H19.3268V25.7565H23.4518V21.8251V21.8249V17.8935V17.8932V13.9616ZM11.0729 21.8249H15.1997V24.2647C15.2485 25.3636 16.2967 25.7193 16.8412 25.7565H19.3247V29.6884H15.1997H15.1979H12.7236C11.812 29.6884 11.0729 28.9843 11.0729 28.1157V25.7568V21.8249ZM31.7056 33.6198H29.1837C27.9946 33.5941 27.6153 32.5699 27.5788 32.0475V33.6198V33.6203V37.5517H31.7056V33.6198ZM31.7057 33.6198H35.8325V37.5517H31.7057V33.6198ZM39.9596 25.7567H35.8329V29.6882H35.8327V33.6198V33.6201V37.5517H39.9595V33.6201V33.6198V29.6886H39.9596V25.7567ZM39.9595 21.8248H39.9596V25.7566H35.8329V21.8251H35.8327V17.8935V17.8932V13.9616H39.9595V17.8932V17.8935V21.8248ZM15.1997 17.8935V13.9616L11.0729 13.9616L11.0729 16.3207C11.0729 17.1893 11.812 17.8935 12.7236 17.8935H15.1997Z" fill="#19164F"/>
<path d="M65.4782 33.7533L59.2812 13.0912H64.2826L67.8112 26.4477L71.6169 13.0912H76.4578L80.2635 26.433L83.7921 13.0912H88.6768L82.4798 33.7533H77.7118L73.9644 20.3377L70.2025 33.7533H65.4782Z" fill="#FEFEFE"/>
<path d="M91.0858 33.7533V18.6994H95.8684V33.7533H91.0858ZM93.4771 16.4709C92.7092 16.4709 92.0385 16.2298 91.4649 15.7477C90.9011 15.2558 90.6192 14.6015 90.6192 13.7848C90.6192 12.9485 90.9011 12.2893 91.4649 11.8072C92.0385 11.325 92.7092 11.084 93.4771 11.084C94.2548 11.084 94.9255 11.325 95.4893 11.8072C96.0531 12.2893 96.335 12.9485 96.335 13.7848C96.335 14.6015 96.0531 15.2558 95.4893 15.7477C94.9255 16.2298 94.2548 16.4709 93.4771 16.4709Z" fill="#FEFEFE"/>
<path d="M99.8573 33.7533V18.6994H104.64V20.2934C105.194 19.585 105.85 19.0684 106.608 18.7437C107.367 18.419 108.164 18.2567 109 18.2567C110.399 18.2567 111.551 18.5371 112.455 19.0979C113.359 19.6489 114.025 20.3672 114.453 21.2527C114.89 22.1284 115.109 23.0582 115.109 24.0421V33.7533H110.327V25.5622C110.327 24.657 110.088 23.9437 109.612 23.4222C109.145 22.9007 108.455 22.64 107.542 22.64C106.958 22.64 106.448 22.7679 106.011 23.0237C105.583 23.2796 105.247 23.6436 105.004 24.1159C104.761 24.5783 104.64 25.1096 104.64 25.7098V33.7533H99.8573Z" fill="#FEFEFE"/>
<path d="M118.938 39.9519V18.6994H123.064V20.4262C123.619 19.767 124.323 19.2406 125.179 18.847C126.044 18.4535 127.045 18.2567 128.182 18.2567C129.602 18.2567 130.865 18.5863 131.974 19.2455C133.091 19.9047 133.971 20.8345 134.613 22.0349C135.254 23.2353 135.575 24.6324 135.575 26.2264C135.575 27.348 135.39 28.3959 135.021 29.37C134.661 30.3342 134.146 31.1804 133.475 31.9084C132.805 32.6267 132.012 33.1875 131.099 33.5909C130.195 33.9943 129.193 34.196 128.095 34.196C127.22 34.196 126.413 34.0534 125.674 33.768C124.945 33.4827 124.289 33.0793 123.706 32.5578V39.9519H118.938ZM127.293 30.0341C127.983 30.0341 128.6 29.8816 129.145 29.5766C129.689 29.2617 130.117 28.819 130.428 28.2483C130.739 27.6776 130.895 27.0037 130.895 26.2264C130.895 25.4392 130.734 24.7653 130.413 24.2044C130.102 23.6338 129.675 23.1959 129.13 22.8909C128.596 22.5761 127.983 22.4186 127.293 22.4186C126.613 22.4186 126 22.5761 125.456 22.8909C124.911 23.1959 124.484 23.6338 124.173 24.2044C123.862 24.7653 123.706 25.4392 123.706 26.2264C123.706 27.0037 123.862 27.6776 124.173 28.2483C124.484 28.819 124.907 29.2617 125.441 29.5766C125.986 29.8816 126.603 30.0341 127.293 30.0341Z" fill="#FEFEFE"/>
</svg>
