<svg width="234" height="200" viewBox="0 0 234 200" fill="none" xmlns="http://www.w3.org/2000/svg">
<path fill-rule="evenodd" clip-rule="evenodd" d="M100 0H133.333V33.3333V66.6666V99.9998V133.333H100H66.6667H33.3333H8C3.58172 133.333 -1.93128e-07 129.751 0 125.333L1.10736e-06 99.9998L8.73675e-06 66.6665H33.3333V86.6824C33.3428 96.5659 42.1839 99.7012 46.6667 99.9998L66.6667 99.9998H100L100 66.6666V66.6665V33.3333V33.3333V0ZM166.667 166.667H146.667C136.771 166.667 133.632 157.819 133.333 153.333L133.333 166.667V133.334H100H86.6667C96.5624 133.334 99.701 142.181 100 146.666V166.667L100 192C100 196.418 103.582 200 108 200H133.333H166.667H200H233.333V166.667V133.334H200L200 166.667H166.667ZM233.333 133.333V99.9998V66.6665V33.3333V0H200V33.3333V66.6665V99.9998V133.333H233.333ZM33.3333 33.3333V0H1.10736e-06L0 25.3333C-1.93128e-07 29.7516 3.58172 33.3333 8 33.3333H33.3333Z" fill="#9463E0"/>
</svg>
