<svg width="64" height="80" viewBox="0 0 64 80" fill="none" xmlns="http://www.w3.org/2000/svg">
<path d="M17.4 28.0326C17.3588 28.0474 17.2519 28.128 17.1625 28.2116L17 28.3637V29.4707C17 30.0919 17.0213 30.6172 17.0485 30.6675C17.0752 30.7169 17.1882 30.7934 17.2996 30.8375C17.4767 30.9076 17.8131 30.9176 19.9899 30.9176C22.1265 30.9176 22.493 30.9282 22.5854 30.9923C22.6582 31.0427 22.7113 31.159 22.7492 31.3511C22.78 31.5073 22.9279 32.1474 23.0777 32.7734C23.2276 33.3994 23.4876 34.4906 23.6554 35.1983C23.8233 35.906 24.0804 36.9861 24.2267 37.5985C24.373 38.2109 24.631 39.2909 24.8 39.9986C24.969 40.7063 25.2293 41.7864 25.3784 42.3988C25.5275 43.0112 25.662 43.5902 25.6772 43.6854C25.6924 43.7807 25.8188 44.3017 25.958 44.8433C26.2706 46.0589 26.2728 46.0179 25.8565 46.7584C25.7709 46.9106 25.6397 47.2113 25.5648 47.4265C25.4421 47.7787 25.4285 47.8866 25.4275 48.5105C25.4266 49.1433 25.4386 49.2376 25.5663 49.5992C25.7525 50.1261 25.785 50.1919 26.0334 50.5458C26.4781 51.1791 27.3637 51.7944 28.05 51.947C28.4408 52.0338 29.2024 52.0108 29.5573 51.9014C29.945 51.7819 30.5921 51.4098 30.9746 51.0864C31.3185 50.7956 31.82 50.1324 31.9291 49.8243C31.973 49.7005 32.0261 49.5658 32.0473 49.525C32.0809 49.4603 32.534 49.4491 35.586 49.438L39.0861 49.4254L39.1749 49.6607C39.5979 50.7824 40.4415 51.6052 41.5 51.9285C41.6596 51.9772 41.9503 51.9938 42.5 51.9854C43.2149 51.9745 43.2994 51.9632 43.5892 51.8408C44.5934 51.4164 45.2622 50.6958 45.6366 49.6347C45.7567 49.2941 45.7715 49.1805 45.7728 48.5847C45.7745 47.8315 45.6911 47.474 45.3636 46.83C45.1497 46.4095 44.9566 46.1789 44.5681 45.88C43.9612 45.4129 43.3558 45.2196 42.5 45.2196C41.5468 45.2197 40.6939 45.5621 40.0932 46.186L39.8802 46.4073H35.599H31.3178L31.0365 46.0921C30.5566 45.5544 30.0536 45.2858 29.2784 45.1532C28.9045 45.0893 28.9169 45.1023 28.8344 44.6876L28.8025 44.5267L35.6387 44.5264C40.4265 44.5263 42.534 44.51 42.6717 44.4721C43.0871 44.358 43.3482 44.022 43.5196 43.3805C43.5585 43.2353 43.6731 42.8936 43.7745 42.6215C43.8758 42.3493 43.9937 42.0152 44.0365 41.8791C44.0793 41.7431 44.2345 41.2928 44.3815 40.8786C44.5285 40.4644 44.6696 40.0413 44.695 39.9383C44.7426 39.746 45.0713 38.7645 45.512 37.4995C45.6494 37.1048 45.7809 36.7151 45.8041 36.6335C45.8273 36.5518 45.9512 36.1844 46.0793 35.8169C46.2073 35.4495 46.3355 35.0598 46.364 34.9509C46.3925 34.842 46.5473 34.389 46.7079 33.9442C46.9753 33.2039 47 33.1005 47 32.7231C47 32.3487 46.9878 32.2965 46.8667 32.154C46.7933 32.0677 46.647 31.9433 46.5416 31.8774C46.0924 31.5968 46.6489 31.6105 35.7223 31.6105C26.0627 31.6105 25.6623 31.6069 25.5832 31.5204C25.5376 31.4706 25.4462 31.1645 25.3782 30.8341C25.3107 30.5061 25.2117 30.0622 25.1581 29.8477C25.1046 29.6332 25.0476 29.3521 25.0314 29.223C24.9756 28.7768 24.5486 28.1858 24.1842 28.0502C24.0384 27.996 17.5491 27.9791 17.4 28.0326ZM29.2786 47.5352C29.8538 47.827 30.086 48.5398 29.7898 49.1043C29.6486 49.3734 29.5201 49.5076 29.25 49.668C29.0096 49.8109 28.477 49.8133 28.1986 49.6728C27.9687 49.5566 27.6346 49.16 27.548 48.9003C27.4265 48.5361 27.594 48.0027 27.9276 47.6909C28.2376 47.4013 28.8709 47.3283 29.2786 47.5352ZM42.8034 47.4761C43.2014 47.5919 43.5106 47.9201 43.5957 48.317C43.6493 48.567 43.6471 48.6574 43.582 48.9077C43.5186 49.1516 43.4632 49.2414 43.2651 49.421C42.966 49.6922 42.7761 49.7727 42.4391 49.7713C42.0942 49.7699 41.8152 49.64 41.5789 49.3709C41.3315 49.089 41.25 48.8935 41.25 48.5814C41.25 48.1048 41.6129 47.6126 42.0607 47.4821C42.4039 47.382 42.4782 47.3814 42.8034 47.4761Z" fill="#726C86" stroke="#726C86" stroke-width="1.33333"/>
</svg>
