<svg width="18" height="19" viewBox="0 0 18 19" fill="none" xmlns="http://www.w3.org/2000/svg">
<g clip-path="url(#clip0_328_13807)">
<path d="M2.22611 12.8583C2.15374 12.879 2.07714 12.88 2.00426 12.8612C1.93138 12.8423 1.86488 12.8043 1.81165 12.7511C1.75842 12.6978 1.7204 12.6313 1.70154 12.5584C1.68268 12.4856 1.68366 12.409 1.70439 12.3366L2.30415 10.2364C1.72146 9.16734 1.54355 7.92414 1.80301 6.7346C2.06248 5.54506 2.74195 4.48887 3.71689 3.75961C4.69183 3.03035 5.89692 2.67687 7.11131 2.76395C8.3257 2.85103 9.46804 3.37285 10.3289 4.23376C11.1899 5.09466 11.7117 6.23699 11.7987 7.45138C11.8858 8.66577 11.5324 9.87087 10.8031 10.8458C10.0738 11.8207 9.01764 12.5002 7.8281 12.7597C6.63856 13.0192 5.39536 12.8412 4.32634 12.2585L2.22611 12.8583Z" stroke="white" stroke-linecap="round" stroke-linejoin="round"/>
<path d="M6.47266 12.8673C6.71636 13.5592 7.1074 14.1898 7.61874 14.7157C8.13007 15.2416 8.74951 15.6502 9.43423 15.9132C10.119 16.1763 10.8526 16.2875 11.5845 16.2392C12.3165 16.1909 13.0292 15.9842 13.6734 15.6334L15.7736 16.2332C15.846 16.2539 15.9226 16.2549 15.9954 16.2361C16.0683 16.2172 16.1348 16.1792 16.1881 16.1259C16.2413 16.0727 16.2793 16.0062 16.2982 15.9333C16.317 15.8605 16.316 15.7839 16.2953 15.7115L15.6955 13.6113C16.1047 12.8608 16.3172 12.0189 16.3132 11.1641C16.3092 10.3093 16.0889 9.46946 15.6727 8.72283C15.2565 7.97621 14.658 7.34713 13.933 6.89424C13.2081 6.44135 12.3802 6.1794 11.5267 6.13281" stroke="white" stroke-linecap="round" stroke-linejoin="round"/>
</g>
<defs>
<clipPath id="clip0_328_13807">
<rect width="18" height="18" fill="white" transform="translate(0 0.5)"/>
</clipPath>
</defs>
</svg>
