<svg width="20" height="18" viewBox="0 0 20 18" fill="none" xmlns="http://www.w3.org/2000/svg">
<g id="metamask-icon (1) 1" clip-path="url(#clip0_1250_2363)">
<g id="Group 162993">
<path id="Vector" d="M18.1242 0.848633L11.2617 5.94529L12.531 2.93823L18.1242 0.848633Z" fill="#E2761B" stroke="#E2761B" stroke-linecap="round" stroke-linejoin="round"/>
<path id="Vector_2" d="M2.28217 0.848633L9.0895 5.99352L7.88231 2.93823L2.28217 0.848633Z" fill="#E4761B" stroke="#E4761B" stroke-linecap="round" stroke-linejoin="round"/>
<path id="Vector_3" d="M15.655 12.6621L13.8274 15.4624L17.738 16.538L18.8623 12.7242L15.655 12.6621Z" fill="#E4761B" stroke="#E4761B" stroke-linecap="round" stroke-linejoin="round"/>
<path id="Vector_4" d="M1.55798 12.7242L2.67531 16.538L6.58593 15.4624L4.75831 12.6621L1.55798 12.7242Z" fill="#E4761B" stroke="#E4761B" stroke-linecap="round" stroke-linejoin="round"/>
<path id="Vector_5" d="M6.36524 7.93068L5.27533 9.57925L9.1582 9.75171L9.02044 5.5791L6.36524 7.93068Z" fill="#E4761B" stroke="#E4761B" stroke-linecap="round" stroke-linejoin="round"/>
<path id="Vector_6" d="M14.0411 7.93106L11.3515 5.53125L11.2617 9.75209L15.1379 9.57963L14.0411 7.93106Z" fill="#E4761B" stroke="#E4761B" stroke-linecap="round" stroke-linejoin="round"/>
<path id="Vector_7" d="M6.58594 15.4627L8.91705 14.3245L6.90309 12.752L6.58594 15.4627Z" fill="#E4761B" stroke="#E4761B" stroke-linecap="round" stroke-linejoin="round"/>
<path id="Vector_8" d="M11.4893 14.3245L13.8274 15.4627L13.5033 12.752L11.4893 14.3245Z" fill="#E4761B" stroke="#E4761B" stroke-linecap="round" stroke-linejoin="round"/>
<path id="Vector_9" d="M13.8274 15.4624L11.4893 14.3242L11.6756 15.8486L11.6548 16.4898L13.8274 15.4624Z" fill="#D7C1B3" stroke="#D7C1B3" stroke-linecap="round" stroke-linejoin="round"/>
<path id="Vector_10" d="M6.58594 15.4624L8.75847 16.4898L8.74459 15.8486L8.91705 14.3242L6.58594 15.4624Z" fill="#D7C1B3" stroke="#D7C1B3" stroke-linecap="round" stroke-linejoin="round"/>
<path id="Vector_11" d="M8.79282 11.7452L6.84792 11.1726L8.22028 10.5449L8.79282 11.7452Z" fill="#233447" stroke="#233447" stroke-linecap="round" stroke-linejoin="round"/>
<path id="Vector_12" d="M11.6135 11.7452L12.1861 10.5449L13.5654 11.1726L11.6135 11.7452Z" fill="#233447" stroke="#233447" stroke-linecap="round" stroke-linejoin="round"/>
<path id="Vector_13" d="M6.58592 15.4624L6.91695 12.6621L4.7583 12.7242L6.58592 15.4624Z" fill="#CD6116" stroke="#CD6116" stroke-linecap="round" stroke-linejoin="round"/>
<path id="Vector_14" d="M13.4963 12.6621L13.8274 15.4624L15.655 12.7242L13.4963 12.6621Z" fill="#CD6116" stroke="#CD6116" stroke-linecap="round" stroke-linejoin="round"/>
<path id="Vector_15" d="M15.1379 9.58008L11.2617 9.75253L11.6205 11.7457L12.193 10.5454L13.5723 11.1731L15.1379 9.58008Z" fill="#CD6116" stroke="#CD6116" stroke-linecap="round" stroke-linejoin="round"/>
<path id="Vector_16" d="M6.84791 11.1731L8.22721 10.5454L8.79281 11.7457L9.1582 9.75253L5.27533 9.58008L6.84791 11.1731Z" fill="#CD6116" stroke="#CD6116" stroke-linecap="round" stroke-linejoin="round"/>
<path id="Vector_17" d="M5.27533 9.58008L6.90308 12.7523L6.84791 11.1731L5.27533 9.58008Z" fill="#E4751F" stroke="#E4751F" stroke-linecap="round" stroke-linejoin="round"/>
<path id="Vector_18" d="M13.5723 11.1731L13.5033 12.7523L15.138 9.58008L13.5723 11.1731Z" fill="#E4751F" stroke="#E4751F" stroke-linecap="round" stroke-linejoin="round"/>
<path id="Vector_19" d="M9.1582 9.75195L8.79282 11.7451L9.24807 14.0967L9.35148 11.0001L9.1582 9.75195Z" fill="#E4751F" stroke="#E4751F" stroke-linecap="round" stroke-linejoin="round"/>
<path id="Vector_20" d="M11.2617 9.75195L11.0757 10.9932L11.1583 14.0967L11.6205 11.7451L11.2617 9.75195Z" fill="#E4751F" stroke="#E4751F" stroke-linecap="round" stroke-linejoin="round"/>
<path id="Vector_21" d="M11.6205 11.7454L11.1583 14.097L11.4893 14.3246L13.5033 12.752L13.5723 11.1729L11.6205 11.7454Z" fill="#F6851B" stroke="#F6851B" stroke-linecap="round" stroke-linejoin="round"/>
<path id="Vector_22" d="M6.84792 11.1729L6.90309 12.752L8.91704 14.3246L9.24808 14.097L8.79282 11.7454L6.84792 11.1729Z" fill="#F6851B" stroke="#F6851B" stroke-linecap="round" stroke-linejoin="round"/>
<path id="Vector_23" d="M11.6548 16.4894L11.6757 15.8481L11.5032 15.6961H8.90317L8.74459 15.8481L8.75847 16.4894L6.58594 15.4619L7.34447 16.0823L8.88235 17.1514H11.524L13.0688 16.0823L13.8274 15.4619L11.6548 16.4894Z" fill="#C0AD9E" stroke="#C0AD9E" stroke-linecap="round" stroke-linejoin="round"/>
<path id="Vector_24" d="M11.4893 14.3243L11.1583 14.0967H9.24807L8.91704 14.3243L8.74458 15.8487L8.90316 15.6967H11.5032L11.6756 15.8487L11.4893 14.3243Z" fill="#161616" stroke="#161616" stroke-linecap="round" stroke-linejoin="round"/>
<path id="Vector_25" d="M18.4139 6.27632L19 3.46254L18.1242 0.848633L11.4893 5.77283L14.0411 7.93148L17.6481 8.98669L18.4483 8.05571L18.1034 7.80761L18.6551 7.30412L18.2276 6.97309L18.7793 6.55218L18.4139 6.27632Z" fill="#763D16" stroke="#763D16" stroke-linecap="round" stroke-linejoin="round"/>
<path id="Vector_26" d="M1.41328 3.46254L1.99936 6.27632L1.62703 6.55218L2.17875 6.97309L1.7582 7.30412L2.30992 7.80761L1.96501 8.05571L2.75823 8.98669L6.36524 7.93148L8.91704 5.77283L2.28216 0.848633L1.41328 3.46254Z" fill="#763D16" stroke="#763D16" stroke-linecap="round" stroke-linejoin="round"/>
<path id="Vector_27" d="M17.6481 8.98685L14.0411 7.93164L15.138 9.58021L13.5033 12.7524L15.655 12.725H18.8622L17.6481 8.98685Z" fill="#F6851B" stroke="#F6851B" stroke-linecap="round" stroke-linejoin="round"/>
<path id="Vector_28" d="M6.36525 7.93164L2.75824 8.98685L1.55798 12.725H4.75831L6.90309 12.7524L5.27534 9.58021L6.36525 7.93164Z" fill="#F6851B" stroke="#F6851B" stroke-linecap="round" stroke-linejoin="round"/>
<path id="Vector_29" d="M11.2617 9.75178L11.4893 5.7721L12.5379 2.9375H7.88229L8.91703 5.7721L9.15819 9.75178L9.24112 11.0069L9.24806 14.0965H11.1583L11.1721 11.0069L11.2617 9.75178Z" fill="#F6851B" stroke="#F6851B" stroke-linecap="round" stroke-linejoin="round"/>
</g>
</g>
<defs>
<clipPath id="clip0_1250_2363">
<rect width="19.4133" height="18" fill="white" transform="translate(0.5)"/>
</clipPath>
</defs>
</svg>
