<svg width="18" height="19" viewBox="0 0 18 19" fill="none" xmlns="http://www.w3.org/2000/svg">
<g id="NotePencil" clip-path="url(#clip0_328_13813)">
<path id="Vector" d="M9 11.75H6.75V9.5L13.5 2.75L15.75 5L9 11.75Z" stroke="white" stroke-linecap="round" stroke-linejoin="round"/>
<path id="Vector_2" d="M11.8125 4.4375L14.0625 6.6875" stroke="white" stroke-linecap="round" stroke-linejoin="round"/>
<path id="Vector_3" d="M15.1875 8.9375V15.125C15.1875 15.2742 15.1282 15.4173 15.0227 15.5227C14.9173 15.6282 14.7742 15.6875 14.625 15.6875H3.375C3.22582 15.6875 3.08274 15.6282 2.97725 15.5227C2.87176 15.4173 2.8125 15.2742 2.8125 15.125V3.875C2.8125 3.72582 2.87176 3.58274 2.97725 3.47725C3.08274 3.37176 3.22582 3.3125 3.375 3.3125H9.5625" stroke="white" stroke-linecap="round" stroke-linejoin="round"/>
</g>
<defs>
<clipPath id="clip0_328_13813">
<rect width="18" height="18" fill="white" transform="translate(0 0.5)"/>
</clipPath>
</defs>
</svg>
