<svg width="64" height="78" viewBox="0 0 64 78" fill="none" xmlns="http://www.w3.org/2000/svg">
<path opacity="0.98" d="M41.3329 29.4108H32.4442V27.633C32.4442 27.3973 32.3506 27.1712 32.1839 27.0045C32.0172 26.8378 31.7911 26.7441 31.5553 26.7441C31.3196 26.7441 31.0935 26.8378 30.9268 27.0045C30.7601 27.1712 30.6665 27.3973 30.6665 27.633V29.4108H21.7777C21.3063 29.4108 20.8541 29.5981 20.5207 29.9314C20.1873 30.2648 20 30.717 20 31.1885V44.5216C20 44.9931 20.1873 45.4453 20.5207 45.7787C20.8541 46.112 21.3063 46.2993 21.7777 46.2993H26.151L23.7499 49.2993C23.6026 49.4835 23.5344 49.7186 23.5605 49.953C23.5865 50.1875 23.7046 50.4019 23.8888 50.5493C24.073 50.6966 24.3082 50.7647 24.5426 50.7387C24.777 50.7127 24.9915 50.5946 25.1388 50.4104L28.4265 46.2993H34.6842L37.9719 50.4104C38.0448 50.5016 38.1351 50.5775 38.2374 50.6338C38.3397 50.6902 38.452 50.7258 38.5681 50.7387C38.6842 50.7516 38.8017 50.7415 38.9138 50.709C39.026 50.6765 39.1307 50.6222 39.2219 50.5493C39.3131 50.4763 39.389 50.3861 39.4453 50.2838C39.5017 50.1815 39.5373 50.0691 39.5502 49.953C39.5631 49.837 39.553 49.7195 39.5205 49.6073C39.488 49.4951 39.4337 49.3905 39.3608 49.2993L36.9597 46.2993H41.3329C41.8044 46.2993 42.2566 46.112 42.59 45.7787C42.9234 45.4453 43.1107 44.9931 43.1107 44.5216V31.1885C43.1107 30.717 42.9234 30.2648 42.59 29.9314C42.2566 29.5981 41.8044 29.4108 41.3329 29.4108ZM28.8887 40.9661C28.8887 41.2018 28.7951 41.4279 28.6284 41.5946C28.4617 41.7613 28.2356 41.855 27.9999 41.855C27.7641 41.855 27.538 41.7613 27.3713 41.5946C27.2046 41.4279 27.111 41.2018 27.111 40.9661V38.2995C27.111 38.0637 27.2046 37.8377 27.3713 37.671C27.538 37.5043 27.7641 37.4106 27.9999 37.4106C28.2356 37.4106 28.4617 37.5043 28.6284 37.671C28.7951 37.8377 28.8887 38.0637 28.8887 38.2995V40.9661ZM32.4442 40.9661C32.4442 41.2018 32.3506 41.4279 32.1839 41.5946C32.0172 41.7613 31.7911 41.855 31.5553 41.855C31.3196 41.855 31.0935 41.7613 30.9268 41.5946C30.7601 41.4279 30.6665 41.2018 30.6665 40.9661V36.5217C30.6665 36.286 30.7601 36.0599 30.9268 35.8932C31.0935 35.7265 31.3196 35.6329 31.5553 35.6329C31.7911 35.6329 32.0172 35.7265 32.1839 35.8932C32.3506 36.0599 32.4442 36.286 32.4442 36.5217V40.9661ZM35.9997 40.9661C35.9997 41.2018 35.9061 41.4279 35.7394 41.5946C35.5727 41.7613 35.3466 41.855 35.1108 41.855C34.8751 41.855 34.649 41.7613 34.4823 41.5946C34.3156 41.4279 34.222 41.2018 34.222 40.9661V34.744C34.222 34.5083 34.3156 34.2822 34.4823 34.1155C34.649 33.9488 34.8751 33.8551 35.1108 33.8551C35.3466 33.8551 35.5727 33.9488 35.7394 34.1155C35.9061 34.2822 35.9997 34.5083 35.9997 34.744V40.9661Z" fill="#8043F9"/>
</svg>
