<svg width="18" height="19" viewBox="0 0 18 19" fill="none" xmlns="http://www.w3.org/2000/svg">
<g clip-path="url(#clip0_328_13784)">
<path d="M14.625 3.3125H3.375C3.06434 3.3125 2.8125 3.56434 2.8125 3.875V15.125C2.8125 15.4357 3.06434 15.6875 3.375 15.6875H14.625C14.9357 15.6875 15.1875 15.4357 15.1875 15.125V3.875C15.1875 3.56434 14.9357 3.3125 14.625 3.3125Z" stroke="white" stroke-linecap="round" stroke-linejoin="round"/>
<path d="M6.75 8.375C7.37132 8.375 7.875 7.87132 7.875 7.25C7.875 6.62868 7.37132 6.125 6.75 6.125C6.12868 6.125 5.625 6.62868 5.625 7.25C5.625 7.87132 6.12868 8.375 6.75 8.375Z" stroke="white" stroke-linecap="round" stroke-linejoin="round"/>
<path d="M3.98602 15.6879L11.6958 7.97747C11.748 7.92517 11.8101 7.88369 11.8784 7.85538C11.9466 7.82707 12.0198 7.8125 12.0938 7.8125C12.1677 7.8125 12.2409 7.82707 12.3092 7.85538C12.3774 7.88369 12.4395 7.92517 12.4917 7.97747L15.1875 10.674" stroke="white" stroke-linecap="round" stroke-linejoin="round"/>
</g>
<defs>
<clipPath id="clip0_328_13784">
<rect width="18" height="18" fill="white" transform="translate(0 0.5)"/>
</clipPath>
</defs>
</svg>
