<svg width="25" height="25" viewBox="0 0 25 25" fill="none" xmlns="http://www.w3.org/2000/svg">
<g id="prime:users">
<path id="Vector" d="M14.0479 12.9797C13.3062 12.9797 12.5811 12.7598 11.9645 12.3477C11.3478 11.9357 10.8671 11.35 10.5833 10.6648C10.2995 9.97958 10.2252 9.22558 10.3699 8.49815C10.5146 7.77072 10.8718 7.10253 11.3962 6.57809C11.9206 6.05364 12.5888 5.69649 13.3163 5.55179C14.0437 5.4071 14.7977 5.48136 15.4829 5.76519C16.1681 6.04902 16.7538 6.52967 17.1659 7.14635C17.5779 7.76303 17.7979 8.48806 17.7979 9.22974C17.7979 10.2243 17.4028 11.1781 16.6995 11.8814C15.9962 12.5846 15.0424 12.9797 14.0479 12.9797ZM14.0479 6.97974C13.6028 6.97974 13.1678 7.1117 12.7978 7.35893C12.4278 7.60616 12.1394 7.95757 11.9691 8.3687C11.7988 8.77983 11.7543 9.23223 11.8411 9.66869C11.9279 10.1051 12.1422 10.5061 12.4569 10.8207C12.7715 11.1354 13.1724 11.3497 13.6089 11.4365C14.0454 11.5233 14.4978 11.4788 14.9089 11.3085C15.32 11.1382 15.6714 10.8498 15.9187 10.4798C16.1659 10.1098 16.2979 9.67475 16.2979 9.22974C16.2979 8.633 16.0608 8.0607 15.6388 7.63875C15.2169 7.21679 14.6446 6.97974 14.0479 6.97974ZM21.0479 19.9797C20.8497 19.9771 20.6605 19.8973 20.5204 19.7572C20.3803 19.6171 20.3004 19.4278 20.2979 19.2297C20.2979 17.2797 19.2379 15.9797 14.0479 15.9797C8.85785 15.9797 7.79785 17.2797 7.79785 19.2297C7.79785 19.4287 7.71883 19.6194 7.57818 19.7601C7.43753 19.9007 7.24676 19.9797 7.04785 19.9797C6.84894 19.9797 6.65817 19.9007 6.51752 19.7601C6.37687 19.6194 6.29785 19.4287 6.29785 19.2297C6.29785 14.4797 11.7279 14.4797 14.0479 14.4797C16.3679 14.4797 21.7979 14.4797 21.7979 19.2297C21.7953 19.4278 21.7154 19.6171 21.5753 19.7572C21.4352 19.8973 21.246 19.9771 21.0479 19.9797ZM8.36785 13.7897H8.04785C7.2522 13.7128 6.51969 13.323 6.01147 12.706C5.50325 12.089 5.26094 11.2954 5.33785 10.4997C5.41476 9.70409 5.8046 8.97158 6.42159 8.46336C7.03859 7.95513 7.8322 7.71282 8.62785 7.78974C8.72987 7.79412 8.82992 7.81929 8.92187 7.86371C9.01382 7.90813 9.09573 7.97085 9.16258 8.04804C9.22943 8.12523 9.27982 8.21525 9.31065 8.3126C9.34148 8.40995 9.3521 8.51257 9.34188 8.61417C9.33165 8.71577 9.30078 8.81421 9.25116 8.90346C9.20155 8.99271 9.13423 9.07089 9.05333 9.1332C8.97244 9.19552 8.87967 9.24066 8.78071 9.26585C8.68176 9.29105 8.5787 9.29578 8.47785 9.27974C8.28264 9.26027 8.08551 9.28035 7.89824 9.33877C7.71096 9.39718 7.53738 9.49274 7.38785 9.61974C7.23598 9.74224 7.11001 9.89375 7.0173 10.0654C6.92459 10.2371 6.86699 10.4256 6.84785 10.6197C6.82717 10.8164 6.84583 11.0151 6.90273 11.2045C6.95964 11.3938 7.05365 11.5699 7.1793 11.7225C7.30495 11.8752 7.45971 12.0013 7.63458 12.0935C7.80945 12.1857 8.00093 12.2422 8.19785 12.2597C8.52339 12.2876 8.84929 12.2105 9.12785 12.0397C9.29759 11.935 9.50199 11.9019 9.69609 11.9479C9.89019 11.9938 10.0581 12.115 10.1629 12.2847C10.2676 12.4545 10.3007 12.6589 10.2547 12.853C10.2088 13.0471 10.0876 13.215 9.91785 13.3197C9.45405 13.6156 8.91784 13.7781 8.36785 13.7897ZM3.04785 19.2297C2.84974 19.2271 2.66048 19.1473 2.52039 19.0072C2.38029 18.8671 2.30044 18.6778 2.29785 18.4797C2.29785 15.7797 3.01785 13.9797 6.54785 13.9797C6.74676 13.9797 6.93753 14.0588 7.07818 14.1994C7.21883 14.3401 7.29785 14.5308 7.29785 14.7297C7.29785 14.9287 7.21883 15.1194 7.07818 15.2601C6.93753 15.4007 6.74676 15.4797 6.54785 15.4797C4.19785 15.4797 3.79785 16.2297 3.79785 18.4797C3.79526 18.6778 3.71541 18.8671 3.57532 19.0072C3.43522 19.1473 3.24596 19.2271 3.04785 19.2297Z" fill="#848E9C"/>
</g>
</svg>
