<svg width="32" height="21" viewBox="0 0 32 21" fill="none" xmlns="http://www.w3.org/2000/svg">
<path d="M26.6667 18.375C28.1333 18.375 29.3333 17.1938 29.3333 15.75V2.625C29.3333 1.18125 28.1333 0 26.6667 0H5.33333C3.86667 0 2.66667 1.18125 2.66667 2.625V15.75C2.66667 16.4462 2.94762 17.1139 3.44772 17.6062C3.94781 18.0984 4.62609 18.375 5.33333 18.375H1.33333C0.6 18.375 0 18.9656 0 19.6875C0 20.4094 0.6 21 1.33333 21H30.6667C31.4 21 32 20.4094 32 19.6875C32 18.9656 31.4 18.375 30.6667 18.375H26.6667ZM17.3333 13.7419V10.8675C13.6267 10.8675 11.1867 11.9831 9.33333 14.4375C10.08 10.9331 12.1467 7.44187 17.3333 6.73313V3.9375L22.1467 8.3475C22.4267 8.61 22.4267 9.04313 22.1467 9.30562L17.3333 13.7419Z" fill="white"/>
</svg>
