<svg width="32" height="27" viewBox="0 0 32 27" fill="none" xmlns="http://www.w3.org/2000/svg">
<path id="Vector" d="M30.6667 21.2927H29.0667L31.4533 23.6729C31.7733 23.4336 32 23.0612 32 22.6224C32 21.8911 31.4 21.2927 30.6667 21.2927ZM4.30667 0.388953C3.78667 -0.129651 2.93333 -0.129651 2.41333 0.388953C2.28973 0.511973 2.19167 0.658098 2.12476 0.818963C2.05785 0.979827 2.02341 1.15227 2.02341 1.32643C2.02341 1.50058 2.05785 1.67303 2.12476 1.83389C2.19167 1.99476 2.28973 2.14088 2.41333 2.2639L3.53333 3.40749C3.53333 3.40749 2.65333 4.16545 2.65333 5.36223C2.66667 6.55901 2.66667 18.6332 2.66667 18.6332L2.68 18.6465C2.68 20.0959 3.85333 21.2794 5.30667 21.2927H1.33333C0.6 21.2927 0 21.8911 0 22.6224C0 23.3538 0.6 23.9522 1.33333 23.9522H24.1733L26.84 26.6117C27.0893 26.8603 27.4274 27 27.78 27C28.1326 27 28.4707 26.8603 28.72 26.6117C28.9693 26.3631 29.1094 26.0258 29.1094 25.6742C29.1094 25.3226 28.9693 24.9854 28.72 24.7367L4.30667 0.388953ZM9.33333 17.3034C9.74667 15.3354 10.5867 13.4072 12.1067 11.9179L14.2267 14.0322C12.1733 14.5375 10.6133 15.588 9.33333 17.3034ZM17.3333 9.49776V8.1946C17.3333 7.60951 18.0267 7.31697 18.4533 7.70259L20 9.15203L22.1467 11.1467C22.4267 11.4126 22.4267 11.8514 22.1467 12.1174L20.96 13.2211L28.4 20.6411C28.9733 20.1491 29.3333 19.4443 29.3333 18.6332V5.33563C29.3333 3.8862 28.1467 2.70272 26.6933 2.70272H10.4L17.2533 9.52435C17.28 9.51106 17.3067 9.49776 17.3333 9.49776Z" fill="white"/>
</svg>
