<svg width="323" height="352" viewBox="0 0 323 352" fill="none" xmlns="http://www.w3.org/2000/svg">
<g filter="url(#filter0_d_353_6333)">
<rect x="7.9718" y="6" width="307.028" height="337" fill="#261F32"/>
</g>
<path d="M35.9509 44.252V33.6189H39.741C40.5682 33.6189 41.2536 33.7695 41.797 34.0706C42.3404 34.3718 42.7471 34.7837 43.0171 35.3063C43.287 35.8255 43.422 36.4105 43.422 37.0612C43.422 37.7154 43.2853 38.3038 43.0119 38.8264C42.7419 39.3456 42.3335 39.7575 41.7866 40.0621C41.2432 40.3632 40.5596 40.5138 39.7358 40.5138H37.1295V39.1535H39.5904C40.1131 39.1535 40.5371 39.0635 40.8624 38.8835C41.1878 38.7001 41.4266 38.4509 41.5789 38.1359C41.7312 37.8209 41.8074 37.4627 41.8074 37.0612C41.8074 36.6597 41.7312 36.3032 41.5789 35.9916C41.4266 35.6801 41.1861 35.4361 40.8572 35.2596C40.5319 35.0831 40.1027 34.9948 39.5696 34.9948H37.5552V44.252H35.9509ZM45.1782 44.252V36.2772H46.6787V37.544H46.7617C46.9071 37.1148 47.1632 36.7773 47.5301 36.5316C47.9005 36.2824 48.3193 36.1578 48.7866 36.1578C48.8835 36.1578 48.9977 36.1612 49.1292 36.1682C49.2642 36.1751 49.3698 36.1837 49.4459 36.1941V37.679C49.3836 37.6617 49.2729 37.6427 49.1137 37.6219C48.9544 37.5977 48.7952 37.5856 48.636 37.5856C48.2691 37.5856 47.942 37.6634 47.6547 37.8192C47.3709 37.9715 47.1459 38.1844 46.9798 38.4578C46.8136 38.7278 46.7306 39.0358 46.7306 39.382V44.252H45.1782ZM50.7893 44.252V36.2772H52.3417V44.252H50.7893ZM51.5733 35.0467C51.3033 35.0467 51.0714 34.9567 50.8776 34.7767C50.6872 34.5933 50.5921 34.3752 50.5921 34.1226C50.5921 33.8664 50.6872 33.6484 50.8776 33.4684C51.0714 33.2849 51.3033 33.1932 51.5733 33.1932C51.8433 33.1932 52.0735 33.2849 52.2638 33.4684C52.4577 33.6484 52.5546 33.8664 52.5546 34.1226C52.5546 34.3752 52.4577 34.5933 52.2638 34.7767C52.0735 34.9567 51.8433 35.0467 51.5733 35.0467ZM54.4302 44.252V36.2772H55.9202V37.5752H56.0189C56.185 37.1356 56.4567 36.7929 56.834 36.5472C57.2113 36.298 57.663 36.1734 58.1891 36.1734C58.7221 36.1734 59.1686 36.298 59.5286 36.5472C59.892 36.7964 60.1603 37.139 60.3334 37.5752H60.4164C60.6068 37.1494 60.9097 36.8102 61.325 36.5576C61.7404 36.3014 62.2353 36.1734 62.8099 36.1734C63.5333 36.1734 64.1234 36.4001 64.5803 36.8535C65.0407 37.3069 65.2709 37.9905 65.2709 38.9043V44.252H63.7185V39.0497C63.7185 38.5097 63.5714 38.1186 63.2772 37.8763C62.983 37.634 62.6316 37.5129 62.2232 37.5129C61.7179 37.5129 61.325 37.6686 61.0446 37.9801C60.7643 38.2882 60.6241 38.6845 60.6241 39.1691V44.252H59.0769V38.951C59.0769 38.5184 58.9419 38.1705 58.6719 37.9075C58.402 37.6444 58.0506 37.5129 57.618 37.5129C57.3238 37.5129 57.0521 37.5907 56.8029 37.7465C56.5571 37.8988 56.3581 38.1117 56.2058 38.3851C56.057 38.6585 55.9825 38.9753 55.9825 39.3352V44.252H54.4302ZM69.6723 44.4285C69.1669 44.4285 68.7101 44.335 68.3016 44.1481C67.8932 43.9577 67.5696 43.6826 67.3307 43.3226C67.0954 42.9626 66.9777 42.5213 66.9777 41.9987C66.9777 41.5487 67.0642 41.1783 67.2373 40.8876C67.4103 40.5969 67.644 40.3667 67.9382 40.1971C68.2324 40.0275 68.5612 39.8994 68.9247 39.8129C69.2881 39.7263 69.6584 39.6606 70.0357 39.6156C70.5134 39.5602 70.901 39.5152 71.1987 39.4806C71.4964 39.4425 71.7127 39.382 71.8477 39.2989C71.9827 39.2158 72.0502 39.0808 72.0502 38.8939V38.8576C72.0502 38.4041 71.9221 38.0528 71.666 37.8036C71.4133 37.5544 71.036 37.4298 70.5341 37.4298C70.0115 37.4298 69.5996 37.5457 69.2985 37.7777C69.0008 38.0061 68.7949 38.2605 68.6806 38.5409L67.2217 38.2086C67.3948 37.724 67.6474 37.3329 67.9797 37.0352C68.3155 36.7341 68.7014 36.516 69.1375 36.381C69.5736 36.2426 70.0323 36.1734 70.5134 36.1734C70.8318 36.1734 71.1693 36.2114 71.5258 36.2876C71.8858 36.3603 72.2215 36.4953 72.533 36.6925C72.848 36.8898 73.1059 37.1719 73.3066 37.5388C73.5074 37.9023 73.6077 38.3747 73.6077 38.9562V44.252H72.0917V43.1617H72.0294C71.929 43.3624 71.7785 43.5597 71.5777 43.7535C71.377 43.9474 71.1191 44.1083 70.8041 44.2364C70.4891 44.3644 70.1119 44.4285 69.6723 44.4285ZM70.0098 43.1824C70.439 43.1824 70.8059 43.0976 71.1104 42.928C71.4185 42.7584 71.6521 42.5369 71.8113 42.2635C71.974 41.9866 72.0554 41.6906 72.0554 41.3756V40.3476C72 40.403 71.8927 40.4549 71.7335 40.5034C71.5777 40.5484 71.3995 40.5882 71.1987 40.6228C70.998 40.654 70.8024 40.6834 70.612 40.7111C70.4216 40.7353 70.2624 40.7561 70.1344 40.7734C69.8332 40.8115 69.5581 40.8755 69.3089 40.9655C69.0631 41.0555 68.8658 41.1853 68.717 41.3549C68.5716 41.521 68.4989 41.7425 68.4989 42.0194C68.4989 42.4036 68.6408 42.6944 68.9247 42.8917C69.2085 43.0855 69.5702 43.1824 70.0098 43.1824ZM75.6754 44.252V36.2772H77.1759V37.544H77.2589C77.4043 37.1148 77.6605 36.7773 78.0274 36.5316C78.3977 36.2824 78.8165 36.1578 79.2838 36.1578C79.3807 36.1578 79.4949 36.1612 79.6265 36.1682C79.7614 36.1751 79.867 36.1837 79.9432 36.1941V37.679C79.8809 37.6617 79.7701 37.6427 79.6109 37.6219C79.4517 37.5977 79.2924 37.5856 79.1332 37.5856C78.7663 37.5856 78.4392 37.6634 78.152 37.8192C77.8681 37.9715 77.6431 38.1844 77.477 38.4578C77.3109 38.7278 77.2278 39.0358 77.2278 39.382V44.252H75.6754ZM82.5106 47.2425C82.2787 47.2425 82.0675 47.2235 81.8771 47.1854C81.6868 47.1508 81.5449 47.1127 81.4514 47.0712L81.8252 45.7991C82.109 45.8753 82.3617 45.9082 82.5832 45.8978C82.8048 45.8874 83.0003 45.8043 83.1699 45.6486C83.343 45.4928 83.4953 45.2384 83.6268 44.8854L83.8189 44.3558L80.9011 36.2772H82.5625L84.5821 42.4659H84.6652L86.6848 36.2772H88.3514L85.065 45.3163C84.9127 45.7316 84.7188 46.083 84.4835 46.3702C84.2481 46.661 83.9677 46.8791 83.6424 47.0244C83.317 47.1698 82.9398 47.2425 82.5106 47.2425ZM93.2799 35V33.6189H101.509V35H98.1914V44.252H96.5923V35H93.2799ZM105.483 44.4129C104.698 44.4129 104.021 44.245 103.453 43.9093C102.889 43.5701 102.453 43.0942 102.145 42.4815C101.84 41.8654 101.688 41.1437 101.688 40.3165C101.688 39.4996 101.84 38.7797 102.145 38.1567C102.453 37.5336 102.882 37.0473 103.433 36.6977C103.986 36.3482 104.634 36.1734 105.374 36.1734C105.824 36.1734 106.26 36.2478 106.683 36.3966C107.105 36.5454 107.484 36.7791 107.82 37.0975C108.156 37.416 108.42 37.8296 108.614 38.3384C108.808 38.8437 108.905 39.4581 108.905 40.1815V40.7318H102.566V39.5689H107.384C107.384 39.1604 107.301 38.7987 107.134 38.4838C106.968 38.1653 106.735 37.9144 106.434 37.7309C106.136 37.5475 105.786 37.4558 105.385 37.4558C104.949 37.4558 104.568 37.5631 104.243 37.7777C103.921 37.9888 103.671 38.2657 103.495 38.6084C103.322 38.9476 103.235 39.3162 103.235 39.7142V40.6228C103.235 41.1558 103.329 41.6093 103.516 41.9831C103.706 42.3569 103.971 42.6425 104.31 42.8398C104.649 43.0336 105.046 43.1305 105.499 43.1305C105.793 43.1305 106.061 43.089 106.304 43.0059C106.546 42.9194 106.755 42.7913 106.932 42.6217C107.108 42.4521 107.243 42.2427 107.337 41.9935L108.806 42.2583C108.689 42.6909 108.477 43.0699 108.173 43.3953C107.872 43.7172 107.493 43.9681 107.036 44.1481C106.582 44.3246 106.065 44.4129 105.483 44.4129ZM111.667 36.2772L113.427 39.382L115.203 36.2772H116.9L114.413 40.2646L116.921 44.252H115.223L113.427 41.2718L111.636 44.252H109.933L112.415 40.2646L109.964 36.2772H111.667ZM122.217 36.2772V37.5233H117.861V36.2772H122.217ZM119.029 34.3666H120.581V41.9104C120.581 42.2115 120.626 42.4382 120.716 42.5905C120.806 42.7394 120.922 42.8415 121.064 42.8969C121.21 42.9488 121.367 42.9747 121.537 42.9747C121.661 42.9747 121.77 42.9661 121.864 42.9488C121.957 42.9315 122.03 42.9176 122.082 42.9073L122.362 44.1897C122.272 44.2243 122.144 44.2589 121.978 44.2935C121.812 44.3316 121.604 44.3523 121.355 44.3558C120.947 44.3627 120.566 44.29 120.213 44.1377C119.86 43.9854 119.574 43.7501 119.356 43.4316C119.138 43.1132 119.029 42.7134 119.029 42.2323V34.3666Z" fill="white"/>
<path d="M39.0442 63.9163C39.0068 63.6006 38.8552 63.3556 38.5894 63.1811C38.3236 63.0067 37.9975 62.9195 37.6113 62.9195C37.3288 62.9195 37.0817 62.9652 36.8699 63.0565C36.6601 63.1479 36.496 63.2736 36.3777 63.4335C36.2614 63.5934 36.2032 63.7751 36.2032 63.9786C36.2032 64.1489 36.2437 64.2953 36.3247 64.4179C36.4078 64.5383 36.5137 64.639 36.6425 64.72C36.7712 64.7989 36.9062 64.8644 37.0474 64.9163C37.1886 64.9661 37.3184 65.0066 37.4368 65.0378L38.0848 65.2122C38.2509 65.2558 38.4357 65.3161 38.6393 65.3929C38.8449 65.4697 39.0411 65.5746 39.228 65.7075C39.417 65.8384 39.5728 66.0066 39.6953 66.2122C39.8178 66.4178 39.8791 66.6701 39.8791 66.9692C39.8791 67.3139 39.7887 67.6254 39.6081 67.9037C39.4295 68.182 39.1678 68.4032 38.8231 68.5672C38.4804 68.7313 38.064 68.8133 37.5739 68.8133C37.117 68.8133 36.7214 68.7396 36.387 68.5921C36.0547 68.4447 35.7931 68.2391 35.602 67.9753C35.413 67.7116 35.3061 67.4053 35.2811 67.0564H36.0786C36.0994 67.2973 36.1804 67.4967 36.3216 67.6545C36.4649 67.8102 36.6456 67.9265 36.8636 68.0034C37.0838 68.0781 37.3205 68.1155 37.5739 68.1155C37.8688 68.1155 38.1336 68.0678 38.3682 67.9722C38.6029 67.8746 38.7888 67.7396 38.9259 67.5673C39.0629 67.3928 39.1315 67.1893 39.1315 66.9567C39.1315 66.7449 39.0723 66.5725 38.9539 66.4396C38.8355 66.3067 38.6798 66.1987 38.4866 66.1156C38.2935 66.0325 38.0848 65.9598 37.8605 65.8975L37.0755 65.6733C36.577 65.53 36.1825 65.3254 35.8917 65.0596C35.601 64.7937 35.4556 64.4459 35.4556 64.016C35.4556 63.6588 35.5522 63.3473 35.7453 63.0815C35.9405 62.8136 36.2022 62.6059 36.5303 62.4584C36.8605 62.3089 37.2291 62.2341 37.6362 62.2341C38.0474 62.2341 38.4129 62.3079 38.7327 62.4553C39.0525 62.6007 39.3059 62.8001 39.4928 63.0534C39.6818 63.3068 39.7815 63.5944 39.7919 63.9163H39.0442ZM43.0557 68.8009C42.5947 68.8009 42.197 68.6991 41.8626 68.4956C41.5304 68.29 41.2739 68.0034 41.0932 67.6358C40.9146 67.2661 40.8253 66.8362 40.8253 66.3461C40.8253 65.856 40.9146 65.424 41.0932 65.0502C41.2739 64.6743 41.5252 64.3815 41.8471 64.1718C42.171 63.9599 42.549 63.854 42.981 63.854C43.2302 63.854 43.4763 63.8955 43.7193 63.9786C43.9623 64.0617 44.1834 64.1967 44.3828 64.3836C44.5822 64.5684 44.741 64.8135 44.8594 65.1188C44.9778 65.424 45.037 65.7999 45.037 66.2464V66.558H41.3487V65.9225H44.2893C44.2893 65.6525 44.2353 65.4116 44.1274 65.1998C44.0214 64.9879 43.8698 64.8207 43.6725 64.6982C43.4773 64.5757 43.2468 64.5144 42.981 64.5144C42.6882 64.5144 42.4348 64.5871 42.2209 64.7325C42.0091 64.8758 41.846 65.0627 41.7318 65.2932C41.6176 65.5237 41.5605 65.7709 41.5605 66.0346V66.4583C41.5605 66.8196 41.6228 67.1259 41.7474 67.3772C41.8741 67.6264 42.0496 67.8165 42.2738 67.9473C42.4981 68.0761 42.7588 68.1404 43.0557 68.1404C43.2489 68.1404 43.4233 68.1134 43.5791 68.0595C43.7369 68.0034 43.873 67.9203 43.9872 67.8102C44.1014 67.6981 44.1897 67.559 44.252 67.3928L44.9622 67.5922C44.8875 67.8331 44.7618 68.0449 44.5853 68.2277C44.4088 68.4083 44.1907 68.5496 43.9311 68.6513C43.6715 68.751 43.3797 68.8009 43.0557 68.8009ZM48.0992 68.8009C47.6506 68.8009 47.2643 68.6949 46.9403 68.4831C46.6164 68.2713 46.3671 67.9795 46.1927 67.6078C46.0182 67.236 45.931 66.8113 45.931 66.3337C45.931 65.8477 46.0203 65.4189 46.1989 65.0471C46.3796 64.6733 46.6309 64.3815 46.9528 64.1718C47.2768 63.9599 47.6547 63.854 48.0867 63.854C48.4231 63.854 48.7263 63.9163 48.9963 64.0409C49.2663 64.1655 49.4875 64.34 49.6598 64.5643C49.8322 64.7886 49.9392 65.0502 49.9807 65.3493H49.2455C49.1895 65.1312 49.0649 64.9381 48.8717 64.7699C48.6807 64.5996 48.4231 64.5144 48.0992 64.5144C47.8126 64.5144 47.5613 64.5892 47.3453 64.7387C47.1314 64.8862 46.9642 65.0949 46.8438 65.3649C46.7254 65.6328 46.6662 65.9474 46.6662 66.3087C46.6662 66.6784 46.7243 67.0003 46.8406 67.2744C46.959 67.5486 47.1252 67.7614 47.3391 67.913C47.555 68.0646 47.8084 68.1404 48.0992 68.1404C48.2902 68.1404 48.4636 68.1072 48.6194 68.0408C48.7751 67.9743 48.907 67.8788 49.015 67.7542C49.123 67.6296 49.1998 67.48 49.2455 67.3056H49.9807C49.9392 67.588 49.8364 67.8424 49.6723 68.0688C49.5103 68.2931 49.2954 68.4717 49.0275 68.6046C48.7616 68.7354 48.4522 68.8009 48.0992 68.8009ZM52.9993 68.8009C52.5673 68.8009 52.1883 68.6981 51.8623 68.4925C51.5383 68.2869 51.2849 67.9992 51.1022 67.6296C50.9215 67.2599 50.8311 66.8279 50.8311 66.3337C50.8311 65.8352 50.9215 65.4002 51.1022 65.0284C51.2849 64.6567 51.5383 64.368 51.8623 64.1624C52.1883 63.9568 52.5673 63.854 52.9993 63.854C53.4312 63.854 53.8092 63.9568 54.1332 64.1624C54.4592 64.368 54.7126 64.6567 54.8933 65.0284C55.076 65.4002 55.1674 65.8352 55.1674 66.3337C55.1674 66.8279 55.076 67.2599 54.8933 67.6296C54.7126 67.9992 54.4592 68.2869 54.1332 68.4925C53.8092 68.6981 53.4312 68.8009 52.9993 68.8009ZM52.9993 68.1404C53.3274 68.1404 53.5974 68.0563 53.8092 67.8881C54.021 67.7199 54.1778 67.4987 54.2796 67.2246C54.3814 66.9505 54.4322 66.6535 54.4322 66.3337C54.4322 66.0138 54.3814 65.7158 54.2796 65.4396C54.1778 65.1634 54.021 64.9402 53.8092 64.7699C53.5974 64.5996 53.3274 64.5144 52.9993 64.5144C52.6711 64.5144 52.4012 64.5996 52.1893 64.7699C51.9775 64.9402 51.8207 65.1634 51.719 65.4396C51.6172 65.7158 51.5663 66.0138 51.5663 66.3337C51.5663 66.6535 51.6172 66.9505 51.719 67.2246C51.8207 67.4987 51.9775 67.7199 52.1893 67.8881C52.4012 68.0563 52.6711 68.1404 52.9993 68.1404ZM57.0248 65.8228V68.7012H56.2896V63.9163H56.9999V64.664H57.0622C57.1743 64.421 57.3446 64.2258 57.5731 64.0783C57.8015 63.9288 58.0964 63.854 58.4578 63.854C58.7818 63.854 59.0652 63.9205 59.3082 64.0534C59.5512 64.1842 59.7402 64.3836 59.8752 64.6515C60.0102 64.9173 60.0777 65.2537 60.0777 65.6608V68.7012H59.3425V65.7106C59.3425 65.3347 59.2449 65.0419 59.0497 64.8322C58.8544 64.6203 58.5865 64.5144 58.246 64.5144C58.0113 64.5144 57.8015 64.5653 57.6167 64.6671C57.4339 64.7688 57.2896 64.9173 57.1837 65.1125C57.0778 65.3077 57.0248 65.5445 57.0248 65.8228ZM63.2278 68.8009C62.8291 68.8009 62.4771 68.7001 62.1718 68.4987C61.8665 68.2952 61.6277 68.0086 61.4553 67.6389C61.283 67.2672 61.1968 66.8279 61.1968 66.3212C61.1968 65.8186 61.283 65.3825 61.4553 65.0128C61.6277 64.6432 61.8676 64.3576 62.1749 64.1562C62.4823 63.9547 62.8374 63.854 63.2403 63.854C63.5518 63.854 63.7979 63.9059 63.9786 64.0098C64.1613 64.1115 64.3005 64.2278 64.396 64.3587C64.4936 64.4874 64.5694 64.5933 64.6234 64.6764H64.6857V62.3214H65.4209V68.7012H64.7106V67.966H64.6234C64.5694 68.0532 64.4926 68.1633 64.3929 68.2962C64.2932 68.427 64.151 68.5444 63.9661 68.6482C63.7813 68.75 63.5352 68.8009 63.2278 68.8009ZM63.3275 68.1404C63.6224 68.1404 63.8716 68.0636 64.0752 67.9099C64.2787 67.7542 64.4334 67.5392 64.5393 67.2651C64.6452 66.9889 64.6982 66.6701 64.6982 66.3087C64.6982 65.9515 64.6463 65.639 64.5424 65.3711C64.4386 65.1011 64.2849 64.8914 64.0814 64.7418C63.8779 64.5902 63.6266 64.5144 63.3275 64.5144C63.016 64.5144 62.7564 64.5944 62.5487 64.7543C62.3431 64.9121 62.1884 65.1271 62.0846 65.3991C61.9828 65.6691 61.9319 65.9723 61.9319 66.3087C61.9319 66.6493 61.9839 66.9588 62.0877 67.2371C62.1936 67.5133 62.3494 67.7334 62.555 67.8975C62.7626 68.0595 63.0202 68.1404 63.3275 68.1404ZM68.2775 68.8133C67.9743 68.8133 67.6991 68.7562 67.452 68.642C67.2048 68.5257 67.0086 68.3585 66.8632 68.1404C66.7178 67.9203 66.6451 67.6545 66.6451 67.343C66.6451 67.0688 66.6991 66.8466 66.8071 66.6763C66.9151 66.504 67.0595 66.369 67.2401 66.2714C67.4208 66.1738 67.6202 66.1011 67.8382 66.0533C68.0584 66.0035 68.2796 65.964 68.5018 65.9349C68.7925 65.8975 69.0282 65.8695 69.2089 65.8508C69.3917 65.8301 69.5246 65.7958 69.6076 65.748C69.6928 65.7003 69.7354 65.6172 69.7354 65.4988V65.4739C69.7354 65.1665 69.6513 64.9277 69.483 64.7574C69.3169 64.5871 69.0646 64.502 68.7261 64.502C68.3751 64.502 68.0999 64.5788 67.9005 64.7325C67.7012 64.8862 67.561 65.0502 67.48 65.2247L66.7822 64.9755C66.9068 64.6847 67.073 64.4584 67.2806 64.2964C67.4904 64.1323 67.7188 64.0181 67.966 63.9537C68.2152 63.8872 68.4602 63.854 68.7011 63.854C68.8548 63.854 69.0313 63.8727 69.2307 63.9101C69.4322 63.9454 69.6263 64.0191 69.8132 64.1313C70.0022 64.2434 70.159 64.4127 70.2836 64.639C70.4082 64.8654 70.4705 65.1686 70.4705 65.5486V68.7012H69.7354V68.0532H69.698C69.6481 68.1571 69.5651 68.2682 69.4488 68.3865C69.3325 68.5049 69.1778 68.6056 68.9846 68.6887C68.7915 68.7718 68.5558 68.8133 68.2775 68.8133ZM68.3896 68.1529C68.6804 68.1529 68.9254 68.0958 69.1248 67.9816C69.3262 67.8674 69.4778 67.7199 69.5796 67.5392C69.6834 67.3585 69.7354 67.1685 69.7354 66.9692V66.2963C69.7042 66.3337 69.6357 66.3679 69.5298 66.3991C69.4259 66.4282 69.3055 66.4541 69.1684 66.477C69.0334 66.4977 68.9015 66.5164 68.7728 66.533C68.6461 66.5476 68.5433 66.56 68.4644 66.5704C68.2733 66.5953 68.0947 66.6358 67.9286 66.6919C67.7645 66.7459 67.6316 66.8279 67.5298 66.938C67.4302 67.046 67.3803 67.1934 67.3803 67.3804C67.3803 67.6358 67.4748 67.8289 67.6638 67.9598C67.8549 68.0885 68.0968 68.1529 68.3896 68.1529ZM71.8124 68.7012V63.9163H72.5226V64.639H72.5725C72.6597 64.4023 72.8175 64.2102 73.046 64.0627C73.2744 63.9153 73.5319 63.8416 73.8185 63.8416C73.8725 63.8416 73.94 63.8426 74.021 63.8447C74.102 63.8467 74.1633 63.8499 74.2048 63.854V64.6016C74.1799 64.5954 74.1228 64.5861 74.0335 64.5736C73.9463 64.5591 73.8538 64.5518 73.7562 64.5518C73.5236 64.5518 73.316 64.6006 73.1332 64.6982C72.9525 64.7937 72.8092 64.9267 72.7033 65.097C72.5995 65.2652 72.5476 65.4573 72.5476 65.6733V68.7012H71.8124ZM75.6954 70.4955C75.5708 70.4955 75.4597 70.4851 75.3621 70.4643C75.2645 70.4457 75.197 70.427 75.1596 70.4083L75.3465 69.7603C75.5251 69.806 75.6829 69.8226 75.82 69.8102C75.9571 69.7977 76.0786 69.7364 76.1845 69.6264C76.2925 69.5184 76.3911 69.3429 76.4804 69.0999L76.6175 68.7261L74.8481 63.9163H75.6456L76.9664 67.7292H77.0162L78.337 63.9163H79.1345L77.1035 69.399C77.0121 69.6461 76.8989 69.8507 76.7639 70.0126C76.6289 70.1767 76.4721 70.2982 76.2935 70.3771C76.117 70.456 75.9176 70.4955 75.6954 70.4955ZM84.653 63.9163V64.5393H82.1733V63.9163H84.653ZM82.8961 62.7699H83.6312V67.3305C83.6312 67.5382 83.6613 67.6939 83.7216 67.7978C83.7839 67.8995 83.8628 67.9681 83.9583 68.0034C84.0559 68.0366 84.1587 68.0532 84.2667 68.0532C84.3477 68.0532 84.4142 68.0491 84.4661 68.0408C84.518 68.0304 84.5595 68.0221 84.5907 68.0158L84.7402 68.6763C84.6904 68.6949 84.6208 68.7136 84.5315 68.7323C84.4422 68.7531 84.329 68.7635 84.192 68.7635C83.9843 68.7635 83.7808 68.7188 83.5814 68.6295C83.3841 68.5402 83.22 68.4042 83.0892 68.2214C82.9604 68.0387 82.8961 67.8082 82.8961 67.5299V62.7699ZM87.7136 68.8009C87.2526 68.8009 86.8549 68.6991 86.5205 68.4956C86.1882 68.29 85.9318 68.0034 85.7511 67.6358C85.5725 67.2661 85.4832 66.8362 85.4832 66.3461C85.4832 65.856 85.5725 65.424 85.7511 65.0502C85.9318 64.6743 86.183 64.3815 86.5049 64.1718C86.8289 63.9599 87.2069 63.854 87.6389 63.854C87.8881 63.854 88.1342 63.8955 88.3771 63.9786C88.6201 64.0617 88.8413 64.1967 89.0407 64.3836C89.24 64.5684 89.3989 64.8135 89.5173 65.1188C89.6357 65.424 89.6948 65.7999 89.6948 66.2464V66.558H86.0065V65.9225H88.9472C88.9472 65.6525 88.8932 65.4116 88.7852 65.1998C88.6793 64.9879 88.5277 64.8207 88.3304 64.6982C88.1352 64.5757 87.9047 64.5144 87.6389 64.5144C87.346 64.5144 87.0927 64.5871 86.8788 64.7325C86.6669 64.8758 86.5039 65.0627 86.3897 65.2932C86.2755 65.5237 86.2184 65.7709 86.2184 66.0346V66.4583C86.2184 66.8196 86.2807 67.1259 86.4053 67.3772C86.5319 67.6264 86.7074 67.8165 86.9317 67.9473C87.156 68.0761 87.4166 68.1404 87.7136 68.1404C87.9068 68.1404 88.0812 68.1134 88.237 68.0595C88.3948 68.0034 88.5308 67.9203 88.645 67.8102C88.7593 67.6981 88.8475 67.559 88.9098 67.3928L89.6201 67.5922C89.5453 67.8331 89.4197 68.0449 89.2432 68.2277C89.0666 68.4083 88.8486 68.5496 88.589 68.6513C88.3294 68.751 88.0376 68.8009 87.7136 68.8009ZM91.2329 63.9163L92.3793 65.8726L93.5257 63.9163H94.373L92.8279 66.3087L94.373 68.7012H93.5257L92.3793 66.8445L91.2329 68.7012H90.3856L91.9058 66.3087L90.3856 63.9163H91.2329ZM97.5029 63.9163V64.5393H95.0233V63.9163H97.5029ZM95.746 62.7699H96.4812V67.3305C96.4812 67.5382 96.5113 67.6939 96.5715 67.7978C96.6338 67.8995 96.7127 67.9681 96.8083 68.0034C96.9059 68.0366 97.0087 68.0532 97.1167 68.0532C97.1977 68.0532 97.2641 68.0491 97.316 68.0408C97.368 68.0304 97.4095 68.0221 97.4406 68.0158L97.5902 68.6763C97.5403 68.6949 97.4708 68.7136 97.3815 68.7323C97.2922 68.7531 97.179 68.7635 97.0419 68.7635C96.8342 68.7635 96.6307 68.7188 96.4313 68.6295C96.234 68.5402 96.07 68.4042 95.9391 68.2214C95.8104 68.0387 95.746 67.8082 95.746 67.5299V62.7699Z" fill="white"/>
<ellipse cx="274.351" cy="40.6457" rx="10.3784" ry="10.3937" fill="#4F4F4F"/>
<rect x="272.622" y="38.3379" width="3.45947" height="9.23887" rx="1.72974" fill="#261F32"/>
<rect x="272.622" y="33.7188" width="3.45947" height="3.46458" rx="1.72974" fill="#261F32"/>
<rect x="51.0014" y="128.299" width="222.493" height="140.421" stroke="#4F4F4F" stroke-width="0.73102" stroke-dasharray="0.73 0.73"/>
<path d="M50.6357 156.928H273.86" stroke="#4F4F4F" stroke-width="0.73102" stroke-dasharray="1.46 1.46"/>
<path d="M50.6357 185.158H273.86" stroke="#4F4F4F" stroke-width="0.73102" stroke-dasharray="1.46 1.46"/>
<path d="M50.6357 213.387H273.86" stroke="#4F4F4F" stroke-width="0.73102" stroke-dasharray="1.46 1.46"/>
<path d="M50.6357 241.619H273.86" stroke="#4F4F4F" stroke-width="0.73102" stroke-dasharray="1.46 1.46"/>
<path d="M107.014 127.934L107.014 269.085" stroke="#4F4F4F" stroke-width="0.73102" stroke-dasharray="1.46 1.46"/>
<path d="M161.867 127.934L161.867 269.085" stroke="#4F4F4F" stroke-width="0.73102" stroke-dasharray="1.46 1.46"/>
<path d="M218.245 127.934L218.245 269.085" stroke="#4F4F4F" stroke-width="0.73102" stroke-dasharray="1.46 1.46"/>
<path d="M51.7946 272.494H52.4862L54.1123 276.466H54.1684L55.7945 272.494H56.486V277.279H55.944V273.644H55.8973L54.402 277.279H53.8787L52.3834 273.644H52.3367V277.279H51.7946V272.494ZM59.0309 277.354C58.7069 277.354 58.4227 277.277 58.1781 277.123C57.9352 276.969 57.7451 276.753 57.6081 276.476C57.4726 276.198 57.4048 275.874 57.4048 275.504C57.4048 275.13 57.4726 274.804 57.6081 274.525C57.7451 274.246 57.9352 274.029 58.1781 273.875C58.4227 273.721 58.7069 273.644 59.0309 273.644C59.3549 273.644 59.6384 273.721 59.8813 273.875C60.1259 274.029 60.3159 274.246 60.4514 274.525C60.5885 274.804 60.657 275.13 60.657 275.504C60.657 275.874 60.5885 276.198 60.4514 276.476C60.3159 276.753 60.1259 276.969 59.8813 277.123C59.6384 277.277 59.3549 277.354 59.0309 277.354ZM59.0309 276.859C59.277 276.859 59.4795 276.796 59.6384 276.67C59.7972 276.543 59.9148 276.377 59.9911 276.172C60.0675 275.966 60.1056 275.744 60.1056 275.504C60.1056 275.264 60.0675 275.04 59.9911 274.833C59.9148 274.626 59.7972 274.459 59.6384 274.331C59.4795 274.203 59.277 274.139 59.0309 274.139C58.7848 274.139 58.5823 274.203 58.4234 274.331C58.2646 274.459 58.147 274.626 58.0707 274.833C57.9943 275.04 57.9562 275.264 57.9562 275.504C57.9562 275.744 57.9943 275.966 58.0707 276.172C58.147 276.377 58.2646 276.543 58.4234 276.67C58.5823 276.796 58.7848 276.859 59.0309 276.859ZM62.0501 275.121V277.279H61.4987V273.691H62.0314V274.251H62.0781C62.1622 274.069 62.2899 273.923 62.4613 273.812C62.6326 273.7 62.8538 273.644 63.1248 273.644C63.3678 273.644 63.5804 273.694 63.7626 273.793C63.9448 273.892 64.0866 274.041 64.1878 274.242C64.2891 274.441 64.3397 274.694 64.3397 274.999V277.279H63.7883V275.036C63.7883 274.754 63.7151 274.535 63.5687 274.378C63.4223 274.219 63.2213 274.139 62.9659 274.139C62.7899 274.139 62.6326 274.177 62.494 274.254C62.3569 274.33 62.2486 274.441 62.1692 274.588C62.0898 274.734 62.0501 274.912 62.0501 275.121ZM66.7023 277.354C66.4033 277.354 66.1393 277.279 65.9103 277.127C65.6813 276.975 65.5022 276.76 65.3729 276.483C65.2437 276.204 65.179 275.874 65.179 275.494C65.179 275.117 65.2437 274.79 65.3729 274.513C65.5022 274.236 65.6821 274.022 65.9126 273.871C66.1432 273.719 66.4095 273.644 66.7117 273.644C66.9453 273.644 67.1299 273.683 67.2654 273.761C67.4025 273.837 67.5068 273.924 67.5785 274.022C67.6517 274.119 67.7085 274.198 67.749 274.261H67.7957V272.494H68.3471V277.279H67.8144V276.728H67.749C67.7085 276.793 67.6509 276.876 67.5761 276.976C67.5014 277.074 67.3947 277.162 67.256 277.24C67.1174 277.316 66.9328 277.354 66.7023 277.354ZM66.7771 276.859C66.9983 276.859 67.1852 276.801 67.3378 276.686C67.4905 276.569 67.6065 276.408 67.6859 276.202C67.7654 275.995 67.8051 275.756 67.8051 275.485C67.8051 275.217 67.7661 274.983 67.6883 274.782C67.6104 274.579 67.4951 274.422 67.3425 274.31C67.1898 274.196 67.0014 274.139 66.7771 274.139C66.5435 274.139 66.3488 274.199 66.193 274.319C66.0388 274.438 65.9228 274.599 65.8449 274.803C65.7686 275.005 65.7304 275.233 65.7304 275.485C65.7304 275.74 65.7693 275.972 65.8472 276.181C65.9267 276.388 66.0435 276.553 66.1977 276.677C66.3534 276.798 66.5466 276.859 66.7771 276.859ZM70.4896 277.363C70.2622 277.363 70.0558 277.321 69.8704 277.235C69.6851 277.148 69.5379 277.022 69.4289 276.859C69.3198 276.694 69.2653 276.494 69.2653 276.261C69.2653 276.055 69.3058 275.888 69.3868 275.761C69.4678 275.631 69.576 275.53 69.7116 275.457C69.8471 275.384 69.9966 275.329 70.1601 275.293C70.3252 275.256 70.4911 275.226 70.6578 275.205C70.8758 275.177 71.0526 275.156 71.1881 275.142C71.3252 275.126 71.4249 275.1 71.4872 275.064C71.551 275.029 71.583 274.966 71.583 274.878V274.859C71.583 274.628 71.5199 274.449 71.3937 274.321C71.2691 274.194 71.0799 274.13 70.826 274.13C70.5628 274.13 70.3564 274.188 70.2069 274.303C70.0573 274.418 69.9522 274.541 69.8914 274.672L69.3681 274.485C69.4616 274.267 69.5862 274.097 69.7419 273.976C69.8992 273.853 70.0706 273.767 70.2559 273.719C70.4428 273.669 70.6266 273.644 70.8073 273.644C70.9226 273.644 71.055 273.658 71.2045 273.686C71.3556 273.712 71.5012 273.768 71.6414 273.852C71.7831 273.936 71.9007 274.063 71.9942 274.233C72.0876 274.402 72.1344 274.63 72.1344 274.915V277.279H71.583V276.793H71.5549C71.5176 276.871 71.4552 276.955 71.368 277.043C71.2808 277.132 71.1648 277.208 71.0199 277.27C70.8751 277.332 70.6983 277.363 70.4896 277.363ZM70.5737 276.868C70.7917 276.868 70.9755 276.825 71.125 276.74C71.2761 276.654 71.3898 276.543 71.4662 276.408C71.544 276.272 71.583 276.13 71.583 275.98V275.476C71.5596 275.504 71.5082 275.529 71.4288 275.553C71.3509 275.575 71.2606 275.594 71.1578 275.611C71.0565 275.627 70.9576 275.641 70.861 275.653C70.766 275.664 70.6889 275.673 70.6297 275.681C70.4864 275.7 70.3525 275.73 70.2279 275.772C70.1048 275.813 70.0052 275.874 69.9288 275.957C69.8541 276.038 69.8167 276.149 69.8167 276.289C69.8167 276.48 69.8876 276.625 70.0293 276.723C70.1726 276.82 70.354 276.868 70.5737 276.868ZM73.3674 278.625C73.2739 278.625 73.1906 278.617 73.1174 278.602C73.0442 278.588 72.9935 278.574 72.9655 278.56L73.1057 278.074C73.2396 278.108 73.358 278.12 73.4608 278.111C73.5636 278.102 73.6547 278.056 73.7342 277.973C73.8152 277.892 73.8891 277.761 73.9561 277.578L74.0589 277.298L72.7319 273.691H73.33L74.3206 276.55H74.358L75.3486 273.691H75.9467L74.4234 277.803C74.3549 277.988 74.27 278.141 74.1687 278.263C74.0675 278.386 73.9499 278.477 73.8159 278.536C73.6835 278.595 73.534 278.625 73.3674 278.625Z" fill="white"/>
<path d="M42.6306 268.284C42.2786 268.284 41.9788 268.188 41.7311 267.997C41.4835 267.804 41.2942 267.524 41.1634 267.158C41.0326 266.79 40.9671 266.347 40.9671 265.826C40.9671 265.309 41.0326 264.868 41.1634 264.502C41.2958 264.134 41.4858 263.854 41.7335 263.661C41.9827 263.466 42.2817 263.368 42.6306 263.368C42.9795 263.368 43.2778 263.466 43.5254 263.661C43.7747 263.854 43.9647 264.134 44.0955 264.502C44.2279 264.868 44.2941 265.309 44.2941 265.826C44.2941 266.347 44.2287 266.79 44.0979 267.158C43.967 267.524 43.7778 267.804 43.5301 267.997C43.2825 268.188 42.9826 268.284 42.6306 268.284ZM42.6306 267.77C42.9795 267.77 43.2505 267.602 43.4437 267.266C43.6368 266.929 43.7334 266.449 43.7334 265.826C43.7334 265.412 43.689 265.059 43.6002 264.768C43.513 264.477 43.3868 264.255 43.2217 264.102C43.0582 263.949 42.8611 263.873 42.6306 263.873C42.2848 263.873 42.0146 264.044 41.8199 264.385C41.6252 264.724 41.5279 265.205 41.5279 265.826C41.5279 266.241 41.5715 266.593 41.6587 266.882C41.7459 267.172 41.8713 267.392 42.0349 267.544C42.2 267.695 42.3985 267.77 42.6306 267.77Z" fill="white"/>
<path d="M35.9547 239.258V238.837L37.5341 237.108C37.7195 236.906 37.8721 236.73 37.992 236.58C38.112 236.429 38.2007 236.288 38.2584 236.155C38.3176 236.021 38.3472 235.881 38.3472 235.735C38.3472 235.566 38.3067 235.421 38.2257 235.298C38.1462 235.175 38.0372 235.08 37.8986 235.013C37.7599 234.946 37.6042 234.912 37.4313 234.912C37.2475 234.912 37.0871 234.95 36.95 235.027C36.8145 235.101 36.7094 235.207 36.6346 235.342C36.5614 235.478 36.5248 235.636 36.5248 235.819H35.9734C35.9734 235.538 36.0381 235.292 36.1673 235.08C36.2966 234.869 36.4726 234.703 36.6954 234.585C36.9196 234.467 37.1712 234.408 37.45 234.408C37.7304 234.408 37.9788 234.467 38.1953 234.585C38.4118 234.703 38.5816 234.863 38.7046 235.064C38.8277 235.265 38.8892 235.488 38.8892 235.735C38.8892 235.911 38.8573 236.083 38.7934 236.251C38.7311 236.418 38.6221 236.604 38.4663 236.809C38.3121 237.013 38.0979 237.263 37.8238 237.557L36.7491 238.706V238.744H38.9733V239.258H35.9547ZM40.3494 239.295C40.2341 239.295 40.1352 239.254 40.0527 239.171C39.9701 239.089 39.9289 238.99 39.9289 238.875C39.9289 238.759 39.9701 238.66 40.0527 238.578C40.1352 238.495 40.2341 238.454 40.3494 238.454C40.4647 238.454 40.5636 238.495 40.6461 238.578C40.7287 238.66 40.77 238.759 40.77 238.875C40.77 238.951 40.7505 239.021 40.7115 239.085C40.6742 239.149 40.6235 239.2 40.5597 239.239C40.4974 239.277 40.4273 239.295 40.3494 239.295ZM43.1489 239.323C42.8748 239.323 42.6279 239.269 42.4083 239.16C42.1887 239.051 42.0127 238.901 41.8803 238.711C41.7479 238.521 41.6755 238.305 41.663 238.062H42.2238C42.2456 238.278 42.3437 238.457 42.5181 238.599C42.6941 238.739 42.9044 238.809 43.1489 238.809C43.3452 238.809 43.5196 238.763 43.6723 238.671C43.8265 238.579 43.9472 238.453 44.0344 238.293C44.1232 238.131 44.1676 237.948 44.1676 237.744C44.1676 237.535 44.1217 237.349 44.0298 237.185C43.9394 237.02 43.8148 236.89 43.6559 236.795C43.4971 236.7 43.3156 236.652 43.1116 236.65C42.9652 236.649 42.8148 236.671 42.6606 236.718C42.5064 236.763 42.3795 236.822 42.2798 236.893L41.7378 236.828L42.0275 234.473H44.5134V234.987H42.5135L42.3452 236.398H42.3733C42.4714 236.32 42.5945 236.256 42.7424 236.204C42.8904 236.153 43.0446 236.127 43.205 236.127C43.4978 236.127 43.7587 236.197 43.9877 236.337C44.2182 236.476 44.3989 236.666 44.5297 236.907C44.6621 237.149 44.7283 237.425 44.7283 237.735C44.7283 238.04 44.6598 238.312 44.5227 238.552C44.3872 238.791 44.2003 238.979 43.962 239.118C43.7237 239.255 43.4527 239.323 43.1489 239.323Z" fill="white"/>
<path d="M36.2867 183.094L38.4268 178.86V178.823H35.9596V178.309H39.0249V178.851L36.8941 183.094H36.2867ZM39.4845 183.131C39.3693 183.131 39.2704 183.09 39.1878 183.007C39.1053 182.925 39.064 182.826 39.064 182.711C39.064 182.595 39.1053 182.496 39.1878 182.414C39.2704 182.331 39.3693 182.29 39.4845 182.29C39.5998 182.29 39.6987 182.331 39.7813 182.414C39.8638 182.496 39.9051 182.595 39.9051 182.711C39.9051 182.787 39.8856 182.857 39.8467 182.921C39.8093 182.985 39.7587 183.036 39.6948 183.075C39.6325 183.112 39.5624 183.131 39.4845 183.131ZM42.2841 183.159C42.0099 183.159 41.7631 183.105 41.5435 182.996C41.3238 182.887 41.1478 182.737 41.0154 182.547C40.883 182.357 40.8106 182.141 40.7982 181.898H41.3589C41.3807 182.114 41.4788 182.293 41.6533 182.435C41.8293 182.575 42.0395 182.645 42.2841 182.645C42.4803 182.645 42.6548 182.599 42.8074 182.507C42.9616 182.415 43.0823 182.289 43.1696 182.129C43.2583 181.967 43.3027 181.784 43.3027 181.58C43.3027 181.371 43.2568 181.185 43.1649 181.021C43.0745 180.856 42.9499 180.726 42.7911 180.631C42.6322 180.536 42.4507 180.488 42.2467 180.486C42.1003 180.485 41.95 180.507 41.7958 180.554C41.6416 180.599 41.5146 180.658 41.415 180.729L40.8729 180.664L41.1626 178.309H43.6485V178.823H41.6486L41.4804 180.234H41.5084C41.6065 180.156 41.7296 180.092 41.8776 180.04C42.0255 179.989 42.1797 179.963 42.3402 179.963C42.633 179.963 42.8939 180.033 43.1228 180.173C43.3534 180.312 43.534 180.502 43.6649 180.743C43.7973 180.985 43.8635 181.26 43.8635 181.57C43.8635 181.876 43.7949 182.148 43.6579 182.388C43.5223 182.626 43.3354 182.815 43.0971 182.954C42.8588 183.091 42.5878 183.159 42.2841 183.159Z" fill="white"/>
<path d="M39.3035 149.793V154.578H38.7241V150.401H38.696L37.5278 151.176V150.588L38.7241 149.793H39.3035ZM42.2403 154.644C41.8883 154.644 41.5884 154.548 41.3408 154.356C41.0931 154.163 40.9039 153.883 40.773 153.517C40.6422 153.15 40.5768 152.706 40.5768 152.186C40.5768 151.669 40.6422 151.227 40.773 150.861C40.9054 150.493 41.0955 150.213 41.3431 150.02C41.5923 149.825 41.8914 149.728 42.2403 149.728C42.5892 149.728 42.8874 149.825 43.1351 150.02C43.3843 150.213 43.5743 150.493 43.7052 150.861C43.8376 151.227 43.9038 151.669 43.9038 152.186C43.9038 152.706 43.8383 153.15 43.7075 153.517C43.5767 153.883 43.3874 154.163 43.1398 154.356C42.8921 154.548 42.5923 154.644 42.2403 154.644ZM42.2403 154.13C42.5892 154.13 42.8602 153.961 43.0533 153.625C43.2465 153.288 43.343 152.809 43.343 152.186C43.343 151.771 43.2986 151.419 43.2099 151.127C43.1226 150.836 42.9965 150.614 42.8314 150.461C42.6678 150.309 42.4708 150.233 42.2403 150.233C41.8945 150.233 41.6243 150.403 41.4296 150.744C41.2349 151.084 41.1375 151.564 41.1375 152.186C41.1375 152.6 41.1811 152.952 41.2683 153.242C41.3556 153.531 41.481 153.752 41.6445 153.903C41.8096 154.054 42.0082 154.13 42.2403 154.13Z" fill="white"/>
<path d="M34.5786 121.278V126.062H33.9992V121.885H33.9712L32.803 122.661V122.072L33.9992 121.278H34.5786ZM35.9547 126.062V125.642L37.5341 123.913C37.7195 123.711 37.8721 123.535 37.992 123.385C38.112 123.234 38.2007 123.092 38.2584 122.96C38.3176 122.826 38.3472 122.686 38.3472 122.539C38.3472 122.371 38.3067 122.225 38.2257 122.102C38.1462 121.979 38.0372 121.884 37.8986 121.817C37.7599 121.75 37.6042 121.717 37.4313 121.717C37.2475 121.717 37.0871 121.755 36.95 121.831C36.8145 121.906 36.7094 122.011 36.6346 122.147C36.5614 122.282 36.5248 122.441 36.5248 122.623H35.9734C35.9734 122.343 36.0381 122.097 36.1673 121.885C36.2966 121.673 36.4726 121.508 36.6953 121.39C36.9196 121.271 37.1712 121.212 37.45 121.212C37.7304 121.212 37.9788 121.271 38.1953 121.39C38.4118 121.508 38.5816 121.668 38.7046 121.869C38.8277 122.07 38.8892 122.293 38.8892 122.539C38.8892 122.715 38.8573 122.887 38.7934 123.056C38.7311 123.222 38.6221 123.408 38.4663 123.614C38.3121 123.818 38.0979 124.067 37.8238 124.362L36.7491 125.511V125.549H38.9733V126.062H35.9547ZM40.3494 126.1C40.2341 126.1 40.1352 126.059 40.0527 125.976C39.9701 125.894 39.9289 125.795 39.9289 125.679C39.9289 125.564 39.9701 125.465 40.0527 125.383C40.1352 125.3 40.2341 125.259 40.3494 125.259C40.4647 125.259 40.5636 125.3 40.6461 125.383C40.7287 125.465 40.77 125.564 40.77 125.679C40.77 125.756 40.7505 125.826 40.7115 125.89C40.6742 125.953 40.6235 126.005 40.5597 126.044C40.4974 126.081 40.4273 126.1 40.3494 126.1ZM43.1489 126.128C42.8748 126.128 42.6279 126.073 42.4083 125.964C42.1887 125.855 42.0127 125.706 41.8803 125.516C41.7479 125.326 41.6755 125.109 41.663 124.866H42.2237C42.2456 125.083 42.3437 125.262 42.5181 125.404C42.6941 125.544 42.9044 125.614 43.1489 125.614C43.3452 125.614 43.5196 125.568 43.6723 125.476C43.8265 125.384 43.9472 125.258 44.0344 125.098C44.1232 124.936 44.1676 124.753 44.1676 124.549C44.1676 124.34 44.1216 124.154 44.0298 123.99C43.9394 123.825 43.8148 123.695 43.6559 123.6C43.4971 123.505 43.3156 123.457 43.1116 123.455C42.9652 123.454 42.8148 123.476 42.6606 123.523C42.5064 123.568 42.3795 123.626 42.2798 123.698L41.7378 123.633L42.0275 121.278H44.5134V121.792H42.5135L42.3452 123.203H42.3733C42.4714 123.125 42.5945 123.06 42.7424 123.009C42.8904 122.957 43.0446 122.932 43.205 122.932C43.4978 122.932 43.7587 123.002 43.9877 123.142C44.2182 123.281 44.3989 123.471 44.5297 123.712C44.6621 123.954 44.7283 124.229 44.7283 124.539C44.7283 124.844 44.6598 125.117 44.5227 125.357C44.3872 125.595 44.2003 125.784 43.962 125.922C43.7237 126.059 43.4527 126.128 43.1489 126.128Z" fill="white"/>
<path d="M42.2841 210.808C42.0099 210.808 41.7631 210.753 41.5435 210.644C41.3238 210.535 41.1478 210.386 41.0154 210.195C40.883 210.005 40.8106 209.789 40.7982 209.546H41.3589C41.3807 209.762 41.4788 209.942 41.6533 210.083C41.8293 210.224 42.0395 210.294 42.2841 210.294C42.4803 210.294 42.6548 210.248 42.8074 210.156C42.9616 210.064 43.0823 209.938 43.1696 209.777C43.2583 209.615 43.3027 209.432 43.3027 209.228C43.3027 209.02 43.2568 208.833 43.1649 208.67C43.0745 208.505 42.9499 208.375 42.7911 208.28C42.6322 208.185 42.4507 208.136 42.2467 208.135C42.1003 208.133 41.95 208.156 41.7958 208.203C41.6416 208.248 41.5146 208.306 41.415 208.378L40.8729 208.312L41.1626 205.957H43.6485V206.471H41.6486L41.4804 207.882H41.5084C41.6065 207.805 41.7296 207.74 41.8776 207.689C42.0255 207.637 42.1797 207.611 42.3402 207.611C42.633 207.611 42.8939 207.682 43.1228 207.822C43.3533 207.96 43.534 208.15 43.6649 208.392C43.7973 208.633 43.8635 208.909 43.8635 209.219C43.8635 209.524 43.7949 209.797 43.6579 210.037C43.5223 210.275 43.3354 210.463 43.0971 210.602C42.8588 210.739 42.5878 210.808 42.2841 210.808Z" fill="white"/>
<path d="M107.749 273.008V272.494H111.338V273.008H109.833V277.279H109.254V273.008H107.749ZM113.931 275.812V273.691H114.482V277.279H113.931V276.672H113.893C113.809 276.854 113.678 277.009 113.501 277.137C113.323 277.263 113.099 277.326 112.828 277.326C112.604 277.326 112.404 277.277 112.23 277.179C112.055 277.079 111.918 276.93 111.819 276.73C111.719 276.529 111.669 276.276 111.669 275.971V273.691H112.221V275.934C112.221 276.195 112.294 276.404 112.44 276.56C112.588 276.715 112.777 276.793 113.006 276.793C113.143 276.793 113.282 276.758 113.424 276.688C113.567 276.618 113.687 276.511 113.784 276.366C113.882 276.221 113.931 276.036 113.931 275.812ZM116.997 277.354C116.651 277.354 116.353 277.278 116.102 277.125C115.853 276.971 115.66 276.756 115.525 276.48C115.391 276.203 115.324 275.881 115.324 275.513C115.324 275.145 115.391 274.821 115.525 274.541C115.66 274.259 115.849 274.04 116.09 273.882C116.333 273.723 116.617 273.644 116.941 273.644C117.128 273.644 117.312 273.675 117.494 273.737C117.677 273.8 117.842 273.901 117.992 274.041C118.141 274.18 118.261 274.364 118.349 274.592C118.438 274.821 118.483 275.103 118.483 275.438V275.672H115.716V275.195H117.922C117.922 274.993 117.881 274.812 117.8 274.653C117.721 274.494 117.607 274.369 117.459 274.277C117.313 274.185 117.14 274.139 116.941 274.139C116.721 274.139 116.531 274.194 116.371 274.303C116.212 274.41 116.089 274.55 116.004 274.723C115.918 274.896 115.875 275.082 115.875 275.279V275.597C115.875 275.868 115.922 276.098 116.015 276.286C116.11 276.473 116.242 276.616 116.41 276.714C116.578 276.81 116.774 276.859 116.997 276.859C117.142 276.859 117.272 276.839 117.389 276.798C117.508 276.756 117.61 276.694 117.695 276.611C117.781 276.527 117.847 276.423 117.894 276.298L118.427 276.448C118.37 276.628 118.276 276.787 118.144 276.924C118.011 277.06 117.848 277.166 117.653 277.242C117.458 277.317 117.24 277.354 116.997 277.354ZM121.863 274.494L121.368 274.635C121.337 274.552 121.291 274.472 121.23 274.394C121.171 274.314 121.09 274.249 120.987 274.198C120.884 274.146 120.753 274.121 120.592 274.121C120.373 274.121 120.19 274.171 120.043 274.272C119.898 274.372 119.826 274.499 119.826 274.653C119.826 274.79 119.876 274.899 119.976 274.978C120.075 275.057 120.231 275.124 120.443 275.177L120.975 275.307C121.296 275.385 121.535 275.504 121.693 275.665C121.85 275.824 121.929 276.029 121.929 276.279C121.929 276.485 121.87 276.669 121.751 276.831C121.634 276.993 121.471 277.12 121.261 277.214C121.05 277.307 120.806 277.354 120.527 277.354C120.161 277.354 119.858 277.275 119.618 277.116C119.378 276.957 119.226 276.725 119.162 276.42L119.686 276.289C119.736 276.482 119.83 276.627 119.969 276.723C120.109 276.82 120.292 276.868 120.518 276.868C120.775 276.868 120.979 276.814 121.13 276.705C121.282 276.594 121.359 276.462 121.359 276.307C121.359 276.183 121.315 276.078 121.228 275.994C121.141 275.909 121.007 275.845 120.826 275.803L120.228 275.663C119.899 275.585 119.658 275.464 119.504 275.3C119.351 275.135 119.275 274.929 119.275 274.681C119.275 274.479 119.331 274.3 119.445 274.144C119.56 273.988 119.717 273.866 119.915 273.777C120.114 273.688 120.34 273.644 120.592 273.644C120.947 273.644 121.226 273.722 121.429 273.878C121.633 274.033 121.778 274.239 121.863 274.494ZM124.114 277.354C123.815 277.354 123.551 277.279 123.322 277.127C123.093 276.975 122.914 276.76 122.784 276.483C122.655 276.204 122.59 275.874 122.59 275.494C122.59 275.117 122.655 274.79 122.784 274.513C122.914 274.236 123.094 274.022 123.324 273.871C123.555 273.719 123.821 273.644 124.123 273.644C124.357 273.644 124.541 273.683 124.677 273.761C124.814 273.837 124.918 273.924 124.99 274.022C125.063 274.119 125.12 274.198 125.16 274.261H125.207V272.494H125.759V277.279H125.226V276.728H125.16C125.12 276.793 125.062 276.876 124.988 276.976C124.913 277.074 124.806 277.162 124.668 277.24C124.529 277.316 124.344 277.354 124.114 277.354ZM124.189 276.859C124.41 276.859 124.597 276.801 124.749 276.686C124.902 276.569 125.018 276.408 125.097 276.202C125.177 275.995 125.217 275.756 125.217 275.485C125.217 275.217 125.178 274.983 125.1 274.782C125.022 274.579 124.907 274.422 124.754 274.31C124.601 274.196 124.413 274.139 124.189 274.139C123.955 274.139 123.76 274.199 123.604 274.319C123.45 274.438 123.334 274.599 123.256 274.803C123.18 275.005 123.142 275.233 123.142 275.485C123.142 275.74 123.181 275.972 123.259 276.181C123.338 276.388 123.455 276.553 123.609 276.677C123.765 276.798 123.958 276.859 124.189 276.859ZM127.901 277.363C127.674 277.363 127.467 277.321 127.282 277.235C127.097 277.148 126.949 277.022 126.84 276.859C126.731 276.694 126.677 276.494 126.677 276.261C126.677 276.055 126.717 275.888 126.798 275.761C126.879 275.631 126.988 275.53 127.123 275.457C127.259 275.384 127.408 275.329 127.572 275.293C127.737 275.256 127.903 275.226 128.069 275.205C128.287 275.177 128.464 275.156 128.6 275.142C128.737 275.126 128.836 275.1 128.899 275.064C128.963 275.029 128.994 274.966 128.994 274.878V274.859C128.994 274.628 128.931 274.449 128.805 274.321C128.681 274.194 128.491 274.13 128.237 274.13C127.974 274.13 127.768 274.188 127.618 274.303C127.469 274.418 127.364 274.541 127.303 274.672L126.78 274.485C126.873 274.267 126.998 274.097 127.153 273.976C127.311 273.853 127.482 273.767 127.667 273.719C127.854 273.669 128.038 273.644 128.219 273.644C128.334 273.644 128.466 273.658 128.616 273.686C128.767 273.712 128.913 273.768 129.053 273.852C129.195 273.936 129.312 274.063 129.406 274.233C129.499 274.402 129.546 274.63 129.546 274.915V277.279H128.994V276.793H128.966C128.929 276.871 128.867 276.955 128.78 277.043C128.692 277.132 128.576 277.208 128.431 277.27C128.287 277.332 128.11 277.363 127.901 277.363ZM127.985 276.868C128.203 276.868 128.387 276.825 128.537 276.74C128.688 276.654 128.801 276.543 128.878 276.408C128.956 276.272 128.994 276.13 128.994 275.98V275.476C128.971 275.504 128.92 275.529 128.84 275.553C128.762 275.575 128.672 275.594 128.569 275.611C128.468 275.627 128.369 275.641 128.273 275.653C128.178 275.664 128.1 275.673 128.041 275.681C127.898 275.7 127.764 275.73 127.639 275.772C127.516 275.813 127.417 275.874 127.34 275.957C127.266 276.038 127.228 276.149 127.228 276.289C127.228 276.48 127.299 276.625 127.441 276.723C127.584 276.82 127.766 276.868 127.985 276.868ZM130.779 278.625C130.685 278.625 130.602 278.617 130.529 278.602C130.456 278.588 130.405 278.574 130.377 278.56L130.517 278.074C130.651 278.108 130.769 278.12 130.872 278.111C130.975 278.102 131.066 278.056 131.146 277.973C131.227 277.892 131.301 277.761 131.368 277.578L131.47 277.298L130.143 273.691H130.741L131.732 276.55H131.769L132.76 273.691H133.358L131.835 277.803C131.766 277.988 131.681 278.141 131.58 278.263C131.479 278.386 131.361 278.477 131.227 278.536C131.095 278.595 130.945 278.625 130.779 278.625Z" fill="white"/>
<path d="M163.367 277.279L162.059 272.494H162.647L163.647 276.391H163.694L164.713 272.494H165.367L166.385 276.391H166.432L167.432 272.494H168.021L166.713 277.279H166.114L165.058 273.466H165.021L163.965 277.279H163.367ZM169.839 277.354C169.493 277.354 169.195 277.278 168.944 277.125C168.695 276.971 168.502 276.756 168.367 276.48C168.233 276.203 168.166 275.881 168.166 275.513C168.166 275.145 168.233 274.821 168.367 274.541C168.502 274.259 168.691 274.04 168.932 273.882C169.175 273.723 169.459 273.644 169.783 273.644C169.969 273.644 170.154 273.675 170.336 273.737C170.518 273.8 170.684 273.901 170.834 274.041C170.983 274.18 171.103 274.364 171.191 274.592C171.28 274.821 171.325 275.103 171.325 275.438V275.672H168.558V275.195H170.764C170.764 274.993 170.723 274.812 170.642 274.653C170.563 274.494 170.449 274.369 170.301 274.277C170.155 274.185 169.982 274.139 169.783 274.139C169.563 274.139 169.373 274.194 169.212 274.303C169.054 274.41 168.931 274.55 168.846 274.723C168.76 274.896 168.717 275.082 168.717 275.279V275.597C168.717 275.868 168.764 276.098 168.857 276.286C168.952 276.473 169.084 276.616 169.252 276.714C169.42 276.81 169.616 276.859 169.839 276.859C169.983 276.859 170.114 276.839 170.231 276.798C170.349 276.756 170.451 276.694 170.537 276.611C170.623 276.527 170.689 276.423 170.736 276.298L171.268 276.448C171.212 276.628 171.118 276.787 170.986 276.924C170.853 277.06 170.69 277.166 170.495 277.242C170.3 277.317 170.082 277.354 169.839 277.354ZM173.518 277.354C173.219 277.354 172.955 277.279 172.726 277.127C172.497 276.975 172.318 276.76 172.189 276.483C172.06 276.204 171.995 275.874 171.995 275.494C171.995 275.117 172.06 274.79 172.189 274.513C172.318 274.236 172.498 274.022 172.729 273.871C172.959 273.719 173.226 273.644 173.528 273.644C173.761 273.644 173.946 273.683 174.081 273.761C174.218 273.837 174.323 273.924 174.394 274.022C174.468 274.119 174.525 274.198 174.565 274.261H174.612V272.494H175.163V277.279H174.63V276.728H174.565C174.525 276.793 174.467 276.876 174.392 276.976C174.317 277.074 174.211 277.162 174.072 277.24C173.933 277.316 173.749 277.354 173.518 277.354ZM173.593 276.859C173.814 276.859 174.001 276.801 174.154 276.686C174.306 276.569 174.423 276.408 174.502 276.202C174.581 275.995 174.621 275.756 174.621 275.485C174.621 275.217 174.582 274.983 174.504 274.782C174.426 274.579 174.311 274.422 174.158 274.31C174.006 274.196 173.817 274.139 173.593 274.139C173.359 274.139 173.165 274.199 173.009 274.319C172.855 274.438 172.739 274.599 172.661 274.803C172.585 275.005 172.546 275.233 172.546 275.485C172.546 275.74 172.585 275.972 172.663 276.181C172.743 276.388 172.859 276.553 173.014 276.677C173.169 276.798 173.363 276.859 173.593 276.859ZM176.801 275.121V277.279H176.25V273.691H176.782V274.251H176.829C176.913 274.069 177.041 273.923 177.212 273.812C177.383 273.7 177.605 273.644 177.876 273.644C178.119 273.644 178.331 273.694 178.513 273.793C178.696 273.892 178.837 274.041 178.939 274.242C179.04 274.441 179.091 274.694 179.091 274.999V277.279H178.539V275.036C178.539 274.754 178.466 274.535 178.32 274.378C178.173 274.219 177.972 274.139 177.717 274.139C177.541 274.139 177.383 274.177 177.245 274.254C177.108 274.33 177 274.441 176.92 274.588C176.841 274.734 176.801 274.912 176.801 275.121ZM181.603 277.354C181.257 277.354 180.959 277.278 180.708 277.125C180.459 276.971 180.266 276.756 180.131 276.48C179.997 276.203 179.93 275.881 179.93 275.513C179.93 275.145 179.997 274.821 180.131 274.541C180.266 274.259 180.455 274.04 180.696 273.882C180.939 273.723 181.223 273.644 181.547 273.644C181.734 273.644 181.918 273.675 182.1 273.737C182.283 273.8 182.448 273.901 182.598 274.041C182.748 274.18 182.867 274.364 182.955 274.592C183.044 274.821 183.089 275.103 183.089 275.438V275.672H180.322V275.195H182.528C182.528 274.993 182.487 274.812 182.406 274.653C182.327 274.494 182.213 274.369 182.065 274.277C181.919 274.185 181.746 274.139 181.547 274.139C181.327 274.139 181.137 274.194 180.977 274.303C180.818 274.41 180.695 274.55 180.61 274.723C180.524 274.896 180.481 275.082 180.481 275.279V275.597C180.481 275.868 180.528 276.098 180.621 276.286C180.716 276.473 180.848 276.616 181.016 276.714C181.185 276.81 181.38 276.859 181.603 276.859C181.748 276.859 181.878 276.839 181.995 276.798C182.114 276.756 182.216 276.694 182.301 276.611C182.387 276.527 182.453 276.423 182.5 276.298L183.033 276.448C182.976 276.628 182.882 276.787 182.75 276.924C182.617 277.06 182.454 277.166 182.259 277.242C182.065 277.317 181.846 277.354 181.603 277.354ZM186.469 274.494L185.974 274.635C185.943 274.552 185.897 274.472 185.836 274.394C185.777 274.314 185.696 274.249 185.593 274.198C185.49 274.146 185.359 274.121 185.198 274.121C184.979 274.121 184.796 274.171 184.649 274.272C184.504 274.372 184.432 274.499 184.432 274.653C184.432 274.79 184.482 274.899 184.582 274.978C184.681 275.057 184.837 275.124 185.049 275.177L185.582 275.307C185.902 275.385 186.141 275.504 186.299 275.665C186.456 275.824 186.535 276.029 186.535 276.279C186.535 276.485 186.476 276.669 186.357 276.831C186.24 276.993 186.077 277.12 185.867 277.214C185.656 277.307 185.412 277.354 185.133 277.354C184.767 277.354 184.464 277.275 184.224 277.116C183.984 276.957 183.832 276.725 183.769 276.42L184.292 276.289C184.342 276.482 184.436 276.627 184.575 276.723C184.715 276.82 184.898 276.868 185.124 276.868C185.381 276.868 185.585 276.814 185.736 276.705C185.888 276.594 185.965 276.462 185.965 276.307C185.965 276.183 185.921 276.078 185.834 275.994C185.747 275.909 185.613 275.845 185.432 275.803L184.834 275.663C184.505 275.585 184.264 275.464 184.11 275.3C183.957 275.135 183.881 274.929 183.881 274.681C183.881 274.479 183.938 274.3 184.051 274.144C184.166 273.988 184.323 273.866 184.521 273.777C184.72 273.688 184.946 273.644 185.198 273.644C185.553 273.644 185.832 273.722 186.035 273.878C186.239 274.033 186.384 274.239 186.469 274.494ZM188.72 277.354C188.421 277.354 188.157 277.279 187.928 277.127C187.699 276.975 187.52 276.76 187.39 276.483C187.261 276.204 187.197 275.874 187.197 275.494C187.197 275.117 187.261 274.79 187.39 274.513C187.52 274.236 187.7 274.022 187.93 273.871C188.161 273.719 188.427 273.644 188.729 273.644C188.963 273.644 189.147 273.683 189.283 273.761C189.42 273.837 189.524 273.924 189.596 274.022C189.669 274.119 189.726 274.198 189.767 274.261H189.813V272.494H190.365V277.279H189.832V276.728H189.767C189.726 276.793 189.668 276.876 189.594 276.976C189.519 277.074 189.412 277.162 189.274 277.24C189.135 277.316 188.95 277.354 188.72 277.354ZM188.795 276.859C189.016 276.859 189.203 276.801 189.355 276.686C189.508 276.569 189.624 276.408 189.703 276.202C189.783 275.995 189.823 275.756 189.823 275.485C189.823 275.217 189.784 274.983 189.706 274.782C189.628 274.579 189.513 274.422 189.36 274.31C189.207 274.196 189.019 274.139 188.795 274.139C188.561 274.139 188.366 274.199 188.211 274.319C188.056 274.438 187.94 274.599 187.862 274.803C187.786 275.005 187.748 275.233 187.748 275.485C187.748 275.74 187.787 275.972 187.865 276.181C187.944 276.388 188.061 276.553 188.215 276.677C188.371 276.798 188.564 276.859 188.795 276.859ZM192.507 277.363C192.28 277.363 192.073 277.321 191.888 277.235C191.703 277.148 191.555 277.022 191.446 276.859C191.337 276.694 191.283 276.494 191.283 276.261C191.283 276.055 191.323 275.888 191.404 275.761C191.485 275.631 191.594 275.53 191.729 275.457C191.865 275.384 192.014 275.329 192.178 275.293C192.343 275.256 192.509 275.226 192.675 275.205C192.893 275.177 193.07 275.156 193.206 275.142C193.343 275.126 193.442 275.1 193.505 275.064C193.569 275.029 193.6 274.966 193.6 274.878V274.859C193.6 274.628 193.537 274.449 193.411 274.321C193.287 274.194 193.097 274.13 192.843 274.13C192.58 274.13 192.374 274.188 192.224 274.303C192.075 274.418 191.97 274.541 191.909 274.672L191.386 274.485C191.479 274.267 191.604 274.097 191.759 273.976C191.917 273.853 192.088 273.767 192.273 273.719C192.46 273.669 192.644 273.644 192.825 273.644C192.94 273.644 193.072 273.658 193.222 273.686C193.373 273.712 193.519 273.768 193.659 273.852C193.801 273.936 193.918 274.063 194.012 274.233C194.105 274.402 194.152 274.63 194.152 274.915V277.279H193.6V276.793H193.572C193.535 276.871 193.473 276.955 193.386 277.043C193.298 277.132 193.182 277.208 193.037 277.27C192.893 277.332 192.716 277.363 192.507 277.363ZM192.591 276.868C192.809 276.868 192.993 276.825 193.143 276.74C193.294 276.654 193.407 276.543 193.484 276.408C193.562 276.272 193.6 276.13 193.6 275.98V275.476C193.577 275.504 193.526 275.529 193.446 275.553C193.368 275.575 193.278 275.594 193.175 275.611C193.074 275.627 192.975 275.641 192.879 275.653C192.784 275.664 192.706 275.673 192.647 275.681C192.504 275.7 192.37 275.73 192.245 275.772C192.122 275.813 192.023 275.874 191.946 275.957C191.872 276.038 191.834 276.149 191.834 276.289C191.834 276.48 191.905 276.625 192.047 276.723C192.19 276.82 192.372 276.868 192.591 276.868ZM195.385 278.625C195.291 278.625 195.208 278.617 195.135 278.602C195.062 278.588 195.011 278.574 194.983 278.56L195.123 278.074C195.257 278.108 195.376 278.12 195.478 278.111C195.581 278.102 195.672 278.056 195.752 277.973C195.833 277.892 195.907 277.761 195.974 277.578L196.076 277.298L194.749 273.691H195.347L196.338 276.55H196.375L197.366 273.691H197.964L196.441 277.803C196.372 277.988 196.287 278.141 196.186 278.263C196.085 278.386 195.967 278.477 195.833 278.536C195.701 278.595 195.552 278.625 195.385 278.625Z" fill="white"/>
<path d="M217.588 273.008V272.494H221.176V273.008H219.672V277.279H219.092V273.008H217.588ZM222.547 275.121V277.279H221.996V272.494H222.547V274.251H222.594C222.678 274.066 222.804 273.919 222.972 273.81C223.142 273.699 223.368 273.644 223.65 273.644C223.894 273.644 224.109 273.693 224.292 273.791C224.476 273.888 224.619 274.036 224.72 274.237C224.823 274.437 224.874 274.691 224.874 274.999V277.279H224.323V275.036C224.323 274.751 224.249 274.531 224.101 274.375C223.954 274.218 223.751 274.139 223.491 274.139C223.31 274.139 223.148 274.177 223.005 274.254C222.863 274.33 222.751 274.441 222.669 274.588C222.588 274.734 222.547 274.912 222.547 275.121ZM228.144 275.812V273.691H228.696V277.279H228.144V276.672H228.107C228.023 276.854 227.892 277.009 227.715 277.137C227.537 277.263 227.313 277.326 227.042 277.326C226.817 277.326 226.618 277.277 226.444 277.179C226.269 277.079 226.132 276.93 226.032 276.73C225.933 276.529 225.883 276.276 225.883 275.971V273.691H226.434V275.934C226.434 276.195 226.507 276.404 226.654 276.56C226.802 276.715 226.99 276.793 227.219 276.793C227.356 276.793 227.496 276.758 227.637 276.688C227.781 276.618 227.901 276.511 227.997 276.366C228.095 276.221 228.144 276.036 228.144 275.812ZM229.706 277.279V273.691H230.238V274.233H230.276C230.341 274.055 230.46 273.911 230.631 273.8C230.802 273.69 230.995 273.635 231.21 273.635C231.251 273.635 231.301 273.635 231.362 273.637C231.423 273.638 231.469 273.641 231.5 273.644V274.205C231.481 274.2 231.439 274.193 231.372 274.184C231.306 274.173 231.237 274.167 231.164 274.167C230.989 274.167 230.833 274.204 230.696 274.277C230.561 274.349 230.453 274.448 230.374 274.576C230.296 274.702 230.257 274.846 230.257 275.008V277.279H229.706ZM234.696 274.494L234.2 274.635C234.169 274.552 234.123 274.472 234.062 274.394C234.003 274.314 233.922 274.249 233.819 274.198C233.717 274.146 233.585 274.121 233.425 274.121C233.205 274.121 233.022 274.171 232.876 274.272C232.731 274.372 232.658 274.499 232.658 274.653C232.658 274.79 232.708 274.899 232.808 274.978C232.908 275.057 233.063 275.124 233.275 275.177L233.808 275.307C234.129 275.385 234.368 275.504 234.525 275.665C234.682 275.824 234.761 276.029 234.761 276.279C234.761 276.485 234.702 276.669 234.583 276.831C234.467 276.993 234.303 277.12 234.093 277.214C233.883 277.307 233.638 277.354 233.359 277.354C232.993 277.354 232.69 277.275 232.45 277.116C232.21 276.957 232.059 276.725 231.995 276.42L232.518 276.289C232.568 276.482 232.662 276.627 232.801 276.723C232.941 276.82 233.124 276.868 233.35 276.868C233.607 276.868 233.811 276.814 233.962 276.705C234.115 276.594 234.191 276.462 234.191 276.307C234.191 276.183 234.147 276.078 234.06 275.994C233.973 275.909 233.839 275.845 233.658 275.803L233.06 275.663C232.732 275.585 232.49 275.464 232.336 275.3C232.183 275.135 232.107 274.929 232.107 274.681C232.107 274.479 232.164 274.3 232.277 274.144C232.393 273.988 232.549 273.866 232.747 273.777C232.946 273.688 233.172 273.644 233.425 273.644C233.78 273.644 234.059 273.722 234.261 273.878C234.465 274.033 234.61 274.239 234.696 274.494ZM236.946 277.354C236.647 277.354 236.383 277.279 236.154 277.127C235.925 276.975 235.746 276.76 235.617 276.483C235.487 276.204 235.423 275.874 235.423 275.494C235.423 275.117 235.487 274.79 235.617 274.513C235.746 274.236 235.926 274.022 236.156 273.871C236.387 273.719 236.653 273.644 236.955 273.644C237.189 273.644 237.374 273.683 237.509 273.761C237.646 273.837 237.751 273.924 237.822 274.022C237.895 274.119 237.952 274.198 237.993 274.261H238.04V272.494H238.591V277.279H238.058V276.728H237.993C237.952 276.793 237.895 276.876 237.82 276.976C237.745 277.074 237.638 277.162 237.5 277.24C237.361 277.316 237.177 277.354 236.946 277.354ZM237.021 276.859C237.242 276.859 237.429 276.801 237.582 276.686C237.734 276.569 237.85 276.408 237.93 276.202C238.009 275.995 238.049 275.756 238.049 275.485C238.049 275.217 238.01 274.983 237.932 274.782C237.854 274.579 237.739 274.422 237.586 274.31C237.434 274.196 237.245 274.139 237.021 274.139C236.787 274.139 236.593 274.199 236.437 274.319C236.283 274.438 236.167 274.599 236.089 274.803C236.012 275.005 235.974 275.233 235.974 275.485C235.974 275.74 236.013 275.972 236.091 276.181C236.17 276.388 236.287 276.553 236.441 276.677C236.597 276.798 236.79 276.859 237.021 276.859ZM240.733 277.363C240.506 277.363 240.3 277.321 240.114 277.235C239.929 277.148 239.782 277.022 239.673 276.859C239.564 276.694 239.509 276.494 239.509 276.261C239.509 276.055 239.55 275.888 239.631 275.761C239.712 275.631 239.82 275.53 239.955 275.457C240.091 275.384 240.24 275.329 240.404 275.293C240.569 275.256 240.735 275.226 240.902 275.205C241.12 275.177 241.296 275.156 241.432 275.142C241.569 275.126 241.669 275.1 241.731 275.064C241.795 275.029 241.827 274.966 241.827 274.878V274.859C241.827 274.628 241.764 274.449 241.637 274.321C241.513 274.194 241.324 274.13 241.07 274.13C240.807 274.13 240.6 274.188 240.451 274.303C240.301 274.418 240.196 274.541 240.135 274.672L239.612 274.485C239.705 274.267 239.83 274.097 239.986 273.976C240.143 273.853 240.314 273.767 240.5 273.719C240.687 273.669 240.87 273.644 241.051 273.644C241.166 273.644 241.299 273.658 241.448 273.686C241.599 273.712 241.745 273.768 241.885 273.852C242.027 273.936 242.144 274.063 242.238 274.233C242.331 274.402 242.378 274.63 242.378 274.915V277.279H241.827V276.793H241.799C241.761 276.871 241.699 276.955 241.612 277.043C241.525 277.132 241.409 277.208 241.264 277.27C241.119 277.332 240.942 277.363 240.733 277.363ZM240.817 276.868C241.035 276.868 241.219 276.825 241.369 276.74C241.52 276.654 241.634 276.543 241.71 276.408C241.788 276.272 241.827 276.13 241.827 275.98V275.476C241.803 275.504 241.752 275.529 241.673 275.553C241.595 275.575 241.504 275.594 241.402 275.611C241.3 275.627 241.201 275.641 241.105 275.653C241.01 275.664 240.933 275.673 240.874 275.681C240.73 275.7 240.596 275.73 240.472 275.772C240.349 275.813 240.249 275.874 240.173 275.957C240.098 276.038 240.06 276.149 240.06 276.289C240.06 276.48 240.131 276.625 240.273 276.723C240.416 276.82 240.598 276.868 240.817 276.868ZM243.611 278.625C243.518 278.625 243.434 278.617 243.361 278.602C243.288 278.588 243.237 278.574 243.209 278.56L243.349 278.074C243.483 278.108 243.602 278.12 243.705 278.111C243.807 278.102 243.899 278.056 243.978 277.973C244.059 277.892 244.133 277.761 244.2 277.578L244.303 277.298L242.976 273.691H243.574L244.564 276.55H244.602L245.592 273.691H246.19L244.667 277.803C244.599 277.988 244.514 278.141 244.413 278.263C244.311 278.386 244.194 278.477 244.06 278.536C243.927 278.595 243.778 278.625 243.611 278.625Z" fill="white"/>
<path d="M274.066 277.279V272.494H276.935V273.008H274.645V274.625H276.72V275.139H274.645V277.279H274.066ZM277.814 277.279V273.691H278.347V274.233H278.384C278.449 274.055 278.568 273.911 278.739 273.8C278.91 273.69 279.104 273.635 279.318 273.635C279.359 273.635 279.41 273.635 279.47 273.637C279.531 273.638 279.577 273.641 279.608 273.644V274.205C279.589 274.2 279.547 274.193 279.48 274.184C279.414 274.173 279.345 274.167 279.272 274.167C279.097 274.167 278.942 274.204 278.804 274.277C278.669 274.349 278.561 274.448 278.482 274.576C278.404 274.702 278.365 274.846 278.365 275.008V277.279H277.814ZM280.262 277.279V273.691H280.813V277.279H280.262ZM280.542 273.093C280.435 273.093 280.342 273.056 280.264 272.983C280.188 272.91 280.15 272.822 280.15 272.719C280.15 272.616 280.188 272.528 280.264 272.455C280.342 272.382 280.435 272.345 280.542 272.345C280.65 272.345 280.741 272.382 280.818 272.455C280.896 272.528 280.935 272.616 280.935 272.719C280.935 272.822 280.896 272.91 280.818 272.983C280.741 273.056 280.65 273.093 280.542 273.093ZM283.178 277.354C282.879 277.354 282.615 277.279 282.386 277.127C282.157 276.975 281.978 276.76 281.849 276.483C281.719 276.204 281.655 275.874 281.655 275.494C281.655 275.117 281.719 274.79 281.849 274.513C281.978 274.236 282.158 274.022 282.388 273.871C282.619 273.719 282.885 273.644 283.187 273.644C283.421 273.644 283.606 273.683 283.741 273.761C283.878 273.837 283.983 273.924 284.054 274.022C284.127 274.119 284.184 274.198 284.225 274.261H284.272V272.494H284.823V277.279H284.29V276.728H284.225C284.184 276.793 284.127 276.876 284.052 276.976C283.977 277.074 283.87 277.162 283.732 277.24C283.593 277.316 283.409 277.354 283.178 277.354ZM283.253 276.859C283.474 276.859 283.661 276.801 283.814 276.686C283.966 276.569 284.082 276.408 284.162 276.202C284.241 275.995 284.281 275.756 284.281 275.485C284.281 275.217 284.242 274.983 284.164 274.782C284.086 274.579 283.971 274.422 283.818 274.31C283.666 274.196 283.477 274.139 283.253 274.139C283.019 274.139 282.825 274.199 282.669 274.319C282.515 274.438 282.399 274.599 282.321 274.803C282.244 275.005 282.206 275.233 282.206 275.485C282.206 275.74 282.245 275.972 282.323 276.181C282.402 276.388 282.519 276.553 282.673 276.677C282.829 276.798 283.022 276.859 283.253 276.859ZM286.965 277.363C286.738 277.363 286.532 277.321 286.346 277.235C286.161 277.148 286.014 277.022 285.905 276.859C285.796 276.694 285.741 276.494 285.741 276.261C285.741 276.055 285.782 275.888 285.863 275.761C285.944 275.631 286.052 275.53 286.187 275.457C286.323 275.384 286.472 275.329 286.636 275.293C286.801 275.256 286.967 275.226 287.134 275.205C287.352 275.177 287.528 275.156 287.664 275.142C287.801 275.126 287.901 275.1 287.963 275.064C288.027 275.029 288.059 274.966 288.059 274.878V274.859C288.059 274.628 287.996 274.449 287.87 274.321C287.745 274.194 287.556 274.13 287.302 274.13C287.039 274.13 286.832 274.188 286.683 274.303C286.533 274.418 286.428 274.541 286.367 274.672L285.844 274.485C285.937 274.267 286.062 274.097 286.218 273.976C286.375 273.853 286.546 273.767 286.732 273.719C286.919 273.669 287.102 273.644 287.283 273.644C287.398 273.644 287.531 273.658 287.68 273.686C287.831 273.712 287.977 273.768 288.117 273.852C288.259 273.936 288.377 274.063 288.47 274.233C288.563 274.402 288.61 274.63 288.61 274.915V277.279H288.059V276.793H288.031C287.993 276.871 287.931 276.955 287.844 277.043C287.757 277.132 287.641 277.208 287.496 277.27C287.351 277.332 287.174 277.363 286.965 277.363ZM287.049 276.868C287.268 276.868 287.451 276.825 287.601 276.74C287.752 276.654 287.866 276.543 287.942 276.408C288.02 276.272 288.059 276.13 288.059 275.98V275.476C288.035 275.504 287.984 275.529 287.905 275.553C287.827 275.575 287.736 275.594 287.634 275.611C287.532 275.627 287.433 275.641 287.337 275.653C287.242 275.664 287.165 275.673 287.106 275.681C286.962 275.7 286.828 275.73 286.704 275.772C286.581 275.813 286.481 275.874 286.405 275.957C286.33 276.038 286.292 276.149 286.292 276.289C286.292 276.48 286.363 276.625 286.505 276.723C286.648 276.82 286.83 276.868 287.049 276.868ZM289.843 278.625C289.75 278.625 289.666 278.617 289.593 278.602C289.52 278.588 289.469 278.574 289.441 278.56L289.581 278.074C289.715 278.108 289.834 278.12 289.937 278.111C290.039 278.102 290.131 278.056 290.21 277.973C290.291 277.892 290.365 277.761 290.432 277.578L290.535 277.298L289.208 273.691H289.806L290.796 276.55H290.834L291.824 273.691H292.422L290.899 277.803C290.831 277.988 290.746 278.141 290.645 278.263C290.543 278.386 290.426 278.477 290.292 278.536C290.159 278.595 290.01 278.625 289.843 278.625Z" fill="white"/>
<path d="M51.0167 133.656C80.7291 154.638 145.563 195.305 167.2 190.117C194.246 183.632 219.387 171.805 238.433 186.683C253.671 198.586 268.146 209.446 273.479 213.388" stroke="#F94144" stroke-width="2.19306"/>
<ellipse cx="51.3978" cy="134.038" rx="3.04743" ry="3.05193" fill="#F94144"/>
<ellipse cx="107.013" cy="168.372" rx="3.04743" ry="3.05193" fill="#F94144"/>
<ellipse cx="162.629" cy="190.499" rx="3.04742" ry="3.05193" fill="#F94144"/>
<ellipse cx="218.245" cy="179.818" rx="3.04742" ry="3.05193" fill="#F94144"/>
<ellipse cx="273.86" cy="213.39" rx="3.04742" ry="3.05193" fill="#F94144"/>
<path d="M7.9718 93.2734H315" stroke="#4F4F4F" stroke-width="1.46204"/>
<path d="M50.258 309.658V303.278H52.4137C52.9142 303.278 53.3233 303.369 53.6411 303.549C53.9609 303.728 54.1976 303.97 54.3513 304.275C54.505 304.581 54.5818 304.921 54.5818 305.297C54.5818 305.673 54.505 306.015 54.3513 306.322C54.1997 306.629 53.965 306.874 53.6473 307.057C53.3296 307.238 52.9225 307.328 52.4262 307.328H50.8811V306.643H52.4012C52.7439 306.643 53.0191 306.584 53.2268 306.465C53.4344 306.347 53.585 306.187 53.6785 305.985C53.774 305.782 53.8217 305.552 53.8217 305.297C53.8217 305.042 53.774 304.813 53.6785 304.612C53.585 304.41 53.4334 304.252 53.2236 304.138C53.0139 304.022 52.7356 303.964 52.3888 303.964H51.0306V309.658H50.258ZM55.7267 309.658V304.873H56.4369V305.596H56.4868C56.574 305.359 56.7318 305.167 56.9603 305.02C57.1887 304.872 57.4462 304.799 57.7328 304.799C57.7868 304.799 57.8543 304.8 57.9353 304.802C58.0163 304.804 58.0775 304.807 58.1191 304.811V305.559C58.0942 305.552 58.0371 305.543 57.9478 305.531C57.8605 305.516 57.7681 305.509 57.6705 305.509C57.4379 305.509 57.2302 305.558 57.0475 305.655C56.8668 305.751 56.7235 305.884 56.6176 306.054C56.5137 306.222 56.4618 306.414 56.4618 306.63V309.658H55.7267ZM60.7888 309.758C60.3568 309.758 59.9778 309.655 59.6517 309.449C59.3278 309.244 59.0744 308.956 58.8916 308.587C58.711 308.217 58.6206 307.785 58.6206 307.291C58.6206 306.792 58.711 306.357 58.8916 305.985C59.0744 305.614 59.3278 305.325 59.6517 305.119C59.9778 304.914 60.3568 304.811 60.7888 304.811C61.2207 304.811 61.5987 304.914 61.9227 305.119C62.2487 305.325 62.5021 305.614 62.6828 305.985C62.8655 306.357 62.9569 306.792 62.9569 307.291C62.9569 307.785 62.8655 308.217 62.6828 308.587C62.5021 308.956 62.2487 309.244 61.9227 309.449C61.5987 309.655 61.2207 309.758 60.7888 309.758ZM60.7888 309.097C61.1169 309.097 61.3869 309.013 61.5987 308.845C61.8105 308.677 61.9673 308.456 62.0691 308.182C62.1708 307.907 62.2217 307.611 62.2217 307.291C62.2217 306.971 62.1708 306.673 62.0691 306.397C61.9673 306.12 61.8105 305.897 61.5987 305.727C61.3869 305.557 61.1169 305.471 60.7888 305.471C60.4606 305.471 60.1907 305.557 59.9788 305.727C59.767 305.897 59.6102 306.12 59.5084 306.397C59.4067 306.673 59.3558 306.971 59.3558 307.291C59.3558 307.611 59.4067 307.907 59.5084 308.182C59.6102 308.456 59.767 308.677 59.9788 308.845C60.1907 309.013 60.4606 309.097 60.7888 309.097ZM65.8859 309.758C65.4872 309.758 65.1352 309.657 64.8299 309.456C64.5246 309.252 64.2858 308.966 64.1134 308.596C63.941 308.224 63.8548 307.785 63.8548 307.278C63.8548 306.776 63.941 306.34 64.1134 305.97C64.2858 305.6 64.5256 305.315 64.833 305.113C65.1404 304.912 65.4955 304.811 65.8984 304.811C66.2099 304.811 66.456 304.863 66.6367 304.967C66.8194 305.069 66.9586 305.185 67.0541 305.316C67.1517 305.444 67.2275 305.55 67.2815 305.633H67.3438V303.278H68.079V309.658H67.3687V308.923H67.2815C67.2275 309.01 67.1507 309.12 67.051 309.253C66.9513 309.384 66.809 309.501 66.6242 309.605C66.4394 309.707 66.1933 309.758 65.8859 309.758ZM65.9856 309.097C66.2805 309.097 66.5297 309.021 66.7332 308.867C66.9367 308.711 67.0915 308.496 67.1974 308.222C67.3033 307.946 67.3563 307.627 67.3563 307.266C67.3563 306.909 67.3043 306.596 67.2005 306.328C67.0967 306.058 66.943 305.848 66.7395 305.699C66.5359 305.547 66.2846 305.471 65.9856 305.471C65.6741 305.471 65.4145 305.551 65.2068 305.711C65.0012 305.869 64.8465 306.084 64.7427 306.356C64.6409 306.626 64.59 306.929 64.59 307.266C64.59 307.606 64.6419 307.916 64.7458 308.194C64.8517 308.47 65.0074 308.69 65.213 308.854C65.4207 309.016 65.6782 309.097 65.9856 309.097ZM72.543 307.702V304.873H73.2781V309.658H72.543V308.848H72.4931C72.381 309.091 72.2065 309.298 71.9698 309.468C71.733 309.636 71.434 309.721 71.0726 309.721C70.7736 309.721 70.5077 309.655 70.2751 309.524C70.0425 309.391 69.8598 309.192 69.7269 308.926C69.594 308.658 69.5275 308.321 69.5275 307.914V304.873H70.2627V307.864C70.2627 308.213 70.3603 308.491 70.5555 308.699C70.7528 308.906 71.0041 309.01 71.3094 309.01C71.4921 309.01 71.678 308.964 71.867 308.87C72.058 308.777 72.218 308.633 72.3467 308.44C72.4775 308.247 72.543 308.001 72.543 307.702ZM76.5685 309.758C76.1199 309.758 75.7336 309.652 75.4097 309.44C75.0857 309.228 74.8365 308.937 74.662 308.565C74.4876 308.193 74.4004 307.768 74.4004 307.291C74.4004 306.805 74.4897 306.376 74.6683 306.004C74.8489 305.63 75.1002 305.339 75.4221 305.129C75.7461 304.917 76.1241 304.811 76.556 304.811C76.8925 304.811 77.1957 304.873 77.4657 304.998C77.7356 305.123 77.9568 305.297 78.1292 305.521C78.3016 305.746 78.4085 306.007 78.45 306.306H77.7149C77.6588 306.088 77.5342 305.895 77.3411 305.727C77.15 305.557 76.8925 305.471 76.5685 305.471C76.2819 305.471 76.0306 305.546 75.8146 305.696C75.6007 305.843 75.4336 306.052 75.3131 306.322C75.1947 306.59 75.1355 306.904 75.1355 307.266C75.1355 307.635 75.1937 307.957 75.31 308.231C75.4284 308.506 75.5945 308.718 75.8084 308.87C76.0244 309.022 76.2778 309.097 76.5685 309.097C76.7596 309.097 76.933 309.064 77.0887 308.998C77.2445 308.931 77.3764 308.836 77.4844 308.711C77.5923 308.587 77.6692 308.437 77.7149 308.263H78.45C78.4085 308.545 78.3057 308.799 78.1416 309.026C77.9797 309.25 77.7647 309.429 77.4968 309.562C77.231 309.692 76.9216 309.758 76.5685 309.758ZM81.6057 304.873V305.496H79.126V304.873H81.6057ZM79.8487 303.727H80.5839V308.288C80.5839 308.495 80.614 308.651 80.6743 308.755C80.7366 308.857 80.8155 308.925 80.911 308.96C81.0086 308.994 81.1114 309.01 81.2194 309.01C81.3004 309.01 81.3669 309.006 81.4188 308.998C81.4707 308.987 81.5122 308.979 81.5434 308.973L81.6929 309.633C81.6431 309.652 81.5735 309.671 81.4842 309.689C81.3949 309.71 81.2817 309.721 81.1446 309.721C80.937 309.721 80.7334 309.676 80.5341 309.587C80.3368 309.497 80.1727 309.361 80.0419 309.178C79.9131 308.996 79.8487 308.765 79.8487 308.487V303.727ZM87.4092 303.278V309.658H86.6366V304.088H86.5993L85.0417 305.123V304.338L86.6366 303.278H87.4092Z" fill="white"/>
<ellipse cx="38.6746" cy="308.019" rx="3.89191" ry="3.89765" fill="#F94144"/>
<path d="M124.637 309.658V303.278H126.792C127.293 303.278 127.702 303.369 128.02 303.549C128.34 303.728 128.576 303.97 128.73 304.275C128.884 304.581 128.961 304.921 128.961 305.297C128.961 305.673 128.884 306.015 128.73 306.322C128.579 306.629 128.344 306.874 128.026 307.057C127.708 307.238 127.301 307.328 126.805 307.328H125.26V306.643H126.78C127.123 306.643 127.398 306.584 127.606 306.465C127.813 306.347 127.964 306.187 128.057 305.985C128.153 305.782 128.201 305.552 128.201 305.297C128.201 305.042 128.153 304.813 128.057 304.612C127.964 304.41 127.812 304.252 127.602 304.138C127.393 304.022 127.114 303.964 126.768 303.964H125.409V309.658H124.637ZM130.105 309.658V304.873H130.816V305.596H130.866C130.953 305.359 131.111 305.167 131.339 305.02C131.567 304.872 131.825 304.799 132.112 304.799C132.166 304.799 132.233 304.8 132.314 304.802C132.395 304.804 132.456 304.807 132.498 304.811V305.559C132.473 305.552 132.416 305.543 132.327 305.531C132.239 305.516 132.147 305.509 132.049 305.509C131.817 305.509 131.609 305.558 131.426 305.655C131.246 305.751 131.102 305.884 130.996 306.054C130.893 306.222 130.841 306.414 130.841 306.63V309.658H130.105ZM135.168 309.758C134.736 309.758 134.357 309.655 134.031 309.449C133.707 309.244 133.453 308.956 133.27 308.587C133.09 308.217 132.999 307.785 132.999 307.291C132.999 306.792 133.09 306.357 133.27 305.985C133.453 305.614 133.707 305.325 134.031 305.119C134.357 304.914 134.736 304.811 135.168 304.811C135.6 304.811 135.977 304.914 136.301 305.119C136.628 305.325 136.881 305.614 137.062 305.985C137.244 306.357 137.336 306.792 137.336 307.291C137.336 307.785 137.244 308.217 137.062 308.587C136.881 308.956 136.628 309.244 136.301 309.449C135.977 309.655 135.6 309.758 135.168 309.758ZM135.168 309.097C135.496 309.097 135.766 309.013 135.977 308.845C136.189 308.677 136.346 308.456 136.448 308.182C136.55 307.907 136.601 307.611 136.601 307.291C136.601 306.971 136.55 306.673 136.448 306.397C136.346 306.12 136.189 305.897 135.977 305.727C135.766 305.557 135.496 305.471 135.168 305.471C134.839 305.471 134.569 305.557 134.358 305.727C134.146 305.897 133.989 306.12 133.887 306.397C133.785 306.673 133.735 306.971 133.735 307.291C133.735 307.611 133.785 307.907 133.887 308.182C133.989 308.456 134.146 308.677 134.358 308.845C134.569 309.013 134.839 309.097 135.168 309.097ZM140.265 309.758C139.866 309.758 139.514 309.657 139.209 309.456C138.903 309.252 138.665 308.966 138.492 308.596C138.32 308.224 138.234 307.785 138.234 307.278C138.234 306.776 138.32 306.34 138.492 305.97C138.665 305.6 138.904 305.315 139.212 305.113C139.519 304.912 139.874 304.811 140.277 304.811C140.589 304.811 140.835 304.863 141.015 304.967C141.198 305.069 141.337 305.185 141.433 305.316C141.53 305.444 141.606 305.55 141.66 305.633H141.723V303.278H142.458V309.658H141.747V308.923H141.66C141.606 309.01 141.529 309.12 141.43 309.253C141.33 309.384 141.188 309.501 141.003 309.605C140.818 309.707 140.572 309.758 140.265 309.758ZM140.364 309.097C140.659 309.097 140.908 309.021 141.112 308.867C141.316 308.711 141.47 308.496 141.576 308.222C141.682 307.946 141.735 307.627 141.735 307.266C141.735 306.909 141.683 306.596 141.579 306.328C141.475 306.058 141.322 305.848 141.118 305.699C140.915 305.547 140.663 305.471 140.364 305.471C140.053 305.471 139.793 305.551 139.586 305.711C139.38 305.869 139.225 306.084 139.121 306.356C139.02 306.626 138.969 306.929 138.969 307.266C138.969 307.606 139.021 307.916 139.125 308.194C139.23 308.47 139.386 308.69 139.592 308.854C139.799 309.016 140.057 309.097 140.364 309.097ZM146.922 307.702V304.873H147.657V309.658H146.922V308.848H146.872C146.76 309.091 146.585 309.298 146.349 309.468C146.112 309.636 145.813 309.721 145.451 309.721C145.152 309.721 144.887 309.655 144.654 309.524C144.421 309.391 144.239 309.192 144.106 308.926C143.973 308.658 143.906 308.321 143.906 307.914V304.873H144.641V307.864C144.641 308.213 144.739 308.491 144.934 308.699C145.132 308.906 145.383 309.01 145.688 309.01C145.871 309.01 146.057 308.964 146.246 308.87C146.437 308.777 146.597 308.633 146.725 308.44C146.856 308.247 146.922 308.001 146.922 307.702ZM150.947 309.758C150.499 309.758 150.112 309.652 149.788 309.44C149.464 309.228 149.215 308.937 149.041 308.565C148.866 308.193 148.779 307.768 148.779 307.291C148.779 306.805 148.868 306.376 149.047 306.004C149.228 305.63 149.479 305.339 149.801 305.129C150.125 304.917 150.503 304.811 150.935 304.811C151.271 304.811 151.574 304.873 151.844 304.998C152.114 305.123 152.336 305.297 152.508 305.521C152.68 305.746 152.787 306.007 152.829 306.306H152.094C152.038 306.088 151.913 305.895 151.72 305.727C151.529 305.557 151.271 305.471 150.947 305.471C150.661 305.471 150.409 305.546 150.193 305.696C149.98 305.843 149.812 306.052 149.692 306.322C149.574 306.59 149.514 306.904 149.514 307.266C149.514 307.635 149.572 307.957 149.689 308.231C149.807 308.506 149.973 308.718 150.187 308.87C150.403 309.022 150.657 309.097 150.947 309.097C151.138 309.097 151.312 309.064 151.468 308.998C151.623 308.931 151.755 308.836 151.863 308.711C151.971 308.587 152.048 308.437 152.094 308.263H152.829C152.787 308.545 152.684 308.799 152.52 309.026C152.358 309.25 152.144 309.429 151.876 309.562C151.61 309.692 151.3 309.758 150.947 309.758ZM155.984 304.873V305.496H153.505V304.873H155.984ZM154.228 303.727H154.963V308.288C154.963 308.495 154.993 308.651 155.053 308.755C155.115 308.857 155.194 308.925 155.29 308.96C155.387 308.994 155.49 309.01 155.598 309.01C155.679 309.01 155.746 309.006 155.798 308.998C155.849 308.987 155.891 308.979 155.922 308.973L156.072 309.633C156.022 309.652 155.952 309.671 155.863 309.689C155.774 309.71 155.66 309.721 155.523 309.721C155.316 309.721 155.112 309.676 154.913 309.587C154.716 309.497 154.552 309.361 154.421 309.178C154.292 308.996 154.228 308.765 154.228 308.487V303.727ZM159.545 309.658V309.097L161.651 306.792C161.898 306.522 162.102 306.288 162.261 306.088C162.421 305.887 162.54 305.698 162.617 305.521C162.696 305.343 162.735 305.156 162.735 304.961C162.735 304.736 162.681 304.542 162.573 304.378C162.467 304.214 162.322 304.087 162.137 303.998C161.952 303.909 161.744 303.864 161.514 303.864C161.269 303.864 161.055 303.915 160.872 304.017C160.691 304.116 160.551 304.257 160.452 304.437C160.354 304.618 160.305 304.83 160.305 305.073H159.57C159.57 304.699 159.656 304.371 159.829 304.088C160.001 303.806 160.236 303.586 160.533 303.428C160.832 303.27 161.167 303.191 161.539 303.191C161.913 303.191 162.244 303.27 162.532 303.428C162.821 303.586 163.048 303.799 163.212 304.067C163.376 304.334 163.458 304.632 163.458 304.961C163.458 305.195 163.415 305.425 163.33 305.649C163.247 305.871 163.102 306.119 162.894 306.394C162.688 306.666 162.403 306.998 162.037 307.39L160.604 308.923V308.973H163.57V309.658H159.545Z" fill="white"/>
<ellipse cx="113.053" cy="308.019" rx="3.89191" ry="3.89765" fill="#F3722C"/>
<path d="M199.015 309.658V303.278H201.171C201.672 303.278 202.081 303.369 202.398 303.549C202.718 303.728 202.955 303.97 203.109 304.275C203.262 304.581 203.339 304.921 203.339 305.297C203.339 305.673 203.262 306.015 203.109 306.322C202.957 306.629 202.722 306.874 202.405 307.057C202.087 307.238 201.68 307.328 201.183 307.328H199.638V306.643H201.159C201.501 306.643 201.776 306.584 201.984 306.465C202.192 306.347 202.342 306.187 202.436 305.985C202.531 305.782 202.579 305.552 202.579 305.297C202.579 305.042 202.531 304.813 202.436 304.612C202.342 304.41 202.191 304.252 201.981 304.138C201.771 304.022 201.493 303.964 201.146 303.964H199.788V309.658H199.015ZM204.484 309.658V304.873H205.194V305.596H205.244C205.331 305.359 205.489 305.167 205.718 305.02C205.946 304.872 206.204 304.799 206.49 304.799C206.544 304.799 206.612 304.8 206.693 304.802C206.774 304.804 206.835 304.807 206.876 304.811V305.559C206.851 305.552 206.794 305.543 206.705 305.531C206.618 305.516 206.525 305.509 206.428 305.509C206.195 305.509 205.988 305.558 205.805 305.655C205.624 305.751 205.481 305.884 205.375 306.054C205.271 306.222 205.219 306.414 205.219 306.63V309.658H204.484ZM209.546 309.758C209.114 309.758 208.735 309.655 208.409 309.449C208.085 309.244 207.832 308.956 207.649 308.587C207.468 308.217 207.378 307.785 207.378 307.291C207.378 306.792 207.468 306.357 207.649 305.985C207.832 305.614 208.085 305.325 208.409 305.119C208.735 304.914 209.114 304.811 209.546 304.811C209.978 304.811 210.356 304.914 210.68 305.119C211.006 305.325 211.259 305.614 211.44 305.985C211.623 306.357 211.714 306.792 211.714 307.291C211.714 307.785 211.623 308.217 211.44 308.587C211.259 308.956 211.006 309.244 210.68 309.449C210.356 309.655 209.978 309.758 209.546 309.758ZM209.546 309.097C209.874 309.097 210.144 309.013 210.356 308.845C210.568 308.677 210.725 308.456 210.826 308.182C210.928 307.907 210.979 307.611 210.979 307.291C210.979 306.971 210.928 306.673 210.826 306.397C210.725 306.12 210.568 305.897 210.356 305.727C210.144 305.557 209.874 305.471 209.546 305.471C209.218 305.471 208.948 305.557 208.736 305.727C208.524 305.897 208.368 306.12 208.266 306.397C208.164 306.673 208.113 306.971 208.113 307.291C208.113 307.611 208.164 307.907 208.266 308.182C208.368 308.456 208.524 308.677 208.736 308.845C208.948 309.013 209.218 309.097 209.546 309.097ZM214.643 309.758C214.244 309.758 213.892 309.657 213.587 309.456C213.282 309.252 213.043 308.966 212.871 308.596C212.698 308.224 212.612 307.785 212.612 307.278C212.612 306.776 212.698 306.34 212.871 305.97C213.043 305.6 213.283 305.315 213.59 305.113C213.898 304.912 214.253 304.811 214.656 304.811C214.967 304.811 215.213 304.863 215.394 304.967C215.577 305.069 215.716 305.185 215.811 305.316C215.909 305.444 215.985 305.55 216.039 305.633H216.101V303.278H216.836V309.658H216.126V308.923H216.039C215.985 309.01 215.908 309.12 215.808 309.253C215.709 309.384 215.566 309.501 215.382 309.605C215.197 309.707 214.951 309.758 214.643 309.758ZM214.743 309.097C215.038 309.097 215.287 309.021 215.491 308.867C215.694 308.711 215.849 308.496 215.955 308.222C216.061 307.946 216.114 307.627 216.114 307.266C216.114 306.909 216.062 306.596 215.958 306.328C215.854 306.058 215.7 305.848 215.497 305.699C215.293 305.547 215.042 305.471 214.743 305.471C214.431 305.471 214.172 305.551 213.964 305.711C213.759 305.869 213.604 306.084 213.5 306.356C213.398 306.626 213.347 306.929 213.347 307.266C213.347 307.606 213.399 307.916 213.503 308.194C213.609 308.47 213.765 308.69 213.97 308.854C214.178 309.016 214.436 309.097 214.743 309.097ZM221.3 307.702V304.873H222.035V309.658H221.3V308.848H221.25C221.138 309.091 220.964 309.298 220.727 309.468C220.49 309.636 220.191 309.721 219.83 309.721C219.531 309.721 219.265 309.655 219.032 309.524C218.8 309.391 218.617 309.192 218.484 308.926C218.351 308.658 218.285 308.321 218.285 307.914V304.873H219.02V307.864C219.02 308.213 219.118 308.491 219.313 308.699C219.51 308.906 219.761 309.01 220.067 309.01C220.249 309.01 220.435 308.964 220.624 308.87C220.815 308.777 220.975 308.633 221.104 308.44C221.235 308.247 221.3 308.001 221.3 307.702ZM225.326 309.758C224.877 309.758 224.491 309.652 224.167 309.44C223.843 309.228 223.594 308.937 223.419 308.565C223.245 308.193 223.158 307.768 223.158 307.291C223.158 306.805 223.247 306.376 223.426 306.004C223.606 305.63 223.858 305.339 224.179 305.129C224.503 304.917 224.881 304.811 225.313 304.811C225.65 304.811 225.953 304.873 226.223 304.998C226.493 305.123 226.714 305.297 226.887 305.521C227.059 305.746 227.166 306.007 227.207 306.306H226.472C226.416 306.088 226.292 305.895 226.098 305.727C225.907 305.557 225.65 305.471 225.326 305.471C225.039 305.471 224.788 305.546 224.572 305.696C224.358 305.843 224.191 306.052 224.07 306.322C223.952 306.59 223.893 306.904 223.893 307.266C223.893 307.635 223.951 307.957 224.067 308.231C224.186 308.506 224.352 308.718 224.566 308.87C224.782 309.022 225.035 309.097 225.326 309.097C225.517 309.097 225.69 309.064 225.846 308.998C226.002 308.931 226.134 308.836 226.242 308.711C226.35 308.587 226.427 308.437 226.472 308.263H227.207C227.166 308.545 227.063 308.799 226.899 309.026C226.737 309.25 226.522 309.429 226.254 309.562C225.988 309.692 225.679 309.758 225.326 309.758ZM230.363 304.873V305.496H227.883V304.873H230.363ZM228.606 303.727H229.341V308.288C229.341 308.495 229.371 308.651 229.432 308.755C229.494 308.857 229.573 308.925 229.668 308.96C229.766 308.994 229.869 309.01 229.977 309.01C230.058 309.01 230.124 309.006 230.176 308.998C230.228 308.987 230.27 308.979 230.301 308.973L230.45 309.633C230.4 309.652 230.331 309.671 230.242 309.689C230.152 309.71 230.039 309.721 229.902 309.721C229.694 309.721 229.491 309.676 229.291 309.587C229.094 309.497 228.93 309.361 228.799 309.178C228.67 308.996 228.606 308.765 228.606 308.487V303.727ZM236.079 309.745C235.668 309.745 235.302 309.675 234.98 309.534C234.66 309.392 234.405 309.196 234.216 308.945C234.03 308.691 233.928 308.398 233.911 308.063H234.696C234.713 308.269 234.783 308.446 234.908 308.596C235.033 308.743 235.196 308.858 235.397 308.939C235.599 309.02 235.822 309.06 236.067 309.06C236.341 309.06 236.584 309.012 236.796 308.917C237.008 308.821 237.174 308.688 237.294 308.518C237.415 308.348 237.475 308.15 237.475 307.926C237.475 307.692 237.417 307.485 237.3 307.306C237.184 307.126 237.014 306.984 236.79 306.883C236.565 306.781 236.291 306.73 235.967 306.73H235.456V306.045H235.967C236.221 306.045 236.443 305.999 236.634 305.908C236.827 305.816 236.977 305.687 237.085 305.521C237.196 305.355 237.251 305.16 237.251 304.936C237.251 304.72 237.203 304.532 237.107 304.372C237.012 304.212 236.877 304.087 236.702 303.998C236.53 303.909 236.326 303.864 236.092 303.864C235.872 303.864 235.664 303.905 235.469 303.986C235.276 304.064 235.118 304.18 234.995 304.331C234.873 304.481 234.806 304.662 234.796 304.873H234.048C234.061 304.539 234.161 304.246 234.35 303.995C234.539 303.742 234.787 303.544 235.092 303.403C235.399 303.262 235.737 303.191 236.104 303.191C236.499 303.191 236.837 303.271 237.12 303.431C237.402 303.589 237.619 303.798 237.771 304.057C237.922 304.317 237.998 304.597 237.998 304.898C237.998 305.258 237.904 305.564 237.715 305.817C237.528 306.071 237.273 306.246 236.952 306.344V306.394C237.354 306.46 237.669 306.631 237.895 306.908C238.122 307.182 238.235 307.521 238.235 307.926C238.235 308.273 238.14 308.585 237.951 308.861C237.765 309.135 237.509 309.351 237.185 309.509C236.861 309.667 236.493 309.745 236.079 309.745Z" fill="white"/>
<ellipse cx="187.432" cy="308.019" rx="3.8919" ry="3.89765" fill="#F8961E"/>
<path d="M51.668 249.667C67.286 256.534 103.55 267.75 123.663 257.678C148.805 245.089 180.803 218.003 191.85 208.085C202.897 198.166 215.467 184.432 236.418 202.362C257.369 220.292 266.892 237.841 274.13 239.367" stroke="#F3722C" stroke-width="2.19306"/>
<ellipse cx="51.668" cy="249.667" rx="3.04743" ry="3.05192" fill="#F3722C"/>
<ellipse cx="107.283" cy="261.874" rx="3.04742" ry="3.05192" fill="#F3722C"/>
<ellipse cx="162.137" cy="232.882" rx="3.04743" ry="3.05192" fill="#F3722C"/>
<ellipse cx="218.515" cy="193.97" rx="3.04742" ry="3.05193" fill="#F3722C"/>
<ellipse cx="273.368" cy="238.986" rx="3.04742" ry="3.05193" fill="#F3722C"/>
<path d="M44.5835 207.991C59.931 199.599 102.346 181.72 149.225 177.331C196.105 172.941 224.568 163.668 232.939 159.58" stroke="#F8961E" stroke-width="2.19306"/>
<ellipse cx="44.9055" cy="208.314" rx="2.5758" ry="2.58189" fill="#F8961E"/>
<ellipse cx="91.9134" cy="188.951" rx="2.5758" ry="2.58189" fill="#F8961E"/>
<ellipse cx="138.278" cy="178.623" rx="2.5758" ry="2.58189" fill="#F8961E"/>
<ellipse cx="185.931" cy="172.814" rx="2.5758" ry="2.58189" fill="#F8961E"/>
<ellipse cx="232.295" cy="159.904" rx="2.5758" ry="2.58189" fill="#F8961E"/>
<defs>
<filter id="filter0_d_353_6333" x="0.661606" y="0.151844" width="321.649" height="351.62" filterUnits="userSpaceOnUse" color-interpolation-filters="sRGB">
<feFlood flood-opacity="0" result="BackgroundImageFix"/>
<feColorMatrix in="SourceAlpha" type="matrix" values="0 0 0 0 0 0 0 0 0 0 0 0 0 0 0 0 0 0 127 0" result="hardAlpha"/>
<feOffset dy="1.46204"/>
<feGaussianBlur stdDeviation="3.6551"/>
<feComposite in2="hardAlpha" operator="out"/>
<feColorMatrix type="matrix" values="0 0 0 0 0 0 0 0 0 0 0 0 0 0 0 0 0 0 0.1 0"/>
<feBlend mode="normal" in2="BackgroundImageFix" result="effect1_dropShadow_353_6333"/>
<feBlend mode="normal" in="SourceGraphic" in2="effect1_dropShadow_353_6333" result="shape"/>
</filter>
</defs>
</svg>
