<svg width="24" height="25" viewBox="0 0 24 25" fill="none" xmlns="http://www.w3.org/2000/svg">
<path opacity="0.98" d="M21.3329 3.41076H12.4442V1.63301C12.4442 1.39727 12.3506 1.17118 12.1839 1.00449C12.0172 0.837789 11.7911 0.744141 11.5553 0.744141C11.3196 0.744141 11.0935 0.837789 10.9268 1.00449C10.7601 1.17118 10.6665 1.39727 10.6665 1.63301V3.41076H1.77775C1.30626 3.41076 0.854081 3.59806 0.520689 3.93145C0.187298 4.26484 0 4.71702 0 5.1885V18.5216C0 18.9931 0.187298 19.4453 0.520689 19.7787C0.854081 20.112 1.30626 20.2993 1.77775 20.2993H6.151L3.74993 23.2993C3.60259 23.4835 3.53445 23.7186 3.5605 23.953C3.58654 24.1875 3.70464 24.4019 3.88882 24.5493C4.07299 24.6966 4.30815 24.7647 4.54257 24.7387C4.77699 24.7127 4.99146 24.5946 5.1388 24.4104L8.42651 20.2993H14.6842L17.9719 24.4104C18.0448 24.5016 18.1351 24.5775 18.2374 24.6338C18.3397 24.6902 18.452 24.7258 18.5681 24.7387C18.6842 24.7516 18.8017 24.7415 18.9138 24.709C19.026 24.6765 19.1307 24.6222 19.2219 24.5493C19.3131 24.4763 19.389 24.3861 19.4453 24.2838C19.5017 24.1815 19.5373 24.0691 19.5502 23.953C19.5631 23.837 19.553 23.7195 19.5205 23.6073C19.488 23.4951 19.4337 23.3905 19.3608 23.2993L16.9597 20.2993H21.3329C21.8044 20.2993 22.2566 20.112 22.59 19.7787C22.9234 19.4453 23.1107 18.9931 23.1107 18.5216V5.1885C23.1107 4.71702 22.9234 4.26484 22.59 3.93145C22.2566 3.59806 21.8044 3.41076 21.3329 3.41076ZM8.88873 14.9661C8.88873 15.2018 8.79508 15.4279 8.62838 15.5946C8.46169 15.7613 8.2356 15.855 7.99985 15.855C7.76411 15.855 7.53802 15.7613 7.37133 15.5946C7.20463 15.4279 7.11098 15.2018 7.11098 14.9661V12.2995C7.11098 12.0637 7.20463 11.8377 7.37133 11.671C7.53802 11.5043 7.76411 11.4106 7.99985 11.4106C8.2356 11.4106 8.46169 11.5043 8.62838 11.671C8.79508 11.8377 8.88873 12.0637 8.88873 12.2995V14.9661ZM12.4442 14.9661C12.4442 15.2018 12.3506 15.4279 12.1839 15.5946C12.0172 15.7613 11.7911 15.855 11.5553 15.855C11.3196 15.855 11.0935 15.7613 10.9268 15.5946C10.7601 15.4279 10.6665 15.2018 10.6665 14.9661V10.5217C10.6665 10.286 10.7601 10.0599 10.9268 9.89321C11.0935 9.72652 11.3196 9.63287 11.5553 9.63287C11.7911 9.63287 12.0172 9.72652 12.1839 9.89321C12.3506 10.0599 12.4442 10.286 12.4442 10.5217V14.9661ZM15.9997 14.9661C15.9997 15.2018 15.9061 15.4279 15.7394 15.5946C15.5727 15.7613 15.3466 15.855 15.1108 15.855C14.8751 15.855 14.649 15.7613 14.4823 15.5946C14.3156 15.4279 14.222 15.2018 14.222 14.9661V8.74399C14.222 8.50825 14.3156 8.28216 14.4823 8.11547C14.649 7.94877 14.8751 7.85512 15.1108 7.85512C15.3466 7.85512 15.5727 7.94877 15.7394 8.11547C15.9061 8.28216 15.9997 8.50825 15.9997 8.74399V14.9661Z" fill="#726C86"/>
</svg>
