<svg width="24" height="25" viewBox="0 0 24 25" fill="none" xmlns="http://www.w3.org/2000/svg">
<path d="M15.7289 4.38438C17.1629 2.94438 19.2609 2.91438 20.4219 4.08038C21.5859 5.24838 21.5549 7.36038 20.1189 8.80038L17.6959 11.2334C17.5595 11.375 17.4842 11.5646 17.4862 11.7612C17.4881 11.9579 17.5673 12.1459 17.7065 12.2848C17.8458 12.4236 18.034 12.5022 18.2307 12.5037C18.4273 12.5051 18.6167 12.4292 18.7579 12.2924L21.1819 9.85938C23.0929 7.94038 23.3329 4.87738 21.4849 3.02138C19.6349 1.16438 16.5779 1.40638 14.6649 3.32538L9.81895 8.19238C7.90795 10.1114 7.66795 13.1744 9.51595 15.0294C9.58497 15.1012 9.66759 15.1585 9.759 15.198C9.8504 15.2375 9.94876 15.2584 10.0483 15.2595C10.1479 15.2606 10.2467 15.2418 10.3389 15.2043C10.4312 15.1668 10.5151 15.1114 10.5856 15.0411C10.6562 14.9709 10.7121 14.8873 10.75 14.7952C10.788 14.7031 10.8072 14.6044 10.8065 14.5048C10.8059 14.4053 10.7855 14.3068 10.7464 14.2152C10.7073 14.1236 10.6504 14.0407 10.5789 13.9714C9.41495 12.8034 9.44695 10.6914 10.8819 9.25138L15.7289 4.38438Z" fill="#848E9C"/>
<path d="M14.485 9.9706C14.3444 9.82963 14.1536 9.75028 13.9545 9.75C13.7555 9.74972 13.5644 9.82853 13.4235 9.9691C13.2825 10.1097 13.2032 10.3005 13.2029 10.4995C13.2026 10.6986 13.2814 10.8896 13.422 11.0306C14.586 12.1986 14.555 14.3096 13.119 15.7506L8.27197 20.6166C6.83697 22.0566 4.73897 22.0866 3.57797 20.9206C2.41397 19.7526 2.44597 17.6406 3.88097 16.2006L6.30497 13.7676C6.37451 13.6978 6.42961 13.615 6.46714 13.5239C6.50467 13.4328 6.5239 13.3352 6.52371 13.2367C6.52353 13.1382 6.50394 13.0406 6.46606 12.9497C6.42819 12.8587 6.37277 12.7761 6.30297 12.7066C6.23317 12.6371 6.15036 12.582 6.05927 12.5444C5.96817 12.5069 5.87058 12.4877 5.77206 12.4879C5.67353 12.488 5.57601 12.5076 5.48506 12.5455C5.39411 12.5834 5.31151 12.6388 5.24197 12.7086L2.81797 15.1416C0.906971 17.0616 0.666971 20.1236 2.51497 21.9796C4.36497 23.8376 7.42197 23.5946 9.33497 21.6756L14.182 16.8086C16.093 14.8906 16.333 11.8256 14.485 9.9706Z" fill="#848E9C"/>
</svg>
