<svg width="23" height="23" viewBox="0 0 23 23" fill="none" xmlns="http://www.w3.org/2000/svg">
<g id="solar:calendar-linear">
<g id="Group">
<path id="Vector" d="M1.85925 11.73C1.85925 8.26948 1.85925 6.53876 2.93476 5.46417C4.00934 4.38867 5.74006 4.38867 9.20057 4.38867H12.8712C16.3317 4.38867 18.0625 4.38867 19.137 5.46417C20.2125 6.53876 20.2125 8.26948 20.2125 11.73V13.5653C20.2125 17.0258 20.2125 18.7565 19.137 19.8311C18.0625 20.9066 16.3317 20.9066 12.8712 20.9066H9.20057C5.74006 20.9066 4.00934 20.9066 2.93476 19.8311C1.85925 18.7565 1.85925 17.0258 1.85925 13.5653V11.73Z" stroke="#848E9C" stroke-width="1.3765"/>
<path id="Vector_2" d="M6.44761 4.38846V3.01196M15.6243 4.38846V3.01196M2.31812 8.97678H19.7537" stroke="#848E9C" stroke-width="1.3765" stroke-linecap="round"/>
<path id="Vector_3" d="M16.542 16.3185C16.542 16.5619 16.4453 16.7953 16.2732 16.9674C16.1011 17.1395 15.8677 17.2362 15.6243 17.2362C15.381 17.2362 15.1475 17.1395 14.9755 16.9674C14.8034 16.7953 14.7067 16.5619 14.7067 16.3185C14.7067 16.0752 14.8034 15.8418 14.9755 15.6697C15.1475 15.4976 15.381 15.4009 15.6243 15.4009C15.8677 15.4009 16.1011 15.4976 16.2732 15.6697C16.4453 15.8418 16.542 16.0752 16.542 16.3185ZM16.542 12.6479C16.542 12.8913 16.4453 13.1247 16.2732 13.2968C16.1011 13.4689 15.8677 13.5656 15.6243 13.5656C15.381 13.5656 15.1475 13.4689 14.9755 13.2968C14.8034 13.1247 14.7067 12.8913 14.7067 12.6479C14.7067 12.4045 14.8034 12.1711 14.9755 11.999C15.1475 11.8269 15.381 11.7302 15.6243 11.7302C15.8677 11.7302 16.1011 11.8269 16.2732 11.999C16.4453 12.1711 16.542 12.4045 16.542 12.6479ZM11.9537 16.3185C11.9537 16.5619 11.857 16.7953 11.6849 16.9674C11.5128 17.1395 11.2794 17.2362 11.036 17.2362C10.7926 17.2362 10.5592 17.1395 10.3871 16.9674C10.215 16.7953 10.1184 16.5619 10.1184 16.3185C10.1184 16.0752 10.215 15.8418 10.3871 15.6697C10.5592 15.4976 10.7926 15.4009 11.036 15.4009C11.2794 15.4009 11.5128 15.4976 11.6849 15.6697C11.857 15.8418 11.9537 16.0752 11.9537 16.3185ZM11.9537 12.6479C11.9537 12.8913 11.857 13.1247 11.6849 13.2968C11.5128 13.4689 11.2794 13.5656 11.036 13.5656C10.7926 13.5656 10.5592 13.4689 10.3871 13.2968C10.215 13.1247 10.1184 12.8913 10.1184 12.6479C10.1184 12.4045 10.215 12.1711 10.3871 11.999C10.5592 11.8269 10.7926 11.7302 11.036 11.7302C11.2794 11.7302 11.5128 11.8269 11.6849 11.999C11.857 12.1711 11.9537 12.4045 11.9537 12.6479ZM7.36536 16.3185C7.36536 16.5619 7.26868 16.7953 7.09658 16.9674C6.92449 17.1395 6.69107 17.2362 6.44769 17.2362C6.20431 17.2362 5.9709 17.1395 5.79881 16.9674C5.62671 16.7953 5.53003 16.5619 5.53003 16.3185C5.53003 16.0752 5.62671 15.8418 5.79881 15.6697C5.9709 15.4976 6.20431 15.4009 6.44769 15.4009C6.69107 15.4009 6.92449 15.4976 7.09658 15.6697C7.26868 15.8418 7.36536 16.0752 7.36536 16.3185ZM7.36536 12.6479C7.36536 12.8913 7.26868 13.1247 7.09658 13.2968C6.92449 13.4689 6.69107 13.5656 6.44769 13.5656C6.20431 13.5656 5.9709 13.4689 5.79881 13.2968C5.62671 13.1247 5.53003 12.8913 5.53003 12.6479C5.53003 12.4045 5.62671 12.1711 5.79881 11.999C5.9709 11.8269 6.20431 11.7302 6.44769 11.7302C6.69107 11.7302 6.92449 11.8269 7.09658 11.999C7.26868 12.1711 7.36536 12.4045 7.36536 12.6479Z" fill="#848E9C"/>
</g>
</g>
</svg>
