<svg width="24" height="25" viewBox="0 0 24 25" fill="none" xmlns="http://www.w3.org/2000/svg">
<g id="solar:money-bag-linear">
<g id="Group">
<path id="Vector" d="M16 6.5C16 4.614 16 3.672 15.414 3.086C14.828 2.5 13.886 2.5 12 2.5C10.114 2.5 9.172 2.5 8.586 3.086C8 3.672 8 4.614 8 6.5M2 14.5C2 10.729 2 8.843 3.172 7.672C4.343 6.5 6.229 6.5 10 6.5H14C17.771 6.5 19.657 6.5 20.828 7.672C22 8.843 22 10.729 22 14.5C22 18.271 22 20.157 20.828 21.328C19.657 22.5 17.771 22.5 14 22.5H10C6.229 22.5 4.343 22.5 3.172 21.328C2 20.157 2 18.271 2 14.5Z" stroke="#848E9C" stroke-width="1.5"/>
<path id="Vector_2" d="M12 17.833C13.105 17.833 14 17.087 14 16.167C14 15.247 13.105 14.5 12 14.5C10.895 14.5 10 13.754 10 12.833C10 11.913 10.895 11.167 12 11.167M12 17.833C10.895 17.833 10 17.087 10 16.167M12 17.833V18.5M12 11.167V10.5M12 11.167C13.105 11.167 14 11.913 14 12.833" stroke="#848E9C" stroke-width="1.5" stroke-linecap="round"/>
</g>
</g>
</svg>
