<svg width="16" height="15" viewBox="0 0 16 15" fill="none" xmlns="http://www.w3.org/2000/svg">
<path d="M15.0179 2.69406L15.0122 2.70039L10.25 7.78539V11.687C10.2503 11.8726 10.2046 12.0553 10.1172 12.219C10.0297 12.3827 9.90309 12.5221 9.74865 12.625L7.49865 14.1255C7.3291 14.2384 7.13205 14.3032 6.92855 14.3129C6.72506 14.3226 6.52274 14.2769 6.34321 14.1806C6.16368 14.0843 6.01367 13.941 5.90919 13.7661C5.80471 13.5912 5.74968 13.3912 5.74998 13.1875V7.78539L0.987716 2.70039L0.982091 2.69406C0.835663 2.53292 0.739144 2.33274 0.704244 2.11782C0.669343 1.9029 0.697561 1.68247 0.785474 1.48327C0.873387 1.28407 1.01722 1.11466 1.19951 0.995598C1.38181 0.876534 1.59475 0.812929 1.81248 0.8125H14.1875C14.4054 0.812521 14.6186 0.875831 14.8012 0.994737C14.9838 1.11364 15.128 1.28303 15.2162 1.48231C15.3043 1.68159 15.3327 1.90219 15.2979 2.1173C15.2631 2.33241 15.1665 2.53278 15.02 2.69406H15.0179Z" fill="white"/>
</svg>
