<svg width="26" height="24" viewBox="0 0 26 24" fill="none" xmlns="http://www.w3.org/2000/svg">
<path id="Union" fill-rule="evenodd" clip-rule="evenodd" d="M16.6166 0.92245V23.0779C16.6164 23.2506 16.5678 23.4198 16.4763 23.5663C16.3848 23.7128 16.254 23.8307 16.0988 23.9065C15.9436 23.9824 15.7702 24.0132 15.5984 23.9954C15.4266 23.9776 15.2632 23.912 15.1268 23.806L7.06781 17.539H1.84628C1.35662 17.539 0.88701 17.3445 0.540764 16.9982C0.194519 16.652 0 16.1824 0 15.6927V8.30759C0 7.81792 0.194519 7.34831 0.540764 7.00207C0.88701 6.65582 1.35662 6.4613 1.84628 6.4613H7.06781L15.1268 0.194322C15.2632 0.0883047 15.4266 0.0226774 15.5984 0.00490151C15.7702 -0.0128744 15.9436 0.0179142 16.0988 0.0937668C16.254 0.169619 16.3848 0.287493 16.4763 0.433986C16.5678 0.580479 16.6164 0.749714 16.6166 0.92245ZM24.3731 8.5618C24.7363 8.19867 25.325 8.19867 25.6881 8.5618C26.0513 8.92494 26.0513 9.51369 25.6881 9.87682L23.7161 11.8489L25.6882 13.821C26.0513 14.1841 26.0513 14.7729 25.6882 15.136C25.3251 15.4992 24.7363 15.4992 24.3732 15.136L22.4011 13.1639L20.4281 15.1369C20.065 15.5 19.4762 15.5 19.1131 15.1369C18.7499 14.7737 18.7499 14.185 19.1131 13.8219L21.086 11.8489L19.1131 9.87597C18.75 9.51284 18.75 8.92408 19.1131 8.56095C19.4763 8.19782 20.065 8.19782 20.4281 8.56095L22.4011 10.5339L24.3731 8.5618Z" fill="#fff"/>
</svg>
