<svg width="25" height="24" viewBox="0 0 25 24" fill="none" xmlns="http://www.w3.org/2000/svg">
<path d="M16.6163 0.922438V23.0776C16.6162 23.2503 16.5676 23.4195 16.4761 23.566C16.3846 23.7125 16.2538 23.8304 16.0986 23.9062C15.9434 23.9821 15.77 24.0129 15.5982 23.9951C15.4264 23.9773 15.263 23.9117 15.1266 23.8057L7.06771 17.5388H1.84626C1.3566 17.5388 0.886998 17.3443 0.540757 16.998C0.194516 16.6518 0 16.1822 0 15.6925V8.30748C0 7.81782 0.194516 7.34822 0.540757 7.00198C0.886998 6.65574 1.3566 6.46122 1.84626 6.46122H7.06771L15.1266 0.194319C15.263 0.0883036 15.4264 0.0226771 15.5982 0.00490145C15.77 -0.0128742 15.9434 0.0179139 16.0986 0.0937655C16.2538 0.169617 16.3846 0.287489 16.4761 0.43398C16.5676 0.580471 16.6162 0.749704 16.6163 0.922438ZM20.3089 8.30748C20.064 8.30748 19.8292 8.40474 19.6561 8.57786C19.483 8.75098 19.3857 8.98578 19.3857 9.23061V14.7694C19.3857 15.0142 19.483 15.249 19.6561 15.4221C19.8292 15.5953 20.064 15.6925 20.3089 15.6925C20.5537 15.6925 20.7885 15.5953 20.9616 15.4221C21.1347 15.249 21.232 15.0142 21.232 14.7694V9.23061C21.232 8.98578 21.1347 8.75098 20.9616 8.57786C20.7885 8.40474 20.5537 8.30748 20.3089 8.30748ZM24.0014 6.46122C23.7566 6.46122 23.5218 6.55848 23.3486 6.7316C23.1755 6.90472 23.0783 7.13952 23.0783 7.38435V16.6157C23.0783 16.8605 23.1755 17.0953 23.3486 17.2684C23.5218 17.4415 23.7566 17.5388 24.0014 17.5388C24.2462 17.5388 24.481 17.4415 24.6541 17.2684C24.8273 17.0953 24.9245 16.8605 24.9245 16.6157V7.38435C24.9245 7.13952 24.8273 6.90472 24.6541 6.7316C24.481 6.55848 24.2462 6.46122 24.0014 6.46122Z" fill="#fff"/>
</svg>
