<svg width="24" height="24" viewBox="0 0 24 24" fill="none" xmlns="http://www.w3.org/2000/svg">
<path id="Subtract" fill-rule="evenodd" clip-rule="evenodd" d="M9.11088 1.44033C8.81865 1.68936 8.67253 1.81389 8.51647 1.91849C8.15875 2.15825 7.75701 2.32466 7.33452 2.40807C7.15021 2.44445 6.95884 2.45973 6.5761 2.49027C5.61443 2.56701 5.1336 2.60538 4.73245 2.74707C3.80461 3.0748 3.0748 3.80461 2.74707 4.73245C2.60538 5.1336 2.56701 5.61443 2.49027 6.5761C2.45973 6.95884 2.44445 7.15021 2.40807 7.33452C2.32466 7.75701 2.15825 8.15875 1.91849 8.51647C1.81389 8.67253 1.68937 8.81865 1.44033 9.11088C0.814602 9.84514 0.501725 10.2123 0.318259 10.5961C-0.106086 11.4839 -0.106086 12.5161 0.318259 13.4039C0.501727 13.7877 0.814593 14.1549 1.44033 14.8891C1.68934 15.1813 1.8139 15.3275 1.91849 15.4835C2.15825 15.8413 2.32466 16.243 2.40807 16.6655C2.44445 16.8498 2.45973 17.0412 2.49027 17.4239C2.56701 18.3856 2.60538 18.8664 2.74707 19.2676C3.0748 20.1954 3.80461 20.9252 4.73245 21.2529C5.1336 21.3946 5.61443 21.433 6.5761 21.5097C6.95884 21.5403 7.15021 21.5555 7.33452 21.5919C7.75701 21.6753 8.15875 21.8417 8.51647 22.0815C8.67253 22.1861 8.81865 22.3106 9.11088 22.5597C9.84515 23.1854 10.2123 23.4983 10.5961 23.6817C11.4839 24.1061 12.5161 24.1061 13.4039 23.6817C13.7877 23.4983 14.1549 23.1854 14.8891 22.5597C15.1814 22.3106 15.3275 22.1861 15.4835 22.0815C15.8413 21.8417 16.243 21.6753 16.6655 21.5919C16.8498 21.5555 17.0412 21.5403 17.4239 21.5097C18.3856 21.433 18.8664 21.3946 19.2676 21.2529C20.1954 20.9252 20.9252 20.1954 21.2529 19.2676C21.3946 18.8664 21.433 18.3856 21.5097 17.4239C21.5403 17.0412 21.5555 16.8498 21.5919 16.6655C21.6753 16.243 21.8417 15.8413 22.0815 15.4835C22.1861 15.3275 22.3106 15.1814 22.5597 14.8891C23.1854 14.1549 23.4983 13.7877 23.6817 13.4039C24.1061 12.5161 24.1061 11.4839 23.6817 10.5961C23.4983 10.2123 23.1854 9.84515 22.5597 9.11088C22.3106 8.81865 22.1861 8.67253 22.0815 8.51647C21.8417 8.15875 21.6753 7.75701 21.5919 7.33452C21.5555 7.15021 21.5403 6.95884 21.5097 6.5761C21.433 5.61443 21.3946 5.1336 21.2529 4.73245C20.9252 3.80461 20.1954 3.0748 19.2676 2.74707C18.8664 2.60538 18.3856 2.56701 17.4239 2.49027C17.0412 2.45973 16.8498 2.44445 16.6655 2.40807C16.243 2.32466 15.8413 2.15825 15.4835 1.91849C15.3275 1.81389 15.1814 1.68937 14.8891 1.44033C14.1549 0.814593 13.7877 0.501727 13.4039 0.318259C12.5161 -0.106086 11.4839 -0.106086 10.5961 0.318259C10.2123 0.501725 9.84514 0.8146 9.11088 1.44033ZM17.2482 9.43576C17.6296 9.05436 17.6296 8.436 17.2482 8.0546C16.8668 7.6732 16.2484 7.6732 15.867 8.0546L10.0467 13.8749L8.13295 11.9611C7.75155 11.5797 7.13318 11.5797 6.75178 11.9611C6.37039 12.3425 6.37039 12.9609 6.75178 13.3423L9.35614 15.9466C9.73754 16.328 10.3559 16.328 10.7373 15.9466L17.2482 9.43576Z" fill="#8043F9"/>
</svg>
