<svg width="19" height="20" viewBox="0 0 19 20" fill="none" xmlns="http://www.w3.org/2000/svg">
<g id="system-uicons:cross">
<path id="Vector" fill-rule="evenodd" clip-rule="evenodd" d="M4.90869 5.40179C7.24403 3.06946 11.0409 3.09408 13.3904 5.44426C15.7411 7.79505 15.7657 11.5939 13.4298 13.9293C11.0944 16.2647 7.29573 16.2407 4.945 13.8899C4.28378 13.2314 3.78419 12.4286 3.48544 11.5445C3.1867 10.6604 3.09693 9.71907 3.22318 8.79445C3.23975 8.6731 3.30384 8.5633 3.40136 8.48921C3.49888 8.41512 3.62183 8.3828 3.74318 8.39937C3.86452 8.41593 3.97431 8.48003 4.0484 8.57755C4.12249 8.67507 4.15481 8.79803 4.13824 8.91937C4.03107 9.70296 4.10705 10.5007 4.36021 11.25C4.61338 11.9992 5.03683 12.6796 5.5973 13.2376C7.59418 15.2339 10.8083 15.2456 12.7775 13.277C14.7461 11.3077 14.7344 8.09352 12.7381 6.09657C10.7424 4.10147 7.53018 4.08855 5.56099 6.05473L6.02129 6.05657C6.0819 6.05685 6.14186 6.06907 6.19774 6.09253C6.25363 6.11598 6.30435 6.15022 6.34701 6.19328C6.38966 6.23634 6.42342 6.28737 6.44636 6.34348C6.46929 6.39959 6.48095 6.45966 6.48066 6.52027C6.48038 6.58088 6.46816 6.64084 6.44471 6.69673C6.42125 6.75262 6.38702 6.80334 6.34396 6.846C6.3009 6.88866 6.24987 6.92242 6.19376 6.94535C6.13766 6.96828 6.07759 6.97994 6.01698 6.97966L4.45024 6.97227C4.32858 6.97163 4.2121 6.92297 4.12613 6.83688C4.04016 6.75079 3.99166 6.63424 3.99117 6.51258L3.98317 4.94702C3.98285 4.88641 3.99447 4.82633 4.01736 4.77021C4.04026 4.71409 4.07398 4.66303 4.11661 4.61994C4.15924 4.57685 4.20993 4.54258 4.26581 4.51909C4.32168 4.4956 4.38163 4.48334 4.44224 4.48301C4.50285 4.48269 4.56293 4.49431 4.61905 4.51721C4.67517 4.5401 4.72623 4.57383 4.76931 4.61646C4.8124 4.65909 4.84666 4.70979 4.87016 4.76566C4.89365 4.82153 4.90591 4.88149 4.90623 4.9421L4.90869 5.40241V5.40179ZM9.16708 6.74335C9.28948 6.74335 9.40687 6.79198 9.49343 6.87853C9.57998 6.96509 9.62861 7.08248 9.62861 7.20489V9.47569L11.0323 10.8788C11.0764 10.9213 11.1116 10.9722 11.1358 11.0285C11.16 11.0848 11.1727 11.1454 11.1733 11.2067C11.1739 11.268 11.1622 11.3288 11.139 11.3855C11.1159 11.4422 11.0816 11.4938 11.0383 11.5371C10.995 11.5805 10.9435 11.6148 10.8868 11.638C10.8301 11.6612 10.7693 11.6729 10.708 11.6724C10.6467 11.6719 10.5862 11.6592 10.5298 11.6351C10.4735 11.6109 10.4226 11.5758 10.38 11.5317L8.70616 9.85785V7.20551C8.70616 7.0831 8.75479 6.9657 8.84134 6.87915C8.92789 6.79259 9.04529 6.74396 9.16769 6.74396L9.16708 6.74335Z" fill="#CDCDCD"/>
</g>
</svg>
