<svg width="36" height="36" viewBox="0 0 36 36" fill="none" xmlns="http://www.w3.org/2000/svg">
<g id="Group 162953">
<circle id="Ellipse 31" cx="18" cy="18" r="18" fill="#302A43"/>
<path id="Vector" d="M27.5501 16.4608L22.4085 21.6198C22.847 22.8382 23.0287 24.8787 21.1401 27.3894C21.0081 27.5659 20.8394 27.7119 20.6457 27.8173C20.4521 27.9226 20.2379 27.985 20.018 28C19.9814 28 19.9458 28 19.9093 28C19.7071 28 19.5069 27.9602 19.3201 27.8828C19.1334 27.8055 18.9637 27.692 18.8208 27.549L14.1801 22.9035L10.0808 27.0057C9.93647 27.1501 9.7407 27.2312 9.53656 27.2312C9.33242 27.2312 9.13664 27.1501 8.99229 27.0057C8.84795 26.8614 8.76685 26.6656 8.76685 26.4614C8.76685 26.2573 8.84795 26.0615 8.99229 25.9172L13.0945 21.8179L8.44995 17.1734C8.29729 17.0205 8.17853 16.8372 8.1014 16.6355C8.02427 16.4337 7.9905 16.2179 8.00229 16.0022C8.01409 15.7865 8.07117 15.5756 8.16984 15.3835C8.26851 15.1913 8.40654 15.022 8.57496 14.8867C11.0193 12.9145 13.3589 13.302 14.383 13.6232L19.5372 8.45076C19.68 8.30785 19.8497 8.19449 20.0363 8.11715C20.223 8.03981 20.4231 8 20.6252 8C20.8273 8 21.0274 8.03981 21.2141 8.11715C21.4008 8.19449 21.5704 8.30785 21.7132 8.45076L27.5492 14.2857C27.8376 14.5741 27.9997 14.9652 27.9999 15.3731C28.0001 15.781 27.8383 16.1722 27.5501 16.4608Z" fill="#5A5273"/>
</g>
</svg>
