<svg width="18" height="19" viewBox="0 0 18 19" fill="none" xmlns="http://www.w3.org/2000/svg">
<path d="M3.75 5.1285H5.775M5.775 5.1285H7.125M5.775 5.1285V4.50781M8.25 5.1285H7.125M7.125 5.1285C6.88763 5.97734 6.39056 6.77973 5.82322 7.48491M5.82322 7.48491C5.35341 8.06883 4.83542 8.58609 4.37678 9.00781M5.82322 7.48491C5.53393 7.14574 5.12893 6.597 5.01322 6.34872M5.82322 7.48491L6.69107 8.38711" stroke="#BB9D43" stroke-linecap="round" stroke-linejoin="round"/>
<path d="M10.125 15.0078L10.75 13.5078M10.75 13.5078L12 10.5078L13.25 13.5078M10.75 13.5078H13.25M13.875 15.0078L13.25 13.5078" stroke="#BB9D43" stroke-linecap="round" stroke-linejoin="round"/>
<path d="M10.5 8.25781V6.75781C10.5 4.63649 10.5 3.57583 9.84097 2.91682C9.18195 2.25781 8.1213 2.25781 6 2.25781C3.87868 2.25781 2.81802 2.25781 2.15901 2.91682C1.5 3.57583 1.5 4.63649 1.5 6.75781C1.5 8.87911 1.5 9.93976 2.15901 10.5988C2.81802 11.2578 3.87868 11.2578 6 11.2578H7.5" stroke="#BB9D43" stroke-linecap="round"/>
<path d="M7.5 12.7578C7.5 10.6365 7.5 9.57586 8.15903 8.91684C8.81805 8.25781 9.8787 8.25781 12 8.25781C14.1213 8.25781 15.1819 8.25781 15.841 8.91684C16.5 9.57586 16.5 10.6365 16.5 12.7578C16.5 14.8791 16.5 15.9398 15.841 16.5988C15.1819 17.2578 14.1213 17.2578 12 17.2578C9.8787 17.2578 8.81805 17.2578 8.15903 16.5988C7.5 15.9398 7.5 14.8791 7.5 12.7578Z" stroke="#BB9D43"/>
<path d="M3 13.1328C3 14.1862 3 14.7128 3.2528 15.0911C3.36224 15.2549 3.50286 15.3956 3.66665 15.505C4.04498 15.7578 4.57166 15.7578 5.625 15.7578" stroke="#BB9D43" stroke-linecap="round" stroke-linejoin="round"/>
<path d="M15 6.38281C15 5.32947 15 4.8028 14.7472 4.42446C14.6378 4.26067 14.4971 4.12005 14.3333 4.01061C13.955 3.75781 13.4284 3.75781 12.375 3.75781" stroke="#BB9D43" stroke-linecap="round" stroke-linejoin="round"/>
</svg>
