<svg width="16" height="17" viewBox="0 0 16 17" fill="none" xmlns="http://www.w3.org/2000/svg">
<g id="uiw:reload" clip-path="url(#clip0_3860_8255)">
<path id="Vector" d="M15.436 10.1C15.5104 10.0999 15.584 10.1145 15.6527 10.143C15.7214 10.1715 15.7838 10.2134 15.8362 10.2661C15.8886 10.3188 15.9301 10.3814 15.9582 10.4503C15.9863 10.5191 16.0005 10.5928 16 10.6672V13.2304C16.0005 13.3044 15.9865 13.3778 15.9586 13.4464C15.9307 13.515 15.8896 13.5774 15.8376 13.6301C15.7856 13.6828 15.7237 13.7247 15.6555 13.7534C15.5873 13.7822 15.514 13.7972 15.44 13.7976C15.366 13.7972 15.2928 13.7822 15.2245 13.7534C15.1563 13.7247 15.0944 13.6828 15.0424 13.6301C14.9904 13.5774 14.9493 13.515 14.9214 13.4464C14.8936 13.3778 14.8795 13.3044 14.88 13.2304V12.3304C13.4232 14.7752 10.7192 16.5 7.80561 16.5C4.27761 16.5 1.32081 14.3232 0.0384142 10.968C-0.0154303 10.8282 -0.012038 10.6728 0.0478563 10.5355C0.107751 10.3982 0.219325 10.29 0.358414 10.2344C0.646414 10.1216 0.971214 10.2664 1.08321 10.5584C2.20321 13.488 4.75361 15.3664 7.80561 15.3664C10.5024 15.3664 13.0216 13.6208 14.1952 11.2432L13.0184 11.2512C12.9444 11.2513 12.8711 11.2368 12.8026 11.2086C12.7342 11.1803 12.672 11.1388 12.6197 11.0865C12.5673 11.0342 12.5257 10.9721 12.4974 10.9037C12.469 10.8353 12.4544 10.762 12.4544 10.688C12.4525 10.5386 12.51 10.3944 12.6142 10.2873C12.7185 10.1802 12.861 10.1189 13.0104 10.1168L15.436 10.1ZM8.19601 0.5C11.7224 0.5 14.68 2.6768 15.9624 6.032C16.0163 6.17179 16.0129 6.32717 15.953 6.46447C15.8931 6.60178 15.7815 6.70997 15.6424 6.7656C15.5736 6.79244 15.5001 6.80533 15.4263 6.80354C15.3524 6.80175 15.2797 6.7853 15.2123 6.75516C15.1448 6.72502 15.0841 6.68177 15.0335 6.62795C14.9829 6.57412 14.9435 6.51078 14.9176 6.4416C13.7976 3.512 11.2472 1.6336 8.19522 1.6336C5.49841 1.6336 2.97921 3.3792 1.80561 5.7568L2.98241 5.7488C3.05644 5.74869 3.12976 5.76319 3.19819 5.79144C3.26661 5.8197 3.32879 5.86117 3.38117 5.91347C3.43356 5.96578 3.47511 6.02791 3.50347 6.09629C3.53182 6.16467 3.54641 6.23797 3.54641 6.312C3.54834 6.46145 3.49086 6.60555 3.38661 6.71265C3.28236 6.81975 3.13986 6.88109 2.99041 6.8832L0.564014 6.9C0.489649 6.90011 0.415998 6.88549 0.347313 6.85698C0.278628 6.82847 0.216268 6.78665 0.163832 6.73391C0.111397 6.68118 0.0699241 6.61859 0.0418071 6.54974C0.0136902 6.4809 -0.000514033 6.40716 1.42101e-05 6.3328V3.7696C1.42101e-05 3.456 0.250414 3.2024 0.560014 3.2024C0.868814 3.2024 1.12001 3.456 1.12001 3.7696V4.6696C2.57681 2.2248 5.28081 0.5 8.19442 0.5H8.19601Z" fill="#8043F9"/>
</g>
<defs>
<clipPath id="clip0_3860_8255">
<rect width="16" height="16" fill="white" transform="translate(0 0.5)"/>
</clipPath>
</defs>
</svg>
