<svg width="36" height="36" viewBox="0 0 36 36" fill="none" xmlns="http://www.w3.org/2000/svg">
<g id="Group 162954">
<circle id="Ellipse 31" cx="18" cy="18" r="18" fill="#302A43"/>
<path id="Vector" d="M23.0769 17.0769C23.0769 18.081 22.7792 19.0626 22.2213 19.8975C21.6634 20.7324 20.8705 21.3831 19.9429 21.7674C19.0152 22.1516 17.9944 22.2522 17.0095 22.0563C16.0247 21.8604 15.1201 21.3769 14.4101 20.6668C13.7001 19.9568 13.2165 19.0522 13.0206 18.0674C12.8247 17.0826 12.9253 16.0618 13.3095 15.1341C13.6938 14.2064 14.3445 13.4135 15.1794 12.8556C16.0143 12.2978 16.9959 12 18 12C19.346 12.0015 20.6365 12.5369 21.5882 13.4887C22.54 14.4405 23.0754 15.7309 23.0769 17.0769ZM30 18C30 20.3734 29.2962 22.6934 27.9776 24.6668C26.6591 26.6402 24.7849 28.1783 22.5922 29.0865C20.3995 29.9948 17.9867 30.2324 15.6589 29.7694C13.3311 29.3064 11.193 28.1635 9.51472 26.4853C7.83649 24.807 6.6936 22.6689 6.23058 20.3411C5.76756 18.0133 6.0052 15.6005 6.91345 13.4078C7.8217 11.2151 9.35977 9.34094 11.3332 8.02236C13.3066 6.70379 15.6266 6 18 6C21.1816 6.00336 24.2319 7.26872 26.4816 9.51843C28.7313 11.7681 29.9966 14.8184 30 18ZM28.1538 18C28.1524 16.6333 27.8753 15.2809 27.3392 14.0238C26.803 12.7666 26.0189 11.6305 25.0336 10.6834C24.0484 9.73624 22.8822 8.99753 21.6049 8.51142C20.3275 8.02531 18.9653 7.80179 17.5996 7.85423C12.165 8.06423 7.83116 12.5908 7.84616 18.0288C7.85137 20.5044 8.76441 22.8922 10.4123 24.7396C11.0834 23.7662 11.9359 22.9314 12.9231 22.2808C13.0072 22.2252 13.1073 22.1987 13.208 22.2054C13.3086 22.212 13.4043 22.2515 13.4804 22.3177C14.7348 23.4027 16.338 23.9998 17.9965 23.9998C19.6551 23.9998 21.2583 23.4027 22.5127 22.3177C22.5888 22.2515 22.6845 22.212 22.7851 22.2054C22.8858 22.1987 22.9858 22.2252 23.07 22.2808C24.0584 22.931 24.9121 23.7659 25.5842 24.7396C27.2403 22.8854 28.1551 20.4861 28.1538 18Z" fill="#5A5273"/>
</g>
</svg>
