<svg width="36" height="36" viewBox="0 0 36 36" fill="none" xmlns="http://www.w3.org/2000/svg">
<circle cx="18" cy="18" r="18" fill="#302A43"/>
<path d="M20.6628 8.42294C20.5359 8.35892 20.3943 8.33304 20.2539 8.34823C20.1136 8.36342 19.9802 8.41908 19.8689 8.50888L13.2837 13.8126H9.01717C8.61705 13.8126 8.23333 13.9772 7.95041 14.2702C7.66749 14.5633 7.50854 14.9607 7.50854 15.3751V21.6251C7.50854 22.0395 7.66749 22.4369 7.95041 22.7299C8.23333 23.023 8.61705 23.1876 9.01717 23.1876H13.2837L19.8689 28.4913C19.9803 28.581 20.1138 28.6366 20.2542 28.6516C20.3946 28.6666 20.5362 28.6406 20.6631 28.5764C20.7899 28.5122 20.8967 28.4125 20.9715 28.2885C21.0463 28.1645 21.086 28.0213 21.0861 27.8751V9.12509C21.0862 8.97873 21.0465 8.8353 20.9716 8.71116C20.8968 8.58702 20.7898 8.48715 20.6628 8.42294ZM9.01717 15.3751H12.7887V21.6251H9.01717V15.3751Z" fill="#5A5273"/>
<path d="M27.4327 18.5004L29.1629 16.7094C29.3044 16.5628 29.384 16.364 29.384 16.1567C29.384 15.9494 29.3044 15.7505 29.1629 15.604C29.0214 15.4574 28.8294 15.375 28.6292 15.375C28.4291 15.375 28.2371 15.4574 28.0956 15.6039L26.3663 17.3959L24.637 15.6039C24.4955 15.4574 24.3035 15.375 24.1034 15.375C23.9032 15.375 23.7112 15.4574 23.5697 15.6039C23.4281 15.7505 23.3486 15.9494 23.3486 16.1567C23.3486 16.364 23.4281 16.5628 23.5697 16.7094L25.2999 18.5004L23.5697 20.2914C23.4281 20.438 23.3486 20.6369 23.3486 20.8442C23.3486 21.0515 23.4281 21.2503 23.5697 21.3969C23.7112 21.5435 23.9032 21.6259 24.1034 21.6259C24.3035 21.6259 24.4955 21.5435 24.637 21.3969L26.3663 19.6049L28.0956 21.3969C28.2371 21.5435 28.4291 21.6259 28.6292 21.6259C28.8294 21.6259 29.0214 21.5435 29.1629 21.3969C29.3044 21.2503 29.384 21.0515 29.384 20.8442C29.384 20.6369 29.3044 20.438 29.1629 20.2914L27.4327 18.5004Z" fill="#5A5273"/>
</svg>
