<svg width="112" height="49" viewBox="0 0 112 49" fill="none" xmlns="http://www.w3.org/2000/svg">
<path d="M24.4998 0C20.6462 0 16.9985 0.893861 13.7491 2.48493L14.5592 4.59891C17.5535 3.1017 20.9282 2.25253 24.4953 2.25253C29.5484 2.25253 34.2165 3.9464 37.9538 6.79334L41.4224 6.79334C37.0273 2.58773 31.0612 0 24.4998 0Z" fill="#8043F9"/>
<path d="M44.7884 10.7712L43.7679 13.3902C45.6566 16.6528 46.7353 20.4338 46.7353 24.4651C46.7353 36.711 36.759 46.6731 24.4955 46.6731C12.2321 46.6731 2.26023 36.711 2.26023 24.4651C2.26023 19.9958 3.58951 15.8304 5.87212 12.3444L4.90089 9.79688C1.82609 13.8863 0 18.9679 0 24.4651C0 37.9535 10.9923 48.9301 24.5 48.9301C38.0077 48.9301 49 37.9535 49 24.4651C49 19.3969 47.4469 14.6818 44.7928 10.7712H44.7884Z" fill="#8043F9"/>
<path d="M2.57349 0.49707L17.2359 39.0269L26.5677 39.0269L11.7755 0.49707L2.57349 0.49707Z" fill="url(#paint0_linear_328_14097)"/>
<path d="M35.0499 7.92383L31.7513 18.2211L36.1107 30.2167L40.8191 17.8502L44.6861 7.92383L35.0499 7.92383Z" fill="#8043F9"/>
<path d="M18.3218 11L29.05 38.5041H32.7604L35.052 32.4437L26.8883 11L18.3218 11Z" fill="url(#paint1_linear_328_14097)"/>
<path d="M60.528 11.3926V37.5387H55V11.3926H60.528Z" fill="#8043F9"/>
<path d="M86.9454 11.3926V37.5387H82.1706L70.7955 21.0825H70.604V37.5387H65.0761V11.3926H69.9274L81.2131 27.836H81.4429V11.3926H86.9454Z" fill="#8043F9"/>
<path d="M91.5126 37.5387V11.3926H101.828C103.811 11.3926 105.501 11.7713 106.896 12.5288C108.292 13.2778 109.356 14.3204 110.088 15.6566C110.829 16.9844 111.199 18.5164 111.199 20.2526C111.199 21.9889 110.824 23.5209 110.075 24.8486C109.326 26.1764 108.241 27.2105 106.82 27.9509C105.407 28.6914 103.696 29.0616 101.688 29.0616H95.1128V24.6316H100.794C101.858 24.6316 102.735 24.4486 103.424 24.0826C104.122 23.7081 104.641 23.1932 104.981 22.5379C105.33 21.874 105.505 21.1123 105.505 20.2526C105.505 19.3845 105.33 18.627 104.981 17.9802C104.641 17.3248 104.122 16.8184 103.424 16.4609C102.726 16.095 101.841 15.912 100.768 15.912H97.0406V37.5387H91.5126Z" fill="#8043F9"/>
<defs>
<linearGradient id="paint0_linear_328_14097" x1="3.16876" y1="0.152934" x2="25.8253" y2="39.4528" gradientUnits="userSpaceOnUse">
<stop offset="1" stop-color="#8043F9"/>
</linearGradient>
<linearGradient id="paint1_linear_328_14097" x1="19.5929" y1="10.267" x2="35.0992" y2="37.1557" gradientUnits="userSpaceOnUse">
<stop offset="1" stop-color="#8043F9"/>
</linearGradient>
</defs>
</svg>
