<svg width="43" height="40" viewBox="0 0 43 40" fill="none" xmlns="http://www.w3.org/2000/svg">
<path d="M5.79038 0C4.25495 0 2.78242 0.609945 1.69671 1.69565C0.610998 2.78136 0.00105253 4.2539 0.00105253 5.78933V16.8417C1.67606 14.6083 4.16966 13.1319 6.93328 12.737C9.69691 12.3422 12.5042 13.0615 14.7375 14.7365C16.9709 16.4115 18.4473 18.9051 18.8421 21.6687C19.2369 24.4323 18.5177 27.2396 16.8427 29.4729V31.5781H36.3159C37.8513 31.5781 39.3239 30.9682 40.4096 29.8825C41.4953 28.7968 42.1052 27.3242 42.1052 25.7888V5.78933C42.1052 4.2539 41.4953 2.78136 40.4096 1.69565C39.3239 0.609945 37.8513 0 36.3159 0H5.79038ZM10.0008 8.42084H32.1055C32.5242 8.42084 32.9258 8.58718 33.2219 8.88329C33.5181 9.17939 33.6844 9.58099 33.6844 9.99974C33.6844 10.4185 33.5181 10.8201 33.2219 11.1162C32.9258 11.4123 32.5242 11.5787 32.1055 11.5787H10.0008C9.58204 11.5787 9.18044 11.4123 8.88434 11.1162C8.58824 10.8201 8.42189 10.4185 8.42189 9.99974C8.42189 9.58099 8.58824 9.17939 8.88434 8.88329C9.18044 8.58718 9.58204 8.42084 10.0008 8.42084ZM21.0531 20.5258C21.0531 20.107 21.2195 19.7054 21.5156 19.4093C21.8117 19.1132 22.2133 18.9469 22.632 18.9469H32.1055C32.5242 18.9469 32.9258 19.1132 33.2219 19.4093C33.5181 19.7054 33.6844 20.107 33.6844 20.5258C33.6844 20.9445 33.5181 21.3461 33.2219 21.6422C32.9258 21.9383 32.5242 22.1047 32.1055 22.1047H22.632C22.2133 22.1047 21.8117 21.9383 21.5156 21.6422C21.2195 21.3461 21.0531 20.9445 21.0531 20.5258ZM8.42189 14.7365C6.18826 14.7365 4.04612 15.6238 2.46671 17.2032C0.887304 18.7826 0 20.9247 0 23.1584C0 25.392 0.887304 27.5341 2.46671 29.1135C4.04612 30.6929 6.18826 31.5802 8.42189 31.5802C10.6555 31.5802 12.7977 30.6929 14.3771 29.1135C15.9565 27.5341 16.8438 25.392 16.8438 23.1584C16.8438 20.9247 15.9565 18.7826 14.3771 17.2032C12.7977 15.6238 10.6555 14.7365 8.42189 14.7365ZM14.7375 31.5802C12.9797 32.9023 10.7924 33.6855 8.42189 33.6855C6.1443 33.69 3.92723 32.9525 2.10626 31.5845V38.418C2.10626 39.6179 3.37991 40.3548 4.40094 39.8263L4.59041 39.7106L8.42189 37.0327L12.2534 39.7106C12.4746 39.8651 12.7318 39.9603 13.0004 39.9871C13.2689 40.0139 13.5398 39.9715 13.7873 39.8638C14.0348 39.7561 14.2505 39.5868 14.4139 39.372C14.5773 39.1572 14.6829 38.9041 14.7207 38.6369L14.7375 38.418L14.7396 31.5781L14.7375 31.5802Z" fill="#A772FF"/>
</svg>
