<svg width="48" height="48" viewBox="0 0 48 48" fill="none" xmlns="http://www.w3.org/2000/svg">
<g id="icon">
<path id="Vector" d="M8.79038 4C7.25495 4 5.78242 4.60995 4.69671 5.69565C3.611 6.78136 3.00105 8.2539 3.00105 9.78933V20.8417C4.67606 18.6083 7.16966 17.1319 9.93328 16.737C12.6969 16.3422 15.5042 17.0615 17.7375 18.7365C19.9709 20.4115 21.4473 22.9051 21.8421 25.6687C22.2369 28.4323 21.5177 31.2396 19.8427 33.4729V35.5781H39.3159C40.8513 35.5781 42.3239 34.9682 43.4096 33.8825C44.4953 32.7968 45.1052 31.3242 45.1052 29.7888V9.78933C45.1052 8.2539 44.4953 6.78136 43.4096 5.69565C42.3239 4.60995 40.8513 4 39.3159 4H8.79038ZM13.0008 12.4208H35.1055C35.5242 12.4208 35.9258 12.5872 36.2219 12.8833C36.5181 13.1794 36.6844 13.581 36.6844 13.9997C36.6844 14.4185 36.5181 14.8201 36.2219 15.1162C35.9258 15.4123 35.5242 15.5787 35.1055 15.5787H13.0008C12.582 15.5787 12.1804 15.4123 11.8843 15.1162C11.5882 14.8201 11.4219 14.4185 11.4219 13.9997C11.4219 13.581 11.5882 13.1794 11.8843 12.8833C12.1804 12.5872 12.582 12.4208 13.0008 12.4208ZM24.0531 24.5258C24.0531 24.107 24.2195 23.7054 24.5156 23.4093C24.8117 23.1132 25.2133 22.9469 25.632 22.9469H35.1055C35.5242 22.9469 35.9258 23.1132 36.2219 23.4093C36.5181 23.7054 36.6844 24.107 36.6844 24.5258C36.6844 24.9445 36.5181 25.3461 36.2219 25.6422C35.9258 25.9383 35.5242 26.1047 35.1055 26.1047H25.632C25.2133 26.1047 24.8117 25.9383 24.5156 25.6422C24.2195 25.3461 24.0531 24.9445 24.0531 24.5258ZM11.4219 18.7365C9.18826 18.7365 7.04612 19.6238 5.46671 21.2032C3.8873 22.7826 3 24.9247 3 27.1584C3 29.392 3.8873 31.5341 5.46671 33.1135C7.04612 34.6929 9.18826 35.5802 11.4219 35.5802C13.6555 35.5802 15.7977 34.6929 17.3771 33.1135C18.9565 31.5341 19.8438 29.392 19.8438 27.1584C19.8438 24.9247 18.9565 22.7826 17.3771 21.2032C15.7977 19.6238 13.6555 18.7365 11.4219 18.7365ZM17.7375 35.5802C15.9797 36.9023 13.7924 37.6855 11.4219 37.6855C9.1443 37.69 6.92723 36.9525 5.10626 35.5845V42.418C5.10626 43.6179 6.37991 44.3548 7.40094 43.8263L7.59041 43.7106L11.4219 41.0327L15.2534 43.7106C15.4746 43.8651 15.7318 43.9603 16.0004 43.9871C16.2689 44.0139 16.5398 43.9715 16.7873 43.8638C17.0348 43.7561 17.2505 43.5868 17.4139 43.372C17.5773 43.1572 17.6829 42.9041 17.7207 42.6369L17.7375 42.418L17.7396 35.5781L17.7375 35.5802Z" fill="#A772FF"/>
</g>
</svg>
