<svg width="48" height="48" viewBox="0 0 48 48" fill="none" xmlns="http://www.w3.org/2000/svg">
<g id="icon">
<path id="Vector" d="M30.25 10.25C30.25 11.9076 29.5915 13.4973 28.4194 14.6694C27.2473 15.8415 25.6576 16.5 24 16.5C22.3424 16.5 20.7527 15.8415 19.5806 14.6694C18.4085 13.4973 17.75 11.9076 17.75 10.25C17.75 8.5924 18.4085 7.00269 19.5806 5.83058C20.7527 4.65848 22.3424 4 24 4C25.6576 4 27.2473 4.65848 28.4194 5.83058C29.5915 7.00269 30.25 8.5924 30.25 10.25ZM42.75 11.5C42.75 12.8261 42.2232 14.0979 41.2855 15.0355C40.3479 15.9732 39.0761 16.5 37.75 16.5C36.4239 16.5 35.1521 15.9732 34.2145 15.0355C33.2768 14.0979 32.75 12.8261 32.75 11.5C32.75 10.1739 33.2768 8.90215 34.2145 7.96447C35.1521 7.02678 36.4239 6.5 37.75 6.5C39.0761 6.5 40.3479 7.02678 41.2855 7.96447C42.2232 8.90215 42.75 10.1739 42.75 11.5ZM10.25 16.5C11.5761 16.5 12.8479 15.9732 13.7855 15.0355C14.7232 14.0979 15.25 12.8261 15.25 11.5C15.25 10.1739 14.7232 8.90215 13.7855 7.96447C12.8479 7.02678 11.5761 6.5 10.25 6.5C8.92392 6.5 7.65215 7.02678 6.71447 7.96447C5.77678 8.90215 5.25 10.1739 5.25 11.5C5.25 12.8261 5.77678 14.0979 6.71447 15.0355C7.65215 15.9732 8.92392 16.5 10.25 16.5ZM14 22.125C14 20.4 15.4 19 17.125 19H30.875C32.6 19 34 20.4 34 22.125V34C34 36.6522 32.9464 39.1957 31.0711 41.0711C29.1957 42.9464 26.6522 44 24 44C21.3478 44 18.8043 42.9464 16.9289 41.0711C15.0536 39.1957 14 36.6522 14 34V22.125ZM11.5 22.125C11.5 20.9675 11.85 19.895 12.4475 19H7.125C5.4 19 4 20.4 4 22.125V31.5C3.99988 32.5703 4.22885 33.6282 4.6715 34.6027C5.11416 35.5772 5.76026 36.4456 6.56639 37.1497C7.37251 37.8537 8.31999 38.3771 9.34517 38.6846C10.3703 38.9921 11.4495 39.0766 12.51 38.9325C11.8411 37.3742 11.4974 35.6958 11.5 34V22.125ZM36.5 34C36.5 35.75 36.14 37.42 35.49 38.9325C36.5505 39.0766 37.6297 38.9921 38.6548 38.6846C39.68 38.3771 40.6275 37.8537 41.4336 37.1497C42.2397 36.4456 42.8858 35.5772 43.3285 34.6027C43.7712 33.6282 44.0001 32.5703 44 31.5V22.125C44 20.4 42.6 19 40.875 19H35.5525C36.1525 19.895 36.5 20.9675 36.5 22.125V34Z" fill="#A772FF"/>
</g>
</svg>
