<svg width="40" height="40" viewBox="0 0 40 40" fill="none" xmlns="http://www.w3.org/2000/svg">
<path d="M26.25 6.25C26.25 7.9076 25.5915 9.49732 24.4194 10.6694C23.2473 11.8415 21.6576 12.5 20 12.5C18.3424 12.5 16.7527 11.8415 15.5806 10.6694C14.4085 9.49732 13.75 7.9076 13.75 6.25C13.75 4.5924 14.4085 3.00269 15.5806 1.83058C16.7527 0.65848 18.3424 0 20 0C21.6576 0 23.2473 0.65848 24.4194 1.83058C25.5915 3.00269 26.25 4.5924 26.25 6.25ZM38.75 7.5C38.75 8.82608 38.2232 10.0979 37.2855 11.0355C36.3479 11.9732 35.0761 12.5 33.75 12.5C32.4239 12.5 31.1521 11.9732 30.2145 11.0355C29.2768 10.0979 28.75 8.82608 28.75 7.5C28.75 6.17392 29.2768 4.90215 30.2145 3.96447C31.1521 3.02678 32.4239 2.5 33.75 2.5C35.0761 2.5 36.3479 3.02678 37.2855 3.96447C38.2232 4.90215 38.75 6.17392 38.75 7.5ZM6.25 12.5C7.57608 12.5 8.84785 11.9732 9.78553 11.0355C10.7232 10.0979 11.25 8.82608 11.25 7.5C11.25 6.17392 10.7232 4.90215 9.78553 3.96447C8.84785 3.02678 7.57608 2.5 6.25 2.5C4.92392 2.5 3.65215 3.02678 2.71447 3.96447C1.77678 4.90215 1.25 6.17392 1.25 7.5C1.25 8.82608 1.77678 10.0979 2.71447 11.0355C3.65215 11.9732 4.92392 12.5 6.25 12.5ZM10 18.125C10 16.4 11.4 15 13.125 15H26.875C28.6 15 30 16.4 30 18.125V30C30 32.6522 28.9464 35.1957 27.0711 37.0711C25.1957 38.9464 22.6522 40 20 40C17.3478 40 14.8043 38.9464 12.9289 37.0711C11.0536 35.1957 10 32.6522 10 30V18.125ZM7.5 18.125C7.5 16.9675 7.85 15.895 8.4475 15H3.125C1.4 15 4.45951e-08 16.4 4.45951e-08 18.125V27.5C-0.000116665 28.5703 0.228846 29.6282 0.671504 30.6027C1.11416 31.5772 1.76026 32.4456 2.56639 33.1497C3.37251 33.8537 4.31999 34.3771 5.34517 34.6846C6.37034 34.9921 7.44945 35.0766 8.51 34.9325C7.84112 33.3742 7.49744 31.6958 7.5 30V18.125ZM32.5 30C32.5 31.75 32.14 33.42 31.49 34.9325C32.5505 35.0766 33.6297 34.9921 34.6548 34.6846C35.68 34.3771 36.6275 33.8537 37.4336 33.1497C38.2397 32.4456 38.8858 31.5772 39.3285 30.6027C39.7712 29.6282 40.0001 28.5703 40 27.5V18.125C40 16.4 38.6 15 36.875 15H31.5525C32.1525 15.895 32.5 16.9675 32.5 18.125V30Z" fill="#A772FF"/>
</svg>
