<svg width="12" height="13" viewBox="0 0 12 13" fill="none" xmlns="http://www.w3.org/2000/svg">
<path d="M8.5625 7.63281C8.44271 8.33594 8.13802 8.88281 7.64844 9.27344C7.15885 9.65885 6.57292 9.85156 5.89062 9.85156C5.03125 9.85156 4.29688 9.54427 3.6875 8.92969C3.07812 8.3151 2.77344 7.4974 2.77344 6.47656C2.77344 5.52344 3.04688 4.72656 3.59375 4.08594C4.14583 3.44531 4.86458 3.125 5.75 3.125C6.30729 3.125 6.8099 3.23698 7.25781 3.46094C8.03385 3.86198 8.45573 4.52865 8.52344 5.46094H7.57812C7.53125 5.07031 7.36719 4.73177 7.08594 4.44531C6.80469 4.15885 6.39583 4.01562 5.85938 4.01562C5.10417 4.01562 4.55729 4.35417 4.21875 5.03125C4 5.46354 3.89062 5.92969 3.89062 6.42969C3.89062 7.14323 4.0651 7.74479 4.41406 8.23438C4.76823 8.71875 5.27865 8.96094 5.94531 8.96094C6.3724 8.96094 6.72917 8.84896 7.01562 8.625C7.30208 8.39583 7.5026 8.0651 7.61719 7.63281H8.5625ZM5.74219 1.57031C4.38281 1.57031 3.22396 2.05469 2.26562 3.02344C1.3125 3.98698 0.835938 5.15104 0.835938 6.51562C0.835938 7.89062 1.3099 9.0625 2.25781 10.0312C3.21615 11 4.3776 11.4844 5.74219 11.4844C7.10677 11.4844 8.26823 11 9.22656 10.0312C10.1745 9.0625 10.6484 7.89062 10.6484 6.51562C10.6484 5.15104 10.1719 3.98698 9.21875 3.02344C8.26562 2.05469 7.10677 1.57031 5.74219 1.57031ZM11.4844 6.51562C11.4844 8.10417 10.9245 9.46094 9.80469 10.5859C8.6849 11.7109 7.33073 12.2734 5.74219 12.2734C4.15365 12.2734 2.79948 11.7109 1.67969 10.5859C0.559896 9.46094 0 8.10417 0 6.51562C0 4.93229 0.559896 3.58333 1.67969 2.46875C2.79948 1.35417 4.15365 0.796875 5.74219 0.796875C7.33073 0.796875 8.6849 1.35417 9.80469 2.46875C10.9245 3.58333 11.4844 4.93229 11.4844 6.51562Z" fill="#B5B5B5"/>
</svg>
