<svg width="23" height="16" viewBox="0 0 23 16" fill="none" xmlns="http://www.w3.org/2000/svg">
<path d="M7.67059 0C6.9384 0 4.73093 0.895508 4.33489 1.07447C3.93885 1.25344 3.49926 1.81211 3.00047 2.73416C2.501 3.6562 2.1002 4.73408 1.44899 6.31959C0.798451 7.9051 0.646704 10.9618 0.668479 11.8947C0.690255 12.8277 0.79709 13.5565 1.75316 14.1083C2.70855 14.6595 3.5537 15.2366 4.44309 15.5836C5.33315 15.9307 5.94014 16.1804 6.35251 15.8333C6.76488 15.4863 7.03639 14.8786 7.03639 14.8786C7.03639 14.8786 7.42698 14.3363 6.68934 14.011C5.9517 13.6851 5.58289 13.4571 5.61487 13.121C5.64753 12.7848 5.70129 12.6004 5.8857 12.6439C6.07011 12.6875 6.50493 13.468 8.1755 13.8259C9.84608 14.1839 11.4745 14.1301 11.4745 14.1301C11.4745 14.1301 13.1035 14.1846 14.7741 13.8259C16.4447 13.468 16.8788 12.6875 17.0632 12.6439C17.2476 12.6004 17.3014 12.7848 17.334 13.1203C17.3667 13.4571 16.9979 13.6851 16.2603 14.011C15.5226 14.3363 15.9132 14.8786 15.9132 14.8786C15.9132 14.8786 16.1847 15.4856 16.5971 15.8333C17.0088 16.1804 17.6164 15.9307 18.5058 15.5836C19.3952 15.2366 20.241 14.6602 21.1964 14.1083C22.1525 13.5565 22.2593 12.8277 22.2811 11.8947C22.3029 10.9625 22.1511 7.9051 21.4999 6.31959C20.8494 4.73408 20.4479 3.6562 19.9484 2.73416C19.4503 1.81211 19.0101 1.25344 18.6147 1.07379C18.2187 0.895508 16.0105 0 15.2783 0C14.5461 0 14.3297 0.510358 14.3297 0.510358L14.0746 1.07447C14.0746 1.07447 12.3598 0.748525 11.486 0.747845C10.6123 0.747845 8.87504 1.07447 8.87504 1.07447L8.61986 0.509678C8.61986 0.509678 8.40346 0 7.67059 0ZM7.75021 6.76939H7.77743C8.84509 6.76939 9.70998 7.70368 9.70998 8.85573C9.70998 10.0085 8.84509 10.9421 7.77743 10.9421C6.70976 10.9421 5.84487 10.0085 5.84487 8.85573C5.84419 7.71457 6.69343 6.78504 7.75021 6.76939ZM15.1722 6.76939H15.1994C16.2562 6.78504 17.1047 7.71525 17.1047 8.85573C17.1047 10.0085 16.2398 10.9421 15.1722 10.9421C14.1038 10.9421 13.2396 10.0085 13.2396 8.85573C13.2396 7.70368 14.1038 6.76939 15.1722 6.76939Z" fill="#07051B"/>
</svg>
