<svg width="44" height="40" viewBox="0 0 44 40" fill="none" xmlns="http://www.w3.org/2000/svg">
<path d="M42 23.9999H40C40 16.2599 33.74 9.99995 26 9.99995H24V7.45995C24.6082 7.10879 25.1133 6.60368 25.4644 5.9954C25.8154 5.38713 26.0002 4.69714 26 3.99482C25.9998 3.2925 25.8147 2.60261 25.4633 1.99452C25.1119 1.38642 24.6066 0.881571 23.9982 0.530723C23.3898 0.179875 22.6998 -0.0045997 21.9974 -0.00414957C21.2951 -0.00369944 20.6053 0.181659 19.9973 0.533287C19.3894 0.884915 18.8847 1.39042 18.5341 1.99896C18.1835 2.6075 17.9993 3.29763 18 3.99995C18 5.47995 18.8 6.77995 20 7.45995V9.99995H18C10.26 9.99995 4 16.2599 4 23.9999H2C0.9 23.9999 0 24.8999 0 25.9999V31.9999C0 33.0999 0.9 33.9999 2 33.9999H4V35.9999C4 37.0608 4.42143 38.0782 5.17157 38.8284C5.92172 39.5785 6.93913 39.9999 8 39.9999H36C38.22 39.9999 40 38.2199 40 35.9999V33.9999H42C43.1 33.9999 44 33.0999 44 31.9999V25.9999C44 24.8999 43.1 23.9999 42 23.9999ZM17.58 28.9999C16.8 27.2399 15.06 25.9999 13 25.9999C10.94 25.9999 9.2 27.2399 8.42 28.9999C8.16 28.3799 8 27.7199 8 26.9999C8 25.6739 8.52678 24.4021 9.46447 23.4644C10.4021 22.5267 11.6739 21.9999 13 21.9999C14.3261 21.9999 15.5979 22.5267 16.5355 23.4644C17.4732 24.4021 18 25.6739 18 26.9999C18 27.7199 17.84 28.3799 17.58 28.9999ZM35.58 28.9999C34.8 27.2399 33 25.9999 31 25.9999C29 25.9999 27.2 27.2399 26.42 28.9999C26.16 28.3799 26 27.7199 26 26.9999C26 25.6739 26.5268 24.4021 27.4645 23.4644C28.4021 22.5267 29.6739 21.9999 31 21.9999C32.3261 21.9999 33.5979 22.5267 34.5355 23.4644C35.4732 24.4021 36 25.6739 36 26.9999C36 27.7199 35.84 28.3799 35.58 28.9999Z" fill="#A772FF"/>
</svg>
