<svg width="48" height="48" viewBox="0 0 48 48" fill="none" xmlns="http://www.w3.org/2000/svg">
<g id="icon">
<path id="Vector" d="M45.4703 17.1629L41.4247 13.1173C41.0983 12.7953 40.6631 12.6072 40.2049 12.5903C39.7467 12.5733 39.2988 12.7286 38.9495 13.0256C38.4101 13.4846 37.7181 13.7243 37.0103 13.6972C36.3026 13.67 35.631 13.3779 35.1284 12.8789C34.6297 12.3764 34.3378 11.7049 34.3106 10.9974C34.2834 10.2899 34.523 9.59805 34.9818 9.0588C35.2787 8.70947 35.434 8.26155 35.4171 7.80336C35.4001 7.34518 35.2121 6.90997 34.8901 6.58357L30.8408 2.53337C30.4986 2.19182 30.0349 2 29.5514 2C29.0679 2 28.6042 2.19182 28.262 2.53337L21.8126 8.98179C21.4145 9.3814 21.1142 9.86774 20.9353 10.4028C20.9005 10.5056 20.8424 10.5991 20.7656 10.6759C20.6888 10.7527 20.5954 10.8107 20.4925 10.8455C19.9573 11.0244 19.4709 11.325 19.0715 11.7238L2.53337 28.262C2.19182 28.6042 2 29.0679 2 29.5514C2 30.0349 2.19182 30.4986 2.53337 30.8408L6.58357 34.8864C6.90997 35.2084 7.34518 35.3964 7.80336 35.4134C8.26155 35.4304 8.70947 35.2751 9.0588 34.9781C9.59683 34.5153 10.2899 34.273 10.999 34.2996C11.7082 34.3262 12.3811 34.6199 12.8829 35.1217C13.3847 35.6235 13.6784 36.2964 13.705 37.0056C13.7316 37.7147 13.4893 38.4078 13.0265 38.9458C12.7295 39.2951 12.5742 39.743 12.5912 40.2012C12.6081 40.6594 12.7962 41.0946 13.1182 41.421L17.1638 45.4666C17.506 45.8082 17.9697 46 18.4532 46C18.9367 46 19.4004 45.8082 19.7426 45.4666L36.2808 28.9285C36.6793 28.5293 36.9799 28.0432 37.159 27.5084C37.1937 27.4052 37.2518 27.3114 37.3288 27.2345C37.4058 27.1575 37.4995 27.0994 37.6027 27.0647C38.1375 26.8858 38.6235 26.5855 39.0228 26.1874L45.4712 19.738C45.8115 19.3959 46.0025 18.9328 46.0023 18.4503C46.0021 17.9677 45.8108 17.5048 45.4703 17.1629ZM24.5345 14.4447C24.3983 14.5809 24.2365 14.689 24.0586 14.7628C23.8806 14.8365 23.6898 14.8744 23.4972 14.8744C23.3045 14.8744 23.1137 14.8365 22.9358 14.7628C22.7578 14.689 22.5961 14.5809 22.4599 14.4447L21.4047 13.3895C21.1363 13.1131 20.9875 12.7421 20.9904 12.3568C20.9933 11.9715 21.1477 11.6028 21.4202 11.3304C21.6927 11.058 22.0614 10.9038 22.4467 10.9011C22.832 10.8983 23.2029 11.0473 23.4793 11.3158L24.5345 12.3701C24.6707 12.5063 24.7788 12.668 24.8525 12.846C24.9262 13.024 24.9642 13.2148 24.9642 13.4074C24.9642 13.6001 24.9262 13.7908 24.8525 13.9688C24.7788 14.1468 24.6707 14.3085 24.5345 14.4447ZM28.5682 18.4784C28.2931 18.7533 27.9202 18.9077 27.5313 18.9077C27.1425 18.9077 26.7695 18.7533 26.4945 18.4784L25.4861 17.47C25.3498 17.3338 25.2418 17.172 25.1681 16.9941C25.0943 16.8161 25.0564 16.6253 25.0564 16.4327C25.0564 16.24 25.0943 16.0493 25.1681 15.8713C25.2418 15.6933 25.3498 15.5316 25.4861 15.3954C25.7612 15.1203 26.1343 14.9657 26.5234 14.9657C26.716 14.9657 26.9068 15.0037 27.0847 15.0774C27.2627 15.1511 27.4244 15.2592 27.5607 15.3954L28.5691 16.4038C28.7058 16.54 28.8143 16.7018 28.8883 16.88C28.9624 17.0582 29.0006 17.2493 29.0007 17.4423C29.0007 17.6353 28.9627 17.8264 28.8888 18.0046C28.8149 18.1829 28.7066 18.3448 28.57 18.4812L28.5682 18.4784ZM32.6019 22.5121C32.4657 22.6484 32.3039 22.7564 32.126 22.8302C31.948 22.9039 31.7572 22.9418 31.5646 22.9418C31.3719 22.9418 31.1812 22.9039 31.0032 22.8302C30.8252 22.7564 30.6635 22.6484 30.5273 22.5121L29.5188 21.5037C29.2505 21.2272 29.1016 20.8563 29.1045 20.471C29.1074 20.0857 29.2618 19.717 29.5343 19.4446C29.8069 19.1722 30.1756 19.018 30.5609 19.0152C30.9462 19.0125 31.3171 19.1615 31.5934 19.43L32.6019 20.4384C32.739 20.5744 32.8479 20.7361 32.9223 20.9143C32.9968 21.0924 33.0353 21.2835 33.0357 21.4766C33.0362 21.6697 32.9985 21.861 32.9248 22.0395C32.8511 22.2179 32.7429 22.3801 32.6065 22.5167L32.6019 22.5121ZM36.675 26.5953C36.5388 26.7316 36.3771 26.8396 36.1991 26.9134C36.0211 26.9871 35.8303 27.0251 35.6377 27.0251C35.445 27.0251 35.2543 26.9871 35.0763 26.9134C34.8983 26.8396 34.7366 26.7316 34.6004 26.5953L33.5516 25.5411C33.4125 25.4053 33.3018 25.2432 33.2259 25.0642C33.15 24.8852 33.1105 24.6929 33.1095 24.4985C33.1086 24.3041 33.1463 24.1115 33.2205 23.9318C33.2947 23.7521 33.4039 23.5889 33.5416 23.4518C33.6794 23.3147 33.8431 23.2063 34.0232 23.133C34.2032 23.0597 34.396 23.0229 34.5904 23.0248C34.7848 23.0267 34.9769 23.0672 35.1555 23.1439C35.3341 23.2207 35.4957 23.3322 35.6308 23.472L36.6805 24.5253C36.8167 24.6616 36.9247 24.8233 36.9983 25.0013C37.072 25.1794 37.1099 25.3701 37.1098 25.5628C37.1097 25.7554 37.0717 25.9462 36.9978 26.1241C36.924 26.3021 36.8159 26.4638 36.6796 26.5999L36.675 26.5953Z" fill="#A772FF"/>
</g>
</svg>
