<svg width="44" height="44" viewBox="0 0 44 44" fill="none" xmlns="http://www.w3.org/2000/svg">
<path d="M43.4703 15.1629L39.4247 11.1173C39.0983 10.7953 38.6631 10.6072 38.2049 10.5903C37.7467 10.5733 37.2988 10.7286 36.9495 11.0256C36.4101 11.4846 35.7181 11.7243 35.0103 11.6972C34.3026 11.67 33.631 11.3779 33.1284 10.8789C32.6297 10.3764 32.3378 9.70492 32.3106 8.99743C32.2834 8.28994 32.523 7.59805 32.9818 7.0588C33.2787 6.70947 33.434 6.26155 33.4171 5.80336C33.4001 5.34518 33.2121 4.90997 32.8901 4.58357L28.8408 0.533367C28.4986 0.191823 28.0349 0 27.5514 0C27.0679 0 26.6042 0.191823 26.262 0.533367L19.8126 6.98179C19.4145 7.3814 19.1142 7.86774 18.9353 8.40275C18.9005 8.50562 18.8424 8.59907 18.7656 8.67586C18.6888 8.75265 18.5954 8.81072 18.4925 8.84555C17.9573 9.02441 17.4709 9.32504 17.0715 9.72379L0.533367 26.262C0.191823 26.6042 0 27.0679 0 27.5514C0 28.0349 0.191823 28.4986 0.533367 28.8408L4.58357 32.8864C4.90997 33.2084 5.34518 33.3964 5.80336 33.4134C6.26155 33.4304 6.70947 33.2751 7.0588 32.9781C7.59683 32.5153 8.28986 32.273 8.99902 32.2996C9.70819 32.3262 10.3811 32.6199 10.8829 33.1217C11.3847 33.6235 11.6784 34.2964 11.705 35.0056C11.7316 35.7147 11.4893 36.4078 11.0265 36.9458C10.7295 37.2951 10.5742 37.743 10.5912 38.2012C10.6081 38.6594 10.7962 39.0946 11.1182 39.421L15.1638 43.4666C15.506 43.8082 15.9697 44 16.4532 44C16.9367 44 17.4004 43.8082 17.7426 43.4666L34.2808 26.9285C34.6793 26.5293 34.9799 26.0432 35.159 25.5084C35.1937 25.4052 35.2518 25.3114 35.3288 25.2345C35.4058 25.1575 35.4995 25.0994 35.6027 25.0647C36.1375 24.8858 36.6235 24.5855 37.0228 24.1874L43.4712 17.738C43.8115 17.3959 44.0025 16.9328 44.0023 16.4503C44.0021 15.9677 43.8108 15.5048 43.4703 15.1629ZM22.5345 12.4447C22.3983 12.5809 22.2365 12.689 22.0586 12.7628C21.8806 12.8365 21.6898 12.8744 21.4972 12.8744C21.3045 12.8744 21.1137 12.8365 20.9358 12.7628C20.7578 12.689 20.5961 12.5809 20.4599 12.4447L19.4047 11.3895C19.1363 11.1131 18.9875 10.7421 18.9904 10.3568C18.9933 9.97151 19.1477 9.60282 19.4202 9.33043C19.6927 9.05804 20.0614 8.90381 20.4467 8.90108C20.832 8.89835 21.2029 9.04734 21.4793 9.31584L22.5345 10.3701C22.6707 10.5063 22.7788 10.668 22.8525 10.846C22.9262 11.024 22.9642 11.2148 22.9642 11.4074C22.9642 11.6001 22.9262 11.7908 22.8525 11.9688C22.7788 12.1468 22.6707 12.3085 22.5345 12.4447ZM26.5682 16.4784C26.2931 16.7533 25.9202 16.9077 25.5313 16.9077C25.1425 16.9077 24.7695 16.7533 24.4945 16.4784L23.4861 15.47C23.3498 15.3338 23.2418 15.172 23.1681 14.9941C23.0943 14.8161 23.0564 14.6253 23.0564 14.4327C23.0564 14.24 23.0943 14.0493 23.1681 13.8713C23.2418 13.6933 23.3498 13.5316 23.4861 13.3954C23.7612 13.1203 24.1343 12.9657 24.5234 12.9657C24.716 12.9657 24.9068 13.0037 25.0847 13.0774C25.2627 13.1511 25.4244 13.2592 25.5607 13.3954L26.5691 14.4038C26.7058 14.54 26.8143 14.7018 26.8883 14.88C26.9624 15.0582 27.0006 15.2493 27.0007 15.4423C27.0007 15.6353 26.9627 15.8264 26.8888 16.0046C26.8149 16.1829 26.7066 16.3448 26.57 16.4812L26.5682 16.4784ZM30.6019 20.5121C30.4657 20.6484 30.3039 20.7564 30.126 20.8302C29.948 20.9039 29.7572 20.9418 29.5646 20.9418C29.3719 20.9418 29.1812 20.9039 29.0032 20.8302C28.8252 20.7564 28.6635 20.6484 28.5273 20.5121L27.5188 19.5037C27.2505 19.2272 27.1016 18.8563 27.1045 18.471C27.1074 18.0857 27.2618 17.717 27.5343 17.4446C27.8069 17.1722 28.1756 17.018 28.5609 17.0152C28.9462 17.0125 29.3171 17.1615 29.5934 17.43L30.6019 18.4384C30.739 18.5744 30.8479 18.7361 30.9223 18.9143C30.9968 19.0924 31.0353 19.2835 31.0357 19.4766C31.0362 19.6697 30.9985 19.861 30.9248 20.0395C30.8511 20.2179 30.7429 20.3801 30.6065 20.5167L30.6019 20.5121ZM34.675 24.5953C34.5388 24.7316 34.3771 24.8396 34.1991 24.9134C34.0211 24.9871 33.8303 25.0251 33.6377 25.0251C33.445 25.0251 33.2543 24.9871 33.0763 24.9134C32.8983 24.8396 32.7366 24.7316 32.6004 24.5953L31.5516 23.5411C31.4125 23.4053 31.3018 23.2432 31.2259 23.0642C31.15 22.8852 31.1105 22.6929 31.1095 22.4985C31.1086 22.3041 31.1463 22.1115 31.2205 21.9318C31.2947 21.7521 31.4039 21.5889 31.5416 21.4518C31.6794 21.3147 31.8431 21.2063 32.0232 21.133C32.2032 21.0597 32.396 21.0229 32.5904 21.0248C32.7848 21.0267 32.9769 21.0672 33.1555 21.1439C33.3341 21.2207 33.4957 21.3322 33.6308 21.472L34.6805 22.5253C34.8167 22.6616 34.9247 22.8233 34.9983 23.0013C35.072 23.1794 35.1099 23.3701 35.1098 23.5628C35.1097 23.7554 35.0717 23.9462 34.9978 24.1241C34.924 24.3021 34.8159 24.4638 34.6796 24.5999L34.675 24.5953Z" fill="#A772FF"/>
</svg>
